<?xml version="1.0" encoding="UTF-8"?>
<svg xmlns="http://www.w3.org/2000/svg" xmlns:xlink="http://www.w3.org/1999/xlink" width="2112" height="2112" viewBox="0 0 2112 2112">

<path fill-rule="evenodd" fill="rgb(86.326599%, 70.896912%, 12.547302%)" fill-opacity="1" d="M 1434.039062 439.871094 C 1470.269531 439.5 1482.808594 467.878906 1478.339844 493.621094 C 1471.839844 532.519531 1422.640625 585.519531 1427.75 614.28125 C 1434.03125 648.5 1483.71875 696.710938 1470.410156 789.761719 C 1423.921875 1119.578125 1015.320312 1516.308594 650.78125 1472.917969 C 552.5625 1461.355469 480.453125 1387.953125 415.640625 1343.289062 C 396.585938 1329.875 389.71875 1306.609375 413.289062 1285.230469 C 463.445312 1239.226562 517.828125 1176.605469 590.386719 1165.574219 C 957.652344 1109.320312 1052.078125 985.640625 1187 688.390625 C 1218.410156 619.328125 1307.308594 586.5 1352.21875 575.289062 C 1368.429688 571.371094 1390.601562 515.058594 1394.050781 471.589844 C 1396.511719 441.429688 1415.949219 439.800781 1434.039062 439.871094 "/>
<path fill-rule="evenodd" fill="rgb(99.21875%, 90.234375%, 21.18988%)" fill-opacity="1" d="M 1434.039062 439.871094 C 1448.328125 439.550781 1458.878906 443.949219 1466.121094 450.71875 C 1441.460938 495.679688 1394.210938 557.039062 1398.289062 579.320312 C 1404.558594 613.539062 1420.289062 634.949219 1407.121094 727.710938 C 1360.488281 1057.820312 952.03125 1454.253906 587.351562 1411.160156 C 547.84375 1406.316406 508.941406 1397.601562 472.621094 1385.789062 C 452.746094 1370.707031 433.886719 1355.757812 415.640625 1343.289062 C 396.585938 1329.875 389.71875 1306.609375 413.289062 1285.230469 C 463.445312 1239.226562 517.828125 1176.605469 590.386719 1165.574219 C 957.652344 1109.320312 1052.078125 985.640625 1187 688.390625 C 1218.410156 619.328125 1307.308594 586.5 1352.21875 575.289062 C 1368.429688 571.371094 1390.601562 515.058594 1394.050781 471.589844 C 1396.511719 441.429688 1415.949219 439.800781 1434.039062 439.871094 "/>
<path fill-rule="evenodd" fill="rgb(86.326599%, 70.896912%, 12.547302%)" fill-opacity="1" d="M 1610.328125 506.878906 C 1645.890625 499.660156 1663.5 525.058594 1664.058594 551.25 C 1665.078125 590.710938 1626.859375 652.121094 1637.488281 679.199219 C 1650.230469 711.660156 1708.238281 749.398438 1713.03125 843.261719 C 1730.511719 1176.011719 1405.660156 1643.808594 1039.710938 1671.511719 C 941.222656 1678.84375 856.113281 1620.710938 784.179688 1589.269531 C 762.839844 1579.828125 751.695312 1558.296875 770.617188 1532.660156 C 811.183594 1478.019531 852.542969 1406.003906 921.488281 1381.078125 C 1271.019531 1255.503906 1340.160156 1115.9375 1415.550781 798.320312 C 1433.109375 724.539062 1514.070312 675.179688 1555.890625 655.761719 C 1570.960938 648.570312 1582 589.039062 1577.21875 545.75 C 1573.839844 515.648438 1592.511719 510.390625 1610.328125 506.878906 "/>
<path fill-rule="evenodd" fill="rgb(99.21875%, 90.234375%, 21.18988%)" fill-opacity="1" d="M 1610.328125 506.878906 C 1624.21875 504.019531 1635.261719 506.28125 1643.851562 511.359375 C 1628.148438 560.300781 1593.679688 629.679688 1601.96875 650.738281 C 1614.71875 683.199219 1634.050781 700.921875 1639.050781 794.691406 C 1656.53125 1127.449219 1331.679688 1595.242188 965.652344 1622.722656 C 925.957031 1625.765625 886.054688 1624.722656 848.082031 1620.085938 C 825.699219 1609.042969 804.5625 1598.066406 784.179688 1589.269531 C 762.839844 1579.828125 751.695312 1558.296875 770.617188 1532.660156 C 811.183594 1478.019531 852.542969 1406.003906 921.488281 1381.078125 C 1271.019531 1255.503906 1340.160156 1115.9375 1415.550781 798.320312 C 1433.109375 724.539062 1514.070312 675.179688 1555.890625 655.761719 C 1570.960938 648.570312 1582 589.039062 1577.21875 545.75 C 1573.839844 515.648438 1592.511719 510.390625 1610.328125 506.878906 "/>
</svg>
