<?xml version="1.0" encoding="UTF-8"?>
<svg xmlns="http://www.w3.org/2000/svg" xmlns:xlink="http://www.w3.org/1999/xlink" width="2835" height="2835" viewBox="0 0 2835 2835">

<path fill-rule="nonzero" fill="rgb(100%, 40.771484%, 0%)" fill-opacity="1" d="M 1956.738281 1697.539062 C 2073.390625 1663.269531 2225.738281 1501.601562 2225.738281 1307.328125 C 2225.738281 1088.089844 2086.128906 910.421875 1913.921875 910.421875 C 1741.710938 910.421875 1602.171875 1088.089844 1602.171875 1307.328125 C 1602.171875 1501.960938 1753.03125 1663.800781 1871.050781 1697.71875 C 1873.121094 1698.308594 1874.78125 1699.441406 1876.03125 1701.160156 C 1877.328125 1702.820312 1877.980469 1704.71875 1877.980469 1706.851562 C 1877.980469 1709.460938 1877.039062 1711.710938 1875.199219 1713.550781 C 1873.359375 1715.390625 1871.109375 1716.339844 1868.488281 1716.339844 L 1867.550781 1716.339844 C 1864.941406 1716.339844 1862.679688 1717.289062 1860.851562 1719.128906 C 1859.011719 1720.96875 1858.058594 1723.21875 1858.058594 1725.828125 L 1858.058594 1745.28125 C 1858.058594 1747.890625 1859.011719 1750.140625 1860.851562 1751.980469 C 1862.679688 1753.820312 1864.941406 1754.769531 1867.550781 1754.769531 L 1888.71875 1754.769531 C 1881.308594 1788.511719 1878.160156 1823.199219 1877.980469 1857.71875 C 1877.75 1914.292969 1885.21875 1970.628906 1894.171875 2026.375 C 1903.191406 2082.355469 1913.921875 2138.160156 1919.550781 2194.617188 C 1925.070312 2250.480469 1926.140625 2307.589844 1914.929688 2362.796875 C 1909.359375 2390.375 1900.519531 2417 1889.429688 2442.859375 C 1878.039062 2469.421875 1865.289062 2495.398438 1854.738281 2522.382812 C 1852.25 2528.90625 1849.871094 2535.429688 1847.621094 2542.070312 C 1845.789062 2547.585938 1849.761719 2553.753906 1855.089844 2555.234375 C 1860.910156 2556.839844 1866.421875 2553.28125 1868.261719 2547.761719 C 1886.230469 2493.859375 1916.238281 2444.8125 1930.699219 2389.605469 C 1945.179688 2334.039062 1947.128906 2275.921875 1943.039062 2218.871094 C 1938.828125 2161.109375 1928.808594 2104.003906 1919.199219 2047.011719 C 1909.949219 1992.394531 1901.589844 1937.417969 1899.75 1881.972656 C 1898.328125 1839.273438 1900.929688 1796.28125 1910.601562 1754.710938 L 1960.300781 1754.710938 C 1962.96875 1754.710938 1965.160156 1753.820312 1967.058594 1751.980469 C 1968.898438 1750.078125 1969.839844 1747.890625 1969.839844 1745.21875 L 1969.839844 1725.828125 C 1969.839844 1723.21875 1968.898438 1720.96875 1967.058594 1719.128906 C 1965.21875 1717.230469 1962.96875 1716.339844 1960.300781 1716.339844 L 1959.410156 1716.339844 C 1956.800781 1716.339844 1954.550781 1715.390625 1952.710938 1713.550781 C 1950.808594 1711.710938 1949.921875 1709.460938 1949.921875 1706.851562 L 1949.921875 1706.609375 C 1949.921875 1704.539062 1950.570312 1702.640625 1951.820312 1700.980469 C 1953.058594 1699.261719 1954.71875 1698.140625 1956.738281 1697.539062 "/>
<path fill-rule="nonzero" fill="rgb(100%, 100%, 100%)" fill-opacity="1" d="M 1669.179688 1235.511719 C 1669.421875 1228.160156 1670.011719 1220.871094 1670.960938 1213.511719 L 1670.488281 1216.890625 C 1672.441406 1202.660156 1675.761719 1188.78125 1680.511719 1175.261719 C 1681.871094 1171.46875 1683.289062 1167.671875 1684.839844 1164 C 1685.371094 1162.339844 1685.429688 1160.609375 1685.070312 1158.949219 C 1685.011719 1157.238281 1684.480469 1155.628906 1683.53125 1154.210938 C 1681.691406 1151.371094 1679.199219 1149.46875 1675.941406 1148.398438 C 1672.738281 1147.691406 1669.121094 1147.859375 1666.21875 1149.699219 L 1663.660156 1151.660156 C 1662.058594 1153.261719 1661 1155.101562 1660.398438 1157.238281 C 1656.488281 1166.539062 1653.28125 1176.089844 1650.800781 1185.878906 C 1648.070312 1196.671875 1646.171875 1207.578125 1644.980469 1218.609375 C 1644.390625 1224.25 1643.980469 1229.878906 1643.859375 1235.511719 C 1643.800781 1237.230469 1644.148438 1238.839844 1644.921875 1240.378906 C 1647.179688 1245.421875 1650.96875 1248.03125 1656.488281 1248.148438 C 1659.75 1248.03125 1663.128906 1246.898438 1665.441406 1244.46875 C 1667.820312 1241.921875 1669.058594 1238.949219 1669.121094 1235.511719 L 1669.179688 1235.511719 "/>
<path fill-rule="nonzero" fill="rgb(100%, 100%, 100%)" fill-opacity="1" d="M 1709.921875 1109.019531 L 1710.160156 1108.429688 L 1708.910156 1111.449219 C 1715.621094 1095.621094 1723.859375 1080.671875 1733.640625 1066.5 C 1736.308594 1062.589844 1739.160156 1058.671875 1742.058594 1054.941406 L 1740.109375 1057.488281 C 1751.261719 1043.078125 1763.769531 1029.910156 1777.519531 1018.050781 C 1781.441406 1014.671875 1785.410156 1011.410156 1789.511719 1008.261719 L 1786.949219 1010.21875 C 1801.71875 998.839844 1817.550781 988.988281 1834.28125 980.691406 C 1839.019531 978.378906 1843.828125 976.179688 1848.628906 974.171875 L 1845.601562 975.410156 C 1862.269531 968.351562 1879.46875 963.078125 1897.261719 959.578125 C 1902.238281 958.570312 1907.339844 957.679688 1912.441406 957.03125 L 1909.058594 957.5 C 1916.410156 956.488281 1923.828125 955.839844 1931.238281 955.488281 C 1934.738281 955.429688 1937.699219 954.179688 1940.191406 951.808594 C 1942.390625 949.621094 1944.050781 946 1943.871094 942.859375 C 1943.75 939.589844 1942.679688 936.210938 1940.191406 933.898438 C 1937.699219 931.648438 1934.621094 930.109375 1931.238281 930.21875 C 1910.539062 931.171875 1890.140625 934.429688 1870.21875 940.070312 C 1850.289062 945.699219 1831.25 953.46875 1812.988281 963.261719 C 1794.839844 973.039062 1777.878906 984.660156 1762.171875 998.011719 C 1746.449219 1011.410156 1732.339844 1026.300781 1719.820312 1042.660156 C 1707.789062 1058.320312 1697.699219 1075.101562 1689.578125 1093.011719 C 1688.160156 1096.089844 1686.851562 1099.238281 1685.550781 1102.320312 C 1685.011719 1103.980469 1684.949219 1105.699219 1685.308594 1107.359375 C 1685.429688 1109.078125 1685.898438 1110.621094 1686.851562 1112.050781 C 1688.339844 1114.710938 1691.421875 1117.210938 1694.441406 1117.859375 C 1697.640625 1118.628906 1701.261719 1118.449219 1704.171875 1116.609375 L 1706.71875 1114.648438 C 1708.320312 1113.050781 1709.390625 1111.210938 1709.980469 1109.078125 L 1709.921875 1109.019531 "/>
<path fill-rule="nonzero" fill="rgb(76.951599%, 9.790039%, 7.054138%)" fill-opacity="1" d="M 1437.011719 1066.859375 C 1553.71875 1032.578125 1706.011719 870.921875 1706.011719 676.648438 C 1706.011719 457.398438 1566.410156 279.730469 1394.25 279.730469 C 1222.039062 279.730469 1082.441406 457.398438 1082.441406 676.648438 C 1082.441406 871.28125 1233.371094 1033.109375 1351.378906 1067.039062 C 1353.390625 1067.628906 1355.050781 1068.75 1356.359375 1070.410156 C 1357.601562 1072.140625 1358.261719 1074.03125 1358.261719 1076.171875 C 1358.261719 1078.78125 1357.371094 1081.03125 1355.53125 1082.871094 C 1353.628906 1084.710938 1351.378906 1085.660156 1348.769531 1085.660156 L 1347.878906 1085.660156 C 1345.210938 1085.660156 1343.019531 1086.550781 1341.121094 1088.449219 C 1339.28125 1090.28125 1338.328125 1092.53125 1338.328125 1095.148438 L 1338.328125 1114.539062 C 1338.328125 1117.210938 1339.28125 1119.398438 1341.121094 1121.300781 C 1343.019531 1123.140625 1345.210938 1124.03125 1347.878906 1124.03125 L 1368.988281 1124.03125 C 1361.578125 1157.769531 1358.429688 1192.519531 1358.261719 1227.03125 C 1358.019531 1283.609375 1365.488281 1339.949219 1374.449219 1395.691406 C 1383.460938 1451.671875 1394.191406 1507.421875 1399.828125 1563.929688 C 1405.339844 1619.800781 1406.410156 1676.839844 1395.199219 1732.121094 C 1389.628906 1759.691406 1380.789062 1786.320312 1369.761719 1812.171875 C 1358.378906 1838.679688 1345.558594 1864.71875 1335.070312 1891.640625 C 1332.519531 1898.160156 1330.148438 1904.742188 1327.898438 1911.386719 C 1326.050781 1916.84375 1330.03125 1923.070312 1335.371094 1924.550781 C 1341.238281 1926.152344 1346.691406 1922.59375 1348.53125 1917.078125 C 1366.5 1863.171875 1396.558594 1814.128906 1410.980469 1758.859375 C 1425.511719 1703.300781 1427.398438 1645.238281 1423.308594 1588.191406 C 1419.160156 1530.429688 1409.078125 1473.320312 1399.46875 1416.269531 C 1390.21875 1361.648438 1381.859375 1306.738281 1380.019531 1251.289062 C 1378.601562 1208.589844 1381.210938 1165.539062 1390.929688 1124.03125 L 1440.628906 1124.03125 C 1443.238281 1124.03125 1445.488281 1123.140625 1447.328125 1121.238281 C 1449.171875 1119.398438 1450.121094 1117.140625 1450.121094 1114.539062 L 1450.121094 1095.148438 C 1450.121094 1092.480469 1449.171875 1090.28125 1447.328125 1088.390625 C 1445.488281 1086.550781 1443.238281 1085.601562 1440.628906 1085.601562 L 1439.679688 1085.601562 C 1437.070312 1085.601562 1434.820312 1084.710938 1432.980469 1082.808594 C 1431.078125 1080.96875 1430.191406 1078.71875 1430.191406 1076.109375 L 1430.191406 1075.929688 C 1430.191406 1073.800781 1430.839844 1071.960938 1432.089844 1070.238281 C 1433.390625 1068.578125 1434.988281 1067.449219 1437.011719 1066.859375 "/>
<path fill-rule="nonzero" fill="rgb(100%, 100%, 100%)" fill-opacity="1" d="M 1149.511719 604.828125 C 1149.691406 597.480469 1150.28125 590.179688 1151.230469 582.828125 L 1150.808594 586.210938 C 1152.769531 571.980469 1156.089844 558.101562 1160.839844 544.578125 C 1162.199219 540.78125 1163.628906 536.988281 1165.171875 533.25 C 1165.699219 531.589844 1165.761719 529.929688 1165.398438 528.210938 C 1164.570312 522.808594 1161.550781 519.308594 1156.328125 517.710938 C 1153.128906 517 1149.511719 517.179688 1146.609375 519.019531 L 1144.050781 520.980469 C 1142.449219 522.578125 1141.390625 524.410156 1140.789062 526.550781 C 1136.878906 535.859375 1133.679688 545.410156 1131.191406 555.191406 C 1128.460938 565.988281 1126.558594 576.898438 1125.378906 587.929688 C 1124.78125 593.558594 1124.371094 599.191406 1124.25 604.828125 C 1124.308594 608.269531 1125.609375 611.238281 1128.039062 613.671875 C 1130.480469 616.101562 1133.441406 617.339844 1136.878906 617.460938 C 1140.140625 617.339844 1143.519531 616.210938 1145.839844 613.78125 C 1148.210938 611.238281 1149.449219 608.269531 1149.511719 604.828125 "/>
<path fill-rule="nonzero" fill="rgb(100%, 100%, 100%)" fill-opacity="1" d="M 1190.25 478.339844 L 1190.488281 477.738281 L 1189.238281 480.769531 C 1195.941406 464.941406 1204.128906 449.929688 1213.910156 435.820312 C 1216.640625 431.839844 1219.488281 427.988281 1222.390625 424.191406 L 1220.429688 426.738281 C 1231.578125 412.390625 1244.039062 399.230469 1257.859375 387.308594 C 1261.710938 383.929688 1265.691406 380.71875 1269.78125 377.578125 L 1267.230469 379.539062 C 1282.050781 368.089844 1297.828125 358.25 1314.609375 350.011719 C 1319.351562 347.691406 1324.101562 345.5 1328.960938 343.480469 L 1325.941406 344.730469 C 1342.601562 337.671875 1359.800781 332.390625 1377.53125 328.839844 C 1382.570312 327.828125 1387.671875 327 1392.710938 326.351562 L 1389.390625 326.820312 C 1396.75 325.75 1404.160156 325.101562 1411.570312 324.800781 C 1415.011719 324.738281 1417.96875 323.5 1420.519531 321.128906 C 1422.71875 318.929688 1424.320312 315.320312 1424.199219 312.171875 C 1424.078125 308.910156 1422.949219 305.53125 1420.519531 303.210938 C 1418.03125 300.960938 1414.949219 299.359375 1411.570312 299.539062 C 1390.820312 300.488281 1370.46875 303.75 1350.488281 309.390625 C 1330.558594 315.078125 1311.53125 322.789062 1293.261719 332.628906 C 1275.109375 342.410156 1258.148438 353.980469 1242.441406 367.378906 C 1226.71875 380.71875 1212.671875 395.609375 1200.160156 411.980469 C 1188.121094 427.570312 1178.03125 444.359375 1169.910156 462.320312 C 1168.488281 465.410156 1167.179688 468.488281 1165.878906 471.640625 C 1165.339844 473.300781 1165.289062 474.960938 1165.640625 476.679688 C 1165.761719 478.398438 1166.230469 479.941406 1167.179688 481.359375 C 1168.660156 483.96875 1171.75 486.519531 1174.78125 487.171875 C 1177.980469 487.941406 1181.589844 487.769531 1184.5 485.929688 L 1187.050781 483.910156 C 1188.648438 482.371094 1189.71875 480.46875 1190.308594 478.339844 L 1190.25 478.339844 "/>
<path fill-rule="nonzero" fill="rgb(1.959229%, 67.771912%, 33.325195%)" fill-opacity="1" d="M 963.476562 1685.558594 C 1080.128906 1651.28125 1232.421875 1489.628906 1232.421875 1295.351562 C 1232.421875 1076.109375 1092.820312 898.441406 920.664062 898.441406 C 748.445312 898.441406 608.90625 1076.171875 608.90625 1295.351562 C 608.90625 1489.980469 759.769531 1651.878906 877.785156 1685.738281 C 879.863281 1686.328125 881.523438 1687.460938 882.769531 1689.179688 C 884.070312 1690.839844 884.726562 1692.738281 884.726562 1694.871094 C 884.726562 1697.480469 883.773438 1699.738281 881.9375 1701.570312 C 880.039062 1703.46875 877.84375 1704.359375 875.175781 1704.359375 L 874.285156 1704.359375 C 871.679688 1704.359375 869.421875 1705.308594 867.585938 1707.148438 C 865.6875 1708.980469 864.800781 1711.238281 864.800781 1713.851562 L 864.800781 1733.300781 C 864.800781 1735.910156 865.6875 1738.160156 867.585938 1740 C 869.421875 1741.839844 871.679688 1742.789062 874.285156 1742.789062 L 895.398438 1742.789062 C 887.988281 1776.53125 884.84375 1811.21875 884.726562 1845.738281 C 884.488281 1902.3125 891.898438 1958.652344 900.914062 2014.394531 C 909.925781 2070.4375 920.601562 2126.179688 926.234375 2182.636719 C 931.808594 2238.496094 932.875 2295.609375 921.671875 2350.820312 C 916.035156 2378.394531 907.199219 2405.023438 896.167969 2430.878906 C 884.785156 2457.445312 871.976562 2483.417969 861.480469 2510.40625 C 858.925781 2516.925781 856.554688 2523.507812 854.359375 2530.09375 C 852.523438 2535.605469 856.433594 2541.773438 861.832031 2543.257812 C 867.644531 2544.859375 873.160156 2541.300781 874.9375 2535.785156 C 892.90625 2481.878906 922.972656 2432.835938 937.386719 2377.621094 C 951.914062 2322.058594 953.871094 2263.9375 949.71875 2206.894531 C 945.566406 2149.1875 935.550781 2092.023438 925.878906 2035.03125 C 916.632812 1980.414062 908.269531 1925.441406 906.488281 1870.054688 C 905.0625 1827.289062 907.675781 1784.300781 917.339844 1742.789062 L 967.035156 1742.789062 C 969.644531 1742.789062 971.898438 1741.839844 973.738281 1740 C 975.636719 1738.109375 976.527344 1735.910156 976.527344 1733.238281 L 976.527344 1713.851562 C 976.527344 1711.238281 975.574219 1708.980469 973.738281 1707.148438 C 971.898438 1705.308594 969.644531 1704.359375 967.035156 1704.359375 L 966.085938 1704.359375 C 963.476562 1704.359375 961.222656 1703.410156 959.386719 1701.570312 C 957.546875 1699.738281 956.601562 1697.480469 956.601562 1694.871094 L 956.601562 1694.640625 C 956.601562 1692.558594 957.25 1690.660156 958.5 1689 C 959.804688 1687.28125 961.464844 1686.148438 963.476562 1685.558594 "/>
<path fill-rule="nonzero" fill="rgb(100%, 100%, 100%)" fill-opacity="1" d="M 675.921875 1223.589844 C 676.097656 1216.238281 676.691406 1208.890625 677.695312 1201.589844 L 677.222656 1204.910156 C 679.121094 1190.738281 682.441406 1176.800781 687.246094 1163.28125 C 688.550781 1159.488281 690.035156 1155.75 691.574219 1152.019531 C 692.109375 1150.351562 692.167969 1148.691406 691.8125 1146.980469 C 691.695312 1145.261719 691.21875 1143.710938 690.269531 1142.289062 C 688.433594 1139.449219 685.882812 1137.488281 682.679688 1136.480469 C 679.417969 1135.710938 675.859375 1135.890625 672.953125 1137.71875 L 670.402344 1139.738281 C 668.800781 1141.28125 667.734375 1143.121094 667.144531 1145.308594 C 663.230469 1154.621094 660.027344 1164.109375 657.535156 1173.898438 C 654.808594 1184.691406 652.847656 1195.601562 651.726562 1206.691406 C 651.132812 1212.269531 650.714844 1217.898438 650.597656 1223.53125 C 650.660156 1227.03125 651.902344 1229.941406 654.394531 1232.371094 C 656.824219 1234.800781 659.789062 1236.109375 663.230469 1236.160156 C 666.492188 1236.050781 669.867188 1234.980469 672.183594 1232.488281 C 674.554688 1230 675.800781 1227.03125 675.859375 1223.53125 L 675.921875 1223.589844 "/>
<path fill-rule="nonzero" fill="rgb(100%, 100%, 100%)" fill-opacity="1" d="M 716.660156 1097.101562 L 716.894531 1096.449219 L 715.652344 1099.46875 C 722.355469 1083.640625 730.597656 1068.699219 740.320312 1054.519531 C 743.046875 1050.609375 745.898438 1046.75 748.800781 1042.960938 L 746.84375 1045.511719 C 757.992188 1031.101562 770.449219 1017.929688 784.265625 1006.070312 C 788.179688 1002.691406 792.15625 999.429688 796.1875 996.289062 L 793.636719 998.25 C 808.460938 986.859375 824.238281 977.011719 841.019531 968.710938 C 845.761719 966.398438 850.503906 964.210938 855.367188 962.191406 L 852.347656 963.429688 C 869.007812 956.429688 886.207031 951.101562 903.941406 947.601562 C 909.039062 946.589844 914.078125 945.761719 919.117188 945.050781 L 915.800781 945.519531 C 923.152344 944.519531 930.566406 943.859375 937.980469 943.511719 C 941.417969 943.449219 944.445312 942.261719 946.929688 939.828125 C 949.363281 937.339844 950.609375 934.371094 950.609375 930.878906 C 950.488281 927.609375 949.421875 924.238281 946.929688 921.980469 C 944.445312 919.671875 941.359375 918.121094 937.980469 918.25 C 917.222656 919.191406 896.882812 922.449219 876.953125 928.148438 C 857.027344 933.78125 837.933594 941.550781 819.671875 951.328125 C 801.523438 961.121094 784.5625 972.738281 768.847656 986.089844 C 753.132812 999.488281 739.015625 1014.371094 726.5625 1030.738281 C 714.523438 1046.398438 704.386719 1063.179688 696.261719 1081.089844 C 694.839844 1084.171875 693.535156 1087.320312 692.230469 1090.398438 C 691.695312 1092.058594 691.636719 1093.78125 691.988281 1095.441406 C 692.109375 1097.160156 692.582031 1098.699219 693.535156 1100.121094 C 695.3125 1103.089844 697.800781 1105.050781 701.125 1105.941406 C 704.386719 1106.710938 707.941406 1106.53125 710.851562 1104.691406 L 713.457031 1102.738281 C 715 1101.140625 716.066406 1099.289062 716.660156 1097.160156 L 716.660156 1097.101562 "/>
</svg>
