<?xml version="1.0" encoding="utf-8"?>
<!-- Generator: Adobe Illustrator 27.5.0, SVG Export Plug-In . SVG Version: 6.00 Build 0)  -->
<svg version="1.1" id="Layer_1" xmlns="http://www.w3.org/2000/svg" xmlns:xlink="http://www.w3.org/1999/xlink" x="0px" y="0px"
	 viewBox="0 0 4000 4000" xml:space="preserve">
<g>
	<g>
		<g>
			<circle style="fill:#F4F4F4;" cx="2000" cy="2000" r="1052.107"/>
		</g>
		<g>
			<g>
				<path style="fill:#E825AD;" d="M1507.889,1385.695c0,0-210.732-34.085-399.166,55.108
					c-130.032,195.144-168.586,420.723-155.718,663.409c58.005-461.9,504.336-531.894,504.336-531.894L1507.889,1385.695z"/>
			</g>
		</g>
		<g>
			<g>
				<path style="fill:#FFD836;" d="M2349.583,1007.364c-254.674,0-489.066,324.925-489.066,324.925l-219.93-27.62
					c0,0,13.529-211.477,134.797-332.745C1975.151,925.704,2164.87,949.178,2349.583,1007.364z"/>
			</g>
		</g>
		<g style="opacity:0.64;">
			<path style="fill:#FFFFFF;" d="M2284.421,1061.401c-430.852-232.549-1079.249,166.611-1216.859,598.485
				C1225.362,1400.21,1694.793,992.864,2284.421,1061.401z"/>
		</g>
		<g>
			<g>
				<path style="fill:#56CC0A;" d="M2658.651,2820.384c130.812-566.42-229.177-1021.051-733.094-1256.153v-160.722
					c613.878-35.405,1115.786,214.257,1115.786,747.433C2990.017,2447.804,2855.006,2663.752,2658.651,2820.384z"/>
			</g>
		</g>
		<g>
			<g>
				<path style="fill:#39D5FF;" d="M2056.818,3052.107c-359.413-458.924-302.248-1349.903-302.248-1349.903l-239.674-42.318
					c0,0-341.811,436.613-116.019,1203.609C1603.92,2998.218,1822.325,3065.666,2056.818,3052.107z"/>
			</g>
		</g>
		<g>
			<path style="fill:#4D1C54;" d="M1999.999,3077.107c-287.705,0-558.193-112.039-761.631-315.479
				C1034.931,2558.191,922.895,2287.705,922.895,2000s112.036-558.191,315.474-761.628
				c203.438-203.44,473.926-315.478,761.631-315.478s558.193,112.039,761.631,315.478
				c203.438,203.438,315.479,473.923,315.479,761.628s-112.041,558.191-315.479,761.628
				C2558.192,2965.068,2287.704,3077.107,1999.999,3077.107z M1999.999,972.893c-566.348,0-1027.104,460.759-1027.104,1027.107
				s460.757,1027.107,1027.104,1027.107S3027.108,2566.348,3027.108,2000S2566.347,972.893,1999.999,972.893z"/>
		</g>
		<g>
			
				<ellipse transform="matrix(0.9613 -0.2756 0.2756 0.9613 -348.6232 526.1172)" style="fill:#39D5FF;" cx="1697.578" cy="1503.437" rx="249.917" ry="206.777"/>
		</g>
		<g>
			<path style="fill:#4D1C54;" d="M1672.568,1738.904c-40.083,0.002-79.121-7.81-114.575-23.303
				c-63.086-27.568-107.368-76.006-124.683-136.392c-17.314-60.383-5.43-124.927,33.467-181.738
				c37.891-55.342,97.168-96.833,166.919-116.833c69.761-20.002,142.017-16.221,203.467,10.635
				c63.091,27.568,107.373,76.008,124.688,136.394c35.224,122.852-54.673,256.79-200.391,298.569
				C1731.943,1734.7,1701.972,1738.904,1672.568,1738.904z M1722.616,1317.957c-24.776,0-50.108,3.567-75.142,10.742
				c-58.589,16.802-108.11,51.255-139.439,97.019c-30.327,44.292-39.795,93.909-26.66,139.709
				c13.13,45.803,47.451,82.864,96.641,104.358c50.82,22.209,111.069,25.181,169.663,8.389
				c119.214-34.182,193.73-140.378,166.104-236.729l0,0c-13.13-45.801-47.451-82.864-96.641-104.358
				C1788.036,1324.368,1755.829,1317.957,1722.616,1317.957z"/>
		</g>
		<g style="opacity:0.64;">
			<path style="fill:#FFFFFF;" d="M1490.041,2075.947c363.282,14.181,654.179-119.918,814.913-520.662
				c0,0,20.376-153.223,117.814-153.223s192.645,104.132,151.736,388.265c-40.909,284.132-220.165,452.231-397.19,556.364
				c-177.025,104.132-588.473,111.937-743.802-43.392C1278.184,2147.969,1377.727,2062.559,1490.041,2075.947z"/>
		</g>
		<g>
			<path style="fill:#4D1C54;" d="M3041.342,2175.94c-13.809,0-25-11.194-25-25c0-191.914-66.152-351.67-196.616-474.827
				c-192.578-181.79-509.614-269.744-892.729-247.646c-13.604,0.83-25.6-9.731-26.401-23.518
				c-0.791-13.784,9.736-25.603,23.521-26.399c192.52-11.104,370.327,5.132,528.506,48.254
				c164.058,44.724,299.116,116.37,401.431,212.952c140.864,132.976,212.29,304.963,212.29,511.184
				C3066.342,2164.746,3055.15,2175.94,3041.342,2175.94z"/>
		</g>
		<g style="opacity:0.21;">
			<path style="fill:#4D1C54;" d="M2977.641,2000.004c0,539.95-437.7,977.65-977.65,977.65s-977.65-437.7-977.65-977.65
				c0-40.7,2.5-80.8,7.3-120.2c66.05,407.351,419.4,718.4,845.4,718.4c473,0,856.45-383.45,856.45-856.45
				c0-222.55-84.9-425.25-224.05-577.55C2789.341,1335.704,2977.641,1645.854,2977.641,2000.004z"/>
		</g>
		<g>
			<path style="fill:#4D1C54;" d="M2658.676,2845.388c-1.865,0-3.755-0.21-5.649-0.647c-13.452-3.105-21.841-16.531-18.735-29.983
				c137.158-593.889-281.641-1023.682-719.307-1227.871c-12.51-5.837-17.92-20.713-12.085-33.225
				c5.84-12.517,20.708-17.92,33.227-12.087c267.754,124.919,480.439,302.322,615.068,513.027
				c148.945,233.115,194.526,499.863,131.816,771.406C2680.341,2837.568,2670.053,2845.388,2658.676,2845.388z"/>
		</g>
		<g>
			<path style="fill:#4D1C54;" d="M953.036,2129.214c-1.035,0-2.085-0.063-3.145-0.198c-13.701-1.719-23.408-14.221-21.689-27.92
				c31.177-248.271,172.383-385.645,285.352-457.166c121.811-77.122,235.151-95.562,239.917-96.309
				c13.618-2.17,26.431,7.188,28.569,20.825c2.139,13.63-7.173,26.414-20.796,28.567l0,0
				c-1.079,0.171-109.326,18.027-222.529,90.168c-150.127,95.671-237.91,237.029-260.903,420.144
				C976.225,2119.968,965.458,2129.214,953.036,2129.214z"/>
		</g>
		<g>
			<path style="fill:#4D1C54;" d="M1108.739,1465.808c-9.36,0-18.34-5.283-22.612-14.309c-5.908-12.48-0.576-27.385,11.904-33.293
				c193.223-91.46,404.937-58.63,413.848-57.19c13.633,2.205,22.896,15.042,20.688,28.672c-2.197,13.621-14.98,22.908-28.652,20.691
				l0,0c-2.036-0.325-205.64-31.636-384.497,53.022C1115.966,1465.034,1112.323,1465.808,1108.739,1465.808z"/>
		</g>
		<g>
			<path style="fill:#4D1C54;" d="M1860.497,1357.288c-5.073,0-10.186-1.538-14.609-4.731c-11.191-8.079-13.721-23.696-5.645-34.893
				c9.873-13.689,244.912-335.298,509.341-335.298c13.809,0,25,11.194,25,25s-11.191,25-25,25
				c-238.789,0-466.523,311.411-468.799,314.558C1875.898,1353.689,1868.251,1357.288,1860.497,1357.288z"/>
		</g>
		<g>
			<path style="fill:#4D1C54;" d="M1640.609,1329.661c-0.542,0-1.089-0.017-1.636-0.054c-13.774-0.891-24.219-12.764-23.34-26.536
				c0.581-9.019,15.591-222.341,142.075-348.826c9.756-9.761,25.596-9.761,35.352,0c9.766,9.763,9.766,25.593,0,35.357
				c-112.983,112.983-127.397,314.656-127.529,316.68C1664.667,1319.502,1653.671,1329.661,1640.609,1329.661z"/>
		</g>
		<g>
			<path style="fill:#4D1C54;" d="M2056.835,3077.107c-7.422,0-14.766-3.289-19.697-9.585
				c-189.292-241.704-262.769-600.942-291.074-859.744c-30.518-279.038-16.587-504.924-16.445-507.175
				c0.884-13.774,12.861-24.265,26.548-23.345c13.779,0.881,24.233,12.766,23.354,26.545
				c-0.142,2.212-13.804,224.495,16.338,499.385c27.642,252.056,98.765,601.267,280.645,833.503
				c8.511,10.872,6.601,26.584-4.268,35.098C2067.66,3075.371,2062.231,3077.107,2056.835,3077.107z"/>
		</g>
		<g>
			<path style="fill:#4D1C54;" d="M1398.866,2888.503c-10.806,0-20.767-7.058-23.975-17.947
				c-118.306-401.89-79.849-712.996-26.758-903.21c57.9-207.424,143.462-318.254,147.075-322.871
				c8.516-10.869,24.224-12.788,35.098-4.275c10.864,8.506,12.783,24.207,4.292,35.076c-1.113,1.436-84.131,109.744-139.053,308.198
				c-50.767,183.455-87.241,483.826,27.314,872.961c3.896,13.245-3.682,27.144-16.924,31.042
				C1403.578,2888.171,1401.2,2888.503,1398.866,2888.503z"/>
		</g>
	</g>
</g>
</svg>
