<?xml version="1.0" encoding="utf-8"?>
<!-- Generator: Adobe Illustrator 27.5.0, SVG Export Plug-In . SVG Version: 6.00 Build 0)  -->
<svg version="1.1" id="Capa_1" xmlns="http://www.w3.org/2000/svg" xmlns:xlink="http://www.w3.org/1999/xlink" x="0px" y="0px"
	 viewBox="0 0 2122 2122" style="enable-background:new 0 0 2122 2122;" xml:space="preserve">
<g>
	<path style="fill:#6F4B99;" d="M1764.765,1726.728c0.702-0.451,1.415-0.868,2.112-1.332
		c65.807-43.872,83.589-132.786,39.717-198.593c-25.632-38.447-66.642-60.467-109.433-63.411
		c49.045-47.129,58.881-123.991,19.827-182.572c-21.102-31.653-52.633-52.157-86.994-60.071
		c42.767-47.487,49.73-119.601,12.653-175.216c-31.895-47.84-87.589-70.267-140.908-62.108
		c-1.194-35.542-11.945-71.201-33.122-102.965c-9.488-14.232-20.501-26.836-32.676-37.746
		c79.973-63.314,99.279-178.443,41.697-264.814c-29.512-44.266-73.78-72.756-121.923-83.406
		c26.696-45.769,26.865-104.633-4.507-151.691c-43.873-65.807-132.786-83.589-198.594-39.716
		c-38.28,25.52-60.269,66.284-63.367,108.872c-38.295-22.057-83.107-30.761-126.901-24.541
		c-4.692-105.72-86.525-223.595-86.525-223.595S724.48,267.039,703.059,380.585c-0.994,5.268-1.598,10.441-2.023,15.563
		c-21.678-53.986-39.617-111.236-49.778-165.438c-2.451-13.078-40.771-27.161-64.672-31.144
		c-10.328-1.721-14.321,7.477-13.832,10.103c5.448,29.264,13.401,57.908,23.358,85.858c-9.895-5.897-20.732-10.891-32.733-14.538
		c-110.555-33.604-272.72,54.67-272.72,54.67s86.203,161.638,196.759,195.241c8.494,2.582,16.884,4.334,25.137,5.366
		c5.502,0.689,10.942,1.058,16.311,1.142c24.161,0.376,46.874-5.038,67.218-13.208c40.689-16.34,71.898-43.7,86.244-57.807
		c25.334,43.477,46.297,80.327,76.694,120.121c-54.666-16.554-116.033-9.441-167.268,24.717
		c-70.419,46.948-101.009,131.206-83.11,209.074c-44.622-22.694-99.851-21.324-144.471,8.424
		c-65.807,43.872-83.59,132.786-39.716,198.593c41.352,62.027,122.711,81.364,187.029,46.645
		c0.789,36.315,11.52,72.843,33.162,105.305c60.083,90.123,181.266,115.025,271.961,56.486
		c5.494,17.405,13.449,34.347,24.083,50.296c24.285,36.427,58.566,62.174,96.771,76.098c-25.624,45.495-25.39,103.393,5.557,149.812
		c39.082,58.62,113.889,79.088,176.281,51.859c-5.044,33.899,1.986,69.708,22.495,100.47c39.12,58.681,114.045,79.13,176.476,51.774
		c-13.701,40.609-9.135,86.891,16.477,125.308c42.486,63.728,127.211,82.415,192.287,43.689c1.663,2.918,3.399,5.812,5.29,8.65
		c43.873,65.807,132.787,83.589,198.594,39.716c65.807-43.873,83.588-132.786,39.716-198.593
		C1768.769,1732.035,1766.79,1729.354,1764.765,1726.728z"/>
	<path style="fill:#96A925;" d="M880.525,418.711c25.46-16.974,53.422-27.261,81.821-31.294
		c-4.692-105.72-86.525-223.595-86.525-223.595S724.48,267.039,703.059,380.585c-0.994,5.268-1.598,10.441-2.023,15.563
		c0,0,0,0,0,0.001c10.232,25.482,21.289,50.243,32.77,73.601c14.843,30.195,37.998,69.13,58.283,100.629
		c0.291,0.229,0.51,0.393,0.785,0.606C796.655,511.475,827.079,454.342,880.525,418.711z"/>
	<path style="fill:#788F2F;" d="M813.377,494.813l62.444-330.99c0,0-151.341,103.216-172.762,216.762
		c-0.994,5.268-1.598,10.441-2.023,15.564c10.232,25.482,21.289,50.243,32.77,73.601c14.843,30.195,37.998,69.13,58.283,100.63
		c0.291,0.228,0.51,0.393,0.785,0.606c0,0,0,0,0-0.001C794.553,544.564,801.511,518.623,813.377,494.813z"/>
	<path style="fill:#96A925;" d="M596.111,295.527c-9.895-5.897-20.732-10.891-32.733-14.538
		c-110.555-33.604-272.72,54.67-272.72,54.67s86.203,161.638,196.759,195.241c90.605,27.54,169.407-39.429,194.91-64.508
		c-6.841-11.742-13.984-23.939-21.745-36.841C635.025,387.061,612.763,342.266,596.111,295.527z"/>
	<path style="fill:#7C5DA4;" d="M1466.335,1256.252c-10.046-4.362-19.642-9.883-28.559-16.544
		c-10.298-7.694-19.684-16.897-27.833-27.528c-1.932-2.52-3.82-5.09-5.607-7.771c-12.878-19.317-20.403-40.628-23.001-62.203
		c-0.766-6.36-1.118-12.74-1.029-19.102c0.022-1.618,0.068-3.235,0.146-4.85c-54.19-30.736-123.297-30.556-178.671,6.361
		c-61.287,40.859-87.551,114.553-71.032,182.192c19.74,10.745,37.247,26.279,50.58,46.277
		c11.676,17.514,18.943,36.669,22.142,56.172c55.328,35.899,128.956,37.774,187.318-1.135
		C1443,1373.315,1469.755,1314.676,1466.335,1256.252z"/>
	<path style="fill:#846AAD;" d="M1409.943,1212.181c-1.932-2.52-3.82-5.09-5.607-7.771c-12.878-19.317-20.403-40.628-23.001-62.203
		c-0.766-6.36-1.118-12.74-1.029-19.102c-44.275-30.985-104.782-33.531-152.455-1.748c-62.091,41.394-78.868,125.286-37.474,187.376
		c41.396,62.09,125.287,78.868,187.378,37.473c37.248-24.832,58.164-64.961,60.021-106.499
		C1427.478,1232.015,1418.092,1222.811,1409.943,1212.181z"/>
	<path style="fill:#7C5DA4;" d="M1508.441,1807.549c1.839-38.473,19.139-75.739,49.904-102.023
		c3.812-3.257,7.827-6.347,12.051-9.248c-2.898-6.685-6.393-13.217-10.579-19.494c-37.762-56.642-114.292-71.948-170.935-34.185
		c-56.642,37.762-71.947,114.293-34.185,170.935c35.24,52.856,104.231,69.699,159.324,41.031
		C1509.495,1839.141,1507.69,1823.248,1508.441,1807.549z"/>
	<path style="fill:#846AAD;" d="M1407.745,1640.241c-44.923,29.95-57.062,90.647-27.112,135.57
		c28.259,42.388,83.88,55.544,127.808,31.738c1.839-38.473,19.139-75.739,49.904-102.023c-2.199-13.252-7.095-26.269-15.031-38.173
		C1513.365,1622.43,1452.668,1610.292,1407.745,1640.241z"/>
	<path style="fill:#7C5DA4;" d="M982.736,1313.369c33.983-22.656,74.118-28.83,111.04-20.481
		c-0.384-24.145,3.619-48.168,11.816-70.824c9.011-24.901,23.077-48.115,41.815-68.026c9.217-9.794,19.568-18.776,31.019-26.76
		c-3.637-23.854-12.386-47.312-26.654-68.714c-52.194-78.288-157.97-99.442-236.258-47.249
		c-78.289,52.193-99.442,157.97-47.249,236.258c25.602,38.401,64.104,63.016,105.921,72.01
		C976.95,1317.436,979.777,1315.342,982.736,1313.369z"/>
	<path style="fill:#7C5DA4;" d="M1165.554,848.755c8.34-8.138,17.494-15.662,27.481-22.416
		c-4.188-21.465-12.586-42.477-25.475-61.811c-52.192-78.288-157.969-99.442-236.257-47.249
		c-78.289,52.193-99.442,157.969-47.25,236.258c11.172,16.758,24.814,30.875,40.1,42.238
		c59.703-26.954,127.962-22.033,182.484,10.368c-1.944-24.412,0.651-48.922,7.564-72.245
		C1123.595,902.215,1140.947,872.766,1165.554,848.755z"/>
	<path style="fill:#7C5DA4;" d="M849.236,1054.621c9.534-12.237,20.64-23.489,33.254-33.463
		c-3.574-24.082-12.361-47.776-26.762-69.376c-52.194-78.288-157.969-99.442-236.258-47.249
		c-78.287,52.193-99.442,157.97-47.248,236.258c52.053,78.079,157.398,99.312,235.623,47.649
		c-1.753-28.875,2.841-57.79,13.369-84.626C828.077,1086.323,837.459,1069.736,849.236,1054.621z"/>
	<path style="fill:#7C5DA4;" d="M570.005,923.86c-7.381-6.573-14.342-13.761-20.796-21.56c-4.351-5.258-8.48-10.783-12.348-16.586
		c-2.838-4.257-5.428-8.604-7.894-12.991c-3.868-6.88-7.313-13.898-10.28-21.037c-2.962-7.129-5.475-14.365-7.553-21.679
		c-0.471-1.656-0.908-3.317-1.335-4.98c-39.485-23.349-90.485-23.63-131.207,3.519c-56.642,37.763-71.948,114.293-34.184,170.935
		c37.609,56.411,113.663,71.805,170.236,34.626c7.13-39.228,26.016-76.26,55.543-105.388
		C570.156,927.1,570.099,925.481,570.005,923.86z"/>
	<path style="fill:#7C5DA4;" d="M1155.01,473.605c8.415,12.623,15.13,25.875,20.314,39.476c8.387,4.674,17.25,8.331,26.406,10.927
		c0.481-0.327,0.937-0.678,1.423-1.001c37.388-24.927,80.172-35.425,121.811-32.861c38.661-40.818,45.511-104.295,13.003-153.056
		c-37.762-56.642-114.293-71.947-170.935-34.184c-42.666,28.444-61.865,78.884-52.609,126.252
		C1129.761,441.505,1143.509,456.355,1155.01,473.605z"/>
	<path style="fill:#7C5DA4;" d="M866.24,666.123c3.441,5.16,6.569,10.435,9.464,15.783c12.925,12.691,27.588,22.979,43.325,30.795
		c54.747-33.041,119.707-36.506,175.498-14.3c7.436-5.351,14.33-11.186,20.643-17.459c1.595-45.571,18.822-90.102,50.077-125.071
		c-0.764-31.101-10.002-62.364-28.536-90.163c-52.194-78.288-157.97-99.442-236.258-47.249
		c-72.789,48.527-96.149,143.363-57.127,219.371C851.66,646.407,859.368,655.816,866.24,666.123z"/>
	<path style="fill:#7C5DA4;" d="M614.047,896.04c59.53-32.791,129.865-31.863,187.156-1.915
		c8.003-5.378,15.379-11.337,22.162-17.752c1.439-47.298,19.765-93.508,53.09-129.17c-0.967-30.708-10.217-61.531-28.514-88.976
		c-52.193-78.288-157.969-99.442-236.258-47.249c-78.287,52.193-99.442,157.97-47.249,236.258
		C577.874,867.396,594.884,883.735,614.047,896.04z"/>
	<path style="fill:#7C5DA4;" d="M1223.081,522.756c-77.878,51.919-99.189,156.85-48.034,235.011
		c3.78,4.685,7.408,9.55,10.813,14.657c0.138,0.207,0.258,0.42,0.396,0.627c11.603,14.074,25.128,25.827,39.906,35.214
		c55.799-23.916,118.62-20.379,170.557,7.122c5.222-2.746,10.355-5.78,15.372-9.124c78.287-52.194,99.442-157.97,47.248-236.258
		C1407.146,491.716,1301.37,470.563,1223.081,522.756z"/>
	<path style="fill:#7C5DA4;" d="M1212.852,1108.014c54.778-23.847,116.428-21.098,167.977,4.861
		c3.582-41.929,25.49-81.9,63.225-107.058c10.615-7.077,21.837-12.527,33.369-16.452c5.234-39.519-3.255-81.026-27.105-116.8
		c-52.193-78.288-157.969-99.442-236.258-47.249c-78.289,52.193-99.442,157.97-47.249,236.257
		C1179.41,1080.47,1195.151,1096.003,1212.852,1108.014z"/>
	<path style="fill:#7C5DA4;" d="M1424.287,1176.571c25.547,38.319,68.835,57.687,111.707,54.536
		c15.155-7.279,31.125-11.668,47.213-13.306c4.085-2.106,8.101-4.437,12.015-7.046c56.643-37.762,71.947-114.293,34.185-170.935
		c-37.762-56.643-114.292-71.948-170.935-34.185C1401.83,1043.398,1386.525,1119.928,1424.287,1176.571z"/>
	<path style="fill:#7C5DA4;" d="M1532.813,1240.923c-49.366,32.913-67.319,95.271-46.118,148.247
		c44.088,1.918,86.695,24.09,113.05,63.62c2.991,4.488,5.669,9.09,8.092,13.771c21.338-1.133,42.659-7.805,61.727-20.517
		c56.642-37.762,71.947-114.293,34.185-170.935C1665.986,1218.466,1589.456,1203.16,1532.813,1240.923z"/>
	<path style="fill:#7C5DA4;" d="M1176.625,1469.139c18.188-37.94,16.498-84.218-8.535-121.766
		c-37.762-56.643-114.293-71.948-170.935-34.185c-56.643,37.762-71.947,114.293-34.185,170.935
		c37.763,56.642,114.294,71.948,170.936,34.185c0.114-0.076,0.221-0.16,0.335-0.236
		C1144.138,1499.25,1158.387,1482.41,1176.625,1469.139z"/>
	<path style="fill:#7C5DA4;" d="M1604.458,1489.579c-3.163-14.758-9.072-29.182-17.952-42.503
		c-37.764-56.642-114.293-71.947-170.937-34.185c-56.641,37.763-71.947,114.293-34.185,170.935
		c10.901,16.35,25.044,29.233,40.994,38.412c32.409-7.306,66.291-3.011,95.677,11.68c9.297-2.679,18.392-6.516,27.103-11.513
		c-2.049-18.176-0.582-36.508,4.2-53.993c-2.094,1.656-4.21,3.295-6.47,4.802c-44.923,29.949-105.62,17.811-135.568-27.112
		c-29.95-44.923-17.811-105.62,27.112-135.569c44.923-29.95,105.62-17.811,135.57,27.112c13.921,20.882,18.64,45.154,15.308,68.18
		C1591.104,1499.944,1597.51,1494.516,1604.458,1489.579z"/>
	<path style="fill:#7C5DA4;" d="M1793.354,1521.09c-37.762-56.642-114.294-71.947-170.935-34.185
		c-56.643,37.762-71.948,114.293-34.185,170.936c5.133,7.699,11.002,14.606,17.422,20.748
		c46.078-15.593,97.132-6.515,134.977,23.597c6.35-2.817,12.56-6.175,18.537-10.161
		C1815.811,1654.263,1831.117,1577.732,1793.354,1521.09z"/>
	<path style="fill:#7C5DA4;" d="M1586.461,1694.938c-56.644,37.762-71.948,114.293-34.185,170.935s114.293,71.948,170.935,34.185
		c56.643-37.763,71.948-114.293,34.185-170.936C1719.634,1672.481,1643.102,1657.176,1586.461,1694.938z"/>
	<path style="fill:#846AAD;" d="M1091.487,1232.907c5.01-3.34,9.692-6.983,14.104-10.843c9.011-24.901,23.077-48.115,41.815-68.026
		c9.179-35.848,3.696-75.295-18.446-108.508c-41.395-62.09-125.286-78.868-187.378-37.473
		c-62.09,41.395-78.867,125.286-37.473,187.376C945.506,1257.525,1029.397,1274.302,1091.487,1232.907z"/>
	<path style="fill:#846AAD;" d="M957.372,714.021c-62.091,41.395-78.868,125.286-37.474,187.376
		c41.396,62.091,125.287,78.868,187.378,37.474c2.383-1.59,4.677-3.262,6.925-4.973c9.393-31.683,26.746-61.132,51.352-85.143
		c5.484-32.709-0.956-67.489-20.805-97.262C1103.354,689.403,1019.463,672.626,957.372,714.021z"/>
	<path style="fill:#846AAD;" d="M645.54,901.275c-62.09,41.395-78.867,125.286-37.473,187.376
		c41.394,62.091,125.286,78.868,187.376,37.473c9.717-6.478,18.323-13.997,25.771-22.31c6.862-17.491,16.245-34.078,28.022-49.193
		c11.97-37.741,7.352-80.366-16.319-115.873C791.523,876.657,707.631,859.88,645.54,901.275z"/>
	<path style="fill:#846AAD;" d="M536.861,885.715c-2.838-4.257-5.428-8.604-7.894-12.991c-3.868-6.88-7.313-13.898-10.28-21.037
		c-2.962-7.129-5.475-14.365-7.553-21.679c-32.281-24.755-77.946-27.642-113.68-3.82c-44.923,29.95-57.062,90.647-27.112,135.57
		c29.95,44.923,90.646,57.062,135.569,27.112c29.788-19.858,45.052-53.236,43.298-86.569
		C544.858,897.043,540.729,891.518,536.861,885.715z"/>
	<path style="fill:#846AAD;" d="M1294.352,463.229c44.923-29.949,57.062-90.646,27.112-135.569
		c-29.95-44.924-90.647-57.062-135.57-27.112c-44.923,29.95-57.062,90.646-27.112,135.569S1249.428,493.179,1294.352,463.229z"/>
	<path style="fill:#846AAD;" d="M1076.426,640.051c62.091-41.395,78.868-125.286,37.474-187.377
		c-41.395-62.09-125.286-78.868-187.378-37.473c-62.09,41.395-78.867,125.286-37.473,187.377
		C930.445,664.669,1014.336,681.446,1076.426,640.051z"/>
	<path style="fill:#846AAD;" d="M787.657,832.569c62.09-41.394,78.867-125.286,37.473-187.377
		c-41.394-62.09-125.286-78.868-187.376-37.473c-62.091,41.395-78.869,125.286-37.474,187.377
		C641.674,857.187,725.565,873.964,787.657,832.569z"/>
	<path style="fill:#846AAD;" d="M1249.151,519.497c-62.09,41.395-78.867,125.286-37.473,187.376
		c41.395,62.091,125.286,78.868,187.376,37.474c62.091-41.395,78.869-125.286,37.474-187.377
		C1395.133,494.879,1311.242,478.102,1249.151,519.497z"/>
	
		<ellipse transform="matrix(0.7071 -0.7071 0.7071 0.7071 -275.5995 1203.6067)" style="fill:#846AAD;" cx="1315.082" cy="934.481" rx="135.119" ry="135.119"/>
	<path style="fill:#846AAD;" d="M1450.221,1138.847c29.95,44.923,90.647,57.062,135.57,27.112
		c44.923-29.95,57.062-90.646,27.112-135.57c-29.949-44.923-90.645-57.062-135.568-27.112
		C1432.411,1033.227,1420.272,1093.923,1450.221,1138.847z"/>
	<path style="fill:#846AAD;" d="M1551.675,1238.565c-44.923,29.95-57.062,90.646-27.112,135.569
		c29.95,44.923,90.646,57.062,135.569,27.112c44.924-29.95,57.062-90.646,27.113-135.569
		C1657.295,1220.754,1596.598,1208.615,1551.675,1238.565z"/>
	<path style="fill:#846AAD;" d="M1016.016,1310.83c-44.923,29.95-57.061,90.646-27.112,135.569
		c29.95,44.923,90.647,57.062,135.57,27.112c44.923-29.95,57.062-90.646,27.112-135.569
		C1121.635,1293.019,1060.939,1280.88,1016.016,1310.83z"/>
	<path style="fill:#846AAD;" d="M1542.888,1573.216c2.26-1.507,4.376-3.146,6.47-4.802c6.336-23.17,18.458-44.833,35.951-62.588
		c3.332-23.025-1.387-47.298-15.308-68.18c-29.95-44.923-90.647-57.062-135.57-27.112c-44.923,29.95-57.062,90.646-27.112,135.569
		C1437.268,1591.027,1497.965,1603.165,1542.888,1573.216z"/>
	<path style="fill:#846AAD;" d="M1776.85,1511.659c-29.95-44.923-90.647-57.062-135.57-27.112
		c-44.923,29.949-57.062,90.646-27.112,135.569c29.95,44.923,90.647,57.062,135.57,27.112
		C1794.661,1617.279,1806.8,1556.583,1776.85,1511.659z"/>
	<path style="fill:#846AAD;" d="M1605.322,1692.581c-44.923,29.95-57.061,90.646-27.112,135.569
		c29.95,44.923,90.647,57.062,135.57,27.112c44.923-29.949,57.062-90.646,27.112-135.569
		C1710.942,1674.769,1650.246,1662.631,1605.322,1692.581z"/>
	<path style="fill:#9375B2;" d="M1239.224,410.559c39.945,4.774,75.354-16.683,79.089-47.926s-25.621-60.441-65.566-65.215
		s-75.355,16.682-79.089,47.925C1169.923,376.587,1199.277,405.785,1239.224,410.559z"/>
	<path style="fill:#9375B2;" d="M1000.231,567.253c55.211,6.599,104.152-23.058,109.313-66.24
		c5.162-43.182-35.412-83.538-90.622-90.137c-55.211-6.599-104.151,23.057-109.313,66.24
		C904.448,520.299,945.021,560.654,1000.231,567.253z"/>
	<path style="fill:#9375B2;" d="M711.462,759.771c55.211,6.599,104.151-23.058,109.313-66.24
		c5.161-43.182-35.412-83.538-90.622-90.137s-104.152,23.058-109.313,66.24C615.678,712.817,656.251,753.172,711.462,759.771z"/>
	<path style="fill:#9375B2;" d="M1322.859,671.549c55.211,6.599,104.152-23.058,109.313-66.24
		c5.162-43.182-35.412-83.538-90.622-90.137s-104.151,23.058-109.313,66.24C1227.076,624.594,1267.649,664.95,1322.859,671.549z"/>
	<path style="fill:#9375B2;" d="M1049.772,709.696c-55.211-6.599-104.152,23.058-109.313,66.24
		c-5.162,43.182,35.412,83.538,90.622,90.137c55.211,6.599,104.151-23.058,109.313-66.24
		C1145.555,756.65,1104.983,716.295,1049.772,709.696z"/>
	<path style="fill:#9375B2;" d="M737.939,896.95c-55.211-6.599-104.151,23.057-109.313,66.24
		c-5.161,43.182,35.412,83.538,90.622,90.137s104.152-23.058,109.313-66.24C833.723,943.905,793.15,903.549,737.939,896.95z"/>
	<path style="fill:#9375B2;" d="M1332.529,817.732c-55.211-6.599-104.151,23.057-109.313,66.24
		c-5.161,43.182,35.412,83.538,90.622,90.137c55.211,6.599,104.152-23.058,109.313-66.24
		C1428.314,864.686,1387.74,824.331,1332.529,817.732z"/>
	<path style="fill:#9375B2;" d="M1033.983,1003.733c-55.211-6.599-104.15,23.058-109.313,66.24
		c-5.161,43.182,35.412,83.538,90.622,90.137c55.211,6.599,104.152-23.058,109.313-66.24
		C1129.767,1050.687,1089.193,1010.332,1033.983,1003.733z"/>
	<path style="fill:#9375B2;" d="M1530.663,1113.289c39.945,4.774,75.355-16.683,79.089-47.926
		c3.735-31.243-25.62-60.441-65.566-65.215c-39.945-4.775-75.354,16.682-79.089,47.926
		C1461.362,1079.316,1490.718,1108.514,1530.663,1113.289z"/>
	<path style="fill:#9375B2;" d="M1605.004,1348.576c39.946,4.775,75.355-16.682,79.09-47.925
		c3.735-31.243-25.621-60.441-65.566-65.215c-39.946-4.774-75.355,16.682-79.09,47.925
		C1535.703,1314.604,1565.059,1343.802,1605.004,1348.576z"/>
	<path style="fill:#9375B2;" d="M1082.868,1307.701c-39.945-4.775-75.355,16.682-79.089,47.925
		c-3.735,31.243,25.62,60.441,65.566,65.215c39.945,4.775,75.354-16.682,79.089-47.925
		C1152.169,1341.673,1122.813,1312.475,1082.868,1307.701z"/>
	<path style="fill:#7C5DA4;" d="M1361.436,1611.667c-3.465-5.198-6.501-10.552-9.205-16.004
		c-7.653-15.439-12.284-31.754-14.029-48.204c-1.79-16.874-0.585-33.876,3.516-50.188c1.124-4.47,2.464-8.887,4.013-13.235
		c0.755-2.118,1.559-4.221,2.414-6.305c-40.845-37.965-103.789-44.498-152.216-12.213c-56.642,37.762-71.948,114.293-34.185,170.935
		c37.764,56.642,114.294,71.948,170.937,34.185c17.413-11.609,30.901-26.89,40.159-44.123
		C1368.782,1621.866,1364.949,1616.939,1361.436,1611.667z"/>
	<path style="fill:#9375B2;" d="M1501.284,1407.405c-39.946-4.775-75.355,16.682-79.09,47.925
		c-3.734,31.243,25.621,60.441,65.566,65.215c39.946,4.775,75.356-16.682,79.09-47.925
		C1570.584,1441.377,1541.229,1412.179,1501.284,1407.405z"/>
	<path style="fill:#9375B2;" d="M1694.61,1594.558c39.945,4.775,75.355-16.682,79.089-47.925
		c3.734-31.243-25.621-60.441-65.566-65.216c-39.946-4.774-75.356,16.683-79.09,47.926
		C1625.309,1560.586,1654.664,1589.784,1694.61,1594.558z"/>
	<path style="fill:#9375B2;" d="M1474.597,1637.112c-39.947-4.774-75.356,16.683-79.09,47.926
		c-3.734,31.243,25.621,60.441,65.566,65.215c39.946,4.775,75.355-16.682,79.09-47.925
		C1543.897,1671.084,1514.542,1641.886,1474.597,1637.112z"/>
	<path style="fill:#9375B2;" d="M1672.174,1689.451c-39.945-4.775-75.356,16.682-79.089,47.925
		c-3.734,31.243,25.62,60.441,65.566,65.215c39.945,4.775,75.354-16.682,79.089-47.926
		C1741.475,1723.424,1712.12,1694.225,1672.174,1689.451z"/>
	<path style="fill:#9375B2;" d="M464.306,823.058c-39.946-4.774-75.355,16.683-79.09,47.926
		c-3.735,31.243,25.621,60.441,65.566,65.215c39.947,4.774,75.356-16.682,79.09-47.926c0.632-5.282,0.245-10.493-0.906-15.55
		c-3.868-6.88-7.313-13.898-10.28-21.037C507.034,836.845,487.481,825.828,464.306,823.058z"/>
	<path style="fill:#846AAD;" d="M1338.202,1547.459c-1.79-16.874-0.585-33.876,3.516-50.188c1.124-4.47,2.464-8.887,4.013-13.235
		c-31.23-39.697-88.196-49.372-130.94-20.876c-44.923,29.95-57.062,90.647-27.112,135.57
		c29.949,44.923,90.646,57.062,135.569,27.112c12.152-8.101,21.814-18.498,28.983-30.179
		C1344.578,1580.223,1339.947,1563.909,1338.202,1547.459z"/>
	<path style="fill:#9375B2;" d="M1281.644,1460.03c-39.946-4.774-75.355,16.683-79.09,47.926
		c-3.735,31.243,25.621,60.441,65.566,65.215c29.485,3.524,56.453-7.269,70.081-25.713c-1.79-16.874-0.585-33.876,3.516-50.188
		C1331.585,1478.156,1309.121,1463.315,1281.644,1460.03z"/>
	<path style="fill:#9375B2;" d="M1210.938,1183.272c-5.162,43.182,35.412,83.538,90.622,90.137
		c53.03,6.338,100.162-20.811,108.384-61.228c-1.932-2.52-3.82-5.09-5.607-7.771c-12.878-19.317-20.403-40.628-23.001-62.203
		c-15.909-13.065-37.108-22.31-61.085-25.175C1265.04,1110.433,1216.098,1140.09,1210.938,1183.272z"/>
	<path style="fill:#788F2F;" d="M674.008,452.178l-383.349-116.52c0,0,86.203,161.638,196.759,195.241
		c90.605,27.54,169.407-39.429,194.91-64.507v0C679.625,461.752,676.825,456.975,674.008,452.178z"/>
	<path style="fill:#301B16;" d="M792.826,571.516c-0.248-0.385-0.487-0.748-0.737-1.135c0-0.001,0-0.001,0-0.001
		c-20.285-31.499-43.44-70.434-58.283-100.629c-11.481-23.358-22.538-48.12-32.77-73.601c0-0.001,0-0.001,0-0.001
		c-21.678-53.986-39.617-111.236-49.778-165.438c-2.451-13.078-40.771-27.161-64.672-31.144
		c-10.328-1.721-14.321,7.477-13.832,10.103c5.448,29.264,13.401,57.908,23.358,85.858c16.651,46.739,38.914,91.534,64.471,134.023
		c4.694,7.804,9.114,15.284,13.425,22.628c2.817,4.797,5.618,9.574,8.32,14.213v0c25.356,43.516,46.332,80.392,76.772,120.226
		c11.691,3.548,23.093,8.118,34.005,13.798C792.281,590.774,792.243,581.118,792.826,571.516z"/>
</g>
</svg>
