<?xml version="1.0" encoding="utf-8"?>
<!-- Generator: Adobe Illustrator 27.5.0, SVG Export Plug-In . SVG Version: 6.00 Build 0)  -->
<svg version="1.1" id="Capa_1" xmlns="http://www.w3.org/2000/svg" xmlns:xlink="http://www.w3.org/1999/xlink" x="0px" y="0px"
	 viewBox="0 0 2122 2122" style="enable-background:new 0 0 2122 2122;" xml:space="preserve">
<path style="fill:#CE753A;" d="M1955.759,1293.908c-13.325-50.548-6.982-103.878-8.526-156.131
	c-1.544-52.254-13.564-108.685-53.49-142.431c26.309,7.537,56.438-0.26,75.785-19.617c-52.668-4.288-93.876-46.236-125.705-88.414
	c-31.824-42.178-61.773-89.274-109.086-112.794c-47.825-23.776-109.091-17.464-151.064,15.566
	c-39.912,31.408-41.29,68.075-53.783,110.953c-35.659-25.62-78.607-40.094-128.726-36.61
	c-44.789,3.113-86.928,21.191-129.573,35.223c-55.648,18.307-113.489,29.703-171.877,34.342c4.602-3.987,9.064-8.111,13.339-12.332
	c9.954-9.829,19.893-21.403,20.716-35.367c-34.3,18.785-73.438,28.656-112.545,28.39c18.894-10.476,32.794-29.552,36.979-50.745
	c-37.053,9.24-76.273,9.279-113.457,0.733c-14.993-3.446-29.637-8.356-43.716-14.555c16.284-0.564,31.831-4.368,42.489-16.113
	c-47.869-23.71-97.311-48.658-130.792-90.287c20.643,2.867,42.446-4.319,57.335-18.899c-39.113-17.318-74.251-43.557-101.958-76.146
	c-24.962-29.355-46.011-65.286-81.164-80.563c7.609-38.709,6.804-81.456,1.983-109.983c-0.604-3.588-1.642-7.642-4.877-9.308
	c-2.533-1.303-5.593-0.674-8.351,0.034c-12.541,3.217-24.833,7.746-36.633,13.335c-0.749-20.573-7.935-40.099-18.183-58.38
	c-13.778-24.575-31.269-47.861-37.51-75.337c-14,23.822-22.027,50.923-24.04,78.468c-13.236-15.888-30.118-28.236-51.78-34.471
	c-14.694-4.229-30.07-5.335-45.31-6.577c-37.447-3.053-78.319-8.743-103.795-36.349c-5.164,27.985,6.392,58.414,28.838,75.912
	c-45.145,38.741-105.013,59.873-164.477,58.058c9.808,20.709,29.856,35.613,51.907,41.842c22.051,6.226,45.856,4.353,67.747-2.422
	c-14.889,36.231-39.835,68.27-71.308,91.588c-14.261,10.568-31.108,19.679-48.799,18.168c12.024,3.985,24.921,4.249,37.588,4.39
	c34.627,0.383,70.139-0.08,103.054-10.009c-16.122,31.456-28.339,64.869-43.98,96.614c-6.782,13.759-14.202,27.198-22.236,40.263
	c-4.546,7.401-9.306,14.689-14.251,21.839c-9.082,13.164-18.811,25.886-29.14,38.098c-13.934,16.48-29.656,33.491-32.497,54.886
	c-4.54,34.195,25.515,63.094,55.946,79.355c55.332,29.576,114.723,11.503,156.01-31.869c2.212-2.331,4.424-4.697,6.733-6.94
	c3.352-3.264,6.909-6.27,10.996-8.502c1.048-0.57,2.119-1.087,3.215-1.554c6.665-2.855,14.042-3.912,21.208-5.272
	c24.278-4.594,47.674-13.361,69.2-25.472c5.845,14.332,11.295,28.872,16.325,43.618c10.568,30.979,19.752,62.592,29.316,93.729
	c17.538,57.131,42.023,122.148,75.11,182.551c-16.095,33.634-30.37,59.556-80.952,66.516c-29.847,4.1-60.015,5.888-90.134,5.325
	c-16.453-0.302-34.032-1.031-48.059,7.571c-25.398,15.554-25.929,51.839-21.535,81.288c9.218,61.754,26.811,122.248,52.146,179.313
	c0.453,1.004,0.906,2.015,1.374,3.028c1.374,2.979,2.86,5.949,4.57,8.741l-0.068,0.59c-2.938,28.641,17.623,62.446,37.866,80.779
	c2.319,2.092,4.882,4.175,7.966,4.658c7.026,1.106,12.254-6.144,15.513-12.475c14.056-27.272,25.822-55.729,35.128-84.967
	c1.082-3.416,2.149-6.967,1.735-10.524c-0.872-7.449-7.703-12.54-13.949-16.694c-8.117-5.406-16.76-10.953-26.046-13.345
	c-0.146-0.718-0.297-1.427-0.448-2.143c-1.408-6.592-3.123-13.157-4.712-19.615c-6.148-25.057-10.314-50.602-12.438-76.312
	c-0.644-7.824-1.014-16.127,2.68-23.06c9.447-17.719,35.216-13.968,55.045-10.799c60.996,9.748,122.859-11.445,176.56-42.534
	c17.224,16.723,35.771,31.541,55.702,43.888c54.726,134.324,87.801,283.919,62.676,427.359l-0.229,1.298
	c-16.083,16.763-28.551,39.942-36.234,56.643c-4.37,9.472-7.874,21.109-2.168,29.839c6.378,9.759,20.254,10.195,31.893,9.571
	c35.449-1.895,71.206-3.837,105.491-13.023c7.186-1.929,14.743-4.461,19.381-10.283c3.103-3.905,4.526-8.857,5.569-13.734
	c4.17-19.7,2.987-40.509-3.406-59.61c-0.604-1.807-1.277-3.63-2.105-5.359c0.068-0.789,0.141-1.586,0.21-2.378
	c9.632-109.766,19.254-219.52,28.887-329.281c1.363-15.531,2.716-31.079,3.827-46.64c29.218-0.036,58.275-2.627,88.051-10.393
	c8.247-2.151,16.49-4.405,24.733-6.693c23.457,22.553,53.597,38.225,84.295,52.32c17.754,8.154,36.526,16.889,47.401,33.121
	c6.631,9.888,9.686,21.72,11.917,33.418c12.931,67.757,1.203,139.939-32.492,200.127c-4.746,8.467-9.944,16.794-14.982,25.181
	c-10.436,17.359-20.215,34.985-23.995,54.707c-0.731,3.832-1.198,7.946,0.395,11.503c2.816,6.278,10.592,8.273,17.359,9.513
	c19.966,3.664,40.214,7.342,60.438,5.615c20.229-1.722,40.775-9.535,53.642-25.231c10.27-12.533,14.719-28.713,18.86-44.382
	c1.281-4.838,2.543-9.673,3.82-14.512c15.995-61.008,31.298-122.214,45.881-183.585c3.172-13.333,6.333-26.865,5.851-40.558
	c-0.402-11.362-3.268-22.28-6.836-33.093c10.729,5.8,21.809,11.159,32.98,16.287c17.754,8.153,36.521,16.889,47.396,33.12
	c6.631,9.89,9.686,21.72,11.917,33.418c12.931,67.756,1.208,139.941-32.492,200.126c-4.74,8.468-9.939,16.795-14.977,25.182
	c-10.441,17.359-20.219,34.984-24,54.706c-0.726,3.832-1.199,7.947,0.395,11.503c2.816,6.278,10.592,8.273,17.359,9.513
	c19.966,3.664,40.215,7.342,60.444,5.615c20.224-1.722,40.77-9.535,53.642-25.23c10.265-12.533,14.714-28.714,18.855-44.382
	c1.282-4.838,2.548-9.674,3.82-14.512c16-61.008,31.298-122.214,45.88-183.585c3.172-13.333,6.334-26.865,5.852-40.558
	c-0.911-25.705-14.417-49.145-20.171-74.222c-11.8-51.403,9.544-103.744,24.546-154.309c10.543-35.568,17.996-72.57,16.613-109.553
	c0.62-37.23-3.938-74.482-11.292-106.079c-13.703-58.878-40.922-118.3-81.23-162.312c40.312-21.531,96.225-5.842,128.348,28.692
	c35.712,38.39,48.219,92.672,54.27,144.753c6.051,52.078,7.245,105.632,25.778,154.674
	c37.696,99.747,151.941,164.029,256.764,144.477C1994.751,1378.855,1967.511,1338.503,1955.759,1293.908z"/>
<path style="fill:#97451D;" d="M1417.855,1492.198c-0.402-11.362-3.268-22.28-6.836-33.093
	c-36.193-19.564-68.209-44.385-84.643-84.356c-4.161-10.129-7.51-20.509-10.209-31.057c-3.674-0.161-7.352-0.276-11.038-0.298
	c-56.431-0.343-111.079,16.414-165.664,31.568c23.457,22.553,53.597,38.225,84.295,52.32c17.754,8.154,36.526,16.889,47.401,33.121
	c6.631,9.888,9.686,21.72,11.917,33.418c12.931,67.757,1.203,139.939-32.492,200.127c-4.746,8.467-9.944,16.794-14.982,25.181
	c-10.436,17.359-20.215,34.985-23.995,54.707c-0.731,3.832-1.198,7.946,0.395,11.503c2.816,6.278,10.592,8.273,17.359,9.513
	c19.966,3.664,40.214,7.342,60.438,5.615c20.229-1.722,40.775-9.535,53.642-25.231c10.27-12.533,14.719-28.713,18.86-44.382
	c1.281-4.838,2.543-9.673,3.82-14.512c15.995-61.008,31.298-122.214,45.881-183.585
	C1415.175,1519.423,1418.337,1505.891,1417.855,1492.198z"/>
<path style="fill:#A95326;" d="M664.947,1178.416c-16.095,33.634-30.37,59.556-80.952,66.516c-29.847,4.1-60.015,5.888-90.134,5.325
	c-16.453-0.302-34.032-1.031-48.059,7.571c-25.398,15.554-25.929,51.839-21.535,81.288c9.218,61.754,26.811,122.248,52.146,179.313
	c0.453,1.004,0.906,2.015,1.374,3.028c1.374,2.979,2.86,5.949,4.57,8.741l-0.068,0.59c-2.938,28.641,17.623,62.446,37.866,80.779
	c2.319,2.092,4.882,4.175,7.966,4.658c7.026,1.106,12.254-6.144,15.513-12.475c14.056-27.272,25.822-55.729,35.128-84.967
	c1.082-3.416,2.149-6.967,1.735-10.524c-0.872-7.449-7.703-12.54-13.949-16.694c-8.117-5.406-16.76-10.953-26.046-13.345
	c-0.146-0.718-0.297-1.427-0.448-2.143c-1.408-6.592-3.123-13.157-4.712-19.615c-6.148-25.057-10.314-50.602-12.438-76.312
	c-0.644-7.824-1.014-16.127,2.68-23.06c9.447-17.719,35.216-13.968,55.045-10.799c60.996,9.748,122.859-11.445,176.56-42.534
	C720.855,1268.48,690.363,1224.812,664.947,1178.416z"/>
<path style="fill:#B7602D;" d="M1029.105,1320.149c-0.721-43.25-6.684-87.364-25.549-125.664
	c-13.89-28.198-34.601-52.536-59.586-70.022c-37.091-25.958-87.128-35.693-126.173-13.189
	c-80.151,46.204-32.886,168.277-6.362,232.772c0.49,1.195,0.967,2.4,1.455,3.598c54.726,134.324,87.801,283.919,62.676,427.359
	l-0.229,1.298c-16.083,16.763-28.551,39.942-36.234,56.643c-4.37,9.472-7.874,21.109-2.168,29.839
	c6.378,9.759,20.254,10.195,31.893,9.571c35.449-1.895,71.206-3.837,105.491-13.023c7.186-1.929,14.743-4.461,19.381-10.283
	c3.103-3.905,4.526-8.857,5.569-13.734c4.17-19.7,2.987-40.509-3.406-59.61c-0.604-1.807-1.277-3.63-2.105-5.359
	c0.068-0.789,0.141-1.586,0.21-2.378c9.632-109.766,19.254-219.52,28.887-329.281c1.363-15.531,2.716-31.079,3.827-46.64
	C1028.39,1368.109,1029.512,1344.14,1029.105,1320.149z"/>
<path style="fill:#1D1329;" d="M1259.541,1728.468c-7.922-3.074-15.8-7.576-23.936-9.34c-10.436,17.359-20.215,34.985-23.995,54.707
	c-0.731,3.832-1.198,7.946,0.395,11.503c2.816,6.278,10.592,8.273,17.359,9.513c19.966,3.664,40.214,7.342,60.438,5.615
	c20.229-1.722,40.775-9.535,53.642-25.231c10.27-12.533,14.719-28.713,18.86-44.382c1.281-4.838,2.543-9.673,3.82-14.512
	c-11.498,1.213-24.278,6.875-34.762,10.385C1308.184,1734.477,1282.328,1737.311,1259.541,1728.468z"/>
<path style="fill:#66222A;" d="M1955.759,1293.908c-13.325-50.548-6.982-103.878-8.526-156.131
	c-1.544-52.254-13.564-108.685-53.49-142.431c26.309,7.537,56.438-0.26,75.785-19.617c-52.668-4.288-93.876-46.236-125.705-88.414
	c-31.824-42.178-61.773-89.274-109.086-112.794c-47.825-23.776-109.091-17.464-151.064,15.566
	c-39.912,31.408-41.29,68.075-53.783,110.953c13.232,9.508,25.454,20.551,36.665,32.793c40.312-21.531,96.225-5.842,128.348,28.692
	c35.712,38.39,48.219,92.672,54.27,144.753c6.051,52.078,7.245,105.632,25.778,154.674
	c37.696,99.747,151.941,164.029,256.764,144.477C1994.751,1378.855,1967.511,1338.503,1955.759,1293.908z"/>
<path style="fill:#953219;" d="M623.58,829.992c21.642-35.511,37.63-84.821,32.444-122.127
	c-5.781,26.503-16.142,51.998-30.811,74.823c-20.207,31.448-48.451,57.505-81.017,75.829c5.845,14.332,11.295,28.872,16.325,43.618
	C585.271,881.636,606.67,857.726,623.58,829.992z"/>
<path style="fill:#66222A;" d="M456.409,555.782c8.857-5.071,18.273-9.636,27.973-13.18c-5.313,13.314-11.271,26.484-18.94,38.52
	c-9.544,14.977-22.178,28.37-38.002,36.431c20.351,1.598,40.867-3.773,58.986-13.169c18.12-9.396,33.978-22.687,48.181-37.345
	c7.435-7.673,14.628-16.157,19.449-25.589c0.173,0.05,0.345,0.098,0.516,0.147c17.445-34.851,48.505-62.365,84.487-79.407
	c-0.749-20.573-7.935-40.099-18.183-58.38c-13.778-24.575-31.269-47.861-37.51-75.337c-14,23.822-22.027,50.923-24.04,78.468
	c-13.236-15.888-30.118-28.236-51.78-34.471c-14.694-4.229-30.07-5.335-45.31-6.577c-37.447-3.053-78.319-8.743-103.795-36.349
	c-5.164,27.985,6.392,58.414,28.838,75.912c-45.145,38.741-105.013,59.873-164.477,58.058c9.808,20.709,29.856,35.613,51.907,41.842
	c22.051,6.226,45.856,4.353,67.747-2.422c-14.889,36.231-39.835,68.27-71.308,91.588c-14.261,10.568-31.108,19.679-48.799,18.168
	c12.024,3.985,24.921,4.249,37.588,4.39c34.627,0.383,70.139-0.08,103.054-10.009c5.607-1.691,11.146-3.625,16.585-5.91
	C407.026,589.622,430.563,570.576,456.409,555.782z"/>
<path style="fill:#B7602D;" d="M1659.076,1202.223c-0.135-3.62-0.252-7.242-0.564-10.861
	c-3.503-40.577-19.498-81.194-49.768-108.461c-82.344-74.187-229.842-73.885-278.285,37.864
	c-12.56,28.974-17.759,60.589-20.814,92.022c-2.607,26.743-3.654,54.251-1.51,81.376c1.321,16.742,3.89,33.335,8.031,49.528
	c2.699,10.547,6.049,20.928,10.209,31.057c16.433,39.971,48.449,64.792,84.643,84.356c10.729,5.8,21.809,11.159,32.98,16.287
	c17.754,8.153,36.521,16.889,47.396,33.12c6.631,9.89,9.686,21.72,11.917,33.418c12.931,67.756,1.208,139.941-32.492,200.126
	c-4.74,8.468-9.939,16.795-14.977,25.182c-10.441,17.359-20.219,34.984-24,54.706c-0.726,3.832-1.199,7.947,0.395,11.503
	c2.816,6.278,10.592,8.273,17.359,9.513c19.966,3.664,40.215,7.342,60.444,5.615c20.224-1.722,40.77-9.535,53.642-25.23
	c10.265-12.533,14.714-28.714,18.855-44.382c1.282-4.838,2.548-9.674,3.82-14.512c16-61.008,31.298-122.214,45.88-183.585
	c3.172-13.333,6.334-26.865,5.852-40.558c-0.911-25.705-14.417-49.145-20.171-74.222c-11.8-51.403,9.544-103.744,24.546-154.309
	C1653.007,1276.208,1660.46,1239.206,1659.076,1202.223z"/>
<path style="fill:#953219;" d="M403.108,816.184c-21.471-21.885-49.905-35.64-78.855-45.749c-13.418-4.69-28.38-8.621-41.73-4.648
	c-9.082,13.164-18.811,25.886-29.14,38.098c-13.934,16.48-29.656,33.491-32.497,54.886c-4.54,34.195,25.515,63.094,55.946,79.355
	c55.332,29.576,114.723,11.503,156.01-31.869c2.212-2.331,4.424-4.697,6.733-6.94C443.552,870.174,421.656,835.09,403.108,816.184z"
	/>
<path style="fill:#1D1329;" d="M302.441,814.513c-3.727-0.178-7.411,1.199-10.519,3.267c-7.25,4.814-11.469,12.974-14.85,20.991
	c-2.572,6.086-13.286,40.634,3.786,37.052c5.077-1.065,6.694-8.378,8.395-12.402c3.07-7.248,6.729-13.89,12.107-19.715
	c3.171-3.438,6.782-6.548,9.218-10.543c2.436-3.995,3.498-9.255,1.188-13.325C309.92,816.591,306.173,814.688,302.441,814.513z"/>
<ellipse style="fill:#1D1329;" cx="434.339" cy="706.535" rx="24.375" ry="32.95"/>
<path style="fill:#1D1329;" d="M404.76,665.619c-4.872,3.05-0.453,10.706,4.521,7.737c9.058-5.403,18.587-8.351,29.208-8.163
	c8.829,0.156,16.517,4.557,25.033,4.704c1.715,0.029,3.245-2.163,2.114-3.685C452.891,649.01,419.942,656.111,404.76,665.619z"/>
<path style="fill:#66222A;" d="M657.739,636.391c10.458,10.14,20.948,20.228,24.56,34.697c5.301,21.233,7.883,46.066,10.353,67.905
	c0.823,7.257,1.939,15.498,7.937,19.674c5.461,3.8,15.035-0.976,14.068-6.701c13.319,38.437,22.067,78.458,25.947,118.954
	c0.39,4.042,2.163,9.364,6.202,8.938c1.617-0.173,2.938-1.338,4.082-2.502c9.174-9.359,14.163-21.929,18.928-34.139l39.815,117.303
	c1.174,3.461,3.24,7.588,6.894,7.532c2.758-0.041,4.76-2.56,6.221-4.901c3.967-6.356,7.077-13.233,9.321-20.382
	c5.289,20.426,15.328,39.609,29.827,54.995c0.054-3.607,0.107-7.216,0.156-10.823c20.755,37.026,60.097,62.989,102.299,67.518
	c-9.202-10.934-15.838-23.474-21.269-36.75c-0.38-2.487-1.166-5.02-2.069-7.223c-1.737-4.241-3.472-8.481-5.208-12.721
	c-0.4-1.205-0.778-2.42-1.169-3.629c16.872,11.158,37.393,18.434,52.36,17.405c-7.92-9.786-14.56-20.591-19.793-32.04
	c6.322,2.496,12.687,4.893,19.062,7.237c19.834,7.291,42.076,14.563,61.486,6.202c-13.222-2.621-25.51-9.744-34.358-19.917
	c32.294-0.618,61.581-17.59,86.32-39.027c4.602-3.987,9.064-8.111,13.339-12.332c9.954-9.829,19.893-21.403,20.716-35.367
	c-34.3,18.785-73.438,28.656-112.545,28.39c18.894-10.476,32.794-29.552,36.979-50.745c-37.053,9.24-76.273,9.279-113.457,0.733
	c-14.993-3.446-29.637-8.356-43.716-14.555c16.284-0.564,31.831-4.368,42.489-16.113c-47.869-23.71-97.311-48.658-130.792-90.287
	c20.643,2.867,42.446-4.319,57.335-18.899c-39.113-17.318-74.251-43.557-101.958-76.146c-24.962-29.355-46.011-65.286-81.164-80.563
	C681.693,594.796,672.425,619.527,657.739,636.391z"/>
<path style="fill:#FBD0AB;" d="M595.878,524.006c-8.809,11.564-15.834,24.904-17.642,39.326
	c-1.813,14.424,2.187,30.021,12.663,40.095c15.61,15.003,48.078,13.315,59.493-6.063c15.517-26.339,19.922-63.179,18.416-93.096
	c-0.336-6.687-1.418-14.129-6.685-18.263c-7.064-5.545-17.418-2.11-25.247,2.297C620.979,497.259,606.933,509.49,595.878,524.006z"
	/>
<path style="fill:#953219;" d="M555.41,588.007c7.844,26.726,35.917,46.925,62.426,51.597c1.544,0.27,2.202-1.912,0.657-2.382
	c-28.443-8.66-45.33-25.744-61.057-50.068C556.774,586.128,555.045,586.757,555.41,588.007z"/>
<path style="fill:#1D1329;" d="M1479.779,1776.577c-7.927-3.074-15.805-7.576-23.936-9.34c-10.441,17.359-20.219,34.984-24,54.706
	c-0.726,3.832-1.199,7.947,0.395,11.503c2.816,6.278,10.592,8.273,17.359,9.513c19.966,3.664,40.215,7.342,60.444,5.615
	c20.224-1.722,40.77-9.535,53.642-25.23c10.265-12.533,14.714-28.714,18.855-44.382c1.282-4.838,2.548-9.674,3.82-14.512
	c-11.498,1.213-24.278,6.874-34.763,10.385C1528.422,1782.587,1502.561,1785.42,1479.779,1776.577z"/>
<path style="fill:#1D1329;" d="M958.718,1773.703c-14.948,5.5-30.816,10.511-46.553,8.066c-11.859-1.849-23.196-7.878-35.152-6.921
	c-0.482,0.042-0.965,0.088-1.447,0.156l-0.229,1.298c-16.083,16.763-28.551,39.942-36.234,56.643
	c-4.37,9.472-7.874,21.109-2.168,29.839c6.378,9.759,20.254,10.195,31.893,9.571c35.449-1.895,71.206-3.837,105.491-13.023
	c7.186-1.929,14.743-4.461,19.381-10.283c3.103-3.905,4.526-8.857,5.569-13.734c4.17-19.7,2.987-40.509-3.406-59.61
	c-0.604-1.807-1.277-3.63-2.105-5.359c0.068-0.789,0.141-1.586,0.21-2.378C982.771,1765.155,970.016,1769.549,958.718,1773.703z"/>
<path style="fill:#1D1329;" d="M494.665,1508.071c-6.67,2.96-12.341,7.679-16.877,13.386c1.374,2.979,2.86,5.949,4.57,8.741
	l-0.068,0.59c-2.938,28.641,17.623,62.446,37.866,80.779c2.319,2.092,4.882,4.175,7.966,4.658
	c7.026,1.106,12.254-6.144,15.513-12.475c14.056-27.272,25.822-55.729,35.128-84.967c1.082-3.416,2.149-6.967,1.735-10.524
	c-0.872-7.449-7.703-12.54-13.949-16.694c-8.117-5.406-16.76-10.953-26.046-13.345c-0.146-0.718-0.297-1.427-0.448-2.143
	c-2.373,5.466-4.395,11.496-8.015,15.936C523.357,1502.704,507.245,1502.478,494.665,1508.071z"/>
<path style="fill:#CE753A;" d="M1419.725,1238.936c4.916-28.597,13.759-56.514,26.232-82.716
	c3.995-8.392,36.95-73.537,46.845-70.969c-33.832-8.782-70.675,7.152-94.007,33.177c-23.332,26.027-35.011,60.541-41.32,94.921
	c-6.187,33.717-7.63,69.267,3.752,101.603c10.904,30.981,36.701,61.449,70.241,67.958
	C1404.32,1348.561,1412.788,1279.289,1419.725,1238.936z"/>
<path style="fill:#CE753A;" d="M997.212,1267.738c-7.659-34.339-23.25-67.898-49.637-91.172
	c-26.382-23.277-64.667-34.658-98.016-23.435c13.564,4.175,25.135,13.126,35.464,22.853c32.93,31.011,56.102,71.22,72.584,113.344
	c16.482,42.127,26.65,86.407,36.755,130.499C1007.351,1370.156,1008.423,1318.003,997.212,1267.738z"/>
<path style="fill:#FBD0AB;" d="M1539.423,950.817c-18.207-21.459-41.281-38.748-66.923-50.319
	c-14.597-6.587-30.036-11.328-45.842-13.924c-19.44-3.192-40.463-3.013-57.505,6.865c-4.706,2.726-9.154,6.324-11.469,11.245
	c-2.309,4.921-1.993,11.367,1.885,15.179c2.1,2.063,4.945,3.152,7.718,4.146c36.2,12.972,75.995,19.937,105.691,44.363
	c11.415,9.384,21.486,21.42,35.586,25.844c13.028,4.09,27.893,0.365,36.307-10.641
	C1554.269,971.287,1548.242,961.212,1539.423,950.817z"/>
</svg>
