<?xml version="1.0" encoding="utf-8"?>
<!-- Generator: Adobe Illustrator 27.5.0, SVG Export Plug-In . SVG Version: 6.00 Build 0)  -->
<svg version="1.1" xmlns="http://www.w3.org/2000/svg" xmlns:xlink="http://www.w3.org/1999/xlink" x="0px" y="0px"
	 viewBox="0 0 500 500" xml:space="preserve">
<g id="Monkey">
	<g>
		<g>
			<path style="fill:#FFBF9D;" d="M322.048,433.336c0.053,0.219,0.231,0.579,0.559,1.079c1.057,1.612,3.408,8.937,8.369,13.342
				c6.499,5.77,17.738,7.274,20.651,10.967c2.913,3.693,3.585,6.462,6.274,5.539c2.689-0.923,2.913-5.078,2.913-5.078
				s2.689,6.59,5.602,5.257c2.913-1.333,1.569-5.949,1.569-5.949s1.088,4.779,5.122,3.857c3.335-0.762,2.254-5.427,2.001-5.908
				c0,0,6.098,2.281,5.202-1.181c-0.896-3.462-5.602-11.078-12.101-11.309c-6.498-0.231-6.979-0.473-10.084-0.923
				c-6.097-0.884-23.662-11.13-23.662-11.13"/>
			<g>
				<path style="fill:#263238;" d="M360.815,459.186c-0.092,0.031-0.358-0.807-1.089-1.986c-0.723-1.182-2.014-2.628-3.77-3.819
					c-1.759-1.185-3.548-1.942-4.86-2.423c-1.315-0.482-2.155-0.718-2.137-0.798c0.013-0.061,0.887,0.049,2.253,0.448
					c1.361,0.398,3.219,1.117,5.038,2.342c1.817,1.23,3.131,2.791,3.795,4.064C360.719,458.287,360.861,459.177,360.815,459.186z"/>
			</g>
			<g>
				<path style="fill:#263238;" d="M353.469,448.19c0.004-0.036,0.277-0.031,0.771,0.008c0.495,0.03,1.205,0.148,2.066,0.363
					c0.866,0.202,1.866,0.562,2.94,1.04c1.063,0.505,2.188,1.154,3.279,1.965c2.179,1.639,3.736,3.598,4.636,5.122
					c0.451,0.763,0.773,1.406,0.948,1.87c0.184,0.46,0.269,0.719,0.236,0.733c-0.085,0.038-0.53-0.958-1.495-2.406
					c-0.962-1.446-2.519-3.309-4.638-4.904c-1.062-0.789-2.149-1.432-3.173-1.948c-1.036-0.489-1.998-0.876-2.833-1.119
					C354.542,448.407,353.458,448.283,353.469,448.19z"/>
			</g>
			<g>
				<path style="fill:#263238;" d="M360.292,446.772c0-0.036,0.262-0.057,0.74-0.063c0.478-0.017,1.171,0.04,2.014,0.187
					c0.848,0.136,1.831,0.433,2.885,0.858c1.042,0.453,2.138,1.064,3.198,1.833c2.119,1.551,3.657,3.38,4.657,4.751
					c0.994,1.384,1.478,2.32,1.427,2.352c-0.07,0.046-0.663-0.819-1.719-2.128c-1.062-1.297-2.613-3.047-4.672-4.554
					c-1.03-0.748-2.084-1.35-3.083-1.814c-1.01-0.434-1.952-0.759-2.768-0.937C361.343,446.88,360.289,446.869,360.292,446.772z"/>
			</g>
		</g>
		<g>
			<path style="fill:#FF725E;" d="M368.335,338.256c12.597-8.587,26.466-30.296,35.771-42.373l-12.743-12.41
				c0,0-8.483,16.369-29.265,22.474c-20.781,6.106-42.121-22.992-43.601-24.037l-0.162,39.954
				c16.035,13.597,34.168,24.716,53.558,32.841c-4.552-4.074-9.103-8.149-13.655-12.223c5.633,4.316,12,7.672,18.745,9.878
				C373.37,348.163,370.438,343.38,368.335,338.256z"/>
			<g>
				<path style="fill:#FF9A6C;" d="M389.092,213.049c-0.381,0.533,0.494,12.426,0.494,12.426s-8.248,0.179-12.751,11.194
					c-4.503,11.015-0.285,24.581,3.403,33.304c3.688,8.723,18.613,34.911,53.279,37.301c26.192,1.806,40.781-16.591,37.286-21.036
					c-3.263-4.15-19.16-0.15-35.098-6.666c-34.928-14.28-34.407-49.328-34.407-49.328s4.232-10.286,5.95-12.51
					C409.862,214.354,391.992,208.988,389.092,213.049z"/>
				<path style="fill:#FFBF9D;" d="M393.657,290.773c-10.653,2.428-17.456-8.344-16.905-13.167c0.193-1.686,0.558-3.397,1.476-4.824
					c1.237-1.924,3.382-3.14,5.616-3.63c2.234-0.49,4.563-0.319,6.82,0.057c2.373,0.396,4.89,1.133,6.348,3.046
					c0.826,1.085,1.207,2.641,0.527,3.823c-0.416,0.724-1.155,1.198-1.896,1.584c-2.624,1.368-5.637,1.977-8.586,1.736
					C390.155,282.474,394.378,286.467,393.657,290.773"/>
				<path style="fill:#FFBF9D;" d="M427.361,268.784c-1.045-0.982-2.186-1.902-3.522-2.425c-1.336-0.522-2.901-0.604-4.172,0.06
					c1.221-1.275,1.52-4.787,0.815-6.406c-0.706-1.618-2.739-2.374-4.504-2.348c0.818-1.986-0.026-4.43-1.729-5.739
					c-1.703-1.309-4.08-1.549-6.132-0.918c-2.053,0.631-3.798,2.048-5.135,3.729c-0.963,1.21-1.763,2.841-1.143,4.258
					c0.343,0.784,1.066,1.339,1.828,1.728c2.47,1.26,5.642,1,7.873-0.645c-1.47,0.906-3.978,3.068-4.183,4.783
					c-0.205,1.715,0.561,3.552,2.018,4.478c1.457,0.927,4.959,0.178,6.185-1.039c-0.312,1.197-0.613,2.414-0.598,3.651
					c0.014,1.237,0.378,2.515,1.236,3.406c0.983,1.021,2.466,1.398,3.882,1.456c2.243,0.092,4.51-0.516,6.405-1.72
					c0.727-0.462,1.411-1.022,1.879-1.745c0.467-0.724,0.698-1.631,0.481-2.464C428.626,270.043,427.994,269.379,427.361,268.784z"
					/>
				<g>
					<path style="fill:#263238;" d="M469.565,287.261c0.003,0.009-0.091,0.043-0.277,0.101c-0.214,0.064-0.487,0.144-0.827,0.245
						c-0.767,0.215-1.837,0.514-3.197,0.895c-0.697,0.184-1.465,0.421-2.319,0.618c-0.864,0.167-1.8,0.349-2.804,0.543
						c-1.007,0.187-2.081,0.416-3.227,0.605c-1.156,0.132-2.378,0.272-3.659,0.418c-5.125,0.503-11.337,0.637-18.083-0.541
						c-6.703-1.182-14.061-3.452-20.604-7.983c-0.148-0.103-0.295-0.215-0.43-0.321l0.025,0.018
						c-6.612-4.251-11.817-9.833-15.439-15.556c-0.443-0.722-0.881-1.436-1.313-2.14c-0.407-0.718-0.77-1.448-1.149-2.156
						c-0.792-1.399-1.336-2.866-1.973-4.23c-0.522-1.412-1.067-2.763-1.471-4.101c-0.374-1.346-0.82-2.615-1.055-3.875
						c-1.139-4.992-1.398-9.154-1.313-12.005c-0.018-0.714,0.025-1.347,0.074-1.895c0.043-0.538,0.079-0.999,0.11-1.385
						c0.032-0.35,0.058-0.629,0.078-0.85c0.02-0.191,0.035-0.288,0.044-0.288c0.009,0.001,0.012,0.1,0.008,0.292
						c-0.007,0.221-0.016,0.502-0.027,0.853c-0.017,0.386-0.037,0.847-0.06,1.384c-0.033,0.547-0.061,1.177-0.027,1.889
						c-0.023,2.84,0.292,6.974,1.468,11.919c0.244,1.249,0.699,2.505,1.08,3.838c0.411,1.324,0.962,2.662,1.488,4.058
						c0.641,1.349,1.188,2.801,1.981,4.184c0.379,0.7,0.743,1.422,1.149,2.132c0.431,0.696,0.868,1.401,1.311,2.115
						c3.611,5.658,8.775,11.171,15.314,15.374l0.011,0.007l0.014,0.011c0.126,0.098,0.263,0.203,0.41,0.305
						c3.187,2.234,6.662,3.911,10.116,5.187c0.854,0.348,1.74,0.586,2.595,0.88c0.431,0.139,0.859,0.277,1.286,0.415
						c0.434,0.112,0.866,0.222,1.296,0.333c0.861,0.215,1.707,0.452,2.554,0.643c0.854,0.159,1.698,0.317,2.531,0.473
						c6.689,1.195,12.861,1.1,17.966,0.647c1.277-0.133,2.494-0.26,3.647-0.38c1.144-0.175,2.215-0.39,3.221-0.563
						c1.004-0.179,1.939-0.346,2.803-0.5c0.855-0.182,1.625-0.404,2.324-0.572c1.369-0.34,2.446-0.608,3.217-0.799
						c0.346-0.08,0.623-0.145,0.841-0.195C469.464,287.27,469.563,287.253,469.565,287.261z"/>
				</g>
				<g>
					<path style="fill:#263238;" d="M406.02,217.824c0.016,0.032-0.219,0.173-0.66,0.401c-0.449,0.207-1.111,0.495-1.972,0.723
						c-1.703,0.48-4.23,0.75-6.902,0.138c-1.331-0.308-2.549-0.782-3.588-1.361c-1.036-0.582-1.866-1.396-2.188-2.286
						c-0.329-0.88-0.203-1.678,0.018-2.136c0.222-0.471,0.481-0.626,0.495-0.607c0.036,0.03-0.161,0.231-0.306,0.681
						c-0.146,0.439-0.2,1.159,0.134,1.924c0.66,1.58,3.031,2.668,5.55,3.277c2.576,0.59,5.014,0.389,6.698,0.012
						C405,218.226,405.981,217.737,406.02,217.824z"/>
				</g>
			</g>
		</g>
		<g>
			<g>
				<path style="fill:#FF725E;" d="M239.286,380.401c0.87-2.823,34.056-49.97,55.38-25.781c21.325,24.189,3.183,49.651-6.047,57.29
					c-9.23,7.639-25.462,16.232-21.325,19.415s25.149-2.116,36.946,4.929c10.055,6.005,5.704,9.075,4.431,9.075
					s-14.641-4.774-14.641-4.774s-5.411-2.228-5.729-1.273c-0.318,0.955,17.824,11.14,13.049,14.004
					c-4.774,2.865-12.469-7.002-25.49-7.32c-13.022-0.318-22.463,2.087-24.473-8.612c-1.22-6.493,1.814-10.066-0.21-10.593
					S227.509,418.594,239.286,380.401z"/>
				<path style="fill:#FF725E;" d="M264.793,432.076c9.418-2.786,28.808-2.691,38.521-1.238c0.788,0.118,1.601,0.26,2.266,0.7
					c0.665,0.44,1.144,1.26,0.944,2.032c-0.333,1.289-2.056,1.488-3.386,1.419c-3.146-0.164-6.293-0.328-9.439-0.492"/>
				<g>
					<path style="fill:#263238;" d="M282.525,432.539c-0.002-0.036,0.298-0.083,0.844-0.139c0.546-0.059,1.339-0.103,2.32-0.122
						c1.961-0.04,4.683,0.085,7.645,0.563c2.962,0.483,5.583,1.225,7.432,1.883c0.925,0.328,1.663,0.62,2.162,0.849
						c0.501,0.225,0.77,0.365,0.757,0.398c-0.03,0.076-1.168-0.335-3.033-0.897c-1.864-0.564-4.47-1.241-7.401-1.719
						c-2.931-0.473-5.617-0.654-7.564-0.709C283.739,432.59,282.53,432.62,282.525,432.539z"/>
				</g>
			</g>
			<g>
				<path style="fill:#FF725E;" d="M304.24,436.254c-0.864-0.516-1.782-0.959-2.735-1.351c0.544,0.028,1.089,0.057,1.633,0.085
					c1.33,0.069,3.052-0.13,3.386-1.419c0.2-0.772-0.279-1.591-0.944-2.032c-0.664-0.44-1.477-0.582-2.266-0.7
					c-8.877-1.329-25.815-1.514-35.858,0.589c-0.053-0.035-0.114-0.065-0.162-0.102c-4.138-3.183,12.095-11.776,21.325-19.415
					s27.372-33.101,6.047-57.29c-21.325-24.189-54.51,22.958-55.381,25.781c-11.776,38.193,9.867,45.832,11.891,46.359
					c2.025,0.527-1.01,4.1,0.21,10.593c2.01,10.7,11.451,8.294,24.473,8.612c13.021,0.318,20.716,10.185,25.49,7.32
					c4.774-2.865-13.368-13.049-13.049-14.004c0.318-0.955,5.729,1.273,5.729,1.273s13.368,4.774,14.641,4.774
					C309.944,445.329,314.294,442.26,304.24,436.254z"/>
				<g>
					<path style="fill:#263238;" d="M282.525,432.539c-0.002-0.036,0.298-0.083,0.844-0.139c0.546-0.059,1.339-0.103,2.32-0.122
						c1.961-0.04,4.683,0.085,7.645,0.563c2.962,0.483,5.583,1.225,7.432,1.883c0.925,0.328,1.663,0.62,2.162,0.849
						c0.501,0.225,0.77,0.365,0.757,0.398c-0.03,0.076-1.168-0.335-3.033-0.897c-1.864-0.564-4.47-1.241-7.401-1.719
						c-2.931-0.473-5.617-0.654-7.564-0.709C283.739,432.59,282.53,432.62,282.525,432.539z"/>
				</g>
			</g>
			<g style="opacity:0.3;">
				<path d="M304.24,436.254c-0.864-0.516-1.782-0.959-2.735-1.351c0.544,0.028,1.089,0.057,1.633,0.085
					c1.33,0.069,3.052-0.13,3.386-1.419c0.2-0.772-0.279-1.591-0.944-2.032c-0.664-0.44-1.477-0.582-2.266-0.7
					c-8.877-1.329-25.815-1.514-35.858,0.589c-0.053-0.035-0.114-0.065-0.162-0.102c-4.138-3.183,12.095-11.776,21.325-19.415
					s27.372-33.101,6.047-57.29c-21.325-24.189-54.51,22.958-55.381,25.781c-11.776,38.193,9.867,45.832,11.891,46.359
					c2.025,0.527-1.01,4.1,0.21,10.593c2.01,10.7,11.451,8.294,24.473,8.612c13.021,0.318,20.716,10.185,25.49,7.32
					c4.774-2.865-13.368-13.049-13.049-14.004c0.318-0.955,5.729,1.273,5.729,1.273s13.368,4.774,14.641,4.774
					C309.944,445.329,314.294,442.26,304.24,436.254z"/>
			</g>
		</g>
		<path style="fill:#FF725E;" d="M182.546,433.339c0,0-15.236-0.488-16.191-26.905c-0.955-26.417,11.468-39.067,31.838-57.527
			c20.37-18.46,33.682-45.436,33.993-46.338c6.221-18.045,4.963-30.825,4.963-30.825l84.604,11.177c0,0,14.839,32.974,1.472,57.8
			c-13.368,24.826-43.286,46.15-44.241,46.787c-0.955,0.637-17.824,39.185-46.15,45.85
			C204.507,440.023,182.546,433.339,182.546,433.339z"/>
		<path style="fill:#FF725E;" d="M170.835,406.068c-13.21,0.586-26.847-0.703-37.726-8.043c-10.879-7.339-18.269-21.99-14.995-36.58
			c2.869-12.789,12.723-22.424,19.484-33.561c13.788-22.712,13.831-53.915,0.103-74.052c-13.728-20.136-40.215-27.72-62.86-17.999
			c-6.89,2.958-13.996,8.186-16.071,16.058c-2.823,10.714,5.299,20.546,14.409,23.669c9.11,3.122,19.25,1.915,28.729,3.734
			c9.479,1.819,19.236,8.322,19.963,19.13c0.783,11.632-8.777,21.332-14.997,31.401c-14.181,22.957-11.186,54.802,3.958,74.135
			c15.144,19.333,40.165,26.857,64.174,23.735L170.835,406.068z"/>
		<path style="fill:#FF725E;" d="M273.147,301.129c0,0,15.114,7.557,17.175,23.358c2.061,15.801-3.779,31.945,4.637,49.463
			c8.416,17.518,39.505,57.951,39.505,57.951l-8.802,8.005c0,0-29.501-14.088-47.362-28.171
			c-17.862-14.083-28.167-37.785-28.167-37.785l-2.398,7.632c0,0,0.657-13.716,0-17.457
			C247.078,360.384,225.649,302.66,273.147,301.129z"/>
		<g>
			<path style="fill:#FF725E;" d="M172.679,387.507c0.87-2.822,40.271-50.912,61.556-26.687c17.381,19.782-5.93,49.802-15.16,57.44
				c-9.23,7.639-22.524,16.989-18.387,20.172c4.138,3.183,25.149-2.116,36.946,4.929c10.055,6.005,5.704,9.075,4.431,9.075
				s-14.641-4.774-14.641-4.774s-5.411-2.228-5.729-1.273c-0.318,0.955,17.824,11.14,13.049,14.004
				c-4.774,2.864-12.468-7.002-25.49-7.32c-13.022-0.318-22.463,2.087-24.473-8.613c-1.22-6.493,1.814-10.066-0.21-10.593
				C182.546,433.339,160.903,425.701,172.679,387.507z"/>
			<path style="fill:#FF725E;" d="M198.186,439.182c9.418-2.786,28.808-2.691,38.521-1.238c0.788,0.118,1.601,0.26,2.266,0.7
				c0.665,0.44,1.144,1.26,0.944,2.032c-0.334,1.289-2.056,1.488-3.386,1.419c-3.146-0.164-6.293-0.328-9.439-0.492"/>
			<g>
				<path style="fill:#263238;" d="M215.919,440.616c-0.004-0.067,1.192-0.215,3.137-0.318c1.944-0.1,4.644-0.14,7.614,0.13
					c2.971,0.274,5.624,0.859,7.483,1.46c0.93,0.298,1.672,0.574,2.169,0.8c0.5,0.22,0.769,0.358,0.755,0.391
					c-0.032,0.08-1.159-0.339-3.027-0.837c-1.866-0.504-4.49-1.024-7.429-1.295c-2.938-0.268-5.617-0.286-7.556-0.281
					C217.126,440.674,215.923,440.692,215.919,440.616z"/>
			</g>
		</g>
		<g>
			<path style="fill:#FF725E;" d="M316.727,350.708c4.495-4.42,8.835-11.281,9.177-17.576c0.174,2.513-0.113,4.695,1.387,6.72
				c2.077-10.043,2.078-20.509,0.005-30.553"/>
			<g>
				<path style="fill:#263238;" d="M327.296,309.299c0.018-0.004,0.073,0.192,0.163,0.568c0.086,0.377,0.223,0.931,0.36,1.653
					c0.284,1.441,0.633,3.542,0.897,6.158c0.534,5.221,0.629,12.565-0.832,20.477c-0.114,0.588-0.227,1.172-0.339,1.749l-0.11,0.567
					l-0.354-0.465c-0.776-1.02-1.136-2.275-1.252-3.453c-0.124-1.186-0.098-2.322-0.174-3.404l0.495-0.004
					c-0.206,2.99-1.147,5.644-2.216,7.855c-1.064,2.227-2.284,4.039-3.363,5.479c-1.088,1.437-2.047,2.503-2.737,3.2
					c-0.337,0.356-0.623,0.606-0.807,0.781c-0.188,0.172-0.291,0.257-0.301,0.246c-0.024-0.024,0.339-0.411,0.987-1.141
					c0.649-0.729,1.565-1.82,2.609-3.27c1.035-1.453,2.21-3.269,3.23-5.477c1.027-2.193,1.921-4.807,2.103-7.701l0.495-0.004
					c0.083,1.106,0.064,2.247,0.187,3.382c0.118,1.132,0.45,2.263,1.161,3.2l-0.463,0.102c0.111-0.573,0.223-1.153,0.335-1.737
					c1.451-7.856,1.415-15.145,0.977-20.351c-0.216-2.608-0.509-4.708-0.73-6.156c-0.107-0.678-0.194-1.23-0.263-1.667
					C327.299,309.505,327.278,309.302,327.296,309.299z"/>
			</g>
		</g>
		<path style="fill:#FF725E;" d="M234.222,310.516c-1.921,2.258-4.704,3.763-7.645,4.133c-0.419,0.053-0.939,0.034-1.141-0.337
			c-0.178-0.329,0.009-0.729,0.194-1.054c2.413-4.244,4.827-8.488,7.24-12.732c-3.336,2.364-7.467,3.585-11.553,3.412
			c9.049-5.435,10.525-12,9.128-20.149l7.397-10.187c0,0-1.357,35.837-2.489,36.376"/>
		<g>
			<path style="fill:#263238;" d="M257.277,304.638c0,0-0.117,0.084-0.356,0.225c-0.259,0.15-0.612,0.355-1.066,0.618
				c-0.237,0.135-0.5,0.285-0.788,0.45c-0.283,0.177-0.573,0.401-0.899,0.627c-0.65,0.454-1.406,0.97-2.158,1.679
				c-1.578,1.32-3.294,3.221-4.809,5.737c-1.523,2.509-2.8,5.653-3.606,9.284c-0.811,3.632-1.112,7.738-1.014,12.138
				c0.132,4.404,0.701,9.108,1.659,14.005c0.484,2.448,1.064,4.944,1.73,7.481c0.339,1.267,0.689,2.546,1.065,3.834
				c0.188,0.645,0.377,1.293,0.566,1.944c0.186,0.638,0.395,1.336,0.475,2.02c0.401,2.725,0.686,5.501,1.08,8.313
				c0.196,1.405,0.408,2.82,0.676,4.231c0.285,1.386,0.559,2.883,1.24,4.045l-0.461,0.094c0.339-1.448,0.706-3.013,1.075-4.588
				l0.181-0.772l0.313,0.734c0.68,1.595,1.499,3.284,2.365,4.956c5.968,11.402,13.655,21.246,22.194,28.42
				c8.62,7.093,17.285,12.311,24.52,16.655c7.289,4.279,13.312,7.531,17.495,9.732c2.08,1.084,3.703,1.93,4.828,2.516
				c0.537,0.279,0.954,0.495,1.257,0.652c0.282,0.149,0.422,0.236,0.422,0.236s-0.155-0.055-0.445-0.188
				c-0.309-0.146-0.734-0.347-1.28-0.606c-1.122-0.541-2.769-1.354-4.875-2.43c-4.215-2.148-10.267-5.352-17.588-9.595
				c-7.269-4.311-15.959-9.496-24.642-16.605c-8.613-7.203-16.349-17.088-22.348-28.548c-0.871-1.684-1.691-3.374-2.383-5
				l0.494-0.039c-0.37,1.575-0.737,3.139-1.077,4.587l-0.148,0.631l-0.313-0.538c-0.805-1.384-1.022-2.831-1.326-4.253
				c-0.27-1.427-0.481-2.849-0.676-4.259c-0.392-2.819-0.674-5.607-1.067-8.307c-0.079-0.682-0.267-1.294-0.458-1.959
				c-0.189-0.652-0.376-1.3-0.563-1.945c-0.374-1.291-0.723-2.576-1.06-3.848c-0.663-2.547-1.238-5.055-1.718-7.515
				c-0.948-4.921-1.503-9.651-1.617-14.083c-0.08-4.429,0.244-8.564,1.086-12.225c0.836-3.66,2.15-6.829,3.713-9.351
				c1.554-2.529,3.309-4.43,4.919-5.738c0.768-0.703,1.538-1.211,2.2-1.655c0.332-0.221,0.628-0.44,0.916-0.611
				c0.294-0.158,0.562-0.302,0.804-0.432c0.465-0.246,0.827-0.437,1.092-0.577C257.145,304.692,257.277,304.638,257.277,304.638z"/>
		</g>
		<g>
			<path style="fill:#263238;" d="M334.464,431.901c-0.007,0.005-0.066-0.057-0.175-0.185c-0.126-0.153-0.281-0.343-0.472-0.576
				c-0.43-0.547-1.021-1.298-1.769-2.249c-1.524-1.962-3.709-4.818-6.368-8.376c-5.308-7.124-12.595-17.008-20.101-28.306
				c-3.734-5.661-7.193-11.132-9.907-16.362c-2.807-5.199-4.216-10.417-4.879-14.811c-0.666-4.412-0.675-8.029-0.652-10.511
				c0.017-1.243,0.052-2.208,0.087-2.861c0.018-0.301,0.033-0.545,0.045-0.743c0.013-0.167,0.024-0.253,0.033-0.253
				c0.009,0,0.016,0.086,0.02,0.254c0.002,0.198,0.004,0.443,0.006,0.744c0.003,0.695,0.006,1.65,0.011,2.858
				c0.039,2.477,0.105,6.081,0.814,10.454c0.706,4.36,2.134,9.502,4.942,14.649c2.72,5.186,6.186,10.642,9.914,16.294
				c7.496,11.283,14.733,21.197,19.962,28.374c2.613,3.551,4.736,6.437,6.234,8.473c0.715,0.975,1.28,1.746,1.691,2.307
				c0.175,0.246,0.316,0.445,0.431,0.607C334.426,431.821,334.471,431.895,334.464,431.901z"/>
		</g>
		<g>
			<path style="fill:#263238;" d="M211.693,355.428c-0.001-0.009,0.103-0.023,0.305-0.041c0.231-0.017,0.527-0.039,0.899-0.066
				c0.79-0.048,1.958-0.108,3.463-0.114c1.505-0.003,3.353,0.038,5.481,0.307c2.122,0.271,4.542,0.768,7.047,1.811
				c2.488,1.045,5.092,2.636,7.221,5.043c2.137,2.399,3.582,5.637,4.225,9.16c1.282,7.081-0.041,15.169-3.39,22.684
				c-3.363,7.557-8.232,13.832-12.904,19.178c-4.691,5.357-9.614,9.61-14.265,12.353c-2.304,1.389-4.344,2.689-5.91,4.138
				c-1.608,1.382-2.856,2.767-3.439,4.136c-0.632,1.359-0.453,2.589-0.208,3.311c0.248,0.742,0.509,1.083,0.469,1.103
				c-0.008,0.005-0.064-0.082-0.169-0.257c-0.099-0.177-0.279-0.428-0.4-0.812c-0.283-0.723-0.505-2.005,0.121-3.425
				c0.574-1.428,1.832-2.862,3.433-4.275c1.559-1.48,3.626-2.829,5.909-4.233c4.597-2.767,9.447-7.006,14.099-12.357
				c4.635-5.343,9.46-11.591,12.788-19.072c3.315-7.437,4.628-15.428,3.394-22.386c-0.619-3.462-2.013-6.617-4.078-8.964
				c-2.059-2.357-4.599-3.938-7.039-4.988c-2.456-1.048-4.84-1.565-6.942-1.862c-2.107-0.294-3.944-0.365-5.444-0.393
				c-1.5-0.025-2.667,0.002-3.458,0.016c-0.372,0.006-0.669,0.01-0.9,0.014C211.798,355.441,211.694,355.437,211.693,355.428z"/>
		</g>
		<g>
			<path style="fill:#FFBF9D;" d="M352.197,168.881c-2.183-4.051-4.725-8.037-8.366-10.851c-3.641-2.814-8.582-4.293-12.95-2.844
				c-4.368,1.449-7.615,6.357-6.31,10.769l12.706,47.87c15.044,0.953,20.414-14.565,21.02-22.427
				C358.902,183.536,355.937,175.823,352.197,168.881z"/>
			<g style="opacity:0.3;">
				<path style="fill:#FF9A6C;" d="M352.126,193.097c-0.236-9.712-3.909-19.997-12.078-25.254c-1.771-1.14-3.804-2.035-5.908-1.932
					c-2.104,0.103-4.249,1.432-4.768,3.473l8.17,37.642c3.177,2.893,8.657,1.587,11.389-1.729
					C351.663,201.981,352.23,197.393,352.126,193.097z"/>
			</g>
			<path style="fill:#FF725E;" d="M364.15,229.16c-4.751-21.38-25.254-19.431-25.254-19.431
				c5.592-24.852-14.911-53.432-14.911-53.432c-49.083-62.751-139.695-5.592-139.695-5.592
				c-44.188,28.975-24.176,95.611-24.176,95.611s14.891,26.177,39.579,27.313l19.811,4.362
				c16.365,12.934,56.486,16.101,80.888,17.157c24.402,1.056,38.513-8.168,48.98-17.876
				C364.074,263.636,368.902,250.54,364.15,229.16z"/>
			<path style="fill:#FFBF9D;" d="M303.269,157.974c-3.585,4.643-6.246,10.139-10.859,13.764
				c-8.326,6.543-20.119,5.087-30.561,6.839c-15.871,2.663-30.116,14.171-35.433,29.36c-5.317,15.189-1.133,33.431,10.719,44.317
				c11.852,10.886,30.834,13.403,44.812,5.43c7.056,18.543,25.503,32.089,45.238,33.613c9.608-3.442,19.969-9.908,26.04-15.192
				c14.216-12.373,19.648-25.849,13.141-46.606c-6.551-20.899-27.47-19.769-27.47-19.769c5.592-24.852-14.911-53.432-14.911-53.432
				c-1.64-2.097-3.329-4.049-5.057-5.885l-0.812-0.061C312.362,149.211,306.854,153.331,303.269,157.974z"/>
			<path style="fill:#FF725E;" d="M328.368,220.77c-4.578,0.358-9.017,2.306-12.38,5.434c-0.468,0.436-0.953,0.993-0.864,1.627
				c0.097,0.697,0.198,1.738,0.85,2.005c2.162,0.884,4.596,1.419,6.912,1.726c1.693,0.224,3.992-0.309,5.453-1.192
				c1.594-0.964,2.437-2.927,2.307-4.786C330.516,223.725,330.937,221.415,328.368,220.77"/>
			<g>
				<path style="fill:#263238;" d="M324.946,230.378c-0.008,0.143-1.951,0.143-4.316-0.208c-1.179-0.175-2.251-0.395-2.998-0.698
					c-0.372-0.15-0.664-0.322-0.831-0.497c-0.18-0.176-0.156-0.375-0.106-0.356c0.029,0.011,0.061,0.098,0.235,0.199
					c0.173,0.099,0.455,0.207,0.821,0.305c0.731,0.199,1.785,0.358,2.956,0.532C323.045,230.001,324.955,230.233,324.946,230.378z"
					/>
			</g>
			<g>
				<path style="fill:#263238;" d="M328.391,222.088c0.022-0.053,0.483,0.087,0.957,0.661c0.474,0.561,0.863,1.564,0.809,2.686
					c-0.059,1.114-0.432,2.043-0.722,2.676c-0.298,0.635-0.532,0.999-0.596,0.972c-0.069-0.028,0.046-0.448,0.252-1.105
					c0.199-0.656,0.494-1.558,0.545-2.567c0.047-1.002-0.24-1.897-0.588-2.447C328.705,222.403,328.344,222.159,328.391,222.088z"/>
			</g>
			<g>
				<path style="fill:#263238;" d="M334.36,243.229c-0.15,0.038-0.93-2.747-2.279-6.034c-1.336-3.294-2.727-5.83-2.592-5.907
					c0.112-0.072,1.721,2.375,3.075,5.71C333.929,240.327,334.49,243.202,334.36,243.229z"/>
			</g>
			<path style="fill:#FF725E;" d="M174.89,158.556c-11.479-5.988-23.811-10.338-36.507-12.877c-2.138-0.427-5.005-0.423-5.749,1.626
				c-0.747,2.054,1.468,3.905,3.417,4.894c7.91,4.014,16.649,6.387,25.503,6.924c-8.191,0.441-16.184,3.923-22.086,9.621
				c-1.798,1.736-3.5,4.397-2.254,6.564c1.339,2.327,4.764,1.955,7.34,1.199c8.882-2.609,17.509-6.088,25.716-10.37"/>
			<g>
				<path style="fill:#FFBF9D;" d="M231.758,273.675c0.844,8.533-4.692,16.867-12.209,20.991
					c-7.518,4.125-16.604,4.562-25.043,3.043c-13.276-2.39-25.654-9.497-34.412-19.757c-3.938-4.614-7.298-10.496-6.194-16.46
					c0.788-4.257,3.755-7.814,7.129-10.526c8.19-6.583,19.449-9.169,29.691-6.82c0,0,17.96,8.755,25.895,15.809
					C224.55,267.007,231.758,273.675,231.758,273.675z"/>
				<g style="opacity:0.3;">
					<path style="fill:#FF9A6C;" d="M191.911,259.696c-5.038-1.339-10.376-0.882-13.486,1.555c-1.028,0.805-1.951,1.931-1.958,3.237
						c-0.006,1.047,0.576,1.999,1.178,2.856c6.321,8.996,17.363,14.462,28.349,14.034c1.474-0.057,2.976-0.222,4.314-0.842
						c1.338-0.62,2.503-1.763,2.826-3.202c0.298-1.327-0.153-2.736-0.925-3.856c-0.772-1.12-1.84-1.997-2.911-2.836
						C203.9,266.409,198.063,262.734,191.911,259.696"/>
				</g>
				<g>
					<path style="fill:#263238;" d="M208.362,281.915c0.001,0.018-0.161,0.037-0.469,0.056c-0.308,0.017-0.763,0.043-1.35,0.054
						c-1.172-0.013-2.877-0.044-4.959-0.349c-4.147-0.57-9.872-2.24-15.242-5.821c-2.655-1.796-5.071-3.748-6.744-6.027
						c-1.691-2.236-2.391-4.969-1.771-7.063c0.55-2.095,1.888-3.436,2.967-3.934c0.539-0.262,0.997-0.363,1.306-0.398
						c0.312-0.023,0.474-0.026,0.475-0.008c0.015,0.07-0.675,0.03-1.686,0.586c-1.002,0.528-2.227,1.844-2.705,3.844
						c-0.537,1.987,0.147,4.534,1.8,6.689c1.631,2.183,4.026,4.108,6.645,5.877c5.293,3.53,10.916,5.233,15.01,5.891
						c2.055,0.349,3.742,0.435,4.907,0.51C207.713,281.854,208.361,281.878,208.362,281.915z"/>
				</g>
			</g>
			<g>
				<path style="fill:#263238;" d="M358.376,216.722c-0.008,0.008-0.116-0.069-0.318-0.227c-0.228-0.184-0.518-0.418-0.879-0.71
					c-0.37-0.329-0.873-0.675-1.463-1.081c-0.573-0.432-1.289-0.84-2.086-1.305c-1.615-0.885-3.674-1.809-6.167-2.45
					c-2.477-0.642-5.413-1.044-8.549-0.796l-0.286,0.023l0.043-0.282c0.517-3.39,1.036-7.139,0.929-11.153
					c0.001-0.501,0.002-1.006,0.002-1.514c-0.016-0.508-0.064-1.018-0.094-1.532c-0.077-1.027-0.123-2.072-0.227-3.122
					c-0.286-2.093-0.527-4.243-1.023-6.387c-1.252-6.089-3.305-11.693-5.69-16.518c-2.387-4.831-5.079-8.894-7.569-12.121
					c-0.629-0.801-1.272-1.53-1.856-2.239c-0.59-0.704-1.134-1.38-1.71-1.95c-1.133-1.157-2.042-2.223-2.897-2.98
					c-0.807-0.757-1.448-1.357-1.918-1.798c-0.197-0.192-0.358-0.349-0.491-0.478c-0.109-0.11-0.162-0.17-0.156-0.177
					c0.006-0.007,0.07,0.039,0.19,0.136c0.142,0.119,0.315,0.263,0.525,0.439c0.488,0.425,1.152,1.002,1.989,1.73
					c0.878,0.737,1.812,1.786,2.971,2.929c0.589,0.564,1.145,1.234,1.747,1.933c0.596,0.704,1.252,1.428,1.894,2.227
					c2.54,3.215,5.282,7.283,7.71,12.136c2.425,4.846,4.508,10.489,5.77,16.626c0.499,2.161,0.741,4.329,1.025,6.439
					c0.102,1.059,0.147,2.112,0.222,3.148c0.029,0.519,0.077,1.033,0.091,1.545c-0.002,0.512-0.005,1.021-0.007,1.527
					c0.093,4.046-0.449,7.825-0.996,11.237l-0.243-0.26c6.5-0.413,11.707,1.613,14.895,3.461c0.796,0.485,1.508,0.914,2.074,1.366
					c0.583,0.426,1.077,0.791,1.435,1.138c0.345,0.313,0.622,0.565,0.839,0.763C358.291,216.619,358.384,216.714,358.376,216.722z"
					/>
			</g>
			<g>
				<path style="fill:#FF725E;" d="M302.687,175.984c0.308,1.019,1.255,1.674,2.441,1.992c1.194,0.314,2.63,0.297,4.157-0.126
					c1.528-0.422,2.901-1.182,3.991-2.128c1.081-0.944,1.879-2.082,2.008-3.222c0.129-1.133-0.484-2.049-1.693-2.538
					c-1.199-0.491-2.995-0.539-4.96,0.004c-1.964,0.544-3.671,1.561-4.737,2.679C302.817,173.765,302.38,174.971,302.687,175.984z"
					/>
			</g>
			<g>
				<path style="fill:#FF725E;" d="M248.73,210.292c1.819,0.486,3.992,0.166,6.018-0.602c2.033-0.778,3.932-2.001,5.393-3.6
					c1.464-1.598,2.255-3.314,2.409-4.926c0.144-1.603-0.358-3.11-1.758-4.054c-1.392-0.939-3.477-1.091-5.771-0.429
					c-2.284,0.652-4.757,2.133-6.639,4.188c-1.88,2.055-2.763,4.241-2.647,5.959C245.842,208.558,246.92,209.81,248.73,210.292z"/>
			</g>
			<g>
				<path style="fill:#263238;" d="M269.144,235.703c2.941,4.711,9.143,6.145,13.854,3.205c4.71-2.941,6.145-9.144,3.204-13.854
					c-2.941-4.711-9.144-6.146-13.854-3.205C267.638,224.789,266.203,230.992,269.144,235.703z"/>
			</g>
			<g>
				<path style="fill:#263238;" d="M315.75,212.228c2.941,4.711,9.143,6.145,13.854,3.205c4.711-2.941,6.145-9.144,3.204-13.854
					c-2.941-4.711-9.143-6.146-13.854-3.205S312.809,207.517,315.75,212.228z"/>
			</g>
			<g>
				<path style="fill:#263238;" d="M326.56,251.518c0.019,0.051-0.777,0.423-2.167,0.684c-1.383,0.264-3.372,0.34-5.487-0.126
					c-2.115-0.474-3.885-1.384-5.026-2.21c-1.148-0.824-1.712-1.498-1.673-1.536c0.06-0.066,0.708,0.505,1.876,1.229
					c1.164,0.727,2.893,1.55,4.935,2.008c2.044,0.449,3.958,0.436,5.32,0.27C325.705,251.676,326.534,251.433,326.56,251.518z"/>
			</g>
			<g>
				<path style="fill:#FFBF9D;" d="M298.611,233.009c9.294-11.793,23.315-19.75,38.206-21.681"/>
				<g>
					<path style="fill:#263238;" d="M336.817,211.328c0.005,0.036-0.613,0.166-1.732,0.372c-0.56,0.096-1.244,0.222-2.029,0.412
						c-0.786,0.184-1.689,0.353-2.665,0.639c-1.968,0.499-4.272,1.24-6.775,2.2c-2.49,0.995-5.172,2.229-7.871,3.745
						c-2.686,1.54-5.122,3.21-7.253,4.838c-2.109,1.657-3.927,3.255-5.364,4.689c-0.746,0.69-1.354,1.379-1.915,1.96
						c-0.566,0.576-1.025,1.099-1.394,1.531c-0.75,0.855-1.179,1.318-1.207,1.296c-0.028-0.022,0.347-0.528,1.052-1.426
						c0.347-0.454,0.786-0.998,1.334-1.596c0.543-0.602,1.137-1.313,1.87-2.024c1.413-1.476,3.219-3.115,5.329-4.807
						c2.132-1.662,4.582-3.359,7.292-4.913c2.722-1.529,5.435-2.761,7.955-3.74c2.534-0.944,4.867-1.654,6.859-2.11
						c0.987-0.265,1.902-0.41,2.697-0.568c0.795-0.164,1.487-0.261,2.054-0.327C336.185,211.355,336.812,211.292,336.817,211.328z"
						/>
				</g>
			</g>
			<g>
				<path style="fill:#FFBF9D;" d="M266.625,232.096c2.049-0.559,4.098-1.118,6.146-1.676"/>
				<g>
					<path style="fill:#FFFFFF;" d="M272.771,230.419c0.189,0.694-1.033,1.632-2.73,2.094c-1.698,0.463-3.227,0.276-3.416-0.418
						c-0.189-0.693,1.033-1.631,2.731-2.094C271.053,229.538,272.582,229.725,272.771,230.419z"/>
				</g>
			</g>
			<g>
				<path style="fill:#FFBF9D;" d="M312.227,211.887c2.049-0.559,4.098-1.118,6.146-1.676"/>
				<g>
					<path style="fill:#FFFFFF;" d="M318.374,210.211c0.189,0.694-1.033,1.632-2.73,2.094c-1.698,0.463-3.227,0.276-3.416-0.418
						c-0.189-0.693,1.033-1.631,2.731-2.094C316.655,209.33,318.185,209.518,318.374,210.211z"/>
				</g>
			</g>
		</g>
		<g>
			<path style="fill:#263238;" d="M280.462,300.067c-0.002,0.016-0.218,0.002-0.631-0.038c-0.412-0.047-1.026-0.094-1.81-0.215
				c-1.573-0.217-3.853-0.622-6.647-1.357c-5.571-1.443-13.252-4.425-20.718-9.9l0.281-0.426c2.216,1.302,4.294,3.033,6.031,5.139
				c0.43,0.539,0.918,1.075,1.172,1.798c0.123,0.351,0.181,0.783,0.014,1.182c-0.154,0.391-0.518,0.694-0.911,0.791
				c-0.789,0.178-1.488-0.073-2.118-0.339c-0.6-0.299-1.195-0.596-1.784-0.891c-2.317-1.253-4.39-2.728-6.268-4.236
				c-3.755-3.028-6.748-6.184-9.173-8.887c-2.42-2.713-4.268-4.999-5.537-6.584c-0.603-0.769-1.083-1.382-1.442-1.84
				c-0.324-0.425-0.488-0.654-0.474-0.665c0.014-0.011,0.205,0.195,0.555,0.599c0.378,0.443,0.883,1.035,1.517,1.778
				c1.316,1.545,3.205,3.793,5.654,6.466c2.452,2.664,5.46,5.779,9.199,8.759c1.87,1.484,3.926,2.934,6.21,4.161
				c1.146,0.513,2.363,1.416,3.525,1.179c0.542-0.132,0.781-0.733,0.542-1.305c-0.198-0.583-0.651-1.101-1.081-1.635
				c-1.697-2.058-3.727-3.752-5.889-5.03l0.281-0.426c7.389,5.447,14.983,8.468,20.502,9.99c2.767,0.773,5.027,1.228,6.587,1.5
				c0.778,0.148,1.386,0.224,1.794,0.3C280.251,300.007,280.464,300.052,280.462,300.067z"/>
		</g>
		<g>
			<path style="fill:#263238;" d="M333.419,289.223c0.016,0.032-0.473,0.305-1.371,0.771c-0.895,0.473-2.22,1.1-3.881,1.821
				c-3.319,1.447-8.04,3.165-13.42,4.462c-5.384,1.287-10.372,1.898-13.985,2.115c-1.807,0.111-3.273,0.154-4.285,0.139
				c-1.012-0.007-1.571-0.029-1.572-0.064c0-0.036,0.558-0.083,1.566-0.138c1.008-0.047,2.466-0.146,4.262-0.303
				c3.592-0.31,8.54-0.975,13.892-2.254c5.348-1.289,10.058-2.941,13.4-4.295c1.672-0.675,3.016-1.249,3.936-1.664
				C332.884,289.401,333.404,289.19,333.419,289.223z"/>
		</g>
		<g style="opacity:0.3;">
			<path d="M163.383,406.432c-2.435,4.596-1.974,10.804,0.819,15.122c0.286-0.839,0.572-1.677,0.858-2.516
				c0.931,3.434,2.259,6.332,4.703,8.573l3.184-1.224c-4.815-6.224-7.762-13.035-6.102-21.293L163.383,406.432z"/>
		</g>
		<g>
			<path style="fill:#263238;" d="M177.707,431.62c-0.008,0.015-0.121-0.036-0.329-0.146c-0.204-0.117-0.523-0.264-0.894-0.52
				c-0.76-0.48-1.808-1.282-2.925-2.471c-1.117-1.185-2.274-2.791-3.158-4.794c-0.895-1.991-1.478-4.395-1.463-6.967l0.518,0.011
				c-0.016,0.644-0.034,1.327-0.052,2.019c-0.032,1.159-0.063,2.294-0.093,3.383l-0.019,0.689l-0.435-0.532
				c-1.538-1.878-2.332-4.062-2.742-6.032c-0.41-1.985-0.451-3.79-0.427-5.279c0.031-1.492,0.134-2.68,0.21-3.496
				c0.079-0.816,0.141-1.261,0.173-1.259c0.033,0.002,0.032,0.451,0.01,1.27c-0.019,0.819-0.07,2.008-0.055,3.486
				c0.022,1.476,0.103,3.254,0.531,5.183c0.428,1.917,1.221,4.016,2.696,5.799l-0.454,0.157c0.028-1.089,0.056-2.225,0.085-3.384
				c0.019-0.691,0.037-1.375,0.055-2.019l0.518,0.011c-0.021,2.487,0.524,4.823,1.37,6.774c0.834,1.962,1.931,3.552,2.992,4.744
				C175.953,430.648,177.78,431.523,177.707,431.62z"/>
		</g>
		<g>
			<g style="opacity:0.3;">
				<path d="M201.761,432.278c-0.629,0.644-1.198,1.344-1.682,2.113L201.761,432.278z"/>
			</g>
			<g style="opacity:0.3;">
				<path d="M239.231,385.205c-3.139,10.226-11.221,27.634-22.226,34.827c-11.482,7.505-16.115,11.103-15.244,12.246
					c1.955-2.002,4.512-3.439,7.113-4.543c3.438-1.459,7.073-2.46,10.395-4.167c6.089-3.128,10.762-8.429,14.842-13.926
					c3.136-4.227,6.092-8.841,6.809-14.055C241.406,392.062,240.809,388.395,239.231,385.205z"/>
			</g>
		</g>
		<path style="opacity:0.3;" d="M328.045,313.556c0,0,10.75,11.668,10.469,23.391l-9.934-6.944L328.045,313.556z"/>
		<path style="opacity:0.4;fill:#FF725E;" d="M280.939,246.097c0,2.297-3.657,4.159-8.168,4.159c-4.511,0-8.168-1.862-8.168-4.159
			s3.657-4.159,8.168-4.159C277.282,241.937,280.939,243.799,280.939,246.097z"/>
		<g>
			<path style="fill:#263238;" d="M166.424,168.816c-0.057-0.026,0.285-0.952,1.04-2.355c0.752-1.403,1.954-3.263,3.55-5.105
				c1.6-1.839,3.273-3.291,4.555-4.233c1.283-0.945,2.152-1.413,2.186-1.361c0.045,0.068-0.748,0.643-1.958,1.65
				c-1.211,1.005-2.816,2.476-4.39,4.285c-1.569,1.812-2.799,3.608-3.624,4.948C166.956,167.984,166.498,168.851,166.424,168.816z"
				/>
		</g>
		<g style="opacity:0.2;">
			<path style="fill:#FFFFFF;" d="M385.572,228.375c-3.798,2.58-6.591,6.602-7.682,11.063c-1.091,4.46-0.468,9.317,1.711,13.359
				c0.475,0.882,1.045,1.75,1.877,2.307c0.832,0.558,1.98,0.741,2.836,0.221c1.238-0.752,1.334-2.475,1.339-3.924
				c0.018-5.901,0.887-11.798,2.571-17.454c0.278-0.932,0.58-1.875,0.574-2.848c-0.006-0.972-0.378-1.999-1.189-2.535
				c-0.811-0.536-2.087-0.371-2.543,0.488"/>
		</g>
	</g>
</g>
</svg>
