<?xml version="1.0" encoding="utf-8"?>
<!-- Generator: Adobe Illustrator 27.5.0, SVG Export Plug-In . SVG Version: 6.00 Build 0)  -->
<svg version="1.1" xmlns="http://www.w3.org/2000/svg" xmlns:xlink="http://www.w3.org/1999/xlink" x="0px" y="0px"
	 viewBox="0 0 800 800" xml:space="preserve">
<g id="Objects">
	<g id="rose">
		<path style="fill:#F8312E;" d="M524.698,543.79c31.203-5.485,83.468-54.87,98.818-81.845
			c11.847-20.814,13.098-45.682,17.484-68.701c1.844-9.695-2.56-18.355-2.287-27.954c0.435-14.9,7.422-24.15-1.253-38.254
			c-11.667-18.968-26.541-30.367-34.322-52.189c-7.7-21.592-19.22-32.283-41.242-39.062c-19.233-5.92-32.274-15.479-49.499-24.69
			c-24.983-13.361-51.328,6.78-75.322,12.472c17.123,10.436,28.857,23.237,48.305,30.198c21.892,7.837,38.876,22.577,49.363,43.404
			c21.954,43.603,8.017,84.43,0.025,129.181c-2.567,14.369-4.76,29.796-13.634,41.898c-9.642,13.15-23.687,10.518-22.988,27.25
			C498.94,514.494,493.827,549.157,524.698,543.79"/>
		<path style="fill:#D31213;" d="M611.544,372.326c0.002-23.961-12.69-44.558-24.202-64.598
			c-10.577-18.411-12.809-44.821-32.413-56.632c-19.729-11.867-42.367-13.859-61.522-27.667c-24.255-17.494-41.293-1.735-66.23,4.18
			c53.908,32.857,112.376,57.541,110.879,131.413c-0.594,29.31-9.896,61.009-16.735,89.508
			c-5.502,22.926-33.829,32.897-33.072,51.012c0.592,14.158-3.996,36.067,9.459,45.04c20.047,13.369,56.037-35.712,70.895-46.236
			C608.476,470.11,611.531,417.644,611.544,372.326C611.546,342.41,611.541,382.773,611.544,372.326z"/>
		<path style="fill:#AA0001;" d="M601.644,350.508c0.189-17.481-16.553-28.897-26.271-41.197
			c-12.288-15.554-12.508-37.583-26.409-52c-15.146-15.706-39.699-14.72-57.575-25.744c-6.815-4.207-12.909-9.684-19.995-13.448
			c-12.641-6.716-21.695,2.451-34.318,5.447c50.178,30.581,101.852,51.001,110.101,116.351c3.715,29.5-7.3,57.829-12.407,86.432
			c-4.532,25.381-10.591,48.72-37.048,58.963c-3.914,6.839,1.214,29.049,1.545,36.971c1.507,36.046,34.74-5.924,47.657-17.471
			c23.324-20.851,40.058-35.249,46.667-67.49C599.417,408.887,601.359,379.103,601.644,350.508
			C601.666,348.44,601.568,358.083,601.644,350.508z"/>
		<path style="opacity:0.69;fill:#7D0000;" d="M582.252,386.597c2.535-17.306-12.485-30.859-20.456-44.374
			c-9.787-16.592-7.428-37.404-18.048-53.537c-10.408-15.812-30.621-20.141-46.083-29.032
			c-18.87-10.851-19.021-22.025-42.485-19.737c15.554,12.658,25.446,26.928,43.772,36.458c17.146,8.915,30.621,21.974,38.928,39.552
			c16.259,34.401,11.748,71.628-1.53,105.915c-10.552,27.245-16.001,69.2-46.134,82.226c-17.724,7.662-12.957,30.845-14.759,49.95
			c26.231-16.645,62.179-34.124,78.013-61.951C571.142,461.007,577.2,420.995,582.252,386.597
			C582.552,384.55,581.151,394.091,582.252,386.597z"/>
		<path style="fill:#FF413E;" d="M519.239,509.41c-13.18,10.829-28.831,18.105-41.698,29.385
			c-11.672,10.229-14.256,23.301-22.845,35.282c-27.72,38.664,25.741,17.009,48.853,17.603c13.196,0.335,33.519,9.072,40.018-8.999
			c6.582-18.3,18.649-21.813,27.329-37.537c21.525-39.039,18.968-69.788-17.936-97.436
			C535.625,464.811,538.367,493.656,519.239,509.41"/>
		<path style="fill:#F92B2D;" d="M498.428,493.469c-13.149,11.201-28.878,18.824-41.7,30.481
			c-11.411,10.376-13.565,23.169-21.818,35.112c-3.495,5.057-18.02,18.225-9.458,23.628c15.619,9.857,40.705-4.328,57.287-3.884
			c13.446,0.349,33.573,9.256,40.018-9.335c6.984-20.148,23.146-27.47,30.679-46.413c15.772-39.665,15.401-65.084-21.288-93.593
			C514.674,447.351,517.762,476.953,498.428,493.469"/>
		<path style="fill:#D00E0E;" d="M534.501,442.123c-8.517,12.258-10.862,27.34-16.77,40.783
			c-7.501,17.069-22.765,25.282-37.439,35.304c-24.864,16.979-34,41.49-50.543,65.443c21.135-0.16,39.28-6.931,60.457-3.814
			c28.558,4.204,20.393-23.263,37.146-35.264C562.815,519.175,565.782,471.103,534.501,442.123
			C521.973,460.155,548.654,455.235,534.501,442.123z"/>
		<path style="fill:#FF393A;" d="M274,157c-32.691,1.792-54.613,55.588-70.817,79.458c-12.447,18.335-58.558,64.21-37.521,89.901
			c33.048,40.36,76.826,77.49,125.906,96.126c74.326,28.221,157.475-9.659,176.214-89.434c7.253-30.879,4.936-62.903,0.814-94.041
			c-0.76-5.741-10.815-48.578,2.732-47.032c-21.632-23.341-52.811-36.347-84.623-35.727c-17.131,0.334-33.778,4.95-50.991,4.293
			c-17.993-0.686-33.38-7.879-60.38-3.545"/>
		<path style="fill:#DA191A;" d="M204.055,330.694c15.955-19.247,38.293-29.165,58.814-42.424
			c20.427-13.199,35.175-33.018,55.429-46.292c38.33-25.12,101.815-49.312,147.481-45.528
			c-33.793-23.476-66.874-18.309-105.199-15.787c-26.203,1.725-63.44-19.513-86.498-0.017
			c-22.623,19.128-41.612,51.783-58.141,76.133c-15.143,22.307-40.704,45.095-40.893,74.147
			C184.716,330.849,194.386,330.772,204.055,330.694C209.871,323.678,204.055,330.694,204.055,330.694z"/>
		<path style="opacity:0.69;fill:#9C0001;" d="M266.325,275.433c27.477-20.952,45.818-42.566,79.32-54.834
			c32.556-11.921,64.178-31.161,99.662-30.567c-37.75-14.725-70.674,4.259-107.825-2.042c-25.382-4.298-52.384-21.721-65.517,11.753
			c-9.347,23.821-43.331,40.735-47.214,64.24c-4.662,28.218-38.019,32.461-45.707,61.154c13.306,3.255,18.319-1.336,27.256-9.676
			C224.073,298.874,247.141,290.061,266.325,275.433C280.061,264.959,249.434,288.314,266.325,275.433z"/>
		<path style="fill:#FF4047;" d="M449.331,181.711c-35.288,11.026-74.425,5.517-106.114,27.356
			c49.259,6.953,85.028,13.348,124.512,48.234c23.218,20.513,43.517,44.379,49.45,75.678c6.119,32.277-10.885,63.951-4.057,95.543
			c22.434-12.787,44.401-29.148,56.426-52.654c16.357-31.976,5.879-67.717,5.154-101.637c-0.713-33.195-10.015-53.913-34.921-75.515
			c-6.296-5.061-30.933-15.766-38.14-18.084C482.023,175.014,469.471,175.413,449.331,181.711"/>
		<path style="fill:#F8312E;" d="M447.355,184.09c-35.288,11.029-74.424,5.516-106.114,27.355
			c49.259,6.953,85.028,13.349,124.512,48.235c23.218,20.515,43.518,44.377,49.45,75.678c6.119,32.277-10.885,63.95-4.057,95.543
			c22.435-12.787,44.398-29.147,56.427-52.653c16.357-31.977,5.878-67.718,5.154-101.638c-0.713-33.195-10.016-53.914-34.922-75.515
			c-6.296-5.062-30.933-15.766-38.14-18.085C480.048,177.392,467.494,177.792,447.355,184.09"/>
		<path style="fill:#E10004;" d="M520.388,217.559c-15.612-19.06-52.204-20.819-75.421-20.819
			c-20.322,0-40.547,10.478-60.823,13.087c-13.236,1.704-34.454-0.05-45.708,7.715c44.54,6.287,78.329,10.371,115.267,40.398
			c23.77,19.323,46.735,42.246,55.921,72.275c10.699,34.972-5.903,66.545-2.163,101.216c43.16-34.621,33.097-74.32,36.726-123.155
			C546.75,273.783,543.244,245.471,520.388,217.559C501.824,194.896,523.88,221.823,520.388,217.559z"/>
		<path style="opacity:0.69;fill:#9B0101;" d="M539.026,287.356c-3.107-25.489-5.808-50.644-26.749-69.257
			c-23.529-20.914-64.275-11.91-91.529-3.476c34.943,15.668,72.262,45.872,91.265,79.613c23.842,42.334,2.201,78.581,6.924,122.354
			C557.298,385.832,544.442,331.594,539.026,287.356C537.587,275.55,539.861,294.176,539.026,287.356z"/>
		<path style="opacity:0.69;fill:#7E0204;" d="M527.822,307.885c-3.103-25.488-5.809-50.647-26.749-69.258
			c-23.531-20.914-64.274-11.908-91.529-3.475c34.943,15.666,72.264,45.873,91.266,79.613c23.842,42.333,2.202,78.58,6.923,122.353
			C546.102,406.382,533.243,352.104,527.822,307.885C526.385,296.078,528.658,314.704,527.822,307.885z"/>
		<path style="fill:#FF3636;" d="M249.859,249.618c-31.202,5.482-83.469,54.871-98.819,81.844
			c-11.845,20.814-13.097,45.68-17.483,68.699c-1.844,9.696,2.559,18.357,2.287,27.957c-0.436,14.899-7.422,24.147,1.253,38.253
			c11.666,18.969,26.54,30.367,34.322,52.19c7.699,21.591,19.22,32.283,41.242,39.063c19.233,5.92,32.274,15.478,49.499,24.69
			c24.981,13.359,51.329-6.777,75.321-12.474c-17.122-10.438-28.857-23.237-48.304-30.198
			c-21.892-7.836-38.875-22.576-49.362-43.403c-21.955-43.604-8.018-84.43-0.026-129.181c2.566-14.369,4.76-29.796,13.634-41.898
			c9.642-13.149,23.687-10.517,22.988-27.249C275.62,278.952,280.726,244.197,249.859,249.618"/>
		<path style="fill:#DE1616;" d="M316.461,549.075c-35.24-24.369-65.809-26.639-79.304-73.94
			c-11.802-41.365,1.741-85.984,11.501-126.652c3.539-14.747,10.314-27.979,23.682-36.061c13.677-8.269,9.517-11.893,8.83-28.343
			c-0.179-4.276,1.769-20.104-0.985-23.578c-12.791-18.519-45.32,22.884-56.908,33.243c-31.944,28.555-43.71,48.356-50.819,91.462
			c-4.893,29.674-6.713,58.55,7.607,86.408c8.226,16.004,24.544,26.132,30.582,43.064c8.105,22.729,14.291,33.569,38.618,41.058
			c15.362,4.728,28.265,9.98,41.319,19.392c18.655,13.456,32.277-0.992,52.216-5.727
			C333.268,563.592,325.606,555.403,316.461,549.075C306.151,541.945,325.703,555.47,316.461,549.075z"/>
		<path style="fill:#CF0E0F;" d="M303.25,545.938c-31.342-21.677-60.276-23.027-75.783-63.368
			c-14.546-37.842-5.054-71.796,2.654-109.653c5.709-28.046,8.385-56.614,38.823-68.397c4.837-9.296-1.461-34.977-1.913-45.8
			c-25.309,20.063-61.411,45.178-73.741,75.909c-7.468,18.612-8.919,39.093-12.64,58.621c-1.844,9.695,2.559,18.355,2.287,27.955
			c-0.284,9.741-5.656,18.619-3.034,28.475c4.835,18.147,23.355,27.592,31.455,43.881c6.971,14.03,9.119,30.993,20.368,42.658
			c12.568,13.033,32.33,14.637,48.306,21.132c7.801,3.171,14.289,7.883,21.041,12.751c9.845,7.102,17.609-1.249,28.517-3.838
			C320.056,560.454,312.395,552.267,303.25,545.938C292.939,538.808,312.491,552.333,303.25,545.938z"/>
		<path style="fill:#FF3737;" d="M319.003,202.345c-6.981,4.932-8.498,14.297-14.706,19.9c-6.987,6.304-17.089,5.648-22.361,14.352
			c-5.562,9.195-25.417,45.518-7.367,46.558c15.667,0.902,24.237,3.331,35.526-3.616c9.196-5.659,21.748-6.644,32.202-7.639
			c43.779-4.164,150.2-8.532,179.628,33.395c2.585-26.201-4.508-44.943-30.096-54.071c-19.762-7.05-24.518-27.527-41.825-37.407
			c-22.73-12.952-39.844-17.47-65.289-16.209C360.788,198.795,340.561,187.085,319.003,202.345"/>
		<path style="fill:#D31515;" d="M319.003,205.196c-6.981,4.931-8.497,14.298-14.706,19.901
			c-6.987,6.304-17.089,5.648-22.361,14.352c-5.562,9.195-25.416,45.518-7.367,46.558c15.667,0.903,24.236,3.331,35.526-3.616
			c9.196-5.659,21.748-6.644,32.202-7.638c43.779-4.164,150.2-8.532,179.628,33.395c2.585-26.2-4.508-44.943-30.096-54.07
			c-19.762-7.049-24.518-27.528-41.825-37.407c-22.733-12.951-39.843-17.469-65.289-16.208
			C360.789,201.646,340.56,189.936,319.003,205.196"/>
		<path style="fill:#AC0203;" d="M486.734,274.635c-17.91-10.103-24.883-30.32-43.813-38.819
			c-28.039-12.589-46.891-7.123-75.752-12.11c-48.378-8.359-80.217,32.37-95.898,73.851c38.815,2.245,72.283-13.391,114.336-12.153
			c35.77,1.053,112.648,0.76,136.32,34.484C525.039,288.308,510.232,287.793,486.734,274.635
			C486.46,274.48,499.496,281.781,486.734,274.635z"/>
		<path style="opacity:0.69;fill:#8E0000;" d="M520.012,309.655c2.178-22.235-27.549-23.726-41.882-35.183
			c-21.068-16.842-44.335-38.652-72.048-42.932c-53.193-8.214-105.268,0.055-126.677,56.365c21.273,1.227,21.694-3.481,39.355-8.128
			c20.833-5.482,43.572-5.235,64.931-4.606C419.46,276.224,496.34,275.931,520.012,309.655
			C520.293,306.783,493.867,272.407,520.012,309.655z"/>
		<path style="opacity:0.69;fill:#7C0201;" d="M527.595,323.527c2.378-24.113-90.653-60.718-109.768-67.803
			c-26.669-9.885-63.086-23.994-88.072-4.102c-18.551,14.769-34.201,27.634-42.764,50.155c32.681,1.891,37.496,56.787,46.01,84.557
			c4.839-25.367,65.812-45.428,85.442-53.206C441.177,324.119,507.885,295.446,527.595,323.527
			C527.878,320.656,501.45,286.28,527.595,323.527z"/>
		<path style="fill:#F8312E;" d="M216.977,472.874C217.801,473.174,219.192,472.849,216.977,472.874
			C217.286,472.986,216.977,472.874,216.977,472.874z M471.134,452.532c-17.154,17.258-40.35,21.317-59.296,35.327
			c-20.833,15.405-33.811,24.234-60.87,22.798c-44.39-2.357-91.7-22.931-133.075-37.452c-19.022,51.39,62.815,61.879,79.62,95.595
			c11.474,23.021,32.739,31.534,56.936,34.571c23.887,3.009,42.956,19.27,66.849,11.461
			c42.555-13.904,109.835-57.703,111.929-107.934c1.097-26.294,22.217-46.694,21.303-71.6c-0.708-19.271-2.452-62.891-22.829-70.967
			C518.022,397.184,496.138,427.375,471.134,452.532"/>
		<g>
			<path style="fill:#FF3435;" d="M216.977,472.874C217.801,473.174,219.192,472.849,216.977,472.874
				C217.286,472.986,216.977,472.874,216.977,472.874z"/>
			<path style="fill:#D00F10;" d="M547.303,411.907c4.006-13.95-0.017-51.167-14.054-56.732
				c-13.678,32.852-35.562,63.044-60.565,88.202c-20.698,20.822-52.972,32.933-77.315,49.429
				c-26.295,17.818-65.873,7.104-93.631-1.3c-27.474-8.321-55.35-17.998-82.295-27.457c-9.809,26.507,61.463,46.186,72.782,66.764
				c22.524,40.951,59.563,29.271,95.406,48.954c30.348,16.665,87.013-30.928,106.915-50.494
				c15.523-15.26,43.009-33.033,43.955-55.773C539.521,448.997,540.965,434.005,547.303,411.907
				C552.497,393.82,544.773,420.726,547.303,411.907z"/>
			<path style="fill:#C20E0D;" d="M276.506,501.172c15.213,9.615,17.662,29.269,31.791,40.014
				c14.42,10.94,33.593,12.091,50.859,13.742c16.525,1.58,27.082,16.232,44.08,13.233c19.21-3.389,37.57-13.621,53.751-24.117
				c28.495-18.484,67.483-49.449,69.033-86.628c0.933-22.383,37.53-80.462,5.68-93.084c-12.078,29.011-30.642,55.641-51.686,78.841
				c-22.317,24.602-52.258,31.4-77.13,51.843c-52.083,42.808-114.324-8.217-167.694-17.708
				C248.133,487.093,262.977,492.602,276.506,501.172C291.205,510.462,274.849,500.122,276.506,501.172z"/>
			<path style="opacity:0.69;fill:#990100;" d="M530.475,367.142c-22.702,52.154-58.117,90.547-108.843,114.692
				c-21.621,10.293-32.098,27.624-57.908,28.873c-29.114,1.408-60.356-7.012-87.134-17.965
				c17.562,29.732,35.593,36.953,69.864,40.227c13.52,1.292,21.986,12.54,34.636,13.795c18.043,1.793,38.899-9.956,53.776-18.821
				c29.041-17.324,57.32-40.125,72.879-70.833c7.145-14.096,4.196-28.177,7.029-43.059
				C518.224,395.95,535.85,386.178,530.475,367.142C517.217,397.599,531.357,370.269,530.475,367.142z"/>
		</g>
		<path style="fill:#F92B2D;" d="M488.582,418.361c-24.422,24.15-49.017,51.339-80.438,65.42
			c-26.48,11.866-55.05,21.568-80.978,33.22c-5.107,2.281,18.48,11.709,19.832,11.814c16.146,1.266,32.17-0.823,48.446,0.853
			c39.104,4.024,57.781-2.409,90.598-22.617c11.493-7.072,26.294-5.639,36.883-14.592c12.242-10.347,13.131-29.938,15.502-44.666
			c3.883-24.11,5.693-75.261-22.62-85.486C516.508,383.133,502.81,404.288,488.582,418.361"/>
		<path style="fill:#C50E10;" d="M487.383,415.846c-24.429,24.146-49.014,51.339-80.438,65.421
			c-26.692,11.96-53.384,23.919-80.073,35.887c14.428,16.55,56.855,9.127,77.591,11.016c15.164,1.383,29.099-0.602,43.869-5.336
			c16.659-5.331,29.107-17.11,45.667-22.317c32.836-10.326,37.724-21.06,43.229-55.238c3.885-24.112,5.693-75.259-22.621-85.486
			C515.309,380.616,501.611,401.773,487.383,415.846"/>
		<path style="opacity:0.69;fill:#960202;" d="M474.402,402.202c-25.429,24.306-51.112,51.526-83.474,65.522
			c-27.699,11.978-55.397,23.96-83.096,35.941c15.881,17.583,81.58,11.883,105.16,14.02c38.185,3.461,47.224-31.065,78.643-36.119
			c26.541-4.271,32.5-31.758,32.237-54.521c-0.254-22.019,2.968-72.554-21.218-80.979
			C503.39,367.098,488.961,388.308,474.402,402.202"/>
		<path style="opacity:0.69;fill:#820002;" d="M470.577,396.868c-24.417,24.15-49.018,51.341-80.438,65.419
			c-26.692,11.96-53.382,23.924-80.072,35.887c15.27,17.519,67.298,9.47,89.73,12.492c37.599,5.066,47.852-11.148,76.257-29.537
			c20.038-12.972,35.132-35.586,43.607-57.625c8.381-21.79,3.561-73.518-21.859-82.691
			C498.502,361.638,484.806,382.795,470.577,396.868"/>
		<path style="opacity:0.69;fill:#640002;" d="M459.435,391.121c-24.407,24.155-49.023,51.343-80.437,65.42
			c-26.691,11.961-53.381,23.925-80.072,35.887c14.581,16.726,67.537,10.574,89.11,11.96c32.182,2.068,60.169-14.383,84.315-34.502
			c16.563-13.8,31.241-35.033,37.469-55.858c6.442-21.546,1.349-70.11-23.158-78.96
			C487.361,355.892,473.663,377.048,459.435,391.121"/>
		<path style="opacity:0.99;fill:#670206;" d="M457.935,380.56c-24.407,24.155-49.023,51.343-80.437,65.42
			c-26.691,11.961-53.381,23.925-80.072,35.887c14.581,16.726,67.537,10.574,89.11,11.96c32.182,2.068,60.169-14.383,84.315-34.502
			c16.563-13.8,31.241-35.033,37.469-55.858c6.442-21.546,1.349-70.11-23.158-78.961
			C485.861,345.332,472.163,366.488,457.935,380.56"/>
		<path style="fill:#AA0001;" d="M217.093,353.374c-10.835,38.949-28.521,68.083-14.158,110.324
			c8.475,24.903,85.925,55.055,106.28,32.53c8.786-9.769-46.666-30.423-53.128-33.853c-18.786-9.972-36.864-26.241-38.349-48.885
			c-1.714-26.126,16.722-61.228,27.008-85.335C232.349,329.672,220.363,341.635,217.093,353.374"/>
		<path style="fill:#FF3737;" d="M236.438,343.276c-18.396,32.707-40.76,82.061-9.374,112.024
			c17.004,16.234,72.147,53.304,95.754,43.112c-21.384-26.726-44.514-39.847-55.426-75.51c-8.766-28.648-2.873-65.801-22.79-89.837
			C241.881,336.47,239.16,339.873,236.438,343.276"/>
		<path style="fill:#D10F0F;" d="M239.197,342.649c-18.4,32.704-40.759,82.063-9.375,112.024
			c17.004,16.234,72.149,53.304,95.754,43.112c-21.381-26.726-44.518-39.845-55.425-75.51c-8.762-28.647-2.874-65.803-22.79-89.837
			C244.64,335.843,241.918,339.246,239.197,342.649"/>
		<path style="fill:#B00A0C;" d="M282.581,468.06c-18.339-26.252-21.703-57.484-21.065-88.441
			c0.315-15.302-1.662-23.733-8.922-35.902c-2.719,7.311-12.881-0.732-13.318,15.134c-0.727,26.357-22.326,51.729-8.43,78.201
			c13.595,25.899,39.325,38.466,64.795,48.738C291.103,480.016,286.75,474.105,282.581,468.06
			C276.496,459.349,286.624,473.842,282.581,468.06z"/>
		<path style="opacity:0.99;fill:#670206;" d="M303.229,462.647c-18.339-26.252-21.703-57.484-21.065-88.441
			c0.315-15.302-1.662-23.733-8.922-35.902c-2.719,7.311-12.881-0.732-13.318,15.134c-0.727,26.357-22.326,51.728-8.43,78.201
			c13.595,25.9,39.325,38.466,64.795,48.738C311.752,474.603,307.398,468.693,303.229,462.647
			C297.144,453.936,307.273,468.43,303.229,462.647z"/>
		<path style="fill:#FF3737;" d="M286.928,269.309c-61.576,10.627-39.334,65.497-35.23,106.189
			c3.521,34.923,11.836,103.147,47.211,121.358c-8.402-35.915-34.009-96.417-17.421-131.523
			c9.396-19.884,27.782-40.793,41.397-58.152c10.718-13.665,32.134-22.997,38.296-38.718
			C336.739,262.74,311.399,265.097,286.928,269.309"/>
		<path style="fill:#D21211;" d="M288.723,271.329c-61.569,10.68-39.339,65.455-35.23,106.189
			c3.522,34.923,11.835,103.146,47.211,121.357c-8.402-35.917-34.009-96.415-17.421-131.524
			c9.396-19.884,27.782-40.793,41.397-58.151c10.718-13.665,32.134-22.997,38.297-38.718
			C338.532,264.762,313.195,267.116,288.723,271.329"/>
		<path style="fill:#BA0C0B;" d="M308.95,288.358c-61.572,10.656-39.337,65.473-35.231,106.189
			c3.522,34.926,11.837,103.143,47.211,121.358c-8.388-35.932-34.015-96.404-17.421-131.525
			c9.397-19.884,27.783-40.793,41.397-58.151c10.718-13.665,32.133-22.996,38.296-38.717
			C358.76,281.79,333.421,284.146,308.95,288.358"/>
		<path style="opacity:0.69;fill:#670206;" d="M314.205,296.06c-61.579,10.607-39.332,65.512-35.23,106.188
			c3.522,34.925,11.837,103.143,47.211,121.358c-8.372-35.948-34.022-96.388-17.422-131.524
			c9.396-19.884,27.783-40.793,41.398-58.152c10.718-13.665,32.134-22.996,38.296-38.718
			C364.015,289.492,338.676,291.845,314.205,296.06"/>
		<path style="fill:#FA3235;" d="M397.082,262.182c-27.415,12.564,49.196,61.153,58.446,68.198
			c15.793,12.029,17.021,28.046,12.804,46.236c-2.888,12.453-2.272,20.763,3.502,32.212c6.434,12.755,0.706,22.824,3.489,35.797
			c41.702-13.613,72.661-89.693,64.642-129.704c-7.036-35.039-29.581-35.459-58.984-41.966
			C452.194,266.585,427.495,248.249,397.082,262.182"/>
		<path style="fill:#C30C10;" d="M392.412,264.349c-27.417,12.559,49.198,61.155,58.446,68.198
			c15.794,12.029,17.021,28.047,12.804,46.236c-2.887,12.451-2.272,20.765,3.502,32.213c6.435,12.757,0.705,22.822,3.488,35.797
			c41.706-13.59,72.659-89.711,64.644-129.705c-7.036-35.039-29.582-35.46-58.984-41.966
			C447.521,268.751,422.828,250.419,392.412,264.349"/>
		<path style="fill:#AB0101;" d="M361.786,278.448c-27.417,12.557,49.199,61.155,58.445,68.198
			c15.794,12.03,17.022,28.046,12.805,46.236c-2.887,12.452-2.271,20.763,3.502,32.212c6.433,12.756,0.706,22.826,3.489,35.8
			c41.706-13.589,72.658-89.714,64.642-129.707c-7.041-35.039-29.58-35.459-58.985-41.966
			C416.896,282.851,392.199,264.515,361.786,278.448"/>
		<path style="opacity:0.69;fill:#9A0200;" d="M352.783,286.403c-27.414,12.568,49.192,61.151,58.445,68.199
			c15.796,12.03,17.023,28.045,12.805,46.236c-2.887,12.452-2.271,20.763,3.503,32.211c6.433,12.757,0.704,22.825,3.488,35.799
			c41.71-13.565,72.653-89.729,64.644-129.706c-7.045-35.039-29.579-35.458-58.985-41.966
			C407.893,290.807,383.198,272.473,352.783,286.403"/>
		<path style="opacity:0.69;fill:#670206;" d="M458.31,399.354C458.433,399.206,458.433,399.206,458.31,399.354 M398.782,313.058
			c-9.866,6.351,5.541,35.963,12.68,42.95c19.114-2.79,59.513,32.675,48.875,53.064c9.277-7.032,19.772-10.359,27.064-20.229
			c13.627-18.432-5.301-27.982-11.351-43.842C467.441,322.435,424.203,296.695,398.782,313.058"/>
		<path style="fill:#FF2C3B;" d="M375.793,259.092c-22.71,1.7-32.467,11.905-42.744,30.736
			c-9.308,17.058-38.956,34.239-32.462,56.438c9.072-26.575,54.918-68.708,83.782-50.817c13.738,8.519,13.921,41.467,32.688,40.832
			c12.711-0.431,40.555-4.292,41.152-16.271c0.598-11.979-26.621-25.03-40.006-36.816
			C403.714,270.435,398.184,257.396,375.793,259.092"/>
		<path style="fill:#BD0F10;" d="M354.557,339.28c30.603-25.369,15.443-23.654,39.25-5.75c11.667,8.757,57.449-2.534,60.224-12.017
			c2.775-9.483-33.227-21.872-44.555-38.586c-10.912-16.125-28.666-19.237-46.66-14.887c-21.054,5.089-25.59,19.872-36.202,36.572
			c-7.979,12.557-31.156,24.121-26.028,41.653C306.604,328.64,342.374,349.377,354.557,339.28z"/>
		<path style="fill:#C30C10;" d="M429.088,368.694c15.053,16.369,47.462,95.039,0.754,94.716
			c11.34,28.522,73.18-11.08,60.844-44.756c-6.535-17.842-20.025-29.309-32.414-42.787c-5.511-5.995-8.338-13.818-14.369-19.354
			c-5.786-5.316-16.362-4.694-21.152-11.013C415.699,353.465,423.525,362.65,429.088,368.694"/>
		<path style="fill:#AB0101;" d="M426.792,359.636c6.721,6.458,17.704,12.608,21.319,20.611c6.135,13.58,8.581,33.415,11.853,48.147
			c9.564,43.067-31.006,56.473-64.078,37.036c15.673-14.443,35.6-22.814,40.913-45.896c4.14-17.988-19.746-39.405-20.425-57.538
			C416,352,422.25,355.272,426.792,359.636z"/>
		<path style="opacity:0.4;fill:#380001;" d="M421.609,371.326c-0.096,41.199-7.13,60.028-33.925,89.507
			C401.613,482.499,436.731,447.524,442,435c12.561-29.862-13.082-43.678-20.231-68.952
			C421.716,367.807,421.662,369.567,421.609,371.326"/>
		<path style="opacity:0.69;fill:#670206;" d="M365.461,286.41c-17.129,15.569-41.306,27.588-49.96,50.584
			c-8.761,23.278,17.426,16.21,30.521,15.827c17.56-0.515,53.057-4.175,68.645-14.82C442,319.333,385.269,268.413,365.461,286.41"/>
		<path style="fill:#FF3737;" d="M277.125,420.723c-23.283,3.629,11.863,77.697,29.854,83.796
			c23.757,8.053,51.111-9.223,73.589-14.706c9.216-2.25,40.801-5.587,58.961-12.494c6.552-2.491,5.132-6.13-4.059-6.924
			c-23.118-1.996-62.379-11.433-68.042-13.73C336.803,444.237,313.227,415.166,277.125,420.723"/>
		<path style="fill:#BC1010;" d="M356.561,451.43c-28.051-16.002-53.11-38.343-87.725-28.917
			c5.959,21.015,15.524,70.754,39.693,78.934c20.013,6.787,44.914-7.066,63.47-13.445c21.333-7.334,36.651-2.546,57.75-11.251
			c7.352-3.033,16.468-5.499,3.25-7.5C406.081,465.174,360.93,453.923,356.561,451.43
			C343.288,443.857,376.426,462.764,356.561,451.43z"/>
		<path style="opacity:0.69;fill:#910003;" d="M393.551,462.121c-35.905-9.252-65.605-43.92-102.982-45.201
			c5.112,16.622,13.628,46.23,29.005,56.305C340.068,486.611,373.204,468.261,393.551,462.121
			C380.711,458.813,384.981,464.707,393.551,462.121z"/>
		<path style="opacity:0.4;fill:#380001;" d="M369.98,454.198c-21.862-9.338-39.593-26.776-62.335-34.182
			C322.071,451.747,332.444,464.951,369.98,454.198C365.78,452.404,356.665,458.013,369.98,454.198z"/>
		<path style="fill:#D21211;" d="M327.167,289.396c-28.75,26.224-83.044,85.912-62.928,129.092
			c5.06,10.86,23.129,8.467,32.371,12.108c16.903,6.66,31.826,18.107,48.165,26.038c13.185,6.404,27.208,11.35,41.99,11.938
			c6.786,0.274,27.11,1.131,23.339-6.013c-3.771-7.143-94.163-40.742-120.311-69.353c-35.441-38.78,63.286-26.749,55.376-90.603
			c-2.325-16.047-14.015-17.284-18.099-13.12"/>
		<path style="fill:#FF3737;" d="M387.483,468.602c0.196,0.008,0.402,0.017,0.613,0.024c0.079,0.003,0.162,0.006,0.243,0.009
			c0.155,0.006,0.314,0.012,0.475,0.018c0.12,0.004,0.243,0.008,0.367,0.012c0.134,0.005,0.272,0.009,0.409,0.014
			c0.148,0.005,0.296,0.009,0.449,0.014c0.107,0.003,0.217,0.006,0.326,0.009c0.186,0.005,0.371,0.01,0.562,0.015
			c0.044,0.001,0.09,0.002,0.135,0.003c0.779,0.018,1.6,0.03,2.448,0.034c0.008,0,0.017,0,0.025,0
			c0.277,0.002,0.558,0.002,0.84,0.001c0.031,0,0.062,0,0.093,0c0.283-0.001,0.568-0.003,0.855-0.007c0.023,0,0.046,0,0.069,0
			c6.477-0.078,13.704-0.779,14.968-3.634c0-0.001,0-0.002,0.001-0.003c-4.918,2.364-16.732,1.869-21.596,1.673
			c-14.782-0.589-28.805-5.534-41.99-11.938c-16.339-7.931-31.262-19.378-48.165-26.038c-9.242-3.642-27.187-1.021-31.515-12.193
			c-20.252-52.281,63.874-127.05,64.342-128.55c0.34-1.088-3.08,0.109-4.367,1.421l0.096-0.088
			c-27.851,25.404-79.673,82.211-64.6,124.995c0.487,1.382,1.043,2.748,1.672,4.098c5.06,10.86,23.129,8.467,32.371,12.108
			c16.903,6.66,31.826,18.107,48.165,26.038c13.185,6.404,27.208,11.35,41.99,11.938c0.206,0.009,0.426,0.018,0.656,0.026
			C387.441,468.601,387.463,468.602,387.483,468.602z"/>
		<path style="fill:#B80B0F;" d="M301.333,330.926c-5.667,8.049-45.054,63.618-23.303,73.252
			c11.945,5.293,21.449,3.641,32.559,12.025c11.692,8.824,21.544,19.782,33.162,28.701c21.557,16.429,51.338,32.441,70.998,1.346
			c17.198-27.2,27.865-57.308,3.235-81.024c-9.843,25.089-13.477,76.497-53.504,41.799c-15.295-13.277-23.588-32.258-30.439-50.757
			c-2.173-5.866,19.31-48.201-2.935-51.285C320.413,303.5,303.505,327.842,301.333,330.926z"/>
		<path style="opacity:0.69;fill:#670206;" d="M430.917,384.007c-6.274,15.839-18.565,26.234-32.212,29.604
			c-7.125,7.372-17.494,7.916-34.224-6.586c-2.982-2.588-5.69-5.398-8.181-8.375c-0.065-0.078-0.135-0.148-0.2-0.227
			c-9.036-10.879-20.357-28.928-22.495-43.832c-1.284-6.439,11.533-33.332-2.161-31.462c-13.694,1.87-35.098,45.565-37.812,52.322
			c-8.297,20.653,33.587,33.186,45.701,47.547C404.895,500.728,448.667,398.333,430.917,384.007z"/>
		<g>
			<path style="fill:#BD0F10;" d="M414.564,407.164c0.323-0.872-7.374-3.176-0.369,0.743
				C414.564,407.164,414.295,407.899,414.564,407.164z"/>
		</g>
		<g style="opacity:0.69;">
			<path style="fill:#8E0000;" d="M354.331,412.282c3.066,0.512,5.478,4.837,8.217,6.127c3.348,1.935,6.696,2.902,9.739,5.805
				c1.826,1.612,2.739,3.548,5.174,4.192c6.695,1.29,10.13-5.43,12.869-9.299c3.043-4.193,5.478-2.902,10.347-3.548
				c4.26-0.646,5.479-1.936,8.522-5.16c9.434-9.997,9.956-18.435,11.782-32.947c1.522-10.642,0.913-20.639-5.478-29.346
				c-8.522-11.288-15.521-13.544-27.695-5.16c-8.826,5.805-14.608,12.9-18.261,22.896c-3.348,8.707-5.174,18.382-10.043,26.444
				C356.766,397.447,346.692,411.007,354.331,412.282z"/>
		</g>
		<path style="fill:#C30C10;" d="M432.313,358.779c-4.046-20.591-11.38-28.636-33.343-39.554
			c-11.524-5.737-73.829-13.127-61.664,16.126c59.75-5,93.112,30.125,83.279,63.853
			C454.217,390.019,437.822,386.957,432.313,358.779C431.804,356.19,433.519,364.947,432.313,358.779z"/>
		<path style="opacity:0.4;fill:#380001;" d="M424.289,366.048c-4.046-20.591-6.039-25.936-31.372-37.893
			C377.331,320.798,319.835,319.747,332,349c59.75-5,59.711,26.076,89.679,26.076C424.317,375.076,425.495,372.216,424.289,366.048z
			"/>
		<path style="opacity:0.4;fill:#380001;" d="M420.838,371.797c-4.045-20.591-6.039-25.936-31.371-37.893
			c-15.586-7.357-73.082-8.408-60.918,20.845c59.75-5,59.711,26.076,89.679,26.076C420.867,380.825,422.045,377.965,420.838,371.797
			z"/>
		<path style="fill:#D21211;" d="M307,367.142c-4.195,25.858,27.374,61.119,51.827,50.517c-12.283,5.429-14.511-22.159-3.511-44.159
			c11-22,41.488-38.577,18.35-47.723C356.033,318.807,313.022,330.022,307,367.142z"/>
		<path style="fill:#B80B0F;" d="M379,328.667c-12.052-10.711-54.173,9.222-60.119,30.739
			c-7.199,26.055,18.786,64.261,39.946,58.253c12.238-3.475-15.951-19.867-14.16-37.326C347.333,354.333,391.189,339.5,379,328.667z
			"/>
		<path style="opacity:0.4;fill:#380001;" d="M383.83,331.454c-13.387-8.417-40.489,8.685-49.788,24.814
			c-15.049,26.102,14.561,68.749,32.881,63.547c12.238-3.475-11.657-22.024-9.866-39.482
			C359.723,354.333,397.635,340.133,383.83,331.454z"/>
		<path style="opacity:0.99;fill:#670206;" d="M395.324,346.065c-7.813-7.41-29.217-8.244-41.046-0.565
			c-11.585,7.521-20.31,19.92-11.622,38.903c8.755,19.129,17.639,38.306,31.233,34.189c11.147-3.379,2.508-21.081,4.139-38.051
			C380.458,355.267,406.426,356.595,395.324,346.065z"/>
		<path style="fill:#D21211;" d="M351.573,412.738c3.36-5.208,17.22-0.432,21.316,0.281c10.681,1.858,24.195-3.863,31.863-11.263
			c12.329-11.958,13.587-34.826,6.683-51.324c-1.612-3.853-3.435-14.266,8.366,1.21c4.879,6.398,4.052,8.986,8.866,16.023
			C446,393,430.894,402.642,414.667,415c-12.809,9.755-3,34.667-40,21C370.626,434.508,347.575,419.294,351.573,412.738
			C354.998,407.431,351.494,412.867,351.573,412.738z"/>
		<path style="fill:#BD0F10;" d="M413.313,413.584c16.227-12.359,31.333-22.001,14-47.334c-4.814-7.038-10.523,23.258-22.853,35.215
			c-7.668,7.4-21.182,13.121-31.863,11.264c-4.095-0.713-17.948-5.486-21.313-0.285c0.131-0.197-3.277-6.634-1.897-0.672
			c0.976,4.214,2.254,6.033,5.249,9.328c6.126,6.211,16.142,12.547,18.676,13.484C410.313,448.25,400.505,423.338,413.313,413.584z"
			/>
		<path style="opacity:0.68;fill:#380001;" d="M408.167,405.695c16.227-12.359,30.163-23.83,12.831-49.163
			c-4.814-7.038-10.523,23.258-22.853,35.215c-7.668,7.4-23.762,18.469-31.863,11.264c-13.657-12.146-21.815,3.469-18.821,6.764
			c6.126,6.211,11.29,12.976,19.537,15.092C405.203,434.67,395.358,415.449,408.167,405.695z"/>
		<path style="opacity:0.69;fill:#670206;" d="M396.805,348.333c-24.386-28.611-75.435,8.533-49.739,38.136
			C369.413,412.215,422.723,378.743,396.805,348.333z"/>
		<path style="opacity:0.69;fill:#380001;" d="M398.072,348.75c-2.087-2.223-14.766-21.212-41.576-5.931
			c-26.81,15.281-20.895,37.295-15.255,47.347c10.762,19.182,38.79,13.089,54.336-3.833
			C406.541,374.402,407.314,362.307,398.072,348.75z"/>
		<path style="fill:#B80B0F;" d="M384.355,387.762c12.992-3.407,6.544-59.131,25.333-47.667c19.737,12.043,18.838,38.73-0.639,59.93
			c-17.85,19.429-47.457,23.952-62.901,7.774c-3.804-3.984-20.127-63.371,9.207-19.704
			C363.08,399.595,379.435,389.039,384.355,387.762z"/>
		<path style="opacity:0.4;fill:#380001;" d="M414.313,343.523c-1.394-1.24-2.927-2.391-4.625-3.427
			c-18.789-11.464-12.341,44.259-25.333,47.667c-4.92,1.276-22.353,8.177-30.077-3.322c-22.5-33.494-21.6,4-12.091,13.557
			c9.509,9.558,42.065,5.886,58.261-11.742C413.099,372.486,417.901,356.406,414.313,343.523z"/>
		<g>
			<path style="fill:#D21211;" d="M412.32,339.464c11.76,22.001-14.249,32.654-8.282,49.383
				c7.694,21.576-41.028,27.284-59.729,15.32c0.729,1.839,1.377,3.148,1.84,3.633c15.444,16.178,45.051,11.654,62.901-7.774
				C428.109,379.28,430.771,351.854,412.32,339.464z"/>
		</g>
		<path style="opacity:0.68;fill:#380001;" d="M346.517,392.237c-14.218-9.628-5.316-28.58-5.316-28.58
			c2.01-5.114,6.717-9.347,6.768-3.841c0,0,4.712,39.953,25.98,19.867c12.642-11.939-6.29-4.472-13.094-7.935
			c-6.804-3.463-9.06-13.704-6.804-18.711c0,0,19.914-26.452,41.674-2.73C412.715,368.827,380.409,415.188,346.517,392.237z"/>
		<g>
			<path style="fill:#B80B0F;" d="M367.08,353.141c-9.33,9.166,0.779,40.13-12.598,34.374c-15.24-6.558-17.969-23.689-6.492-39.859
				c10.519-14.821,29.503-17.962,44.102-11.931c9.382,3.876,21.747,39.911-4.302,14.073
				C380.929,342.995,369.679,350.588,367.08,353.141z"/>
			<path style="opacity:0.4;fill:#380001;" d="M350.775,385.738c1.141,0.674,2.372,1.273,3.707,1.777
				c14.771,5.591,4.644-28.084,13.544-31.745c3.373-1.377,14.098-10.464,20.958-3.66c19.98,19.818,12.666-4.475,4.755-9.797
				c-7.91-5.323-28.456,0.113-37.998,13.56C348.287,366.377,346.714,377.57,350.775,385.738z"/>
			<g>
				<path style="fill:#D21211;" d="M353.511,387.116c-13.491-12.04,5.568-22.11-0.64-32.577
					c-8.006-13.498,27.445-22.58,42.21-16.649c-0.939-0.864-2.584-1.919-2.991-2.164c-15.841-9.536-34.334-3.126-45.202,11.441
					C338.449,358.481,338.874,380.874,353.511,387.116z"/>
			</g>
		</g>
		<path style="fill:#B80B0F;" d="M371.897,380.067c-4.322-3.898-3.857-10.586-3.857-10.586c-0.014-2.112,1.446-1.238,1.468,1.086
			c0,0,2.76,16.731,14.271,8.811c6.047-4.162,3.499-15.654-4.132-12.655c-3.527,1.386-8.794-0.805-7.18-6.016
			c1.613-5.211,10.203-9.156,17.351,2.402C395.426,372.178,383.779,390.783,371.897,380.067z"/>
	</g>
</g>
</svg>
