<?xml version="1.0" encoding="utf-8"?>
<!-- Generator: Adobe Illustrator 27.5.0, SVG Export Plug-In . SVG Version: 6.00 Build 0)  -->
<svg version="1.1" xmlns="http://www.w3.org/2000/svg" xmlns:xlink="http://www.w3.org/1999/xlink" x="0px" y="0px"
	 viewBox="0 0 500 500" xml:space="preserve">
<g id="OBJECTS">
	<g>
		<g>
			<g>
				<g>
					<path style="fill:#E54850;" d="M364.466,335.497c-4.093,65.257-30.516,114.262-30.516,114.262
						c43.179-18.464,71.091,1.716,71.091,1.716s0.013-0.032,0.037-0.096l0.008-0.006c0.792-2.202,13.456-38.896-16.018-72.501
						C389.067,378.872,381.727,358.999,364.466,335.497z"/>
				</g>
			</g>
			<g>
				<path style="fill:#F5AC43;" d="M321.121,292.055c-17.616,57.476-41.024,93.345-41.024,93.345
					c32.374,26.109,53.853,64.359,53.853,64.359s26.423-49.005,30.516-114.262C353.927,321.135,339.675,305.415,321.121,292.055z"/>
			</g>
			<g>
				<g>
					<path style="fill:#E54850;" d="M281.053,270.618c1.289,0.473,2.551,0.971,3.793,1.458l0.031,0.016
						c0.378,0.148,0.751,0.306,1.114,0.458c13.125,5.338,24.795,12.071,35.139,19.51c18.537,13.35,32.796,29.068,43.338,43.433
						c17.274,23.506,24.601,43.381,24.601,43.381s19.643-34.156,8.445-89.344c-0.24-1.248-0.606-2.602-1.075-3.959l-0.039-0.099
						c-9.403-27.884-58.306-76.23-58.306-76.23l-54.952,59.127l-0.269,0.288L281.053,270.618z"/>
				</g>
			</g>
			<g>
				<g>
					<path style="fill:#F5AC43;" d="M396.439,285.567c0.461,1.372,0.826,2.706,1.082,3.967c11.197,55.182-8.454,89.339-8.454,89.339
						c29.474,33.606,16.81,70.299,16.018,72.501c1.01-2.122,17.067-36.77,13.199-85.627c-3.882-48.859-20.624-78.435-21.664-80.237
						L396.439,285.567z"/>
				</g>
			</g>
			<g>
				<path style="fill:#F5AC43;" d="M91.173,164.914c0,0,22.637,25.96,8.195,70.642c0,0,45.33-31.726,102.917-45.639
					c-21.142-11.536-37.356-15.717-37.356-15.717C127.649,147.103,91.173,164.914,91.173,164.914z"/>
			</g>
			<g>
				<g>
					<g>
						<path style="fill:#740F14;" d="M91.173,164.914c0,0,36.476-17.811,73.755,9.287c0,0,32.229-22.684,88.205-16.564
							c1.306,0.142,2.689,0.393,4.132,0.729l0.041-0.156c0,0-31.382-14.908-81.972-14.295
							C124.752,144.523,91.173,164.914,91.173,164.914z"/>
					</g>
				</g>
			</g>
			<g>
				<g>
					<path style="fill:#F5AC43;" d="M164.935,174.205c0,0,16.214,4.181,37.35,15.724c16.216,8.837,35.35,22.021,52.263,40.981
						c8.743,9.801,16.894,21.141,23.753,34.209c0.015,0.021,0.02,0.037,0.035,0.057c0.163,0.334,0.341,0.663,0.503,0.996
						c0.761,1.446,1.49,2.927,2.214,4.444l1.819-1.959l0.269-0.288l54.952-59.127c0,0-52.249-44.064-80.831-50.874
						c-1.436-0.342-2.817-0.59-4.124-0.734C197.155,151.526,164.935,174.205,164.935,174.205z"/>
				</g>
			</g>
			<g>
				<path style="fill:#E54850;" d="M168.325,283.274c0,0,40.001-30.468,86.223-52.361c-16.91-18.955-36.04-32.143-52.263-40.995
					c-57.587,13.913-102.917,45.639-102.917,45.639s39.999,17.883,68.949,47.723L168.325,283.274z"/>
			</g>
			<g>
				<g>
					<path style="fill:#740F14;" d="M168.325,283.274c71.067,12.41,111.291,101.058,111.766,102.118
						c0.005,0.008,0.005,0.008,0.005,0.008s23.408-35.869,41.024-93.345c-11.617-8.373-24.924-15.829-40.068-21.432
						c-7.374-15.428-16.558-28.567-26.505-39.711C208.326,252.806,168.325,283.274,168.325,283.274z"/>
				</g>
			</g>
			<path style="opacity:0.25;fill:#740F14;" d="M164.929,174.201c0,0,16.214,4.18,37.356,15.717
				c16.223,8.852,35.353,22.04,52.263,40.995c9.946,11.144,19.13,24.283,26.505,39.711c15.144,5.602,28.452,13.059,40.068,21.432
				c18.554,13.36,32.806,29.08,43.344,43.442c17.261,23.502,24.602,43.375,24.602,43.375c29.474,33.605,16.81,70.299,16.018,72.501
				l-0.008,0.006c-0.025,0.064-0.037,0.096-0.037,0.096s-27.911-20.18-71.091-1.716c0,0-21.478-38.25-53.853-64.359
				c0,0,0,0-0.006-0.008c-0.475-1.06-40.699-89.708-111.766-102.118l-0.008,0.005c-28.951-29.84-68.949-47.723-68.949-47.723
				c14.443-44.682-8.195-70.642-8.195-70.642S127.649,147.103,164.929,174.201z"/>
			<g>
				<path style="fill:#FB502A;" d="M282.509,271.2c0.681,0.359,1.544,0.206,2.057-0.409c17.47-20.996,36.123-41.425,55.443-60.718
					c0.652-0.651,0.652-1.706,0.002-2.358c-0.654-0.655-1.708-0.652-2.358-0.002c-19.391,19.366-38.114,39.871-55.65,60.945
					c-0.588,0.708-0.492,1.759,0.215,2.347C282.31,271.082,282.408,271.146,282.509,271.2z"/>
			</g>
			<g style="opacity:0.5;">
				<path style="fill:#FFFFFF;" d="M342.965,250.244c10.821-8.84,25.255-2.423,33.216,7.015c8.363,9.915,12.531,25.629,7.103,37.933
					c-2.072,4.697-5.163,7.593-8.67,8.981c-14.05,8.723-27.488-4.116-33.542-16.158
					C335.079,276.098,330.915,260.088,342.965,250.244z"/>
			</g>
			<g style="opacity:0.5;">
				<path style="fill:#FFFFFF;" d="M294.004,204.001c4.738-1.741,10.427,0.369,13.52,4.14c2.955,3.602,4.175,8.333,3.752,12.964
					c-0.486,5.32-3.122,10.829-8.787,12.217c-5.023,1.231-10.19-0.954-13.093-5.177
					C282.373,221.261,284.524,207.485,294.004,204.001z"/>
			</g>
		</g>
		<g>
			<g>
				<g>
					<g>
						<path style="fill:#F5AC43;" d="M104.788,396.254c2.893,2.572,3.152,7.003,0.58,9.896l-6.151,6.917
							c-5.939,6.679-5.338,16.946,1.341,22.886c6.68,5.94,16.947,5.337,22.886-1.342l37.357-42.009
							c3.492,3.105,6.984,6.21,10.476,9.316l-37.357,42.009c-11.077,12.457-30.222,13.578-42.678,2.502
							c-12.456-11.076-13.579-30.221-2.502-42.678l6.151-6.917C97.465,393.942,101.896,393.682,104.788,396.254z"/>
					</g>
				</g>
				<g>
					<path style="fill:#212A3E;" d="M162.556,394.172l7.121,6.335l115.169-128.431c-1.242-0.487-2.504-0.985-3.793-1.458
						c-0.723-1.517-1.453-2.998-2.214-4.444c-0.163-0.334-0.341-0.663-0.503-0.996c-0.015-0.021-0.02-0.037-0.035-0.057
						L162.556,394.172z"/>
				</g>
			</g>
		</g>
	</g>
</g>
</svg>
