<?xml version="1.0" encoding="utf-8"?>
<!-- Generator: Adobe Illustrator 27.5.0, SVG Export Plug-In . SVG Version: 6.00 Build 0)  -->
<svg version="1.1" xmlns="http://www.w3.org/2000/svg" xmlns:xlink="http://www.w3.org/1999/xlink" x="0px" y="0px"
	 viewBox="0 0 600 600" xml:space="preserve">
<g id="objects">
	<g>
		<path style="fill:#C6C6C6;" d="M351.5,453.75h-116c-39.764,0-72-32.236-72-72v-163c0-39.764,32.236-72,72-72h116
			c39.764,0,72,32.236,72,72v163C423.5,421.514,391.264,453.75,351.5,453.75z"/>
		<path style="fill:#2A5EDD;" d="M396.5,164.75c0,0-19-18-23-42c-2.375-14.249-3.692-27.793-4.371-36.447
			c-0.496-6.331-4.863-11.666-10.96-13.442c-10.862-3.165-31.13-7.111-64.67-7.111s-53.808,3.946-64.67,7.111
			c-6.097,1.777-10.463,7.111-10.96,13.442c-0.678,8.654-1.996,22.198-4.371,36.447c-4,24-23,42-23,42H396.5z"/>
		<path style="fill:#2A5EDD;" d="M396.5,435.75c0,0-19,18-23,42c-2.375,14.249-3.692,27.793-4.371,36.447
			c-0.496,6.331-4.863,11.666-10.96,13.442c-10.862,3.165-31.13,7.111-64.67,7.111s-53.808-3.946-64.67-7.111
			c-6.097-1.777-10.463-7.111-10.96-13.442c-0.678-8.653-1.996-22.198-4.371-36.447c-4-24-23-42-23-42H396.5z"/>
		<path style="fill:#2050AF;" d="M396.5,435.75c0,0-19,18-23,42c-2.37,14.25-3.69,27.79-4.37,36.45
			c-0.5,6.33-4.86,11.66-10.96,13.44c-10.86,3.16-31.13,7.11-64.67,7.11c-14.36,0-26.29-0.73-36.09-1.8
			c18.57-1.12,75.05-5.89,83.09-22.7c3.2-6.68,5.46-12.69,7.07-17.85c3.12-10-4.36-20.15-14.83-20.15H227.5
			c-5.67,0-10.99-0.88-15.85-2.28c-6.15-20.01-21.15-34.22-21.15-34.22H396.5z"/>
		<path style="fill:#2050AF;" d="M396.5,164.25c0,0-19-18-23-42c-2.37-14.25-3.69-27.79-4.37-36.45
			c-0.5-6.33-4.86-11.66-10.96-13.44c-10.86-3.16-31.13-7.11-64.67-7.11c-14.36,0-26.29,0.73-36.09,1.8
			c18.57,1.12,75.05,5.89,83.09,22.7c3.2,6.68,5.46,12.69,7.07,17.85c3.12,10-4.36,20.15-14.83,20.15H227.5
			c-5.67,0-10.99,0.88-15.85,2.28c-6.15,20.01-21.15,34.22-21.15,34.22H396.5z"/>
		<path style="fill:#C6C6C6;" d="M351.5,453.75h-116c-39.764,0-72-32.236-72-72v-163c0-39.764,32.236-72,72-72h116
			c39.764,0,72,32.236,72,72v163C423.5,421.514,391.264,453.75,351.5,453.75z"/>
		<path style="fill:#9B9B9B;" d="M423.5,218.75v163c0,39.76-32.24,72-72,72h-10c39.76,0,72-32.24,72-72v-163c0-39.76-32.24-72-72-72
			h10C391.26,146.75,423.5,178.99,423.5,218.75z"/>
		<path style="fill:#EFEFEF;" d="M245.5,453.75h-10c-39.76,0-72-32.24-72-72v-163c0-39.76,32.24-72,72-72h10
			c-39.76,0-72,32.24-72,72v163C173.5,421.51,205.74,453.75,245.5,453.75z"/>
		<path d="M411.5,218.75v163c0,33.08-26.92,60-60,60h-116c-33.08,0-60-26.92-60-60v-163c0-20.94,10.78-39.4,27.09-50.14
			c9.45-6.23,20.77-9.86,32.91-9.86h116c12.14,0,23.46,3.63,32.91,9.86C400.72,179.35,411.5,197.81,411.5,218.75z"/>
		<polyline style="fill:#F42737;" points="295,306.225 295,371.393 292,371.393 292,306.043 		"/>
		<polygon style="fill:#F42737;" points="292,293.534 292,283.079 295,283.079 295,293.75 		"/>
		<path style="fill:#5D91F9;" d="M223.5,119.25c0,0,2.671-9.795,3.813-31.066c0.133-2.483,1.779-4.625,4.149-5.375
			c5.814-1.842,18.171-4.873,38.038-5.558C269.5,77.25,239.5,89.25,223.5,119.25z"/>
		<path style="fill:#5D91F9;" d="M223.5,482.25c0,0,2.671,9.795,3.813,31.066c0.133,2.483,1.779,4.625,4.149,5.375
			c5.814,1.842,18.171,4.873,38.038,5.558C269.5,524.25,239.5,512.25,223.5,482.25z"/>
		<path style="fill:#C6C6C6;" d="M436.5,220.6v41.3c0,1.12-0.25,2.19-0.71,3.14c-1.17,2.49-3.7,4.21-6.64,4.21h-3.04
			c-1.67,0-3.26-0.85-4.09-2.31c-0.35-0.62-0.68-1.25-0.98-1.9c-0.76-1.61-1.35-3.28-1.76-5c-0.46-1.84-0.72-3.74-0.77-5.65
			c-0.01-0.25-0.01-0.49-0.01-0.74v-26.59c0-1.56,0.17-3.1,0.5-4.6c0.2-0.93,0.46-1.85,0.79-2.74c0.28-0.77,0.6-1.52,0.97-2.26
			c0.33-0.66,0.69-1.31,1.08-1.93c0.89-1.41,2.41-2.28,4.07-2.28h3.24c2.94,0,5.47,1.72,6.64,4.21
			C436.25,218.41,436.5,219.48,436.5,220.6z"/>
		<path style="fill:#FFFFFF;" d="M436.5,220.6v41.3c0,1.12-0.25,2.19-0.71,3.14c-1.17,2.49-3.7,4.21-6.64,4.21h-3.04
			c-0.61,0-1.21-0.11-1.77-0.34c1.97-0.61,3.58-2.03,4.45-3.87c0.46-0.95,0.71-2.02,0.71-3.14v-41.3c0-1.12-0.25-2.19-0.71-3.14
			c-0.88-1.87-2.52-3.3-4.53-3.9c0.52-0.2,1.08-0.31,1.65-0.31h3.24c2.94,0,5.47,1.72,6.64,4.21
			C436.25,218.41,436.5,219.48,436.5,220.6z"/>
		<polygon style="fill:#6B6B6B;" points="183.5,260.02 216.28,267.47 183.5,300.25 		"/>
		<path style="fill:#6B6B6B;" d="M317,166.75l-83.17,83.17l-50.33-11.44v-19.73c0-17.53,8.78-33.77,23.49-43.46
			c8.48-5.59,18.33-8.54,28.51-8.54H317z"/>
		<path style="fill:none;stroke:#000000;stroke-width:5;stroke-miterlimit:10;" d="M423.5,268.48v113.27c0,39.76-32.24,72-72,72
			h-116c-39.76,0-72-32.24-72-72v-163c0-39.76,32.24-72,72-72h116c38.17,0,69.41,29.71,71.84,67.27"/>
		<path style="fill:none;stroke:#000000;stroke-width:5;stroke-miterlimit:10;" d="M235.5,441.75c-33.084,0-60-26.916-60-60v-163
			c0-33.084,26.916-60,60-60h116c33.084,0,60,26.916,60,60v163c0,33.084-26.916,60-60,60H235.5z"/>
		<path style="fill:none;stroke:#000000;stroke-width:5;stroke-miterlimit:10;" d="M196.22,442.1c5.94,7.28,14.71,20.23,17.28,35.65
			c2.37,14.25,3.69,27.79,4.37,36.45c0.5,6.33,4.86,11.66,10.96,13.44c10.86,3.16,31.13,7.11,64.67,7.11s53.81-3.95,64.67-7.11
			c6.1-1.78,10.46-7.11,10.96-13.44c0.68-8.66,2-22.2,4.37-36.45c2.57-15.42,11.34-28.37,17.28-35.65"/>
		<path style="fill:none;stroke:#000000;stroke-width:5;stroke-miterlimit:10;" d="M196.22,158.4c5.94-7.28,14.71-20.23,17.28-35.65
			c2.37-14.25,3.69-27.79,4.37-36.45c0.5-6.33,4.86-11.66,10.96-13.44c10.86-3.16,31.13-7.11,64.67-7.11s53.81,3.95,64.67,7.11
			c6.1,1.78,10.46,7.11,10.96,13.44c0.68,8.66,2,22.2,4.37,36.45c2.57,15.42,11.34,28.37,17.28,35.65"/>
		<path style="fill:none;stroke:#000000;stroke-width:5;stroke-miterlimit:10;" d="M436.5,220.6v41.3c0,4.059-3.291,7.35-7.35,7.35
			h-3.042c-1.671,0-3.256-0.854-4.084-2.306c-2.301-4.036-3.525-8.62-3.525-13.294v-26.59c0-2.53,0.44-5.01,1.29-7.34
			c0.532-1.464,1.216-2.869,2.051-4.191c0.887-1.404,2.413-2.279,4.074-2.279h3.235C433.209,213.25,436.5,216.541,436.5,220.6z"/>
		<line style="fill:none;stroke:#000000;stroke-width:5;stroke-miterlimit:10;" x1="436.5" y1="237.08" x2="418.5" y2="237.08"/>
		<line style="fill:none;stroke:#000000;stroke-width:5;stroke-miterlimit:10;" x1="436.5" y1="228.75" x2="418.5" y2="228.75"/>
		<line style="fill:none;stroke:#000000;stroke-width:5;stroke-miterlimit:10;" x1="436.49" y1="220.42" x2="419.55" y2="220.42"/>
		<line style="fill:none;stroke:#000000;stroke-width:5;stroke-miterlimit:10;" x1="436.49" y1="262.08" x2="419.86" y2="262.08"/>
		<line style="fill:none;stroke:#000000;stroke-width:5;stroke-miterlimit:10;" x1="436.5" y1="253.75" x2="418.5" y2="253.75"/>
		<line style="fill:none;stroke:#000000;stroke-width:5;stroke-miterlimit:10;" x1="436.5" y1="245.42" x2="418.5" y2="245.42"/>
		<circle style="fill:none;stroke:#FFFFFF;stroke-width:2;stroke-miterlimit:10;" cx="293.5" cy="300.25" r="6.5"/>
		<circle style="fill:none;stroke:#F42737;stroke-width:2;stroke-miterlimit:10;" cx="293.5" cy="300.25" r="5.208"/>
		
			<line style="fill:none;stroke:#FFFFFF;stroke-width:2;stroke-miterlimit:10;" x1="297.659" y1="295.254" x2="306.296" y2="284.879"/>
		<path style="fill:none;stroke:#FFFFFF;stroke-width:2;stroke-miterlimit:10;" d="M306.296,284.879L306.296,284.879
			c-1.698-1.413-1.928-3.936-0.515-5.633l37.109-44.575c1.413-1.698,3.936-1.928,5.633-0.515l0,0
			c1.698,1.413,1.928,3.936,0.515,5.633l-37.109,44.575C310.516,286.062,307.994,286.293,306.296,284.879z"/>
		
			<line style="fill:none;stroke:#FFFFFF;stroke-width:2;stroke-miterlimit:10;" x1="287.897" y1="296.955" x2="276.26" y2="290.113"/>
		<path style="fill:none;stroke:#FFFFFF;stroke-width:2;stroke-miterlimit:10;" d="M276.26,290.113L276.26,290.113
			c-1.12,1.904-3.571,2.54-5.476,1.421l-29.55-17.456c-1.904-1.12-2.54-3.571-1.421-5.476l0,0c1.12-1.904,3.571-2.54,5.476-1.421
			l29.55,17.456C276.743,285.757,277.379,288.208,276.26,290.113z"/>
	</g>
</g>
</svg>
