<?xml version="1.0" encoding="utf-8"?>
<!-- Generator: Adobe Illustrator 27.5.0, SVG Export Plug-In . SVG Version: 6.00 Build 0)  -->
<svg version="1.1" xmlns="http://www.w3.org/2000/svg" xmlns:xlink="http://www.w3.org/1999/xlink" x="0px" y="0px"
	 viewBox="0 0 500 499.999" xml:space="preserve">
<g id="OBJECTS">
	<g>
		<g>
			<path style="fill:#93654C;" d="M109.595,310.635c-3.035,10.273,0.457,21.506,6.263,30.509
				c5.805,9.003,13.765,16.365,20.869,24.383c7.104,8.017,13.581,17.171,15.391,27.729c0.279,1.627,0.346,3.551-0.884,4.653
				c-0.63,0.565-1.497,0.794-2.342,0.855c-3.996,0.29-7.824-3.363-7.721-7.369c1.528,4.234,1.164,9.113-0.976,13.073
				c-1.873-1.046-2.129-3.563-2.501-5.676c-1.542-8.762-8.435-15.455-14.963-21.5c1.285,2.777,2.571,5.553,3.856,8.33
				c-8.364-4.892-13.643-13.588-18.574-21.929c1.113,3.276,1.675,6.738,1.657,10.198c-10.584-11.755-19.059-26.976-17.163-42.679
				c0.558-4.617,2.137-9.327,5.557-12.477c3.635-3.348,9.118-4.762,11.561-9.058"/>
			<path style="fill:#93654C;" d="M141.965,394.668c-0.528-1.006-0.823-2.125-0.793-3.273
				C141.554,392.454,141.818,393.553,141.965,394.668z"/>
			<path style="opacity:0.1;fill:#93654C;" d="M98.067,318.734c3.635-3.348,9.118-4.762,11.561-9.058l-0.034,0.958
				c-1.39,4.705-1.41,9.611-0.467,14.412c-5.084,2.442-10.296,4.521-15.437,6.886c-0.44,0.201-0.879,0.402-1.316,0.604
				c0.037-0.441,0.081-0.883,0.134-1.325C93.067,326.595,94.647,321.885,98.067,318.734z"/>
			<path style="fill:#93654C;" d="M135.948,372.864c-0.005-0.028-0.008-0.056-0.011-0.083c0.152,0.174,0.304,0.348,0.453,0.525
				C136.242,373.158,135.948,373.011,135.948,372.864z"/>
			<path style="fill:#684030;" d="M123.999,378.47c-0.243-1.445,0.161-3.153-0.124-4.723c-1.031-3.828-1.178-7.656-1.178-11.484
				c4.953,2.83,9.495,6.207,13.24,10.517c0.004,0.028,0.007,0.056,0.011,0.083c0,0.147,0.294,0.294,0.442,0.442
				c-0.149-0.177-0.302-0.351-0.453-0.525c-0.117-0.856,0.149-1.711-0.136-2.567c-0.147-0.883-0.147-1.914-0.442-2.65
				c-0.589-1.62-1.178-3.386-2.356-5.006c-0.507-0.761-0.905-1.576-1.229-2.435c1.671,1.785,3.334,3.578,4.952,5.404
				c4.013,4.529,7.826,9.422,10.711,14.725c-4.853,2.494-9.863,4.959-14.946,7.31C130.034,384.281,127.018,381.297,123.999,378.47z"
				/>
			<path style="fill:#2F1F1E;" d="M152.118,393.256c0.279,1.627,0.346,3.551-0.884,4.653c-0.63,0.565-1.497,0.794-2.342,0.855
				c-2.851,0.207-5.614-1.593-6.928-4.096c-0.147-1.115-0.411-2.214-0.793-3.273c-0.03,1.148,0.265,2.267,0.793,3.273
				c0.442,3.344-0.164,6.83-1.769,9.8c-1.873-1.046-2.129-3.563-2.501-5.676c-0.732-4.16-2.671-7.852-5.204-11.231
				c5.083-2.351,10.092-4.815,14.946-7.31C149.659,384.335,151.331,388.662,152.118,393.256z"/>
			<path style="fill:#93654C;" d="M92.375,332.537c0.437-0.202,0.876-0.403,1.316-0.604c5.141-2.365,10.353-4.444,15.437-6.886
				c1.116,5.682,3.583,11.217,6.73,16.097c4.483,6.952,10.251,12.926,15.917,18.979c0.324,0.858,0.722,1.674,1.229,2.435
				c1.178,1.62,1.767,3.387,2.356,5.006c0.294,0.736,0.294,1.767,0.442,2.65c0.285,0.856,0.019,1.711,0.136,2.567
				c-3.745-4.31-8.287-7.687-13.24-10.517c0,3.828,0.147,7.656,1.178,11.484c0.285,1.57-0.119,3.278,0.124,4.723
				c-0.423-0.396-0.845-0.788-1.266-1.178c1.285,2.777,2.571,5.553,3.856,8.33c-8.364-4.892-13.643-13.588-18.574-21.929
				c1.113,3.276,1.675,6.738,1.657,10.198C99.387,362.467,91.094,347.769,92.375,332.537z"/>
			<path style="fill:#774E3A;" d="M246.423,244.621c1.904-6.212,6.887-11.941,13.34-12.695c8.118-0.949,14.992,5.902,19.335,12.827
				c7.94,12.659,12.144,27.63,11.957,42.572c-0.366-2.161-0.732-4.322-1.099-6.483l-0.837,4.293
				c12.401,33.925,35.513,46.774,44.369,71.938c-1.778-1.545-11.764-3.894-13.541-5.439c9.49,9.517,14.519,23.308,13.383,36.7
				c-2.738-2.969-5.215-6.178-7.396-9.578c-0.01-0.197-0.025-0.394-0.053-0.591c0-0.147-0.442-0.294-0.442-0.442
				c0-3.975-1.472-7.803-3.386-11.337c-1.031-1.914-1.62-3.975-2.797-5.889c0,2.356,0.294,4.711-0.147,7.067
				c-0.294,1.031-0.147,2.061-0.294,3.092c-0.883-3.239-3.386-5.448-5.595-7.656c-0.589-0.736-1.914-1.472-2.65-2.209
				c-0.589-0.883-1.767-1.031-2.356-2.061c-0.12,0.6-0.117,1.175-0.103,1.755c-0.166-0.506-0.334-1.011-0.504-1.515
				c0.426,6.083-1.012,12.283-4.07,17.558c-1.33-10.138-3.909-20.112-7.659-29.625c-0.19,6.48-1.381,12.929-3.518,19.05
				c-18.305-47.88-38.018-51.428-40.631-58.103c-2.824-7.214-3.534-15.052-4.217-22.769c-0.622-7.037-1.245-14.074-1.867-21.112
				C245.073,257.497,244.519,250.833,246.423,244.621z"/>
			<path style="fill:#2F1F1E;" d="M328.701,393.173c0.729,6.653,0.404,13.422-1.008,19.965c-2.338-2.194-3.462-5.609-2.884-8.763
				c-0.824,3.995-3.341,7.613-6.799,9.775c-0.315-6.685-0.965-13.354-1.941-19.975c2.955-0.043,5.926-0.254,8.931-0.845
				C326.232,393.083,327.467,393.146,328.701,393.173z"/>
			<path style="fill:#684030;" d="M308.213,358.729c0.589,1.031,1.767,1.178,2.356,2.061c0.736,0.736,2.061,1.472,2.65,2.209
				c2.209,2.208,4.712,4.417,5.595,7.656c0.147-1.031,0-2.061,0.294-3.092c0.442-2.356,0.147-4.712,0.147-7.067
				c1.178,1.914,1.767,3.975,2.797,5.889c1.914,3.534,3.386,7.362,3.386,11.337c0,0.147,0.442,0.294,0.442,0.442
				c0.028,0.197,0.043,0.394,0.053,0.591c-0.516-0.804-1.016-1.619-1.498-2.445c0.539,1.314,1.029,2.648,1.474,3.997
				c-0.015,0.316-0.029,0.633-0.029,0.949c0-0.316,0.014-0.633,0.029-0.949c1.38,4.174,2.312,8.495,2.79,12.866
				c-1.234-0.027-2.468-0.09-3.703,0.156c-3.004,0.591-5.976,0.802-8.931,0.845c-1.686-11.429-4.348-22.715-7.957-33.69
				C308.096,359.904,308.093,359.329,308.213,358.729z"/>
			<path style="opacity:0.1;fill:#774E3A;" d="M246.423,244.621c1.904-6.212,6.887-11.941,13.34-12.695
				c8.118-0.949,14.992,5.902,19.335,12.827c7.94,12.659,12.144,27.63,11.957,42.572c-0.366-2.161-0.732-4.322-1.099-6.483
				l-0.837,4.293c7.916,21.656,20.197,34.724,30.348,47.889c-0.07-0.02-0.141-0.042-0.211-0.061
				c-1.325-0.442-2.503-1.472-3.975-2.209c-1.325-0.589-2.503-1.325-3.534-2.503c0.442,6.331-1.178,12.515-2.65,18.552
				c-1.914-3.092-2.797-6.478-3.534-10.159c-0.147-0.294-0.736-0.589-0.883-0.883c-0.147-0.294,0-0.589,0-0.883
				c-0.147-0.295-0.294-1.031-1.178,0.147c-1.767,2.208-1.767,4.859-2.945,7.509c-1.398,3.118-1.932,6.471-2.692,9.774
				c-0.621-1.816-1.284-3.619-1.988-5.405c-0.19,6.48-1.381,12.929-3.518,19.05c-18.305-47.88-38.018-51.428-40.631-58.103
				c-2.824-7.214-3.534-15.052-4.217-22.769c-0.622-7.037-1.245-14.074-1.867-21.112
				C245.073,257.497,244.519,250.833,246.423,244.621z"/>
			<path style="fill:#AE7F61;" d="M330.751,210.177c0.159,0.016,0.315,0.039,0.467,0.068c0.025,0.198,0.047,0.397,0.071,0.595
				C331.11,210.619,330.93,210.398,330.751,210.177z"/>
			<path style="fill:#2F1F1E;" d="M46.233,401.072c-2.212-2.867-4.423-5.734-6.635-8.602c-2.153,2.812-3.372,6.327-3.421,9.868
				c0.11-5.947,0.219-11.894,0.329-17.841c3.578,0.431,7.158,0.826,10.751,1.061C46.733,390.72,46.473,395.931,46.233,401.072z"/>
			<path style="fill:#AE7F61;" d="M41.128,365.06c1.031-1.472,2.945-2.797,4.417-4.417c0.883-1.178,2.356-1.62,3.386-2.797
				c0.147-0.147,0.589,0,0.883,0c0.147-0.147,0.295-0.294,0.442-0.442c-0.294,1.178-0.736,2.061-1.178,2.945
				c-1.031,2.65-2.797,5.006-4.123,7.656c3.239-2.356,5.595-5.889,8.245-8.981c0.372-0.447,0.895-0.893,1.454-1.339
				c-4.494,8.58-6.414,18.139-7.4,27.875c-3.593-0.235-7.173-0.63-10.751-1.061c0.085-4.637,0.171-9.274,0.256-13.91
				C38.063,368.711,39.703,367.02,41.128,365.06z"/>
			<path style="fill:#C69377;" d="M22.082,357.946c6.197-22.091,31.328-33.785,40.625-54.761
				c5.985-13.503,4.601-28.943,6.033-43.644c1.432-14.701,7.484-30.994,21.313-36.183c3.71-1.392,7.717-1.857,11.427-3.248
				c5.262-1.973,9.664-5.701,13.722-9.589c13.482-12.915,24.471-28.419,32.213-45.407c-1.07,4.869-1.645,9.376-2.486,14.283
				c-0.442,1.914,0,3.828-0.883,5.742c-0.442,0.736,0,1.767-0.147,2.65c-0.589,2.208-0.883,4.417-0.883,6.626
				c0,0.589-0.294,1.178-0.442,1.767c-0.442,3.975,0.442,7.656,0.883,11.484c1.178-4.564,2.797-8.834,5.3-12.809
				c-0.294,3.681-1.178,7.214-1.767,11.043c-0.147,1.031,0.147,2.061,0,3.092c-0.294,1.619-0.883,3.239-0.883,4.859
				c0.147,10.895-1.178,22.38,3.092,32.686c1.325-4.564,2.356-9.128,4.859-13.251c0,9.57-0.442,19.141,0.294,28.711
				c0.442,5.595,1.031,11.337,3.092,16.637c1.325,3.828,3.092,7.509,4.564,11.19c0.442,0.883,1.325,1.767,1.62,2.65
				c3.647,9.679,11.306,17.885,20.807,21.95c-8.605-1.838-16.954-4.967-25.673-6.22c-10.864-1.561-21.971-0.152-32.635,2.446
				c-18.901,4.605-36.945,13.013-52.187,25.103c-7.426,5.891-14.262,12.752-18.821,21.062c-0.158,0.288-0.312,0.578-0.465,0.869
				c-0.559,0.446-1.082,0.893-1.454,1.339c-2.65,3.092-5.006,6.626-8.245,8.981c1.325-2.65,3.092-5.006,4.123-7.656
				c0.442-0.883,0.883-1.767,1.178-2.945c-0.147,0.147-0.294,0.294-0.442,0.442c-0.294,0-0.736-0.147-0.883,0
				c-1.031,1.178-2.503,1.62-3.386,2.797c-1.472,1.62-3.386,2.945-4.417,4.417c-1.425,1.96-3.065,3.65-4.367,5.527
				c0.015-0.844,0.031-1.688,0.047-2.532c-1.832,2.135-3.664,4.27-5.496,6.405c1.437-5.565,2.873-11.131,4.309-16.696
				c-2.78,3.772-5.995,7.224-9.561,10.264c1.991-7.225,3.981-14.45,5.972-21.675C28.715,350.218,25.399,354.082,22.082,357.946z"/>
			<path style="fill:#AE7F61;" d="M163.628,292.473c-0.295-0.884-1.178-1.767-1.62-2.65c-1.472-3.681-3.239-7.362-4.564-11.19
				c-2.061-5.3-2.65-11.043-3.092-16.637c-0.736-9.57-0.294-19.141-0.294-28.711c-2.503,4.123-3.534,8.687-4.859,13.251
				c-4.27-10.306-2.945-21.791-3.092-32.686c0-1.62,0.589-3.239,0.883-4.859c0.147-1.031-0.147-2.061,0-3.092
				c0.589-3.828,1.472-7.362,1.767-11.043c-2.503,3.975-4.123,8.245-5.3,12.809c-0.442-3.828-1.325-7.509-0.883-11.484
				c0.147-0.589,0.442-1.178,0.442-1.767c0-2.209,0.294-4.417,0.883-6.626c0.147-0.883-0.294-1.914,0.147-2.65
				c0.883-1.914,0.442-3.828,0.883-5.742c0.841-4.907,1.417-9.414,2.486-14.283c0.635-1.394,1.252-2.797,1.843-4.211
				c5.906-14.122,9.825-29.532,19.684-41.242c10.2-12.113,26.418-18.889,42.203-17.633c-7.492-5.218-15.637-9.498-24.185-12.707
				c13.009,2.858,25.81,6.664,38.266,11.38c-5.391-3.943-10.783-7.886-16.174-11.828c12.634,3.146,24.891,7.802,36.428,13.838
				c-7.872-5.852-15.744-11.705-23.616-17.557c24.009,4.443,46.428,17.068,62.674,35.296c-1.875-6.677-5.583-12.828-10.612-17.604
				c31.369,27.171,52.177,66.222,57.291,107.4c-0.152-0.029-0.308-0.052-0.467-0.068c0.179,0.221,0.358,0.442,0.538,0.663
				c0.048,0.4,0.098,0.8,0.143,1.201l4.008,3.919c-1.384-1.707-2.767-3.413-4.151-5.12c-0.024-0.198-0.046-0.397-0.071-0.595
				c4.446,0.851,5.967,7.285,3.838,11.44c-2.202,4.297-6.6,6.919-10.17,10.169c-9.028,8.218-12.838,20.6-19.816,30.618
				c-10.193,14.635-26.561,23.506-42.323,31.853c-22.982,12.17-47.993,24.721-73.722,20.935c-1.54-0.227-3.069-0.512-4.589-0.837
				C174.934,310.358,167.276,302.153,163.628,292.473z"/>
			<path style="fill:#FFDED2;" d="M332.059,248.556c0,0.365,0.296,0.66,0.66,0.66c0.365,0,0.66-0.296,0.66-0.66
				c0-0.365-0.296-0.66-0.66-0.66C332.354,247.896,332.059,248.192,332.059,248.556z"/>
			<path style="fill:#AE7F61;" d="M261.477,405.111c-0.044-0.454-0.072-0.903-0.086-1.336
				C261.443,404.22,261.47,404.666,261.477,405.111z"/>
			<path style="fill:#AE7F61;" d="M156.531,238.372c0.637-11.11,2.096-22.173,4.361-33.068c1.052-5.06,2.339-10.223,5.329-14.439
				c4.71-6.639,12.867-9.872,20.781-11.777c14.072-3.388,29.594-3.493,42.3,3.44c15.623,8.524,24.179,25.932,29.312,42.973
				c2.16,7.171,3.823,15.21,0.468,21.906c0.27,0.742,0.539,1.484,0.809,2.227l-1.434-2.828c-2.955,8.545,2.33,17.448,5.916,25.748
				c9.383,21.721,7.047,48.108-6.008,67.842c0.676-6.044-0.731-12.3-3.929-17.473c-0.387,1.987-0.624,3.964-0.732,5.933
				c-2.143,3.886-2.74,8.328-2.47,12.647c-0.294-0.294-0.736-0.589-0.736-0.883c-1.031-7.951-5.006-15.018-7.656-22.527
				c0.147,7.803-1.914,15.46-4.417,22.969c-0.147,0.589,0.147,1.178,0,1.767c-0.736,2.503-0.589,5.006-1.178,7.509
				c-0.589,2.356-0.294,4.859-1.472,7.067c-0.147-0.147-0.442-0.294-0.442-0.442c0.147-2.061-0.736-4.123-0.295-6.184
				c0.295-1.031,0.147-2.061,0.295-3.092c0.147-0.147,0.442-0.294,0.442-0.442c0.147-0.736,0-1.472,0-2.209
				c-1.706,2.494-2.709,5.573-3.115,8.611c-0.438-3.149-0.541-6.336-0.183-9.568c-1.435,6.651-2.869,13.303-4.304,19.955
				c-6.842-13.013-10.887-27.488-11.785-42.162c-1.225,8.151-2.451,16.301-3.676,24.452c-6.493-10.412-16.254-18.433-23.033-28.661
				c-11.349-17.122-13.296-38.594-14.913-59.072c-0.863,5.916-1.726,11.833-2.59,17.75c-4.811-16.016-5.604-33.223-2.286-49.614
				c-3.891,8.974-6.219,18.624-6.847,28.386c-2.595-10.79-2.079-22.31,1.47-32.825C161.031,227.186,158.327,232.636,156.531,238.372
				z"/>
			<path style="opacity:0.15;fill:#AE7F61;" d="M251.675,231.518c0,0.147,0,0.442,0,0.442c-0.883,0.147-1.62-0.147-2.65,0.294
				c-0.589,0.295-1.178,0-1.767,0.147c-0.147,0.147-0.294,0.442-0.442,0.442c-0.589,0-1.178,0.294-1.767,0.294
				c-1.62,0.147-2.945,1.178-4.27,1.767c-1.472,0.736-3.092,1.325-4.564,2.356c-0.294,0.294-0.589,0.736-0.883,0.883
				c-1.472,0.294-2.209,1.62-3.534,2.209c-0.294,0-0.589,0-0.883,0c0.589-3.386,3.534-5.595,5.153-8.54
				c4.123-7.509,11.632-12.809,20.466-10.454c0.243,0.061,0.51,0.046,0.772,0.029c0.459,1.37,0.894,2.743,1.307,4.113
				c0.515,1.709,1,3.467,1.397,5.245C257.232,231.189,254.454,231.703,251.675,231.518z"/>
			<path style="fill:#93654C;" d="M232.658,353.647c0.407-3.038,1.409-6.117,3.115-8.611c0,0.736,0.147,1.472,0,2.209
				c0,0.147-0.294,0.294-0.442,0.442c-0.147,1.031,0,2.061-0.295,3.092c-0.442,2.061,0.442,4.123,0.295,6.184
				c0,0.147,0.294,0.294,0.442,0.442c1.178-2.208,0.883-4.711,1.472-7.067c0.589-2.503,5.742-24.441,5.595-32.245
				c2.65,7.509,6.626,14.576,7.656,22.527c0,0.294,0.442,0.589,0.736,0.883c-0.27-4.319,0.327-8.761,2.47-12.647
				c-1.108,20.161,11.353,39.489,16.396,59.67c-0.105,0.029-0.21,0.059-0.314,0.092c-3.534,1.031-6.626,2.945-10.159,3.828
				c-4.009,0.949-7.715,1.975-11.227,3.617c-0.969-2.833-2.029-5.635-3.183-8.397C240.557,376.523,234.285,365.341,232.658,353.647z
				"/>
			<path style="fill:#2F1F1E;" d="M269.785,388.618c0.104-0.033,0.209-0.063,0.314-0.092c1.277,5.111,2.079,10.277,2.064,15.525
				c-0.012,3.912-1.763,8.998-5.667,8.75c-3.373-0.213-4.679-4.146-5.019-7.69c-0.007-0.446-0.033-0.892-0.086-1.336
				c0.014,0.433,0.043,0.881,0.086,1.336c0.079,5.215-2.929,10.415-7.57,12.834c-1.223-7.431-3.071-14.758-5.508-21.883
				c3.512-1.642,7.219-2.667,11.227-3.617C263.159,391.563,266.251,389.649,269.785,388.618z"/>
			<g>
				<path style="fill:#FCEED9;" d="M336.821,161.066c5.588,1.653,12.163,3.822,14.603,9.674c1.409,3.379,1.285,7.233,1.264,10.824
					c-0.022,3.798-0.223,7.65-1.27,11.322c-0.887,3.115-2.386,6.108-4.666,8.439c-2.404,2.457-5.576,3.811-8.596,5.331
					c-2.787,1.402-5.631,3.105-7.339,5.807c-1.851,2.928-1.545,6.321-0.103,9.36c1.495,3.151,3.984,4.957,7.506,5.109
					c3.331,0.145,7.036-0.059,9.989-1.558c33.803-17.154,26.189-71.709-12.084-64.109"/>
				<path style="opacity:0.55;fill:#FCEED9;" d="M336.821,161.066c0.047,0.014,0.095,0.028,0.142,0.042
					c-0.278,0.049-0.557,0.101-0.837,0.157L336.821,161.066z"/>
				<path style="opacity:0.55;fill:#FCEED9;" d="M338.157,206.656c3.02-1.52,6.192-2.874,8.596-5.331
					c2.28-2.33,3.779-5.324,4.666-8.439c1.046-3.672,1.248-7.524,1.27-11.322c0.017-2.935,0.102-6.045-0.636-8.927
					c2.901,4.489,4.894,9.389,3.865,15.152c0,0.147-0.295,0.294-0.442,0.442c0,0.442,0.147,0.883,0,1.325
					c-1.325,2.209-2.503,4.27-3.681,6.478c-1.325,2.65-2.503,5.006-5.153,6.773c-0.147,0.147,0.147,0.589,0,0.883
					c-0.147,0.147-0.736,0.295-0.736,0.442c-0.883,2.503-3.386,3.534-5.448,4.711c-3.387,1.914-6.773,3.386-10.159,4.859
					c-0.051,0.023-0.103,0.046-0.155,0.069c0.181-0.444,0.404-0.881,0.674-1.308C332.526,209.762,335.37,208.059,338.157,206.656z"
					/>
				<path style="fill:#93654C;" d="M339.988,237.495c5.777-1.649,12.234-0.743,17.335,2.433c-2.761,0.241-5.534-0.123-8.281-0.486
					c3.949,2.113,7.936,4.251,11.309,7.198c3.373,2.947,6.127,6.817,6.895,11.229c-7.501-3.034-15.146-6.154-21.305-11.402
					c-3.095-2.637-5.88-6.045-6.315-10.088"/>
				<path style="fill:#93654C;" d="M330.072,288.922c-3.853,12.006-11.848,22.64-22.312,29.675c0.348-3.278,1.476-6.47,3.263-9.239
					c-9.655,8.052-17.017,18.823-21.013,30.743c-0.552-11.342-2.325-22.625-5.277-33.59c-0.035,5.425-0.07,10.849-0.106,16.274
					c-10.676-11.879-18.714-26.117-23.369-41.395c0.322,3.347,0.645,6.694,0.967,10.041c-6.014-11.18-9.324-23.802-9.569-36.495
					c-0.058-2.99,0.249-6.397,2.609-8.234c2.775-2.16,6.827-0.978,9.937,0.663c11.209,5.913,19.427,16.414,30.516,22.549
					c6.163,3.41,13.017,5.358,19.432,8.266C321.566,281.09,330.072,288.922,330.072,288.922z"/>
				<path style="opacity:0.25;fill:#93654C;" d="M296.729,316.326c-2.209-2.503-3.386-5.595-4.417-8.834
					c-1.472-3.828-3.975-6.92-7.509-8.981c-0.442,1.914-0.736,3.975-1.914,5.742c-0.147,0.294-0.883-0.294-1.031-0.589
					c-2.061-2.208-4.417-3.681-6.478-5.742c-1.325-1.031-2.503-2.209-3.534-3.534c-4.711-5.889-6.184-13.104-8.245-20.171
					c-0.147-0.442-0.736-0.883-0.883-1.325c-0.294-1.472-0.883-2.945-1.472-4.123c-3.72-7.165-4.99-14.717-5.259-22.535
					c2.725-1.486,6.365-0.37,9.216,1.133c11.209,5.913,19.427,16.414,30.516,22.549c6.163,3.41,13.017,5.358,19.432,8.266
					c2.773,1.257,5.936,3.434,8.634,5.501c-2.909,3.735-5.919,7.131-9.093,10.852C308.508,301.749,302.618,308.964,296.729,316.326z
					"/>
				<path style="fill:#C69377;" d="M281.828,203.169c-8.87,5.678-16.789,13.084-22.044,22.211c-5.256,9.127-7.7,20.06-5.692,30.399
					c2.465,12.687,11.202,23.26,20.833,31.88c8.701,7.788,18.65,14.607,29.976,17.449c11.326,2.841,24.225,1.185,33.101-6.403
					c6.805-5.817,10.599-14.386,13.324-22.914c0.345-1.079,0.667-2.293,0.155-3.303c-0.471-0.928-1.506-1.4-2.466-1.803
					c-5.228-2.196-10.455-4.392-15.683-6.588c4.354-8.438,8.776-17.083,10.065-26.49s-2.14-18.833-8.476-25.905
					C321.228,196.418,285.876,200.578,281.828,203.169z"/>
				<path style="opacity:0.25;fill:#C69377;" d="M259.784,225.38c3.404-5.912,7.927-11.1,13.1-15.566
					c-0.42,4.259-3.065,8.311-4.719,12.281c-1.62,4.27-4.417,8.098-6.478,12.221c-0.883,1.914-2.061,3.828-3.092,5.742
					c-3.512,6.474-3.751,13.849-3.036,21.147c-0.611-1.764-1.106-3.572-1.466-5.426C252.084,245.44,254.528,234.507,259.784,225.38z
					"/>
				<g>
					<path style="fill:#E0B7A2;" d="M270.86,238.163c0,0-0.342,0.753-0.974,2.052c-0.319,0.648-0.706,1.435-1.15,2.337
						c-0.471,0.892-0.897,1.941-1.375,3.07c-0.461,1.138-1.038,2.332-1.523,3.646c-0.459,1.323-0.943,2.717-1.443,4.16
						c-0.357,1.478-0.819,2.985-1.121,4.543c-0.233,1.568-0.593,3.151-0.585,4.758c-0.016,0.799-0.164,1.603-0.064,2.395
						c0.049,0.794,0.098,1.585,0.146,2.37c0.138,0.772,0.276,1.539,0.411,2.296l0.102,0.567l0.167,0.546
						c0.111,0.364,0.22,0.725,0.329,1.083c0.118,0.355,0.195,0.722,0.344,1.059c0.145,0.339,0.288,0.675,0.429,1.008
						c0.14,0.334,0.278,0.665,0.414,0.992c0.141,0.325,0.328,0.623,0.487,0.931c0.625,1.237,1.359,2.333,2.02,3.36
						c0.726,0.982,1.366,1.909,1.994,2.691c0.607,0.796,1.164,1.475,1.615,2.038c0.897,1.135,1.384,1.803,1.384,1.803
						s-0.589-0.579-1.619-1.592c-0.511-0.511-1.138-1.122-1.836-1.854c-0.718-0.711-1.47-1.573-2.281-2.527
						c-0.763-0.993-1.611-2.064-2.33-3.326c-0.184-0.312-0.397-0.614-0.565-0.946c-0.164-0.335-0.329-0.674-0.497-1.017
						c-0.347-0.682-0.678-1.391-0.908-2.156c-0.129-0.377-0.259-0.757-0.39-1.14l-0.197-0.577l-0.131-0.598
						c-0.17-0.802-0.349-1.615-0.494-2.44c-0.122-1.666-0.314-3.363-0.148-5.053c0.017-1.703,0.406-3.348,0.671-4.985
						c0.101-0.827,0.417-1.591,0.621-2.374c0.229-0.775,0.455-1.541,0.677-2.294c0.545-1.468,1.146-2.857,1.683-4.183
						c0.561-1.317,1.25-2.492,1.81-3.604c0.29-0.551,0.568-1.079,0.832-1.581c0.27-0.498,0.582-0.933,0.845-1.363
						c0.54-0.848,1.012-1.588,1.4-2.197C270.394,238.847,270.86,238.163,270.86,238.163z"/>
				</g>
				<g>
					<path style="fill:#E0B7A2;" d="M272.163,247.123c0,0-0.035-0.997-0.002-2.431c0.009-0.709,0.02-1.536,0.032-2.423
						c0.012-0.437-0.022-0.884-0.025-1.332c-0.022-0.443-0.045-0.896-0.127-1.313c-0.06-0.417-0.145-0.834-0.299-1.128
						c-0.161-0.297-0.292-0.479-0.511-0.56c-0.217-0.076-0.548-0.109-0.895-0.017c-0.171,0.024-0.34,0.083-0.51,0.143
						c-0.17,0.049-0.337,0.103-0.494,0.177c-0.635,0.259-1.178,0.536-1.555,0.729c-0.38,0.192-0.612,0.294-0.612,0.294
						s0.14-0.203,0.41-0.545c0.133-0.173,0.301-0.377,0.521-0.587c0.207-0.224,0.458-0.463,0.766-0.693
						c0.302-0.238,0.648-0.488,1.098-0.667c0.421-0.197,0.998-0.354,1.651-0.208c0.663,0.139,1.248,0.668,1.515,1.207
						c0.298,0.542,0.418,1.081,0.514,1.608c0.141,1.058,0.102,2.065-0.029,2.99c-0.122,0.924-0.32,1.764-0.536,2.469
						C272.656,246.25,272.163,247.123,272.163,247.123z"/>
				</g>
				<path style="fill:#93654C;" d="M292.887,187.437c0.94,4.461,3.358,8.597,6.783,11.605c-2.671-0.501-5.343-1.002-8.014-1.503
					c-0.772-0.145-1.773-0.186-2.126,0.516c-0.356,0.706,0.288,1.495,0.912,1.982c1.845,1.441,4.017,2.461,6.305,2.958
					c-2.717,0.509-5.302,1.709-7.444,3.457c2.139,1.219,4.978,1.082,6.99-0.338c-2.675,1.383-4.045,4.867-3.028,7.701
					c2.588-1.396,4.748-3.572,6.125-6.169c-0.023,1.804-0.047,3.608-0.07,5.413c0.493,0.212,0.999-0.261,1.301-0.705
					C300.62,212.355,311.451,192.458,292.887,187.437z"/>
				<path style="fill:#93654C;" d="M313.278,193.27l14.134,3.148l-10.108,2.429c0,0,9.667,5.963,12.317,10.159
					c2.65,4.196-9.496-2.546-9.496-2.546s8.834,9.834,7.95,14.471s-7.729-7.524-7.729-7.524s6.404,17.411,3.092,18.43
					c-3.313,1.019-6.133-12.188-6.133-12.188s3.041,7.747-1.375,12.244c-4.417,4.497-10.821-25.434-10.821-25.434l-1.546,14.692
					C303.561,221.153,293.776,189.572,313.278,193.27z"/>
				<path style="fill:#442315;" d="M301.626,243.4c0,0-5.283,1.651-7.594-1.792c-2.311-3.443-0.943-7.594-0.943-7.594
					S301.06,238.117,301.626,243.4z"/>
				<path style="fill:#442315;" d="M330.978,245.287l-3.551,6.368c0,0,3.303,0.806,4.528-1.085
					C334.126,247.221,330.978,245.287,330.978,245.287z"/>
				<path style="fill:#FFDED2;" d="M291.531,238.4c0,0.729,0.591,1.321,1.321,1.321c0.729,0,1.321-0.591,1.321-1.321
					c0-0.729-0.591-1.321-1.321-1.321C292.123,237.08,291.531,237.671,291.531,238.4z"/>
				<circle style="fill:#FFDED2;" cx="295.871" cy="239.957" r="0.66"/>
				<circle style="fill:#FFDED2;" cx="331.309" cy="249.547" r="0.33"/>
				<g>
					<path style="fill:#C69377;" d="M303.704,250.139c0,0-0.165-0.359-0.428-0.995c-0.127-0.319-0.281-0.707-0.457-1.151
						c-0.2-0.423-0.427-0.901-0.674-1.422c-0.221-0.523-0.532-1.062-0.848-1.636c-0.157-0.286-0.318-0.58-0.482-0.88
						c-0.194-0.284-0.375-0.582-0.566-0.881c-0.195-0.296-0.369-0.612-0.587-0.904c-0.222-0.29-0.443-0.584-0.656-0.887
						c-0.408-0.621-0.942-1.16-1.414-1.744c-0.509-0.552-1.006-1.122-1.552-1.625c-0.275-0.249-0.542-0.503-0.802-0.759
						c-0.268-0.247-0.55-0.472-0.818-0.704c-0.533-0.47-1.094-0.867-1.606-1.276c-0.54-0.365-1.035-0.746-1.523-1.048
						c-0.961-0.632-1.805-1.102-2.409-1.413c-0.603-0.317-0.973-0.458-0.973-0.458s0.098,0.01,0.282,0.028
						c0.187,0.015,0.458,0.051,0.797,0.126c0.344,0.065,0.749,0.179,1.215,0.32c0.457,0.157,0.984,0.324,1.525,0.577
						c0.558,0.222,1.131,0.526,1.738,0.851c0.584,0.358,1.233,0.7,1.825,1.165c0.615,0.434,1.232,0.91,1.815,1.448
						c0.594,0.524,1.143,1.116,1.699,1.698c0.494,0.637,1.045,1.229,1.468,1.902c0.46,0.647,0.865,1.313,1.204,1.987
						c0.176,0.333,0.356,0.656,0.514,0.981c0.135,0.336,0.266,0.664,0.395,0.984c0.266,0.633,0.49,1.242,0.628,1.834
						c0.16,0.58,0.302,1.112,0.4,1.581c0.066,0.474,0.124,0.887,0.171,1.227C303.67,249.745,303.704,250.139,303.704,250.139z"/>
				</g>
				<g>
					<path style="fill:#C69377;" d="M335.397,242.145c0.005,0.011-0.084-0.025-0.196,0.039c-0.11,0.045-0.267,0.165-0.45,0.318
						c-0.368,0.313-0.844,0.818-1.385,1.444c-0.538,0.629-1.134,1.386-1.74,2.213c-0.308,0.41-0.593,0.856-0.897,1.297
						c-0.302,0.442-0.588,0.905-0.857,1.375c-1.125,1.856-1.972,3.848-2.437,5.428c-0.241,0.789-0.378,1.471-0.488,1.957
						c-0.084,0.486-0.146,0.773-0.146,0.773s-0.074-0.276-0.176-0.777c-0.071-0.499-0.169-1.231-0.106-2.109
						c0.023-0.439,0.066-0.918,0.169-1.412c0.088-0.498,0.207-1.021,0.383-1.543c0.322-1.057,0.822-2.129,1.409-3.142
						c0.615-0.997,1.298-1.949,2.046-2.748c0.737-0.806,1.501-1.488,2.216-1.995c0.705-0.518,1.361-0.865,1.852-1.04
						c0.244-0.093,0.449-0.127,0.6-0.126C335.343,242.091,335.391,242.156,335.397,242.145z"/>
				</g>
				<path style="fill:#93654C;" d="M271.586,220.217c0.02-0.68-0.577-1.202-1.132-1.595c-5.877-4.158-13.191-5.917-20.387-6.128
					c-7.196-0.211-14.351,1.031-21.417,2.408c4.344,1.824,8.99,2.925,13.69,3.245c-7.09,5.708-14.315,11.617-18.93,19.463
					c5.739-1.601,11.479-3.202,17.218-4.803c5.24-1.462,10.525-2.941,15.349-5.457c5.103-2.662,9.749-6.5,15.386-7.66"/>
				<path style="opacity:0.35;fill:#93654C;" d="M253.147,219.739c-2.797-1.62-5.448-3.534-6.92-6.331
					c-0.133-0.288-0.237-0.583-0.322-0.883c1.385-0.058,2.772-0.072,4.161-0.031c7.196,0.211,14.51,1.97,20.387,6.128
					c0.556,0.393,1.152,0.915,1.132,1.595l-0.224-0.526c-2.404,0.495-4.627,1.477-6.783,2.647
					C260.644,222.349,256.746,221.967,253.147,219.739z"/>
				<path style="fill:#FCEED9;" d="M276.919,142.222c-6.651,1.967-14.477,4.549-17.382,11.515
					c-1.677,4.022-1.529,8.609-1.505,12.884c0.026,4.521,0.266,9.106,1.511,13.477c1.056,3.708,2.84,7.271,5.554,10.045
					c2.861,2.924,6.637,4.536,10.232,6.345c3.317,1.669,6.703,3.696,8.736,6.912c2.204,3.486,1.839,7.523,0.122,11.141
					c-1.78,3.75-4.742,5.9-8.934,6.082c-3.965,0.172-8.374-0.07-11.89-1.855c-40.236-20.419-31.173-85.356,14.384-76.31"/>
				<path style="fill:#DDB19B;" d="M336.006,282.291c0,0,4.083-17.048-20.454-23.102c-24.537-6.054-21.776,20.397-21.776,20.397
					L336.006,282.291z"/>
				<path style="fill:#2F1F1E;" d="M323.047,280.894c2.867-3.711,8.01-5.497,12.561-4.363c1.37,0.341,2.716,0.95,3.665,1.996
					c1.158,1.276,1.598,3.075,1.555,4.797c-0.138,5.486-4.607,9.877-9.266,12.778c-2.611,1.626-5.441,3.012-8.486,3.449
					c-3.364,0.483-6.785-0.22-10.051-1.158c-4.633-1.331-9.212-3.196-12.882-6.321c-3.67-3.125-6.347-7.666-6.367-12.486
					c-0.021-4.82,3.044-9.738,7.678-11.063c1.916-0.548,3.956-0.483,5.933-0.225c3.929,0.512,7.828,1.812,10.944,4.26
					C321.446,275.006,323.047,280.894,323.047,280.894z"/>
				<g>
					<path style="fill:#C69377;" d="M326.428,263.924c-0.001-0.013,0.007,0.055,0.014,0.008c0.01-0.037,0.017-0.097,0.016-0.172
						c0.006-0.061-0.029-0.203-0.053-0.183c-0.104-0.042-0.224-0.09-0.358-0.143c-0.54-0.235-1.31-0.544-2.214-0.888
						c-0.464-0.16-0.955-0.351-1.486-0.523c-0.525-0.187-1.092-0.344-1.668-0.532c-1.167-0.333-2.408-0.696-3.676-0.979
						c-0.631-0.154-1.261-0.315-1.89-0.443c-0.628-0.14-1.246-0.277-1.844-0.411c-1.201-0.257-2.326-0.509-3.293-0.74
						c-1.935-0.448-3.219-0.868-3.219-0.868s1.343-0.122,3.341-0.054c1,0.024,2.164,0.106,3.408,0.256
						c1.246,0.138,2.564,0.392,3.877,0.686c0.652,0.17,1.301,0.348,1.935,0.547c0.638,0.185,1.245,0.438,1.836,0.665
						c1.176,0.474,2.229,1.031,3.089,1.567c0.871,0.541,1.532,1.061,1.97,1.444c0.113,0.097,0.213,0.183,0.3,0.258
						c0.136,0.19,0.036,0.275,0.03,0.357c-0.028,0.077-0.057,0.132-0.082,0.167C326.404,263.996,326.434,263.901,326.428,263.924z"
						/>
				</g>
				<g>
					<path style="fill:#936755;" d="M333.489,280.842c0,0,0.001,0.538-0.141,1.472c-0.146,0.93-0.426,2.263-1.036,3.784
						c-0.299,0.762-0.67,1.577-1.163,2.388c-0.474,0.821-1.053,1.653-1.753,2.434c-0.685,0.794-1.498,1.534-2.398,2.186
						c-0.909,0.643-1.907,1.189-2.951,1.628c-1.056,0.405-2.148,0.707-3.238,0.877c-0.545,0.081-1.086,0.172-1.624,0.173
						c-0.537,0.024-1.066,0.055-1.583,0.019c-1.039-0.004-2.026-0.162-2.952-0.306c-0.922-0.18-1.785-0.367-2.558-0.623
						c-0.785-0.21-1.477-0.479-2.086-0.724c-0.616-0.223-1.135-0.462-1.555-0.674c-0.845-0.41-1.317-0.66-1.317-0.66
						s0.531,0.099,1.439,0.299c0.45,0.112,1.004,0.219,1.637,0.331c0.631,0.122,1.341,0.254,2.118,0.354
						c0.773,0.132,1.617,0.187,2.499,0.279c0.885,0.042,1.816,0.081,2.768,0.038c0.954-0.017,1.925-0.158,2.894-0.327
						c0.971-0.171,1.926-0.463,2.845-0.832c0.92-0.365,1.802-0.823,2.611-1.369c0.791-0.568,1.577-1.138,2.228-1.822
						c0.659-0.67,1.276-1.354,1.789-2.065c0.521-0.705,0.978-1.407,1.366-2.079c0.777-1.346,1.31-2.551,1.657-3.409
						C333.33,281.355,333.489,280.842,333.489,280.842z"/>
				</g>
				<path style="opacity:0.35;fill:#C69377;" d="M323.216,256.046c-4.859-6.829-6.581-20.98-6.581-20.98s-2.925,15.632-9.877,16.76
					C299.806,252.954,313.499,249.557,323.216,256.046z"/>
				<g>
					<path style="fill:#FFFDFA;" d="M255.986,149.324c0,0-0.17,0.21-0.489,0.603c-0.323,0.393-0.757,0.977-1.303,1.733
						c-0.548,0.75-1.153,1.705-1.841,2.786c-0.66,1.103-1.371,2.358-2.079,3.752c-0.683,1.406-1.387,2.939-1.996,4.597
						c-0.601,1.66-1.139,3.435-1.518,5.29c-0.372,1.856-0.601,3.784-0.644,5.739c0.006,1.953,0.201,3.921,0.619,5.845
						c0.418,1.928,1.124,3.778,1.922,5.564c0.896,1.74,1.846,3.442,2.999,4.959c0.281,0.385,0.559,0.767,0.834,1.145
						c0.302,0.361,0.602,0.718,0.898,1.071c0.295,0.357,0.587,0.71,0.876,1.059c0.314,0.329,0.625,0.653,0.931,0.974
						c0.607,0.649,1.211,1.27,1.838,1.833c0.616,0.574,1.186,1.164,1.785,1.673c1.217,0.993,2.281,1.993,3.321,2.76
						c1.027,0.781,1.891,1.529,2.662,2.056c1.511,1.102,2.364,1.78,2.364,1.78s-1.011-0.368-2.761-1.096
						c-0.886-0.344-1.913-0.859-3.091-1.463c-1.202-0.565-2.471-1.358-3.871-2.216c-1.356-0.919-2.863-1.896-4.281-3.167
						c-0.364-0.307-0.733-0.618-1.107-0.933c-0.353-0.342-0.71-0.687-1.07-1.037c-0.362-0.35-0.727-0.706-1.084-1.076
						c-0.336-0.393-0.676-0.789-1.018-1.188c-1.389-1.586-2.598-3.44-3.674-5.411c-1.011-2.012-1.84-4.172-2.351-6.423
						c-0.47-2.257-0.681-4.565-0.589-6.821c0.118-2.253,0.51-4.435,1.081-6.472c0.557-2.045,1.383-3.911,2.22-5.627
						c0.824-1.727,1.82-3.233,2.76-4.588c0.939-1.358,1.927-2.505,2.819-3.492c0.901-0.983,1.745-1.779,2.466-2.402
						c0.706-0.633,1.327-1.075,1.731-1.37C255.763,149.476,255.986,149.324,255.986,149.324z"/>
				</g>
			</g>
			<g>
				<path style="fill:#C69377;" d="M69.517,108.903c0,0,0.015-0.202,0.044-0.594c0.015-0.196,0.033-0.439,0.054-0.729
					c0.027-0.289,0.118-0.615,0.189-0.991c0.058-0.381,0.191-0.786,0.354-1.228c0.132-0.454,0.356-0.916,0.61-1.412
					c0.217-0.517,0.603-0.982,0.935-1.529c0.415-0.484,0.814-1.042,1.354-1.52c2.033-2.014,5.29-3.789,9.34-4.153
					c0.505-0.026,1.02-0.046,1.543-0.051c0.526,0.043,1.047,0.037,1.602,0.123c0.521,0.089,1.043,0.142,1.584,0.264
					c0.539,0.142,1.104,0.25,1.645,0.429c2.175,0.67,4.333,1.788,6.333,3.28c4.025,2.987,7.336,7.409,9.895,12.474
					c1.26,2.513,2.419,5.285,3.029,8.271c0.653,2.977,0.712,6.221,0.027,9.364c-0.66,3.152-2.043,6.164-3.744,8.897
					c-1.712,2.802-3.84,5.316-6.168,7.657c-4.701,4.642-10.28,8.336-15.757,11.813c-5.421,3.489-10.739,7.097-15.235,11.292
					c-4.493,4.161-8.072,9.051-9.453,14.336c-0.717,2.626-0.881,5.316-0.651,7.936c0.25,2.628,0.945,5.129,1.781,7.748
					c1.619,5.078,3.805,9.482,6.688,12.687c1.425,1.617,2.99,2.964,4.616,4.076c1.697,1.173,3.437,2.184,5.11,3.137
					c1.67,0.944,3.277,1.796,4.779,2.586c1.491,0.79,2.903,1.496,4.235,2.252c1.262,0.709,2.291,1.282,3.153,1.697
					c0.43,0.208,0.812,0.372,1.153,0.509c0.166,0.061,0.325,0.12,0.476,0.175l0.11,0.038l0.027,0.01l0.013,0.005
					c0.055,0.018-0.434-0.138-0.218-0.07l-0.167-0.044c-0.079-0.018-0.098-0.021-0.076-0.017l0.028,0.005
					c0.093,0.016,0.183,0.032,0.271,0.048c0.719,0.12,1.27,0.212,1.641,0.274c0.159,0.025,0.313,0.045,0.261,0.035
					c-0.08-0.007-0.15-0.014-0.21-0.019c0.067,0.002-0.265-0.016-0.496,0.007c-0.119,0.01-0.235,0.025-0.347,0.045l-0.164,0.033
					c0.547,0.177-2.013-0.571-2.989,3.487c0.387,3.525,1.858,3.182,1.463,3.261l0.143,0.107c0.096,0.068,0.194,0.131,0.291,0.188
					c0.184,0.109,0.415,0.211,0.547,0.26c0.132,0.046,0.199,0.069,0.199,0.069l2.249-7.319c0,0,0.091,0.031,0.271,0.093
					c0.138,0.051,0.375,0.157,0.565,0.269c0.101,0.058,0.201,0.122,0.301,0.192l0.148,0.109c-0.392,0.079,1.076-0.261,1.463,3.266
					c-0.977,4.059-3.537,3.315-2.992,3.491l-0.17,0.033c-0.116,0.02-0.236,0.035-0.359,0.045c-0.239,0.023-0.581,0.006-0.523,0.007
					c-0.072-0.006-0.149-0.012-0.233-0.019c-0.034-0.004-0.069-0.009-0.108-0.013c-0.249-0.035-0.39-0.063-0.618-0.105
					c-0.401-0.082-0.997-0.204-1.774-0.363c-0.099-0.021-0.201-0.043-0.305-0.065l-0.047-0.01l-0.318-0.076l-0.277-0.09
					l-0.046-0.018l-0.185-0.072c-0.253-0.096-0.504-0.204-0.768-0.317c-0.519-0.23-1.064-0.493-1.617-0.787
					c-1.105-0.585-2.266-1.294-3.455-2.02c-1.112-0.69-2.486-1.445-3.991-2.313c-1.498-0.86-3.13-1.803-4.866-2.871
					c-1.724-1.069-3.59-2.244-5.494-3.665c-1.982-1.467-3.916-3.26-5.633-5.363c-3.493-4.204-5.834-9.584-7.389-15.175
					c-0.762-2.718-1.516-5.801-1.696-9.027c-0.169-3.216,0.166-6.587,1.175-9.802c0.986-3.225,2.609-6.248,4.592-8.959
					c1.998-2.705,4.339-5.115,6.847-7.291c5.032-4.351,10.658-7.847,16.269-11.177c5.594-3.266,11.037-6.609,15.612-10.804
					c2.254-2.103,4.335-4.393,5.984-6.883c1.698-2.518,3.023-5.17,3.72-7.965c0.712-2.781,0.775-5.663,0.278-8.423
					c-0.465-2.782-1.434-5.391-2.578-7.901c-2.277-4.956-5.309-9.321-9.024-12.292c-1.847-1.488-3.851-2.621-5.894-3.335
					c-0.506-0.188-1.017-0.303-1.517-0.458c-0.507-0.137-1.048-0.213-1.558-0.32c-0.48-0.094-1.001-0.11-1.489-0.169
					c-0.496-0.012-0.987-0.011-1.469-0.006c-3.88,0.202-7.113,1.798-9.161,3.688c-2.134,1.862-3.002,4.035-3.395,5.467
					c-0.083,0.369-0.187,0.69-0.224,0.977c-0.032,0.288-0.059,0.531-0.081,0.726C69.54,108.702,69.517,108.903,69.517,108.903z"/>
			</g>
			<path style="fill:#93654C;" d="M60.548,107.494c3.188,0.515,6.438,1.438,8.877,3.556c3.887,3.375,4.88,9.321,3.219,14.192
				c-1.662,4.872-5.572,8.719-10.005,11.334c1.849-3.513,3.423-7.17,4.703-10.927c-3.721,8.719-14.282,13.873-23.444,11.442
				c6.225-4.16,12.625-8.495,16.689-14.782c-7.773,3.86-18.099,1.561-23.5-5.232c6.214-0.005,12.428-0.829,18.428-2.446
				c-2.686-1.925-5.826-3.211-9.091-3.721c3.855-0.883,7.711-1.765,11.566-2.648c1.662-0.38,3.567-0.716,4.94,0.295"/>
			<path style="opacity:0.15;fill:#938077;" d="M213.302,414.15c0,0,110.034,2.148,126.325,8.038
				c16.291,5.889-49.741,3.534-49.741,3.534s23.039,4.712,20.978,10.012c-2.061,5.3-93.347-20.765-183.455-10.792
				c-80.799,8.943-139.387,19.226-39.408,0.36c0,0-46.154,1.46-33.345,0.435C67.465,424.711,213.302,414.15,213.302,414.15z"/>
		</g>
	</g>
</g>
</svg>
