<svg width="560" height="292" viewBox="0 0 560 292" fill="none" xmlns="http://www.w3.org/2000/svg">
<path d="M299.663 36.695C299.307 36.9681 293.018 40.4709 293.018 48.2596C293.018 57.2685 301.02 60.4556 301.26 60.5345C301.223 60.7288 299.988 64.8993 297.04 69.1488C294.412 72.8884 291.666 76.6218 287.49 76.6218C283.314 76.6218 282.239 74.2239 277.417 74.2239C272.719 74.2239 271.048 76.7008 267.228 76.7008C263.408 76.7008 260.743 73.2405 257.678 68.991C254.128 64.0009 251.26 56.2486 251.26 48.891C251.26 37.0895 259.023 30.8307 266.663 30.8307C270.723 30.8307 274.107 33.4654 276.656 33.4654C279.082 33.4654 282.865 30.6728 287.484 30.6728C289.234 30.6728 295.523 30.8307 299.663 36.695ZM285.291 25.6767C287.201 23.4366 288.552 20.3284 288.552 17.2202C288.552 16.7892 288.516 16.3521 288.436 16C285.328 16.1153 281.631 18.0458 279.401 20.6016C277.651 22.5685 276.017 25.6767 276.017 28.8274C276.017 29.3009 276.097 29.7744 276.134 29.9261C276.33 29.9626 276.65 30.0051 276.969 30.0051C279.757 30.0051 283.264 28.1596 285.291 25.6767Z" fill="black"/>
<path d="M98.958 12.2809C90.3505 18.6726 87.9855 30.4178 87.9855 30.4178C87.9855 30.4178 99.5777 31.7984 108.187 25.4072C116.795 19.0139 119.159 7.27045 119.159 7.27045C119.159 7.27045 107.567 5.88978 98.958 12.2809Z" fill="black"/>
<path d="M78.403 4.58405C78.403 4.58405 69.2982 12.1225 67.7013 22.8904C66.1048 33.6567 72.6208 43.574 72.6208 43.574C72.6208 43.574 81.7256 36.0356 83.322 25.2692C84.9175 14.5008 78.403 4.58405 78.403 4.58405Z" fill="black"/>
<path d="M93.021 35.4143C82.5371 37.0944 75.2267 46.4682 75.2267 46.4682C75.2267 46.4682 84.9151 53.1174 95.3995 51.4356C105.883 49.7554 113.193 40.3833 113.193 40.3833C113.193 40.3833 103.505 33.7341 93.021 35.4143Z" fill="black"/>
<path d="M56.7532 23.5154C56.7532 23.5154 47.7271 32.3504 46.9581 43.9322C46.1896 55.5124 53.9691 65.4549 53.9691 65.4549C53.9691 65.4549 62.9947 56.6215 63.7652 45.0403C64.5337 33.46 56.7532 23.5154 56.7532 23.5154Z" fill="black"/>
<path d="M74.9475 54.9358C63.9495 57.6723 56.9883 68.2917 56.9883 68.2917C56.9883 68.2917 67.8583 74.4746 78.8563 71.738C89.8543 69.0015 96.8171 58.3826 96.8171 58.3826C96.8171 58.3826 85.9471 52.1997 74.9475 54.9358Z" fill="black"/>
<path d="M48.6444 69.921C47.5846 57.6527 37.8197 48.5524 37.8197 48.5524C37.8197 48.5524 29.7699 59.3417 30.8292 71.6116C31.8874 83.8794 41.6539 92.9802 41.6539 92.9802C41.6539 92.9802 49.7026 82.1888 48.6444 69.921Z" fill="black"/>
<path d="M61.9735 78.3944C50.8734 83.1298 45.2779 95.4406 45.2779 95.4406C45.2779 95.4406 57.6819 100.076 68.7815 95.3421C79.8833 90.6072 85.4772 78.2958 85.4772 78.2958C85.4772 78.2958 73.0747 73.6611 61.9735 78.3944Z" fill="black"/>
<path d="M44.6743 214.677C34.0448 208.994 21.2711 212.529 21.2711 212.529C21.2711 212.529 25.7315 225.279 36.3605 230.964C46.9901 236.647 59.7617 233.113 59.7617 233.113C59.7617 233.113 55.3018 220.361 44.6743 214.677Z" fill="black"/>
<path d="M58.8725 207.729C56.709 219.857 63.7516 231.307 63.7516 231.307C63.7516 231.307 74.3016 223.094 76.4652 210.967C78.6287 198.839 71.586 187.389 71.586 187.389C71.586 187.389 61.0366 195.6 58.8725 207.729Z" fill="black"/>
<path d="M64.3828 243.607C54.1935 240.454 43.6141 245.698 43.6141 245.698C43.6141 245.698 49.5561 256.055 59.7474 259.207C69.9383 262.36 80.5162 257.115 80.5162 257.115C80.5162 257.115 74.5737 246.76 64.3828 243.607Z" fill="black"/>
<path d="M75.6588 235.146C75.7202 246.081 83.7084 254.866 83.7084 254.866C83.7084 254.866 91.5944 245.923 91.5314 234.988C91.4704 224.052 83.4822 215.266 83.4822 215.266C83.4822 215.266 75.5958 224.211 75.6588 235.146Z" fill="black"/>
<path d="M85.4316 263.714C76.4087 262.58 68.2449 268.564 68.2449 268.564C68.2449 268.564 74.7112 276.385 83.7326 277.518C92.7555 278.652 100.919 272.669 100.919 272.669C100.919 272.669 94.4545 264.848 85.4316 263.714Z" fill="black"/>
<path d="M93.7256 254.924C95.3223 264.106 103.287 270.304 103.287 270.304C103.287 270.304 108.661 261.611 107.063 252.428C105.466 243.245 97.5025 237.05 97.5025 237.05C97.5025 237.05 92.1288 245.741 93.7256 254.924Z" fill="black"/>
<path d="M109.282 277.012C102.488 276.99 96.9448 282.169 96.9448 282.169C96.9448 282.169 102.418 287.382 109.212 287.403C116.008 287.424 121.551 282.247 121.551 282.247C121.551 282.247 116.078 277.034 109.282 277.012Z" fill="black"/>
<path d="M114.682 269.741C116.66 276.406 123.106 280.278 123.106 280.278C123.106 280.278 126.345 273.343 124.369 266.679C122.391 260.014 115.946 256.142 115.946 256.142C115.946 256.142 112.706 263.077 114.682 269.741Z" fill="black"/>
<path d="M19.8386 81.5449C19.8386 81.5449 13.7815 94.646 17.5615 107.198C21.342 119.749 33.526 126.997 33.526 126.997C33.526 126.997 39.5817 113.895 35.8027 101.345C32.0227 88.7932 19.8386 81.5449 19.8386 81.5449Z" fill="black"/>
<path d="M51.5728 107.12C41.0094 114.606 37.8471 128.729 37.8471 128.729C37.8471 128.729 51.8144 130.716 62.3778 123.23C72.9406 115.746 76.1014 101.622 76.1014 101.622C76.1014 101.622 62.1362 99.6348 51.5728 107.12Z" fill="black"/>
<path d="M9.53645 124.841C9.53645 124.841 6.743 139.043 13.3748 150.27C20.005 161.496 33.5481 165.495 33.5481 165.495C33.5481 165.495 36.34 151.292 29.7098 140.066C23.0785 128.838 9.53645 124.841 9.53645 124.841Z" fill="black"/>
<path d="M68.9156 130.322C68.9156 130.322 54.8842 131.866 46.3895 141.746C37.8947 151.626 38.156 166.102 38.156 166.102C38.156 166.102 52.1874 164.559 60.6826 154.677C69.1758 144.797 68.9156 130.322 68.9156 130.322Z" fill="black"/>
<path d="M7.7348 172.218C7.7348 172.218 9.52396 186.572 19.3207 195.011C29.1164 203.448 43.2105 202.776 43.2105 202.776C43.2105 202.776 41.4219 188.42 31.6246 179.983C21.8294 171.544 7.7348 172.218 7.7348 172.218Z" fill="black"/>
<path d="M65.7666 157.865C65.7666 157.865 52.94 163.943 47.9697 176.084C43.0005 188.226 47.769 201.832 47.769 201.832C47.769 201.832 60.5956 195.754 65.5658 183.613C70.5345 171.472 65.7666 157.865 65.7666 157.865Z" fill="black"/>
<path d="M460.606 12.2809C469.213 18.6726 471.578 30.4178 471.578 30.4178C471.578 30.4178 459.986 31.7984 451.377 25.4072C442.769 19.0139 440.404 7.27045 440.404 7.27045C440.404 7.27045 451.996 5.88978 460.606 12.2809Z" fill="black"/>
<path d="M481.161 4.58405C481.161 4.58405 490.265 12.1225 491.862 22.8904C493.459 33.6567 486.943 43.574 486.943 43.574C486.943 43.574 477.838 36.0356 476.241 25.2692C474.646 14.5008 481.161 4.58405 481.161 4.58405Z" fill="black"/>
<path d="M466.542 35.4143C477.026 37.0944 484.337 46.4682 484.337 46.4682C484.337 46.4682 474.648 53.1174 464.164 51.4356C453.68 49.7554 446.37 40.3833 446.37 40.3833C446.37 40.3833 456.059 33.7341 466.542 35.4143Z" fill="black"/>
<path d="M502.81 23.5154C502.81 23.5154 511.836 32.3504 512.605 43.9322C513.374 55.5124 505.594 65.4549 505.594 65.4549C505.594 65.4549 496.569 56.6215 495.798 45.0403C495.03 33.46 502.81 23.5154 502.81 23.5154Z" fill="black"/>
<path d="M484.616 54.9358C495.614 57.6723 502.576 68.2917 502.576 68.2917C502.576 68.2917 491.706 74.4746 480.708 71.738C469.71 69.0015 462.747 58.3826 462.747 58.3826C462.747 58.3826 473.617 52.1997 484.616 54.9358Z" fill="black"/>
<path d="M510.92 69.921C511.979 57.6527 521.744 48.5524 521.744 48.5524C521.744 48.5524 529.794 59.3417 528.735 71.6116C527.677 83.8794 517.91 92.9802 517.91 92.9802C517.91 92.9802 509.861 82.1888 510.92 69.921Z" fill="black"/>
<path d="M497.59 78.3944C508.691 83.1298 514.286 95.4406 514.286 95.4406C514.286 95.4406 501.882 100.076 490.782 95.3421C479.681 90.6072 474.087 78.2958 474.087 78.2958C474.087 78.2958 486.489 73.6611 497.59 78.3944Z" fill="black"/>
<path d="M514.889 214.677C525.519 208.994 538.292 212.529 538.292 212.529C538.292 212.529 533.832 225.279 523.203 230.964C512.573 236.647 499.802 233.113 499.802 233.113C499.802 233.113 504.262 220.361 514.889 214.677Z" fill="black"/>
<path d="M500.691 207.729C502.855 219.857 495.812 231.307 495.812 231.307C495.812 231.307 485.262 223.094 483.099 210.967C480.935 198.839 487.978 187.389 487.978 187.389C487.978 187.389 498.527 195.6 500.691 207.729Z" fill="black"/>
<path d="M495.181 243.607C505.37 240.454 515.95 245.698 515.95 245.698C515.95 245.698 510.008 256.055 499.817 259.207C489.626 262.36 479.048 257.115 479.048 257.115C479.048 257.115 484.99 246.76 495.181 243.607Z" fill="black"/>
<path d="M483.905 235.146C483.843 246.081 475.855 254.866 475.855 254.866C475.855 254.866 467.969 245.923 468.032 234.988C468.093 224.052 476.081 215.266 476.081 215.266C476.081 215.266 483.968 224.211 483.905 235.146Z" fill="black"/>
<path d="M474.132 263.714C483.155 262.58 491.319 268.564 491.319 268.564C491.319 268.564 484.853 276.385 475.831 277.518C466.808 278.652 458.645 272.669 458.645 272.669C458.645 272.669 465.109 264.848 474.132 263.714Z" fill="black"/>
<path d="M465.838 254.924C464.242 264.106 456.277 270.304 456.277 270.304C456.277 270.304 450.902 261.611 452.501 252.428C454.098 243.245 462.061 237.05 462.061 237.05C462.061 237.05 467.435 245.741 465.838 254.924Z" fill="black"/>
<path d="M450.281 277.012C457.075 276.99 462.619 282.169 462.619 282.169C462.619 282.169 457.146 287.382 450.352 287.403C443.556 287.424 438.013 282.247 438.013 282.247C438.013 282.247 443.485 277.034 450.281 277.012Z" fill="black"/>
<path d="M444.881 269.741C442.903 276.406 436.458 280.278 436.458 280.278C436.458 280.278 433.218 273.343 435.195 266.679C437.172 260.014 443.618 256.142 443.618 256.142C443.618 256.142 446.858 263.077 444.881 269.741Z" fill="black"/>
<path d="M539.725 81.5449C539.725 81.5449 545.783 94.646 542.002 107.198C538.222 119.749 526.038 126.997 526.038 126.997C526.038 126.997 519.982 113.895 523.761 101.345C527.541 88.7932 539.725 81.5449 539.725 81.5449Z" fill="black"/>
<path d="M507.991 107.12C518.555 114.606 521.717 128.729 521.717 128.729C521.717 128.729 507.75 130.716 497.186 123.23C486.623 115.746 483.463 101.622 483.463 101.622C483.463 101.622 497.428 99.6348 507.991 107.12Z" fill="black"/>
<path d="M550.027 124.841C550.027 124.841 552.82 139.043 546.189 150.27C539.558 161.496 526.015 165.495 526.015 165.495C526.015 165.495 523.223 151.292 529.854 140.066C536.485 128.838 550.027 124.841 550.027 124.841Z" fill="black"/>
<path d="M490.648 130.322C490.648 130.322 504.68 131.866 513.174 141.746C521.669 151.626 521.408 166.102 521.408 166.102C521.408 166.102 507.377 164.559 498.881 154.677C490.388 144.797 490.648 130.322 490.648 130.322Z" fill="black"/>
<path d="M551.829 172.218C551.829 172.218 550.04 186.572 540.243 195.011C530.448 203.448 516.353 202.776 516.353 202.776C516.353 202.776 518.142 188.42 527.939 179.983C537.735 171.544 551.829 172.218 551.829 172.218Z" fill="black"/>
<path d="M493.797 157.865C493.797 157.865 506.624 163.943 511.594 176.084C516.563 188.226 511.795 201.832 511.795 201.832C511.795 201.832 498.968 195.754 493.998 183.613C489.029 171.472 493.797 157.865 493.797 157.865Z" fill="black"/>
<path d="M108.607 196.774V163.654H130.227V169.496H114.863V176.58H127.467V182.422H114.863V190.932H130.227V196.774H108.607ZM145.814 197.464C143.529 197.464 141.528 196.889 139.811 195.739C138.093 194.589 136.752 193.025 135.786 191.047C134.835 189.069 134.36 186.838 134.36 184.354C134.36 181.824 134.843 179.578 135.809 177.615C136.79 175.637 138.162 174.081 139.926 172.946C141.689 171.811 143.759 171.244 146.136 171.244C148.497 171.244 150.483 171.819 152.093 172.969C153.703 174.119 154.922 175.683 155.75 177.661C156.578 179.639 156.992 181.87 156.992 184.354C156.992 186.838 156.57 189.069 155.727 191.047C154.899 193.025 153.657 194.589 152.001 195.739C150.345 196.889 148.282 197.464 145.814 197.464ZM146.826 191.898C148.221 191.898 149.333 191.584 150.161 190.955C151.004 190.326 151.61 189.445 151.978 188.31C152.346 187.175 152.53 185.857 152.53 184.354C152.53 182.851 152.346 181.533 151.978 180.398C151.61 179.263 151.019 178.382 150.207 177.753C149.409 177.124 148.359 176.81 147.056 176.81C145.66 176.81 144.51 177.155 143.606 177.845C142.716 178.52 142.057 179.432 141.628 180.582C141.198 181.717 140.984 182.974 140.984 184.354C140.984 185.749 141.191 187.022 141.605 188.172C142.019 189.307 142.655 190.211 143.514 190.886C144.372 191.561 145.476 191.898 146.826 191.898ZM152.53 196.774V179.754H151.748V163.654H158.05V196.774H152.53ZM164.95 168.484V162.964H171.206V168.484H164.95ZM164.95 196.774V171.934H171.206V196.774H164.95ZM193.005 196.774C191.288 197.096 189.601 197.234 187.945 197.188C186.304 197.157 184.832 196.874 183.529 196.337C182.241 195.785 181.26 194.903 180.585 193.692C179.972 192.557 179.65 191.407 179.619 190.242C179.588 189.061 179.573 187.727 179.573 186.24V165.034H185.829V185.872C185.829 186.838 185.837 187.712 185.852 188.494C185.883 189.261 186.044 189.874 186.335 190.334C186.887 191.208 187.769 191.683 188.98 191.76C190.191 191.837 191.533 191.775 193.005 191.576V196.774ZM175.341 176.764V171.934H193.005V176.764H175.341ZM208.371 197.464C205.871 197.464 203.679 196.904 201.793 195.785C199.907 194.666 198.435 193.125 197.377 191.162C196.334 189.184 195.813 186.915 195.813 184.354C195.813 181.763 196.349 179.486 197.423 177.523C198.496 175.545 199.976 174.004 201.862 172.9C203.748 171.796 205.917 171.244 208.371 171.244C210.87 171.244 213.063 171.804 214.949 172.923C216.85 174.042 218.33 175.591 219.388 177.569C220.446 179.532 220.975 181.793 220.975 184.354C220.975 186.93 220.438 189.207 219.365 191.185C218.307 193.148 216.827 194.689 214.926 195.808C213.04 196.912 210.855 197.464 208.371 197.464ZM208.371 191.622C210.379 191.622 211.874 190.947 212.856 189.598C213.852 188.233 214.351 186.485 214.351 184.354C214.351 182.146 213.845 180.383 212.833 179.064C211.836 177.745 210.349 177.086 208.371 177.086C207.006 177.086 205.887 177.393 205.013 178.006C204.139 178.619 203.487 179.47 203.058 180.559C202.644 181.648 202.437 182.913 202.437 184.354C202.437 186.577 202.935 188.348 203.932 189.667C204.944 190.97 206.423 191.622 208.371 191.622ZM226.033 196.774V171.934H231.553V178.006L230.955 177.224C231.277 176.365 231.706 175.583 232.243 174.878C232.779 174.173 233.439 173.59 234.221 173.13C234.819 172.762 235.47 172.478 236.176 172.279C236.881 172.064 237.609 171.934 238.361 171.888C239.112 171.827 239.863 171.842 240.615 171.934V177.776C239.925 177.561 239.12 177.492 238.2 177.569C237.295 177.63 236.475 177.837 235.739 178.19C235.003 178.527 234.382 178.98 233.876 179.547C233.37 180.099 232.986 180.758 232.726 181.525C232.465 182.276 232.335 183.127 232.335 184.078V196.774H226.033ZM245.91 176.12L246.278 173.498C247.014 173.559 247.612 173.444 248.072 173.153C248.532 172.846 248.846 172.417 249.015 171.865C249.199 171.298 249.237 170.646 249.13 169.91H245.91V163.654H252.166V169.91C252.166 172.118 251.652 173.789 250.625 174.924C249.597 176.059 248.026 176.457 245.91 176.12ZM265.028 197.464C261.9 197.464 259.37 196.759 257.438 195.348C255.521 193.922 254.356 191.913 253.942 189.322L260.336 188.356C260.596 189.521 261.171 190.434 262.061 191.093C262.965 191.752 264.108 192.082 265.488 192.082C266.622 192.082 267.496 191.867 268.11 191.438C268.723 190.993 269.03 190.38 269.03 189.598C269.03 189.107 268.907 188.716 268.662 188.425C268.416 188.118 267.864 187.819 267.006 187.528C266.162 187.237 264.844 186.853 263.05 186.378C261.026 185.857 259.408 185.274 258.197 184.63C256.985 183.986 256.111 183.219 255.575 182.33C255.038 181.425 254.77 180.337 254.77 179.064C254.77 177.469 255.176 176.089 255.989 174.924C256.801 173.743 257.944 172.839 259.416 172.21C260.903 171.566 262.651 171.244 264.66 171.244C266.607 171.244 268.332 171.543 269.835 172.141C271.337 172.739 272.549 173.59 273.469 174.694C274.404 175.798 274.979 177.101 275.194 178.604L268.8 179.754C268.692 178.834 268.294 178.106 267.604 177.569C266.914 177.032 265.978 176.718 264.798 176.626C263.648 176.549 262.72 176.703 262.015 177.086C261.325 177.469 260.98 178.021 260.98 178.742C260.98 179.171 261.125 179.532 261.417 179.823C261.723 180.114 262.344 180.413 263.28 180.72C264.23 181.027 265.672 181.425 267.604 181.916C269.49 182.407 271 182.982 272.135 183.641C273.285 184.285 274.12 185.067 274.642 185.987C275.163 186.892 275.424 187.988 275.424 189.276C275.424 191.821 274.504 193.822 272.664 195.279C270.824 196.736 268.278 197.464 265.028 197.464ZM303.901 197.464C300.589 197.464 297.729 196.743 295.322 195.302C292.93 193.861 291.082 191.844 289.779 189.253C288.491 186.662 287.847 183.649 287.847 180.214C287.847 176.779 288.491 173.766 289.779 171.175C291.082 168.584 292.93 166.567 295.322 165.126C297.729 163.685 300.589 162.964 303.901 162.964C307.703 162.964 310.893 163.907 313.469 165.793C316.06 167.679 317.885 170.232 318.943 173.452L312.641 175.2C312.027 173.191 310.992 171.635 309.536 170.531C308.079 169.412 306.201 168.852 303.901 168.852C301.8 168.852 300.044 169.32 298.634 170.255C297.238 171.19 296.188 172.509 295.483 174.211C294.777 175.913 294.425 177.914 294.425 180.214C294.425 182.514 294.777 184.515 295.483 186.217C296.188 187.919 297.238 189.238 298.634 190.173C300.044 191.108 301.8 191.576 303.901 191.576C306.201 191.576 308.079 191.016 309.536 189.897C310.992 188.778 312.027 187.221 312.641 185.228L318.943 186.976C317.885 190.196 316.06 192.749 313.469 194.635C310.893 196.521 307.703 197.464 303.901 197.464ZM340.935 196.774V185.044C340.935 184.477 340.904 183.756 340.843 182.882C340.782 181.993 340.59 181.103 340.268 180.214C339.946 179.325 339.417 178.581 338.681 177.983C337.96 177.385 336.933 177.086 335.599 177.086C335.062 177.086 334.487 177.17 333.874 177.339C333.261 177.508 332.686 177.837 332.149 178.328C331.612 178.803 331.168 179.509 330.815 180.444C330.478 181.379 330.309 182.621 330.309 184.17L326.721 182.468C326.721 180.505 327.12 178.665 327.917 176.948C328.714 175.231 329.91 173.843 331.505 172.785C333.115 171.727 335.139 171.198 337.577 171.198C339.524 171.198 341.111 171.528 342.338 172.187C343.565 172.846 344.515 173.682 345.19 174.694C345.88 175.706 346.371 176.764 346.662 177.868C346.953 178.957 347.13 179.953 347.191 180.858C347.252 181.763 347.283 182.422 347.283 182.836V196.774H340.935ZM323.961 196.774V163.654H329.527V180.674H330.309V196.774H323.961ZM364.429 197.464C361.93 197.464 359.737 196.904 357.851 195.785C355.965 194.666 354.493 193.125 353.435 191.162C352.393 189.184 351.871 186.915 351.871 184.354C351.871 181.763 352.408 179.486 353.481 177.523C354.555 175.545 356.034 174.004 357.92 172.9C359.806 171.796 361.976 171.244 364.429 171.244C366.929 171.244 369.121 171.804 371.007 172.923C372.909 174.042 374.388 175.591 375.446 177.569C376.504 179.532 377.033 181.793 377.033 184.354C377.033 186.93 376.497 189.207 375.423 191.185C374.365 193.148 372.886 194.689 370.984 195.808C369.098 196.912 366.913 197.464 364.429 197.464ZM364.429 191.622C366.438 191.622 367.933 190.947 368.914 189.598C369.911 188.233 370.409 186.485 370.409 184.354C370.409 182.146 369.903 180.383 368.891 179.064C367.895 177.745 366.407 177.086 364.429 177.086C363.065 177.086 361.945 177.393 361.071 178.006C360.197 178.619 359.546 179.47 359.116 180.559C358.702 181.648 358.495 182.913 358.495 184.354C358.495 186.577 358.994 188.348 359.99 189.667C361.002 190.97 362.482 191.622 364.429 191.622ZM382.551 168.484V162.964H388.807V168.484H382.551ZM382.551 196.774V171.934H388.807V196.774H382.551ZM406.65 197.464C404.074 197.464 401.866 196.889 400.026 195.739C398.186 194.589 396.776 193.025 395.794 191.047C394.813 189.069 394.322 186.838 394.322 184.354C394.322 181.839 394.828 179.593 395.84 177.615C396.868 175.637 398.309 174.081 400.164 172.946C402.02 171.811 404.212 171.244 406.742 171.244C409.671 171.244 412.124 171.988 414.102 173.475C416.096 174.947 417.368 176.963 417.92 179.524L411.664 181.18C411.296 179.892 410.652 178.888 409.732 178.167C408.828 177.446 407.8 177.086 406.65 177.086C405.332 177.086 404.251 177.408 403.407 178.052C402.564 178.681 401.943 179.547 401.544 180.651C401.146 181.74 400.946 182.974 400.946 184.354C400.946 186.516 401.422 188.272 402.372 189.621C403.338 190.955 404.764 191.622 406.65 191.622C408.061 191.622 409.134 191.3 409.87 190.656C410.606 190.012 411.158 189.092 411.526 187.896L417.92 189.23C417.215 191.867 415.881 193.899 413.918 195.325C411.956 196.751 409.533 197.464 406.65 197.464ZM433.393 197.464C430.848 197.464 428.601 196.92 426.654 195.831C424.722 194.727 423.204 193.217 422.1 191.3C421.011 189.368 420.467 187.16 420.467 184.676C420.467 181.962 421.004 179.601 422.077 177.592C423.15 175.583 424.63 174.027 426.516 172.923C428.402 171.804 430.572 171.244 433.025 171.244C435.632 171.244 437.847 171.857 439.672 173.084C441.497 174.311 442.846 176.036 443.72 178.259C444.594 180.482 444.901 183.097 444.64 186.102H438.453V183.802C438.453 181.272 438.047 179.455 437.234 178.351C436.437 177.232 435.126 176.672 433.301 176.672C431.17 176.672 429.598 177.324 428.586 178.627C427.589 179.915 427.091 181.824 427.091 184.354C427.091 186.669 427.589 188.463 428.586 189.736C429.598 190.993 431.078 191.622 433.025 191.622C434.252 191.622 435.302 191.354 436.176 190.817C437.05 190.28 437.717 189.506 438.177 188.494L444.433 190.288C443.498 192.557 442.018 194.321 439.994 195.578C437.985 196.835 435.785 197.464 433.393 197.464ZM425.159 186.102V181.456H441.627V186.102H425.159Z" fill="black"/>
<path d="M199.84 118.774H195.879L204.778 94.0467H209.088L217.987 118.774H214.026L207.036 98.5381H206.842L199.84 118.774ZM200.504 109.091H213.35V112.23H200.504V109.091ZM221.268 125.728V100.228H224.793V103.235H225.095C225.304 102.848 225.606 102.402 226.001 101.895C226.395 101.388 226.942 100.945 227.643 100.567C228.343 100.18 229.269 99.987 230.42 99.987C231.917 99.987 233.253 100.365 234.428 101.122C235.603 101.879 236.525 102.969 237.193 104.394C237.869 105.819 238.207 107.533 238.207 109.537C238.207 111.542 237.873 113.26 237.205 114.693C236.537 116.118 235.619 117.216 234.452 117.989C233.285 118.754 231.953 119.136 230.456 119.136C229.329 119.136 228.407 118.947 227.691 118.569C226.983 118.19 226.427 117.748 226.025 117.241C225.622 116.733 225.312 116.283 225.095 115.888H224.878V125.728H221.268ZM224.805 109.501C224.805 110.805 224.994 111.948 225.373 112.93C225.751 113.912 226.298 114.681 227.015 115.236C227.731 115.784 228.609 116.057 229.647 116.057C230.726 116.057 231.627 115.772 232.351 115.2C233.076 114.621 233.623 113.836 233.994 112.846C234.372 111.856 234.561 110.741 234.561 109.501C234.561 108.278 234.376 107.179 234.006 106.205C233.643 105.231 233.096 104.462 232.364 103.899C231.639 103.335 230.734 103.054 229.647 103.054C228.601 103.054 227.715 103.323 226.991 103.863C226.274 104.402 225.731 105.155 225.361 106.121C224.99 107.086 224.805 108.213 224.805 109.501ZM242.252 125.728V100.228H245.778V103.235H246.079C246.289 102.848 246.591 102.402 246.985 101.895C247.379 101.388 247.927 100.945 248.627 100.567C249.327 100.18 250.253 99.987 251.404 99.987C252.901 99.987 254.237 100.365 255.413 101.122C256.588 101.879 257.509 102.969 258.177 104.394C258.854 105.819 259.192 107.533 259.192 109.537C259.192 111.542 258.858 113.26 258.19 114.693C257.521 116.118 256.604 117.216 255.437 117.989C254.27 118.754 252.937 119.136 251.44 119.136C250.313 119.136 249.392 118.947 248.675 118.569C247.967 118.19 247.412 117.748 247.009 117.241C246.607 116.733 246.297 116.283 246.079 115.888H245.862V125.728H242.252ZM245.79 109.501C245.79 110.805 245.979 111.948 246.357 112.93C246.735 113.912 247.283 114.681 247.999 115.236C248.716 115.784 249.593 116.057 250.631 116.057C251.71 116.057 252.611 115.772 253.336 115.2C254.06 114.621 254.608 113.836 254.978 112.846C255.356 111.856 255.545 110.741 255.545 109.501C255.545 108.278 255.36 107.179 254.99 106.205C254.628 105.231 254.08 104.462 253.348 103.899C252.623 103.335 251.718 103.054 250.631 103.054C249.585 103.054 248.699 103.323 247.975 103.863C247.259 104.402 246.715 105.155 246.345 106.121C245.975 107.086 245.79 108.213 245.79 109.501ZM286.011 100.542C285.882 99.3994 285.351 98.514 284.417 97.8861C283.483 97.2503 282.308 96.9323 280.891 96.9323C279.877 96.9323 279 97.0933 278.259 97.4153C277.519 97.7292 276.943 98.1638 276.533 98.7192C276.13 99.2666 275.929 99.8904 275.929 100.591C275.929 101.178 276.066 101.685 276.34 102.112C276.621 102.539 276.988 102.897 277.438 103.187C277.897 103.468 278.388 103.706 278.911 103.899C279.435 104.084 279.938 104.237 280.421 104.358L282.835 104.986C283.624 105.179 284.433 105.44 285.262 105.77C286.091 106.1 286.86 106.535 287.568 107.074C288.277 107.614 288.848 108.282 289.283 109.079C289.725 109.875 289.947 110.829 289.947 111.94C289.947 113.341 289.585 114.584 288.86 115.671C288.144 116.758 287.101 117.615 285.733 118.243C284.373 118.871 282.727 119.184 280.795 119.184C278.944 119.184 277.342 118.891 275.989 118.303C274.637 117.715 273.579 116.882 272.814 115.804C272.049 114.717 271.627 113.429 271.546 111.94H275.289C275.362 112.834 275.651 113.578 276.158 114.174C276.674 114.761 277.33 115.2 278.127 115.49C278.931 115.772 279.813 115.912 280.771 115.912C281.825 115.912 282.763 115.747 283.584 115.417C284.413 115.079 285.065 114.612 285.54 114.017C286.015 113.413 286.252 112.709 286.252 111.904C286.252 111.171 286.043 110.572 285.624 110.105C285.214 109.638 284.654 109.252 283.946 108.946C283.246 108.64 282.453 108.37 281.568 108.137L278.646 107.34C276.666 106.801 275.096 106.008 273.937 104.961C272.786 103.915 272.21 102.531 272.21 100.808C272.21 99.3833 272.597 98.1397 273.369 97.0772C274.142 96.0147 275.189 95.1896 276.509 94.6021C277.829 94.0064 279.318 93.7086 280.976 93.7086C282.65 93.7086 284.127 94.0024 285.407 94.59C286.695 95.1776 287.709 95.9865 288.45 97.0168C289.19 98.0391 289.577 99.2143 289.609 100.542H286.011ZM302.772 100.228V103.126H292.642V100.228H302.772ZM295.359 95.7853H298.969V113.329C298.969 114.029 299.074 114.556 299.283 114.91C299.492 115.256 299.762 115.494 300.092 115.623C300.43 115.743 300.796 115.804 301.191 115.804C301.48 115.804 301.734 115.784 301.951 115.743C302.169 115.703 302.338 115.671 302.458 115.647L303.11 118.629C302.901 118.71 302.603 118.79 302.217 118.871C301.831 118.959 301.348 119.007 300.768 119.015C299.818 119.032 298.933 118.862 298.112 118.508C297.291 118.154 296.627 117.607 296.12 116.866C295.612 116.126 295.359 115.196 295.359 114.077V95.7853ZM314.378 119.148C312.64 119.148 311.122 118.75 309.826 117.953C308.531 117.156 307.524 116.041 306.808 114.608C306.092 113.176 305.733 111.501 305.733 109.586C305.733 107.662 306.092 105.98 306.808 104.539C307.524 103.098 308.531 101.979 309.826 101.182C311.122 100.385 312.64 99.987 314.378 99.987C316.117 99.987 317.634 100.385 318.93 101.182C320.226 101.979 321.232 103.098 321.949 104.539C322.665 105.98 323.023 107.662 323.023 109.586C323.023 111.501 322.665 113.176 321.949 114.608C321.232 116.041 320.226 117.156 318.93 117.953C317.634 118.75 316.117 119.148 314.378 119.148ZM314.39 116.118C315.517 116.118 316.451 115.82 317.191 115.224C317.932 114.629 318.479 113.836 318.834 112.846C319.196 111.856 319.377 110.765 319.377 109.574C319.377 108.39 319.196 107.304 318.834 106.314C318.479 105.316 317.932 104.515 317.191 103.911C316.451 103.307 315.517 103.005 314.39 103.005C313.255 103.005 312.314 103.307 311.565 103.911C310.825 104.515 310.273 105.316 309.911 106.314C309.557 107.304 309.38 108.39 309.38 109.574C309.38 110.765 309.557 111.856 309.911 112.846C310.273 113.836 310.825 114.629 311.565 115.224C312.314 115.82 313.255 116.118 314.39 116.118ZM327.053 118.774V100.228H330.542V103.174H330.735C331.073 102.176 331.669 101.392 332.522 100.82C333.384 100.241 334.358 99.9508 335.444 99.9508C335.67 99.9508 335.935 99.9588 336.241 99.9749C336.555 99.991 336.8 100.011 336.978 100.035V103.488C336.833 103.448 336.575 103.404 336.205 103.356C335.835 103.299 335.464 103.271 335.094 103.271C334.241 103.271 333.48 103.452 332.812 103.814C332.152 104.169 331.629 104.664 331.242 105.299C330.856 105.927 330.663 106.644 330.663 107.449V118.774H327.053ZM347.43 119.148C345.603 119.148 344.03 118.758 342.71 117.977C341.398 117.188 340.383 116.081 339.667 114.657C338.959 113.224 338.604 111.546 338.604 109.622C338.604 107.722 338.959 106.048 339.667 104.599C340.383 103.15 341.381 102.019 342.661 101.206C343.949 100.393 345.454 99.987 347.177 99.987C348.223 99.987 349.238 100.16 350.22 100.506C351.202 100.852 352.083 101.396 352.864 102.136C353.645 102.877 354.26 103.839 354.711 105.022C355.162 106.197 355.387 107.626 355.387 109.308V110.588H340.645V107.883H351.85C351.85 106.933 351.656 106.092 351.27 105.36C350.884 104.619 350.34 104.036 349.64 103.609C348.948 103.183 348.135 102.969 347.201 102.969C346.187 102.969 345.301 103.219 344.545 103.718C343.796 104.209 343.217 104.853 342.806 105.65C342.404 106.438 342.203 107.296 342.203 108.221V110.334C342.203 111.574 342.42 112.628 342.854 113.498C343.297 114.367 343.913 115.031 344.702 115.49C345.491 115.941 346.412 116.166 347.467 116.166C348.151 116.166 348.775 116.069 349.338 115.876C349.902 115.675 350.389 115.377 350.799 114.983C351.21 114.588 351.524 114.101 351.741 113.522L355.158 114.138C354.884 115.144 354.393 116.025 353.685 116.782C352.984 117.53 352.103 118.114 351.041 118.532C349.986 118.943 348.783 119.148 347.43 119.148Z" fill="black"/>
</svg>
