<?xml version="1.0" encoding="utf-8"?>
<!-- Generator: Adobe Illustrator 27.5.0, SVG Export Plug-In . SVG Version: 6.00 Build 0)  -->
<svg version="1.1" xmlns="http://www.w3.org/2000/svg" xmlns:xlink="http://www.w3.org/1999/xlink" x="0px" y="0px"
	 viewBox="0 0 500 500" xml:space="preserve">
<g id="Objects">
	<g>
		<path style="opacity:0.3;fill:#A7C783;" d="M324.767,422.5c0,12.448-55.786,32.5-122.137,32.5
			c-66.35,0-120.136-10.092-120.136-22.54c0-12.448,53.787-22.539,120.136-22.539C268.98,409.921,324.767,410.052,324.767,422.5z"/>
		<path style="fill:#C8AC91;" d="M305.043,218.207c0,0,0.082,0.102,0.225,0.292c1.174,1.552,6.514,8.982,6.127,15.154
			c-0.434,6.93-9.383,11.693-9.383,11.693L305.043,218.207z"/>
		<path style="fill:#C8AC91;" d="M309.668,212.325c0,0,20.682,42-1.215,91.333c-21.895,49.333-16.166,72.667-17.053,88
			c-0.393,6.797,23.457,13.313,21.535,25.333c-1.738,10.866-48.236,9.333-50.641,2c-2.404-7.333-8.346-43.361-8.1-58
			c0.506-29.983,17.416-118.678,17.416-118.678L309.668,212.325z"/>
		<path style="fill:#E4D5C5;" d="M269.324,237.188c0,0,15.941,91.326-21.902,156.804c-37.844,65.478-86.938,54.317-109.465-20.153
			c-22.527-74.471,48.836-155.962,57.967-155.387C205.055,219.026,269.324,237.188,269.324,237.188z"/>
		<path style="fill:#C8AC91;" d="M171.411,395.491c0,0,53.963,29.166,88.302-106c8.168-32.151,44.002-57.735,42.772-19.5
			c-0.742,23.056-16.223,55.012-18.311,75c-2.809,26.885-5.52,66.224-20.92,77.987C217.411,457.991,142.911,416.991,171.411,395.491
			z"/>
		<path style="fill:#E4D5C5;" d="M300.961,241.325c0,0,2.363,28-19.533,77.333c-21.895,49.333-16.166,72.667-17.051,88
			c-0.393,6.797,23.455,13.313,21.533,25.333c-1.736,10.866-48.235,9.333-50.639,2c-2.404-7.333-8.347-43.361-8.1-58
			c0.506-29.983,17.415-118.679,17.415-118.679L300.961,241.325z"/>
		<path style="fill:#E4D5C5;" d="M148.548,443.32c-9.22-0.69-17.22-3.391-24.01-7.54c-8.92-5.45-15.77-13.41-20.55-22.62
			c-0.41-0.771-0.79-1.55-1.17-2.34c-0.15-0.551-0.24-1.141-0.26-1.771l-5.75-23.62c0,0-0.29,0.221-0.79,0.65
			c-1.75-16.66,1.67-33.6,10.16-45.7c22.66-32.3,29.42-31.89,42.78-60.27C157.228,262.55,200.118,447.18,148.548,443.32z"/>
		<path style="fill:#644D44;" d="M242.221,115.858c0,0,2.562-12.993,10.539-11.693c8.182,1.333,11.842,1.21,26.705,0.722
			c14.865-0.488,25.852,16.346,22.522,40.929c-3.33,24.583-54.893-28.467-54.172-31.257L242.221,115.858z"/>
		<path style="fill:#E4D5C5;" d="M299.965,132.748c0,0-5.484-19.344-34.646-19.922c-29.161-0.577-104.518,10.394-104.807,74.924
			c-0.289,64.529,73.335,83.585,103.219,76.223c29.883-7.363,45.473-72.154,45.039-87.181
			C308.338,161.765,299.965,132.748,299.965,132.748z"/>
		<path style="fill:#FFFFFF;" d="M266.617,169.04c0,8.531-6.916,15.447-15.447,15.447c-8.531,0-15.446-6.916-15.446-15.447
			c0-8.531,6.916-15.447,15.446-15.447C259.701,153.594,266.617,160.51,266.617,169.04z"/>
		<path style="fill:#644D44;" d="M265.043,166.948c0,5.988-4.854,10.843-10.842,10.843c-5.987,0-10.842-4.855-10.842-10.843
			c0-5.988,4.855-10.842,10.842-10.842C260.189,156.106,265.043,160.96,265.043,166.948z"/>
		<path style="fill:#FFFFFF;" d="M308.779,149.661c0,8.531-4.914,15.446-10.977,15.446c-6.061,0-10.975-6.915-10.975-15.446
			c0-8.531,4.914-15.447,10.975-15.447C303.865,134.214,308.779,141.129,308.779,149.661z"/>
		<path style="fill:#644D44;" d="M303.148,151.79c0,5.988-3.496,10.842-7.807,10.842c-4.313,0-7.809-4.854-7.809-10.842
			c0-5.989,3.496-10.843,7.809-10.843C299.652,140.947,303.148,145.801,303.148,151.79z"/>
		<path style="fill:#312A20;" d="M300.045,151.586c0,3.329-2.51,6.029-5.605,6.029c-3.098,0-5.607-2.7-5.607-6.029
			c0-3.33,2.51-6.028,5.607-6.028C297.535,145.558,300.045,148.257,300.045,151.586z"/>
		<path style="fill:#FFFFFF;" d="M294.361,148.305c0,0.987-0.801,1.787-1.787,1.787s-1.785-0.8-1.785-1.787
			c0-0.986,0.799-1.786,1.785-1.786S294.361,147.318,294.361,148.305z"/>
		<path style="fill:#C8AC91;" d="M220.415,182.101c0,0,8.806,2.165,12.704-4.331c3.897-6.496,5.919-22.52,23.692-23.022
			c9.45-0.267,6.48-12.491-0.161-13.79c-6.641-1.299-23.387,5.399-29.306,20.745C221.425,177.048,215.651,180.224,220.415,182.101z"
			/>
		<path style="fill:#644D44;" d="M243.31,225.443c0,0,17.749-8.672,22.946-35.74c5.197-27.067,13.209-39.844,25.77-37.678
			c12.559,2.165,24.035,19.489,31.182,21.654c7.146,2.165,21.871,26.851,0,38.111c-21.871,11.26-31.314,34.126-50.238,36.379
			C254.779,250.335,232.165,234.244,243.31,225.443z"/>
		<path style="fill:#48443E;" d="M305.678,168.339c0,0,0,3.612-1.447,6.297c-1.445,2.685-7.646,2.218-10.246,1.932
			c-2.598-0.286-2.459-4.617-4.479-3.751c-0.986,0.425-4.27,0.433-7.379,0.33c-3.266-0.104-6.332-0.33-6.332-0.33
			c-4.33-7.076,3.465-12.853,7.797-15.452c4.33-2.598,11.398-2.737,16.023-1.152c2.902,0.997,4.037,3.473,4.365,5.613
			c0.209,1.265,0.131,2.408-0.035,3.049c-0.338,1.343,0.885,2.677,1.457,3.213C305.566,168.252,305.678,168.339,305.678,168.339z"/>
		<path style="fill:#C8AC91;" d="M278.43,136.403c-0.631,3.026,3.463,10.378,9.514,7.895c12.629-5.183,14.006,2.888,15.615,2.175
			c5.846-2.594,5.766-16.299-6.506-15.433C284.781,131.906,279.707,130.291,278.43,136.403z"/>
		<path style="fill:#312A20;" d="M264.707,165.31c0,3.447-2.842,6.242-6.348,6.242c-3.504,0-6.346-2.794-6.346-6.242
			c0-3.447,2.842-6.242,6.346-6.242C261.865,159.068,264.707,161.863,264.707,165.31z"/>
		<path style="fill:#FFFFFF;" d="M255.681,163.169c0,0.677-0.55,1.227-1.228,1.227c-0.676,0-1.227-0.55-1.227-1.227
			c0-0.677,0.551-1.227,1.227-1.227C255.131,161.941,255.681,162.491,255.681,163.169z"/>
		<circle style="fill:#FFFFFF;" cx="262.82" cy="166.8" r="0.846"/>
		<path style="fill:#312A20;" d="M293.984,176.567c-2.598-0.286-2.459-4.617-4.479-3.751c-0.986,0.425-4.27,0.433-7.379,0.33
			c-0.008-0.079,0-0.147,0.01-0.226c0,0,4.217-1.36,4.443-4.392c0.207-3.031,6.348-1.784,6.582,1.464
			C293.396,173.241,293.984,176.567,293.984,176.567z"/>
		<path style="fill:#312A20;" d="M305.402,168.087c-1.223-0.381-3.51-1.195-3.941-2.105c-0.59-1.239-1.457-4.193-0.27-4.34
			c0.754-0.095,1.879,0.182,2.789,0.182c0.209,1.265,0.131,2.408-0.035,3.049C303.607,166.217,304.83,167.551,305.402,168.087z"/>
		<path style="fill:#48443E;" d="M300.971,175.298c0,0,3.621,12.452,2.029,18.371c-1.592,5.919-12.459,13.711-8.561,13.711
			c3.896,0,11.67-12.736,15.309-12.574c3.643,0.163,10.201-0.169,9.045-3.056c-1.156-2.887-7.984,0.501-10.014-2.616
			c-2.029-3.117-5.779-13.836-5.779-13.836l-2.029-0.829V175.298z"/>
		<path style="fill:#C8AC91;" d="M227.164,369.65c0,23.359-20.9,46.841-41.435,46.841c-20.535,0-37.182-18.937-37.182-42.296
			c0-23.358,16.647-42.295,37.182-42.295C206.264,331.9,227.164,346.292,227.164,369.65z"/>
		<path style="fill:#E4D5C5;" d="M129.556,350.991c0,0-17.266,39.5,0.544,83.5c0,0,4.289,11.475,43.441,8.893
			s63.28,5.189,56.819-13.893c-3.602-10.639-33.199-17.5-33.199-17.5s29.294-48.81-1.445-75.81
			C164.977,309.182,129.556,350.991,129.556,350.991z"/>
		<path style="fill:#E4D5C5;" d="M179,224c0,0-21.334,11.898-21,21.347c0.738,20.909-4.88,16.013-8.339,19.77
			c-7.25,7.875-2.25,21.042-2.25,21.042s41.708-40.812,36.25-40.542C183.266,245.636,179,224,179,224z"/>
		<path style="fill:#C8AC91;" d="M293.848,239.428c0,0-5.459,30.706-42.678,26.036c-37.219-4.671-60.244-20.117-60.244-20.117
			s24.84,21.942,52.434,28.007c27.594,6.063,52.34,7.148,59.227-20.355C309.471,225.494,293.848,239.428,293.848,239.428z"/>
		<g>
			<g>
				<path style="fill:#6384C9;" d="M284.684,158.444c0,0-8.684-20.271,2.873-20.483c10.08-0.186,6.641,13.322,6.641,13.322
					s15.568-20.689,25.654-5.396c7.123,10.807-16.537,18.841-26.457,17.246C283.475,161.539,284.684,158.444,284.684,158.444z"/>
				<path style="fill:#312A20;" d="M283.299,159.362c0,0,5.525,5.548,9.494,4.586C296.76,162.987,283.271,155.656,283.299,159.362z"
					/>
				<path style="fill:#312A20;" d="M284.963,157.826c0,0.918-0.742,1.663-1.664,1.663c-0.918,0-1.662-0.744-1.662-1.663
					c0-0.919,0.744-1.664,1.662-1.664C284.221,156.162,284.963,156.906,284.963,157.826z"/>
				<path style="fill:#84A8F5;" d="M293.719,162.472c-1.324,0-2.451-0.148-3.406-0.384c0.533-4.533,1.723-11.876,4.213-18.342
					c0-0.016,0.008-0.031,0.022-0.047c2.232-4.752,5.693-11.361,11.836-7.029C324.873,149.708,302.353,162.472,293.719,162.472z"/>
				<path style="fill:#759BEB;" d="M294.525,143.746c-2.49,6.466-3.68,13.809-4.213,18.342c-1.275-0.314-2.238-0.775-2.943-1.222
					c-1.135-0.727-1.603-1.416-1.603-1.416s-10.74-11.852-6.961-17.387c0.197-0.305,0.447-0.587,0.736-0.846
					c8.213-7.273,13.982,4.964,13.982,4.964S293.859,145.17,294.525,143.746z"/>
			</g>
			<path style="fill:#91B0F5;" d="M292.902,159.85c0,0,3.608-21.137,8.992-20.805c5.385,0.332,3.936,6.543,3.936,6.543
				s3.934,2.617,0.553,6.243C303,155.456,292.902,159.85,292.902,159.85z"/>
			<path style="fill:#7AA1F5;" d="M280.572,144.484c0,0,1.449-2.83,5.451-2.07c4.002,0.759,4.604,7.522,4.604,7.522
				s-4.086-0.552-3.465-2.83C287.162,147.106,280.398,148.383,280.572,144.484z"/>
			<path style="fill:none;stroke:#312A20;stroke-linecap:round;stroke-miterlimit:10;" d="M282.09,158.324
				c0,0-9.09-2.58-9.109-8.145c-0.01-3.073,5.02-1.761,3.451,1.965"/>
		</g>
		<path style="fill:#E4D5C5;" d="M102.818,410.82c-3.64-7.71-5.9-16.19-6.8-24.74c0.5-0.43,0.79-0.65,0.79-0.65l5.75,23.62
			C102.578,409.68,102.668,410.27,102.818,410.82z"/>
		<path style="fill:#C8AC91;" d="M132.058,428c-2.12,3.2-4.69,5.79-7.52,7.78c-15.5,10.89-39.02,3.7-41.98-19.73
			c-1.96-15.52,10.21-27.16,13.46-29.97c0.9,8.55,3.16,17.03,6.8,24.74c0.24,0.899,0.64,1.68,1.17,2.34
			c3.43,4.33,12.03,3.67,14.82-2.141c3.48-7.239-3-10.47-3-10.47C122.058,397.55,146.748,405.83,132.058,428z"/>
		<path style="fill:#644D44;" d="M152.624,153.092c0,0,47.476,1.766,50.026,11.724c2.549,9.958-11.152,20.791-11.472,27.961
			c-0.318,7.169-8.255,48.718-24.505,36.61C150.422,217.279,126.814,154.033,152.624,153.092z"/>
	</g>
</g>
</svg>
