<?xml version="1.0" encoding="utf-8"?>
<!-- Generator: Adobe Illustrator 27.5.0, SVG Export Plug-In . SVG Version: 6.00 Build 0)  -->
<svg version="1.1" id="Capa_2" xmlns="http://www.w3.org/2000/svg" xmlns:xlink="http://www.w3.org/1999/xlink" x="0px" y="0px"
	 viewBox="0 0 2122 2122" style="enable-background:new 0 0 2122 2122;" xml:space="preserve">
<path style="fill:#8DB9E1;" d="M1821.949,1374.189c-4.165-10.255-8.56-21.437-17.514-28.516c-9.978-7.889-24.312-7.966-35.029-1.581
	c-42.326-55.88-91.124-132.705-134.193-189.045c-3.679-4.75-7.311-9.407-10.85-13.831c-0.373-0.512-0.792-0.978-1.211-1.49
	l-0.745-0.978l-0.093-0.093c-20.285-31.106-46.613-58.248-76.78-80.597c0.167-1.345-0.402-2.734-1.598-3.554
	c-59.503-40.721-130.002-66.662-193.42-71.174c-0.994-0.065-1.946,0.279-2.672,0.891c-5.966-1.068-11.93-2.153-17.883-3.291
	c-8.475-1.63-16.904-3.353-25.286-5.309c-2.469-0.559-4.89-1.164-7.358-1.77c-3.772-0.931-7.498-1.909-11.269-2.98
	c-4.75-1.257-9.453-2.608-14.203-4.051c-1.397-0.419-2.841-0.885-4.238-1.304c3.586-4.75,7.078-9.546,10.477-14.389
	c6.613-9.453,12.714-19.092,18.162-29.012c6.706-12.107,12.387-24.588,16.811-37.673c2.142-6.147,3.959-12.434,5.448-18.814
	c0.466-2.049,0.932-4.144,1.305-6.193c0.744-3.772,1.397-7.591,1.862-11.409c0.366-2.773,0.639-5.547,0.856-8.321
	c0.087-0.995,0.162-1.992,0.215-2.995c0.093-1.164,0.14-2.328,0.233-3.493l0.046-1.117c0.093-2.189,0.14-4.377,0.14-6.612v-3.446
	c0.047-1.071,0-2.142-0.046-3.213c-0.047-1.164-0.14-2.328-0.187-3.492c-0.093-2.328-0.233-4.61-0.419-6.892
	c-0.186-2.282-0.419-4.564-0.698-6.892l-0.046-0.559l-0.156-1.14l-0.03-0.304c-0.14-0.885-0.232-1.769-0.372-2.654
	c-0.279-1.956-0.606-3.865-0.931-5.774c-0.373-2.096-0.792-4.238-1.211-6.333c-0.326-1.49-0.652-3.027-1.024-4.517v-0.093
	c-9.36-39.769-31.108-77.116-63.006-105.197c-13.831-12.154-29.105-22.213-45.311-30.269c-16.205-8.056-33.342-14.017-51.085-18.022
	l-0.003,0c-10.034-17.239-22.736-32.966-37.807-46.294c-12.693-11.223-26.606-20.45-41.361-27.73
	c-43.033-21.233-93.218-25.913-141.103-15.305c-54.131,11.991-87.879,53.958-113.014,99.187
	c-10.372,1.032-21.016,2.662-31.931,4.888c-7.28,1.467-14.288,3.205-20.916,5.216l-0.008,0.003l0.003-0.02
	c-4.309,1.241-8.514,2.609-12.581,4.068c-1.435,0.507-2.855,1.022-4.256,1.546c-30.009,11.517-52.576,28.512-70.246,48.711
	l-0.265,0.302l-0.036,0.041c-32.641,37.489-48.502,85.944-63.775,130.858l-0.046,0.14l0.011,0.001
	c-21.734,63.451-82.09,113.589-151.952,85.612c-41.615-16.679-69.866-64.705-86.599-103.876
	c-20.862-48.461-27.708-102.028-29.663-154.292c-0.978-25.86-7.388-209.978,45.908-201.503c51.775,8.313,72.419-38.79,32.107-62.205
	c-2.336-1.358-4.889-2.608-7.66-3.803c-8.584-3.639-18.363-5.215-27.436-8.04c-3.477-1.032-6.845-2.282-9.996-3.858
	c-3.531-1.847-6.628-4.075-9.399-6.52c-3.423-3.151-6.357-6.682-9.019-10.431c-0.38-0.435-0.706-0.923-1.032-1.413
	c-2.825-3.966-5.433-8.095-8.095-12.115c-1.358-2.119-2.825-4.129-4.455-6.193c-0.87-1.087-1.793-2.228-2.771-3.314l-0.217-0.23
	c-1.885-2.116-3.916-4.128-6.104-5.961l-0.036-0.056c-0.502-0.39-1.004-0.795-1.514-1.192l-0.026-0.02
	c-0.474-0.369-0.954-0.732-1.448-1.07l-0.107-0.075l-0.326-0.229c-0.508-0.358-1.008-0.708-1.559-1.032l-0.388-0.24l-0.664-0.404
	l-0.004-0.003l-0.813-0.466l-0.948-0.514c-0.861-0.466-1.727-0.893-2.636-1.276l-0.317-0.119c-0.952-0.401-1.926-0.763-2.923-1.087
	c-0.499-0.171-1.006-0.325-1.54-0.478l-0.846-0.208c-0.632-0.158-1.273-0.298-1.923-0.424l-0.366-0.07l-0.241-0.046l-1.188-0.23
	c-0.598-0.054-1.25-0.109-1.901-0.109l-0.869,0.03c-0.55,0.024-1.1,0.076-1.647,0.155l-0.487,0.077l-0.396,0.075l-0.784,0.152
	l-0.435,0.109l-0.429,0.139c-3.978,1.156-7.776,3.615-10.966,6.756l-0.018,0.017l-0.339,0.339c-0.913,0.914-1.778,1.885-2.591,2.909
	l-0.326,0.435l-0.532,0.763l-0.578,0.843l-0.302,0.405l-0.326,0.576l-0.512,0.86l-0.357,0.574v0.054
	c-0.489,0.869-0.923,1.792-1.25,2.608l-0.05,0.127c-0.291,0.705-0.549,1.413-0.769,2.119l-0.012,0.039
	c-0.288,0.929-0.513,1.856-0.668,2.771c-0.233,1.297-0.323,2.57-0.23,3.755l0.094,0.991l0.055,0.4l0.002,0.019
	c0.19,1.241,0.577,2.435,1.143,3.524c15.665,29.514,21.841,50.449,22.249,69.599c0.658,31.248-14.046,57.748-27.978,109.021
	c-42.592,156.713-13.75,398.035,111.438,521.691l0.014,0.013v0.02c0.695,0.677,1.391,1.352,2.086,2.025
	c26.422,25.769,56.688,49.629,89.876,70.433c-8.833-1.428-17.575-3.335-26.137-5.671c-23.893-6.519-22.912,15.02-9.06,27.928
	c7.202,6.711,14.941,12.834,23.052,18.41c35.5,24.403,82.23,41.684,128.543,44.65l0.174,0.011c0.486,0.031,0.973,0.061,1.46,0.089
	c0.538,0.031,1.077,0.06,1.615,0.087l0.774,0.036c0.461,0.021,0.922,0.041,1.383,0.06l0.66,0.025
	c0.667,0.025,1.335,0.047,2.002,0.066c1.945,0.054,3.893,0.08,5.841,0.078c1.299-0.001,2.598-0.016,3.897-0.042
	c0.65-0.014,1.299-0.029,1.949-0.049c2.598-0.079,5.195-0.209,7.788-0.391c1.297-0.091,2.593-0.195,3.887-0.312
	c2.589-0.234,5.173-0.521,7.748-0.861c1.288-0.17,2.573-0.354,3.856-0.551c0.642-0.099,1.282-0.201,1.923-0.306
	c1.818-0.299,3.63-0.627,5.436-0.981c0.739-0.145,1.477-0.293,2.213-0.448c4.44-0.93,8.839-2.03,13.179-3.306
	c0.768-0.226,1.534-0.459,2.298-0.696c1.548-0.479,3.088-0.982,4.619-1.507c0.765-0.262,1.529-0.529,2.291-0.803
	c0.607-0.219,1.213-0.441,1.818-0.667l0.589-0.225c14.144,2.41,28.422,4.182,42.824,5.291c1.754,0.143,3.51,0.267,5.268,0.377
	c9.776,0.642,19.609,0.977,29.495,0.997h0.072c-1.442,24.349-0.372,48.422,1.91,72.632c0.745,7.917,1.583,15.833,2.561,23.796
	l0.01,0.087c-0.3,2.132-0.605,4.265-0.917,6.401c-4.798,32.854-25.675,67.838-37.319,99.224
	c-12.482,33.643-24.181,67.574-35.089,101.758c-22.362,70.078-41.394,141.218-56.997,213.104c-0.506,2.335-1.01,4.685-1.478,7.046
	l-0.231,1.18c-0.227,1.181-0.445,2.365-0.648,3.551c-0.474,2.766-0.87,5.539-1.135,8.314c-0.076,0.793-0.142,1.585-0.196,2.378
	c-0.107,1.585-0.168,3.17-0.172,4.752c-0.007,2.373,0.115,4.742,0.396,7.1l0.154,1.178c0.112,0.785,0.242,1.569,0.391,2.351
	c1.322,6.915,4.025,13.183,7.741,18.865c0.696,1.066,1.429,2.11,2.195,3.136c1.02,1.366,2.1,2.697,3.233,3.992
	c11.614,13.28,28.829,22.894,45.46,29.885c9.846,4.139,19.87,7.852,30.035,11.132c1.355,0.437,2.714,0.867,4.073,1.288
	c3.401,1.055,6.815,2.06,10.245,3.018c2.057,0.574,4.119,1.131,6.186,1.671c2.066,0.539,4.138,1.062,6.214,1.566
	c1.384,0.336,2.769,0.665,4.157,0.985c1.387,0.32,2.777,0.633,4.168,0.938c0.925,0.202,1.852,0.401,2.778,0.596
	c0.159,0.676,0.327,1.349,0.506,2.019l0.227,0.833l0.006,0.022l0.013,0.045c0.857,3.026,1.94,5.981,3.32,8.834
	c3.684,7.693,9.091,13.944,15.609,19.034l0.616,0.493c0.493,0.374,1.002,0.74,1.516,1.103
	c14.806,10.624,34.664,15.793,53.204,18.417c45.127,6.295,91.429,4.321,135.863-5.868c10.85-2.499,22.062-5.755,31.419-11.587
	l0.447-0.281l0.477-0.304l1.11-0.735l1.024-0.728l0.676-0.499l0.131-0.098c1.907-1.432,3.71-2.999,5.39-4.717
	c0.574-0.564,1.102-1.134,1.627-1.734l0.818-0.98c0.696-0.844,1.357-1.709,1.985-2.593l0.019-0.027l0.357-0.51l0.076-0.113
	c2.132-3.119,3.859-6.469,5.266-9.981c0.438-1.063,0.835-2.145,1.195-3.242c0.414-1.223,0.793-2.462,1.142-3.714l0.036-0.119
	l0.07-0.263l0.249-0.932l0.146-0.57c1.168-4.62,1.951-9.403,2.511-14.218l0.051-0.409v-0.034l0.049-0.447
	c0.161-1.392,0.29-2.783,0.417-4.176c0.279-3.027,0.465-6.054,0.652-9.08v-0.14c3.552-59.129,4.151-118.344,1.798-177.479
	c1.335-0.52,2.309-1.784,2.381-3.308c0.418-8.761,3.065-17.253,6.595-25.54c7.496-2.54,16.808,2.455,24.011,7.11
	c21.322,13.841,44.039,24.69,67.706,32.994c-0.606,1.971,0.499,4.063,2.47,4.671c48.437,14.988,99.024,23.093,149.029,24.215
	c5.505,48.746-5.726,101.453,17.471,143.476l0.005,0.009c0.291,0.528,0.589,1.056,0.891,1.581l0.074,0.127l0.776,1.317l0.213,0.353
	c0.291,0.481,0.585,0.961,0.887,1.439c22.785,36.175,67.356,51.981,109.561,58.812c24.086,3.898,49.489,5.299,73.936,2.566
	c1.778-0.198,3.551-0.419,5.318-0.662c1.325-0.183,2.647-0.377,3.965-0.585l1.25-0.202c20.09,11.012,43.605,17.157,66.803,20.449
	l0.156,0.024l0.049,0.005c2.996,0.423,5.986,0.8,8.962,1.132c16.392,1.813,33.326,2.454,50.076,1.458l0.572-0.034
	c1.23-0.076,2.459-0.161,3.686-0.255c1.094-0.078,2.187-0.162,3.293-0.257c2.142-0.186,4.238-0.419,6.38-0.652
	c1.429-0.175,2.858-0.369,4.287-0.569c0.776-0.106,1.551-0.216,2.325-0.329l0.233-0.033c1.956-0.279,3.865-0.605,5.774-0.932
	l0.394-0.076c2.003-0.357,3.998-0.743,5.982-1.157c0.591-0.12,1.182-0.24,1.773-0.35c0.463-0.116,0.926-0.228,1.389-0.337
	c0.538-0.122,1.076-0.246,1.613-0.373c0.675-0.153,1.351-0.304,2.027-0.454c6.52-1.583,12.946-3.539,19.186-5.914l0.354-0.136
	c2.231-0.836,4.44-1.719,6.622-2.652c0.758-0.322,1.514-0.653,2.266-0.99l0.237-0.106l0.707-0.32
	c1.339-0.609,2.668-1.237,3.985-1.885l0.404-0.2l0.722-0.36l0.84-0.426l0.286-0.147l0.998-0.517l0.043-0.022
	c0.816-0.427,1.627-0.862,2.432-1.305c1.641-0.901,3.262-1.835,4.864-2.802l1.177-0.705c1.164-0.745,2.328-1.443,3.493-2.235
	c2.281-1.49,4.516-3.073,6.706-4.75c1.118-0.839,2.189-1.677,3.26-2.561c3.213-2.515,6.333-5.309,9.314-8.336
	c0.465-0.373,0.885-0.838,1.304-1.258c6.147-6.239,11.688-13.411,14.25-21.84c4.005-12.992,0.373-27.056-3.167-40.234
	c-37.58-139.889-61.609-283.504-71.621-428.004c-1.63-23.843-2.934-47.825-5.122-71.668c27.375,21.276,57.682,39.201,86.407,51.216
	c-1.421,2.711-2.359,5.661-2.669,8.711c-2.507,24.713,29.105,37.425,48.666,39.902c13.62,1.724,27.436,0.62,41.073-0.972
	C1835.187,1395.755,1826.755,1386.021,1821.949,1374.189z"/>
<path style="fill:#ADD5EC;" d="M1501.738,1885.305c-0.517-0.281-1.026-0.572-1.525-0.873c-4.228-2.457-8.289-5.143-12.15-8.074
	l-0.086-0.065c-3.526-2.683-6.884-5.571-10.045-8.682l-0.152-0.151c-0.672-0.644-1.324-1.309-1.958-1.991
	c-0.899-0.94-1.78-1.899-2.643-2.879c-1.103-1.251-2.177-2.535-3.219-3.852c-0.696-0.867-1.375-1.761-2.04-2.668l-0.123-0.167
	c-0.375-0.514-0.748-1.031-1.114-1.549c-3.058-4.346-5.666-8.832-7.908-13.448l-0.286-0.596l-0.36-0.756
	c-2.013-4.276-3.732-8.66-5.201-13.137l0.017-0.038v-0.013c-4.936-15.088-7.078-31.154-8.383-47.639v-0.016
	c-3.004-3.422-6.807-5.932-11.935-6.778c-13.394-2.21-26.376,7.24-37.165,13.82c-10.496,6.402-22.637,14.154-35.519,12.465
	c-17.063-2.238-24.037-20.795-37.096-29.697c-9.597-6.542-21.938-4.557-30.853,1.988c1.669,17.307,5.29,33.951,13.347,49.214
	l0.052,0.099c0.252,0.475,0.507,0.95,0.767,1.422l0.035,0.063c0.285,0.517,0.576,1.033,0.872,1.547l0.11,0.189l0.734,1.246l0.24,0.4
	l0.827,1.342l0.047,0.076c3.916,6.218,8.476,11.834,13.557,16.906c0.462,0.461,0.928,0.917,1.398,1.37
	c3.293,3.165,6.792,6.112,10.466,8.855c0.525,0.392,1.053,0.78,1.585,1.164c2.66,1.919,5.406,3.734,8.228,5.453
	c2.257,1.374,4.563,2.688,6.911,3.941c1.174,0.627,2.358,1.238,3.553,1.836c0.598,0.299,1.197,0.594,1.799,0.885
	c1.204,0.583,2.418,1.151,3.641,1.706c5.5,2.496,11.178,4.709,16.966,6.67c1.286,0.436,2.578,0.859,3.874,1.271
	c1.296,0.411,2.597,0.81,3.902,1.198c1.305,0.388,2.613,0.763,3.925,1.128c1.312,0.365,2.628,0.717,3.945,1.06
	c1.318,0.342,2.638,0.673,3.96,0.994c0.661,0.16,1.322,0.317,1.984,0.472c1.324,0.31,2.648,0.609,3.974,0.898
	c2.652,0.579,5.305,1.116,7.956,1.616c1.325,0.25,2.649,0.49,3.972,0.722c1.323,0.231,2.644,0.453,3.963,0.667
	c4.598,0.744,9.245,1.397,13.923,1.948c3.119,0.367,6.252,0.689,9.395,0.962c1.572,0.136,3.146,0.26,4.721,0.372
	c3.152,0.223,6.31,0.395,9.471,0.514c0.903,0.034,1.807,0.063,2.71,0.088c0.452,0.012,0.904,0.024,1.356,0.034
	c0.903,0.02,1.808,0.036,2.711,0.048c1.355,0.017,2.71,0.024,4.065,0.02c1.354-0.004,2.708-0.019,4.062-0.044
	c0.902-0.017,1.804-0.039,2.706-0.065c4.957-0.147,9.899-0.443,14.808-0.9c2.231-0.208,4.455-0.449,6.671-0.725
	c0.886-0.11,1.771-0.226,2.655-0.348c0.884-0.121,1.766-0.249,2.646-0.381c0.858-0.13,1.715-0.265,2.57-0.406L1501.738,1885.305z"/>
<path style="fill:#ADD5EC;" d="M765.377,1836.701c-0.135-0.829-0.257-1.661-0.363-2.5c-0.155-1.169-0.291-2.342-0.412-3.519
	l-0.02-0.172c-0.093-0.652-0.14-1.304-0.187-1.956c-0.072-0.795-0.132-1.59-0.185-2.386c-0.227-3.106-0.38-6.219-0.522-9.311
	c-0.258-5.737-0.474-11.477-0.683-17.217c-0.048-1.26-0.096-2.52-0.146-3.777c-0.386-10.087-0.69-20.213-0.917-30.306
	c-0.02-0.857-0.042-1.715-0.06-2.571c-0.016-0.838-0.03-1.673-0.045-2.51c-0.124-6.884-0.245-13.741-0.328-20.634v-0.009
	l-0.019,0.011c-13.912,8.139-33.997,17.606-49.95,9.35c-12.332-6.383-14.782-21.472-17.091-33.795
	c-3.051-16.281-7.266-37.911-28.551-37.173c-4.094,0.142-8.268,1.146-12.313,2.704c-3.7,15.496-7.272,31.023-10.651,46.592
	c-0.423,1.946-0.843,3.903-1.242,5.867c-0.227,1.116-0.446,2.234-0.655,3.353c-0.086,0.458-0.17,0.914-0.252,1.372
	c-0.129,0.723-0.253,1.448-0.372,2.172c-0.149,0.905-0.288,1.811-0.417,2.717c-0.106,0.744-0.205,1.488-0.295,2.232l-0.137,1.189
	c-0.087,0.793-0.163,1.585-0.228,2.378c-0.063,0.769-0.116,1.538-0.157,2.306c-0.065,1.213-0.102,2.424-0.105,3.635
	c-0.002,0.791,0.01,1.582,0.037,2.372c0.06,1.728,0.194,3.452,0.413,5.171c0.132,1.031,0.294,2.06,0.491,3.087l0.195,0.968
	c0.136,0.643,0.284,1.28,0.444,1.911l0.248,0.943c0.192,0.703,0.402,1.396,0.623,2.085c0.173,0.538,0.351,1.073,0.54,1.603
	c0.202,0.564,0.417,1.121,0.637,1.675c0.184,0.463,0.375,0.922,0.572,1.377l0.384,0.867c0.38,0.838,0.782,1.664,1.203,2.479
	c0.296,0.571,0.598,1.138,0.913,1.699c0.831,1.476,1.729,2.915,2.69,4.317l0.732,1.045c0.388,0.542,0.788,1.078,1.195,1.609
	c0.371,0.485,0.748,0.968,1.134,1.445c1.078,1.331,2.213,2.626,3.398,3.887c1.185,1.261,2.42,2.488,3.7,3.68
	c2.88,2.685,5.987,5.2,9.254,7.557c1.089,0.786,2.196,1.554,3.318,2.305c0.748,0.5,1.504,0.993,2.264,1.479l1.147,0.723
	c0.767,0.477,1.541,0.948,2.319,1.411l1.17,0.689c3.524,2.052,7.143,3.956,10.792,5.724l1.217,0.584
	c2.843,1.352,5.7,2.622,8.539,3.816c4.595,1.932,9.229,3.77,13.898,5.516c2.001,0.748,4.008,1.479,6.021,2.192
	c1.342,0.476,2.687,0.944,4.035,1.404c0.674,0.23,1.348,0.458,2.023,0.684c0.675,0.227,1.351,0.451,2.027,0.674
	c1.353,0.445,2.708,0.882,4.066,1.312c0.679,0.215,1.359,0.428,2.039,0.639c0.68,0.211,1.36,0.42,2.042,0.627
	c3.406,1.035,6.828,2.022,10.261,2.96c6.182,1.688,12.407,3.219,18.667,4.59c0.924,0.203,1.851,0.4,2.777,0.596
	C766.053,1840.552,765.684,1838.634,765.377,1836.701z"/>
<path style="fill:#71A1CE;" d="M971.556,668.106l0.019-0.018c21.98-20.863,48.524-36.789,81.68-42.982
	c35.157-6.566,71.293-6.194,105.38,1.582c-10.034-17.239-22.736-32.966-37.807-46.294c-12.693-11.224-26.606-20.45-41.361-27.729
	c-43.033-21.234-93.218-25.913-141.103-15.305c-54.132,11.991-87.879,53.957-113.014,99.187l0.014-0.001
	C883.112,630.841,931.843,643.552,971.556,668.106z"/>
<path style="fill:#BAE0F7;" d="M1005.762,1789.063c-11.863,1.654-19.315,14.485-26.162,22.973
	c-7.513,9.313-16.888,18.273-29.737,17.53c-17.218-0.996-30.002-15.771-41.523-26.933c-4.284-4.149-9.565-9.567-16.072-8.981
	c-9.687,0.872-17.471,10.861-23.838,17.112c-6.077,5.968-10.731,14.191-18.647,17.979c-8.038,3.846-17.566,1.246-24.372-3.972
	c-7.22-5.536-11.254-13.91-16.42-21.175c-5.621-7.904-13.044-12.698-22.835-13.264c-7.965-0.46-16.355,1.501-23.287,5.547
	c0.045,1.255,0.09,2.51,0.136,3.764c0.209,5.74,0.425,11.48,0.683,17.217c0.142,3.091,0.295,6.204,0.522,9.311
	c0.11,1.507,0.239,3.012,0.393,4.513c0.12,1.176,0.256,2.35,0.412,3.519c0.111,0.836,0.232,1.669,0.363,2.5
	c0.307,1.933,0.675,3.851,1.12,5.745l0,0c0.16,0.683,0.331,1.363,0.512,2.039l0.189,0.694c0.865,3.091,1.963,6.108,3.371,9.018
	c3.686,7.695,9.093,13.947,15.614,19.037c0.694,0.542,1.401,1.071,2.119,1.587c14.807,10.628,34.669,15.8,53.213,18.423
	c45.128,6.294,91.429,4.321,135.863-5.868c10.846-2.497,22.054-5.753,31.409-11.581l0.47-0.295l0.462-0.295
	c0.725-0.471,1.438-0.96,2.138-1.465l0.666-0.491l0.145-0.109c1.908-1.433,3.712-3.001,5.392-4.72
	c0.552-0.565,1.095-1.142,1.62-1.742l0.789-0.931c3.315-4.008,5.824-8.487,7.737-13.269c0.425-1.062,0.821-2.139,1.19-3.228
	c0.415-1.225,0.794-2.466,1.144-3.721l0.107-0.382l0.248-0.932l0.146-0.57c1.168-4.62,1.951-9.403,2.511-14.218l0.051-0.444
	l0.051-0.457c0.49-4.424,0.801-8.868,1.057-13.23C1029.094,1802.003,1022.765,1786.692,1005.762,1789.063z"/>
<path style="fill:#71A1CE;" d="M1444.328,1716.258c-2.423-11.3-6.181-22.521-11.224-33.542c-1.385-3.028-2.869-6.041-4.448-9.037
	c-1.842-3.495-3.813-6.967-5.914-10.41c-3.686-6.039-7.995-11.666-12.163-17.108c-4.285-5.593-8.714-11.377-12.312-17.445
	c-6.361-10.738-10.999-23.618-13.786-38.28c-4.102-21.571-4.321-43.69-3.995-62.484c0.036-2.065-1.61-3.771-3.676-3.808h-0.068
	c-2.034,0-3.703,1.632-3.739,3.676c-0.334,19.176-0.103,41.776,4.126,64.014c2.948,15.518,7.895,29.211,14.702,40.697
	c3.822,6.451,8.39,12.414,12.806,18.18c1.935,2.528,3.901,5.096,5.806,7.71c-85.43,19.457-180.577,15.238-268.549-11.976
	c-1.971-0.609-4.068,0.497-4.68,2.468l-0.002,0.008c-0.606,1.971,0.499,4.063,2.47,4.672
	c48.438,14.986,99.023,23.091,149.028,24.212c3.458,30.612,0.346,62.599,3.284,92.705c8.915-6.546,21.255-8.53,30.853-1.988
	c13.06,8.902,20.033,27.459,37.096,29.697c12.882,1.689,25.022-6.063,35.519-12.465c10.789-6.579,23.771-16.03,37.165-13.82
	c5.128,0.846,8.93,3.357,11.935,6.778v-0.031c-0.178-2.38-0.337-4.77-0.484-7.165c0.437,0.179,0.914,0.278,1.413,0.278h0.071
	c2.066-0.039,3.71-1.744,3.673-3.81C1448.954,1752.413,1448.151,1734.089,1444.328,1716.258z"/>
<path style="fill:#1D2342;" d="M1723.594,1875.617c-0.171-1.371-1.425-2.353-2.782-2.168c-12.402,1.523-25.335-5.035-31.496-15.983
	c-1.186-2.11-2.127-4.341-3.123-6.702c-1.074-2.548-2.185-5.184-3.64-7.679c-3.739-6.414-9.968-10.204-15.992-9.72
	c-3.052,0.261-8.634,1.922-11.688,10.102c-1.216,3.255-1.705,6.626-2.178,9.888l-0.41,2.714c-0.942,5.773-3.257,10.19-6.351,12.114
	c-2.153,1.343-4.687,1.547-7.751,0.607c-3.649-1.109-6.994-3.963-9.42-8.039c-2.431-4.081-3.69-9.084-5.023-14.38
	c-2.237-8.884-4.55-18.07-12.789-23.603c-7.279-4.887-13.603-3.613-17.632-1.688c-8.965,4.29-14.414,15.247-15.164,23.852
	c-0.164,1.878-0.212,3.798-0.261,5.722c-0.129,5.225-0.251,10.159-2.76,14.022c-3.03,4.672-9.62,7.009-16.041,5.674
	c-5.547-1.145-10.948-4.646-16.054-10.405c-2.943-3.318-5.559-7.086-8.088-10.73c-1.41-2.03-2.818-4.059-4.295-6.039
	c-8.892-11.937-18.841-19.895-29.567-23.651c-13.515-4.743-28.1-2.18-37.15,6.516c-0.994,0.955-1.026,2.534-0.073,3.528
	c0.955,0.996,2.536,1.023,3.528,0.073c7.593-7.296,20.475-9.459,32.044-5.41c9.773,3.425,18.931,10.801,27.218,21.927
	c1.442,1.934,2.818,3.919,4.195,5.903c2.614,3.764,5.315,7.654,8.456,11.193c5.835,6.583,12.151,10.614,18.777,11.983
	c8.373,1.722,17.106-1.491,21.235-7.842c3.279-5.047,3.422-10.928,3.561-16.616c0.046-1.819,0.09-3.637,0.244-5.413
	c0.718-8.256,6.027-16.76,12.348-19.786c4.146-1.986,8.421-1.54,12.696,1.33c6.65,4.465,8.633,12.341,10.733,20.68
	c1.362,5.411,2.77,11.006,5.574,15.715c3.065,5.145,7.416,8.787,12.256,10.26c4.453,1.357,8.441,0.974,11.839-1.145
	c5.908-3.678,7.949-11.318,8.641-15.547c0.151-0.93,0.287-1.866,0.421-2.804c0.455-3.138,0.885-6.102,1.912-8.857
	c1.576-4.217,4.149-6.594,7.44-6.874c4.034-0.331,8.524,2.575,11.26,7.262c1.293,2.217,2.292,4.589,3.352,7.101
	c1.006,2.387,2.047,4.857,3.374,7.211c6.431,11.437,19.279,18.745,32.268,18.745c1.399,0,2.796-0.085,4.187-0.258
	C1722.793,1878.228,1723.765,1876.983,1723.594,1875.617z"/>
<path style="fill:#71A1CE;" d="M775.912,1462.112c4.325-26.33,9.807-54.182,6.971-78.652c-0.512-4.657-1.071-9.313-1.63-13.924
	c-2.604-21.112-5.579-41.899-7.999-62.499c-0.3,2.131-0.605,4.264-0.917,6.401c-4.798,32.854-25.675,67.838-37.319,99.224
	c-12.481,33.642-24.181,67.573-35.089,101.758c-17.525,54.919-32.958,110.439-46.346,166.511c4.045-1.558,8.22-2.562,12.313-2.704
	c21.285-0.738,25.5,20.892,28.551,37.173c2.309,12.323,4.759,27.413,17.091,33.795c15.953,8.256,36.038-1.211,49.95-9.35
	l0.019-0.011c-0.063-5.399-0.104-10.8-0.13-16.2c0.403,0.148,0.836,0.233,1.289,0.233h0.022c2.066-0.012,3.732-1.696,3.72-3.764
	c-0.48-84.5,3.628-169.961,12.207-254.015C778.804,1464.254,777.63,1462.596,775.912,1462.112z"/>
<path style="fill:#8DB9E1;" d="M493.609,339.179c-12.728-1.755-25.663-1.395-38.365,0.391c-11.165,1.57-22.807,3.867-33.438,7.701
	c-2.579,0.93-10.152,3.397-6.148,7.272c1.423,1.377,12.587-0.173,15.157,0.062c21.152,1.937,41.676,12.313,54.963,29.018
	c6.481,8.147,11.26,17.485,16.757,26.326c5.497,8.84,11.95,17.418,20.754,22.972c8.805,5.554,20.391,7.613,29.738,3.028
	c8.012-3.931,13.325-12.275,14.92-21.056c1.595-8.781-0.187-17.914-3.597-26.161C552.833,360.878,523.467,343.295,493.609,339.179z"
	/>
<path style="fill:#8DB9E1;" d="M386.343,370.804c1.467-0.38,3.911-4.455,6.302-8.801c1.249-2.281,2.445-4.618,3.477-6.465
	c0.869-1.576,1.63-2.825,2.118-3.477c18.852-24.719,47.701-42.05,78.776-45.527c15.103-1.684,30.424-0.326,45.636-0.272
	c15.266,0.109,30.912-1.195,44.658-7.823c13.745-6.574,25.317-19.341,26.892-34.499c1.358-12.984-4.835-26.023-14.451-34.878
	c-9.67-8.801-22.328-13.691-35.205-15.919c-43.517-7.388-88.175,15.32-116.534,49.112c-12.061,14.397-21.677,30.695-29.391,47.809
	c-5.704,12.713-11.029,26.295-14.614,39.986c-0.163,0.489-0.326,0.978-0.38,1.521c-0.543,1.956-1.032,3.966-1.467,5.922
	C381.29,361.459,378.465,372.759,386.343,370.804z"/>
<path style="fill:#303A75;" d="M1821.941,1374.189c-4.165-10.255-8.56-21.437-17.514-28.516c-9.978-7.889-24.312-7.965-35.03-1.58
	c-1.05,0.625-2.066,1.312-3.039,2.06c-3.127,2.405-5.757,5.498-7.586,8.986c-1.421,2.711-2.359,5.661-2.668,8.712
	c-2.508,24.713,29.105,37.425,48.666,39.901c13.621,1.725,27.436,0.62,41.073-0.972
	C1835.179,1395.754,1826.747,1386.02,1821.941,1374.189z"/>
<path style="fill:#ADD5EC;" d="M1500.21,1884.436c-4.235-2.461-8.302-5.151-12.168-8.087l-0.046-0.035
	c-3.6-2.736-7.023-5.688-10.241-8.87c-0.664-0.636-1.306-1.292-1.932-1.965c-2.06-2.154-4.028-4.411-5.896-6.772
	c-0.682-0.851-1.349-1.728-2.001-2.617l-0.15-0.205c-0.371-0.509-0.739-1.019-1.1-1.531c-3.057-4.344-5.664-8.829-7.906-13.443
	l-0.28-0.583l-0.376-0.79c-2.01-4.271-3.726-8.648-5.193-13.12l0.017-0.038v-0.013c-4.937-15.088-7.079-31.154-8.382-47.639v-0.015
	c-3.004-3.422-6.807-5.932-11.935-6.778c-13.394-2.21-26.376,7.24-37.165,13.82c-10.496,6.401-22.637,14.153-35.518,12.464
	c-17.063-2.238-24.037-20.795-37.097-29.697c-9.597-6.542-21.938-4.557-30.853,1.988c1.67,17.316,5.293,33.966,13.358,49.235
	l0.064,0.122c0.25,0.474,0.505,0.945,0.764,1.416l0.005,0.008c0.291,0.529,0.589,1.056,0.891,1.581l0.074,0.127l0.776,1.317
	l0.213,0.353c0.291,0.481,0.586,0.961,0.887,1.439c10.324,16.392,25.123,28.602,42.146,37.689c1.174,0.627,2.358,1.238,3.553,1.835
	c0.598,0.299,1.197,0.594,1.799,0.885c1.204,0.583,2.418,1.151,3.64,1.706c5.501,2.496,11.178,4.709,16.966,6.67
	c1.286,0.436,2.578,0.86,3.874,1.271c1.296,0.412,2.597,0.811,3.902,1.198c1.305,0.388,2.613,0.763,3.925,1.128
	c1.312,0.364,2.628,0.717,3.945,1.06c1.318,0.342,2.638,0.673,3.96,0.993c0.661,0.16,1.322,0.318,1.984,0.473
	c1.324,0.309,2.649,0.609,3.974,0.898c2.652,0.578,5.305,1.115,7.955,1.616c1.325,0.249,2.649,0.49,3.972,0.721
	c1.323,0.232,2.644,0.453,3.963,0.667c5.474,0.885,11.016,1.643,16.599,2.251c3.35,0.365,6.715,0.677,10.089,0.932
	c0.45,0.034,0.9,0.067,1.35,0.099c0.901,0.064,1.801,0.123,2.703,0.179c2.254,0.139,4.51,0.251,6.768,0.335
	c1.806,0.068,3.614,0.118,5.421,0.15c0.904,0.016,1.807,0.027,2.711,0.034c0.903,0.007,1.807,0.009,2.71,0.006
	c2.257-0.006,4.514-0.042,6.768-0.109c1.352-0.04,2.703-0.091,4.052-0.153c0.899-0.042,1.798-0.088,2.697-0.14
	c1.317-0.076,2.632-0.163,3.945-0.261c0.478-0.036,0.956-0.073,1.433-0.111c0.858-0.069,1.715-0.144,2.57-0.224
	c0.483-0.044,0.966-0.091,1.448-0.139l1.336-0.137c1.781-0.188,3.556-0.398,5.326-0.629l1.327-0.178
	c0.884-0.122,1.766-0.249,2.646-0.382c0.858-0.129,1.714-0.264,2.569-0.405l-1.328-0.735
	C1501.21,1885.022,1500.705,1884.734,1500.21,1884.436z"/>
<path style="fill:#71A1CE;" d="M640.644,1768.254c-0.16-0.631-0.308-1.268-0.444-1.911
	C640.336,1766.986,640.484,1767.623,640.644,1768.254z"/>
<polygon style="fill:#71A1CE;" points="639.795,1764.2 640.005,1765.375 640.2,1766.343 640.005,1765.375 "/>
<path style="fill:#71A1CE;" d="M640.369,1740.487c0.129-0.791,0.264-1.581,0.406-2.37
	C640.633,1738.906,640.498,1739.696,640.369,1740.487z"/>
<path style="fill:#ADD5EC;" d="M765.369,1836.701c-0.135-0.829-0.257-1.661-0.363-2.499c-0.155-1.169-0.291-2.342-0.412-3.519
	l-0.02-0.171c-0.093-0.652-0.14-1.304-0.187-1.956c-0.072-0.795-0.132-1.591-0.185-2.386c-0.227-3.106-0.38-6.219-0.522-9.311
	c-0.258-5.737-0.474-11.476-0.683-17.217c-0.048-1.26-0.096-2.52-0.146-3.778c-0.419-10.943-0.745-21.933-0.977-32.876
	c-0.14-7.73-0.28-15.414-0.373-23.145v-0.008l-0.019,0.011c-13.912,8.139-33.997,17.605-49.95,9.35
	c-12.332-6.383-14.782-21.472-17.091-33.796c-3.05-16.28-7.267-37.911-28.551-37.172c-4.094,0.142-8.268,1.146-12.313,2.703
	c-3.7,15.496-7.272,31.024-10.651,46.593c-0.422,1.946-0.843,3.902-1.241,5.866c-0.24,1.178-0.471,2.359-0.691,3.542l-0.217,1.183
	c-0.141,0.789-0.277,1.58-0.406,2.37c-0.129,0.791-0.25,1.583-0.364,2.374c-0.114,0.792-0.219,1.583-0.315,2.376
	c-0.144,1.188-0.267,2.377-0.365,3.567c-0.063,0.77-0.116,1.54-0.157,2.31c-0.065,1.211-0.102,2.422-0.105,3.631
	c-0.002,0.791,0.01,1.582,0.037,2.371c0.055,1.58,0.172,3.157,0.359,4.729l0.154,1.178l0.182,1.176l0.21,1.175l0.195,0.968
	c0.136,0.643,0.284,1.28,0.444,1.911l0.248,0.943c0.192,0.703,0.402,1.396,0.624,2.085c0.173,0.538,0.35,1.074,0.54,1.603
	c0.202,0.564,0.417,1.12,0.637,1.675c0.184,0.462,0.375,0.922,0.572,1.377l0.384,0.868c0.38,0.838,0.782,1.664,1.204,2.479
	c0.295,0.571,0.597,1.138,0.912,1.698c0.831,1.476,1.729,2.915,2.69,4.318l0.732,1.045c0.388,0.542,0.788,1.078,1.195,1.609
	c0.371,0.485,0.748,0.968,1.134,1.445c1.079,1.331,2.213,2.626,3.398,3.887c1.482,1.577,3.041,3.099,4.669,4.569
	c2.279,2.058,4.69,4.016,7.203,5.876c2.512,1.861,5.127,3.625,7.813,5.298c0.767,0.478,1.54,0.948,2.318,1.412
	c7.003,4.168,14.417,7.743,21.718,10.813c4.595,1.931,9.229,3.77,13.898,5.515c1.334,0.499,2.67,0.99,4.01,1.473
	c0.67,0.242,1.341,0.481,2.011,0.719c1.342,0.476,2.687,0.943,4.035,1.404c0.842,0.288,1.685,0.573,2.53,0.854
	c1.688,0.563,3.381,1.115,5.077,1.654c0.848,0.27,1.697,0.536,2.547,0.8c4.081,1.265,8.183,2.462,12.303,3.587
	c1.774,0.485,3.551,0.956,5.332,1.414c1.781,0.458,3.565,0.904,5.353,1.336c3.575,0.864,7.162,1.676,10.76,2.436
	C766.045,1840.552,765.676,1838.634,765.369,1836.701z"/>
<path style="fill:#8DB9E1;" d="M1668.826,1903.297c6.519-1.583,12.946-3.539,19.186-5.914l0.348-0.133
	c-6.986,2.618-14.196,4.771-21.562,6.502C1667.474,1903.598,1668.15,1903.447,1668.826,1903.297z"/>
<path style="fill:#8DB9E1;" d="M1663.797,1904.461c0.46-0.115,0.92-0.226,1.38-0.335c-1.049,0.237-2.101,0.465-3.156,0.685
	C1662.612,1904.69,1663.205,1904.571,1663.797,1904.461z"/>
<path style="fill:#8DB9E1;" d="M1697.236,1893.613c-0.742,0.331-1.487,0.657-2.236,0.977
	C1695.749,1894.271,1696.493,1893.945,1697.236,1893.613z"/>
<path style="fill:#8DB9E1;" d="M1649.873,1906.975c1.956-0.279,3.865-0.605,5.775-0.932l0.396-0.076
	c-2.127,0.379-4.264,0.725-6.41,1.042L1649.873,1906.975z"/>
<path style="fill:#8DB9E1;" d="M1010.824,1874.471l1.025-0.729c-0.7,0.504-1.412,0.993-2.137,1.465L1010.824,1874.471z"/>
<path style="fill:#8DB9E1;" d="M786.787,1873.726c0.491,0.372,0.996,0.736,1.507,1.096c-0.718-0.516-1.425-1.045-2.119-1.586
	L786.787,1873.726z"/>
<path style="fill:#8DB9E1;" d="M1636.647,1908.559c2.142-0.186,4.238-0.419,6.38-0.652c1.431-0.175,2.862-0.37,4.293-0.57
	c-4.625,0.632-9.286,1.121-13.965,1.479C1634.449,1908.738,1635.542,1908.655,1636.647,1908.559z"/>
<path style="fill:#8DB9E1;" d="M1018.051,1868.422c0.572-0.562,1.097-1.13,1.621-1.728l0.788-0.944l-0.789,0.93
	C1019.146,1867.28,1018.603,1867.857,1018.051,1868.422z"/>
<path style="fill:#8DB9E1;" d="M1029.39,1849.246c-0.37,1.092-0.767,2.172-1.193,3.236
	C1028.635,1851.421,1029.031,1850.341,1029.39,1849.246z"/>
<polygon style="fill:#8DB9E1;" points="1033.596,1829.021 1033.596,1828.985 1033.542,1829.45 "/>
<polygon style="fill:#8DB9E1;" points="1030.569,1845.413 1030.639,1845.15 1030.532,1845.532 "/>
<path style="fill:#BAE0F7;" d="M1005.754,1789.063c-11.863,1.654-19.315,14.484-26.162,22.972
	c-7.513,9.313-16.888,18.273-29.738,17.531c-17.218-0.996-30.001-15.771-41.523-26.933c-4.284-4.15-9.565-9.567-16.071-8.982
	c-9.688,0.872-17.472,10.861-23.838,17.113c-6.077,5.968-10.732,14.191-18.647,17.979c-8.038,3.847-17.566,1.246-24.372-3.972
	c-7.22-5.536-11.254-13.91-16.42-21.174c-5.621-7.904-13.044-12.698-22.835-13.264c-7.965-0.461-16.354,1.501-23.287,5.547
	c0.045,1.255,0.091,2.509,0.136,3.764c0.209,5.74,0.425,11.479,0.683,17.217c0.143,3.091,0.295,6.205,0.522,9.311
	c0.11,1.507,0.239,3.012,0.392,4.513c0.12,1.177,0.256,2.35,0.412,3.519c0.111,0.836,0.232,1.669,0.363,2.499
	c0.307,1.934,0.675,3.851,1.12,5.745v0c0.16,0.682,0.33,1.363,0.511,2.039l0.189,0.695c0.866,3.09,1.963,6.108,3.371,9.018
	c3.685,7.695,9.093,13.947,15.613,19.037c0.694,0.542,1.401,1.071,2.119,1.586c14.808,10.628,34.669,15.799,53.214,18.423
	c45.127,6.295,91.429,4.321,135.863-5.868c10.846-2.498,22.054-5.753,31.409-11.581l0.47-0.295l0.463-0.295
	c0.725-0.471,1.437-0.96,2.137-1.465l0.666-0.491l0.144-0.108c1.908-1.433,3.712-3.001,5.392-4.72
	c0.552-0.565,1.095-1.142,1.62-1.742l0.789-0.93c3.315-4.008,5.824-8.488,7.737-13.269c0.426-1.064,0.823-2.144,1.193-3.236
	c0.414-1.223,0.793-2.462,1.142-3.714l0.107-0.382l0.248-0.932l0.146-0.57c1.166-4.614,1.949-9.39,2.509-14.199l0.054-0.465
	l0.044-0.402c0.493-4.442,0.806-8.903,1.064-13.284C1029.086,1802.004,1022.757,1786.692,1005.754,1789.063z"/>
<path style="fill:#FDE7CD;" d="M763.932,1123.364c-0.012-17.656-9.167-34.179-20.786-47.474
	c-9.309-10.651-21.624-20.29-35.769-20.318c-11.842-0.023-22.573,6.684-32.044,13.793c-17.417,13.075-33.237,28.367-51.851,39.673
	c-37.205,22.598-82.734,27.197-126.069,20.212c-8.87-1.429-17.648-3.343-26.244-5.688c-23.893-6.519-22.912,15.019-9.06,27.928
	c7.202,6.711,14.941,12.834,23.052,18.41c37.563,25.821,87.699,43.672,136.612,45.024c23.554,0.651,47.413-2.771,69.331-11.065
	c16.698-6.319,32.27-15.462,45.72-27.792C751.818,1162.319,763.946,1143.703,763.932,1123.364z"/>
<path style="fill:#58C2E8;" d="M493.601,339.179c-12.728-1.755-25.663-1.395-38.365,0.391c-11.165,1.57-22.807,3.867-33.439,7.701
	c-2.579,0.93-10.152,3.397-6.147,7.272c1.423,1.377,12.588-0.173,15.157,0.062c21.152,1.937,41.676,12.313,54.963,29.018
	c6.48,8.147,11.26,17.485,16.757,26.326c5.497,8.84,11.95,17.418,20.754,22.972c8.805,5.554,20.391,7.613,29.737,3.028
	c8.012-3.931,13.325-12.275,14.92-21.056c1.595-8.781-0.187-17.914-3.597-26.161C552.826,360.878,523.459,343.295,493.601,339.179z"
	/>
<path style="fill:#58C2E8;" d="M386.335,370.804c1.467-0.38,3.911-4.455,6.302-8.801c1.249-2.281,2.445-4.618,3.477-6.465
	c0.869-1.576,1.63-2.825,2.118-3.477c18.852-24.719,47.701-42.05,78.776-45.527c15.104-1.684,30.425-0.326,45.636-0.272
	c15.266,0.109,30.913-1.195,44.658-7.823c13.745-6.573,25.317-19.34,26.892-34.498c1.358-12.984-4.835-26.023-14.452-34.878
	c-9.67-8.801-22.328-13.691-35.204-15.919c-43.517-7.389-88.175,15.32-116.534,49.112c-12.061,14.397-21.677,30.695-29.392,47.809
	c-5.704,12.713-11.028,26.295-14.614,39.986c-0.163,0.489-0.326,0.978-0.38,1.521c-0.544,1.956-1.033,3.966-1.467,5.922
	C381.282,361.459,378.457,372.759,386.335,370.804z"/>
<path style="fill:#1D2342;" d="M1774.276,1385.861c-8.777-6.836-14.017-16.098-14.017-24.773l-0.624-0.624l-0.624,0.624
	c0,9.058,5.421,18.684,14.5,25.756c7.274,5.664,16.577,9.886,29.274,13.284l0.161,0.022l0.602-0.463l-0.441-0.762
	C1790.576,1395.571,1781.417,1391.42,1774.276,1385.861z"/>
<path style="fill:#1D2342;" d="M1786.189,1385.283c-11.481-6.701-19.118-16.86-20.431-27.172l-0.697-0.541l-0.541,0.697
	c1.362,10.694,9.228,21.196,21.04,28.093c9.467,5.529,21.133,9.03,36.709,11.018l0.078,0.005l0.619-0.546l-0.541-0.696
	C1807.022,1394.175,1795.507,1390.726,1786.189,1385.283z"/>
<path style="fill:#1D2342;" d="M1793.68,1352.867c5.004,2.185,8.894,7.305,12.324,11.822c0.901,1.189,1.783,2.348,2.655,3.423
	l0.485,0.231l0.392-0.139l0.092-0.877c-0.867-1.067-1.737-2.214-2.631-3.391c-3.525-4.641-7.518-9.898-12.821-12.214
	c-7.189-3.138-16.38-1.316-22.59,1.447l-0.316,0.824l0.823,0.316C1779.699,1350.925,1787.969,1350.373,1793.68,1352.867z"/>
<path style="fill:#1D2342;" d="M1839.65,1400.117c-6.36-3.262-11.766-9.036-17.013-18.175c-1.537-2.672-2.982-5.469-4.383-8.173
	c-2.468-4.772-5.02-9.705-8.175-14.187c-4.086-5.81-10.962-13.14-20.514-15.062c-7.028-1.415-14.795,0.582-20.268,5.204l-0.076,0.88
	l0.88,0.075c5.194-4.39,12.56-6.275,19.218-4.936c9.147,1.839,15.783,8.931,19.742,14.556c3.103,4.414,5.637,9.311,8.088,14.044
	c1.403,2.716,2.857,5.525,4.407,8.221c5.371,9.357,10.94,15.289,17.525,18.665l0.285,0.068l0.555-0.339L1839.65,1400.117z"/>
<path style="fill:#1D2342;" d="M1812.92,1372.511l-1.386-2.782l-0.838-0.278l-0.278,0.838l1.384,2.777
	c4.802,9.674,8.947,18.027,18.115,25.138l0.382,0.131l0.492-0.241l-0.109-0.875
	C1821.741,1390.282,1817.652,1382.048,1812.92,1372.511z"/>
<path style="fill:#1D2342;" d="M1448.406,1847.361c-3.196-5.213-4.838-11.133-6.577-17.401c-0.807-2.909-1.615-5.817-2.582-8.658
	c-4.048-11.895-10.935-19.769-19.388-22.165c-11.703-3.318-22.936,4.051-30.305,10.818c-1.744,1.598-3.447,3.272-5.155,4.948
	c-5.785,5.688-11.252,11.06-18.282,13.715c-9.245,3.486-21.043,1.649-31.528-4.938c-9.749-6.122-17.413-15.167-24.823-23.912
	c-0.887-1.05-2.466-1.174-3.515-0.29c-1.05,0.889-1.181,2.463-0.29,3.515c7.654,9.036,15.571,18.38,25.973,24.911
	c11.807,7.413,25.24,9.423,35.947,5.381c8.012-3.026,14.114-9.023,20.017-14.823c1.666-1.637,3.328-3.272,5.028-4.831
	c5.269-4.835,15.584-12.531,25.574-9.695c9.213,2.614,13.995,13.011,16.027,18.974c0.936,2.75,1.715,5.569,2.497,8.385
	c1.754,6.323,3.566,12.862,7.13,18.672c5.722,9.33,15.605,15.82,26.441,17.357c1.688,0.239,3.389,0.358,5.086,0.358
	c0.752,0,1.503-0.026,2.252-0.072l-0.152-0.151c-0.672-0.644-1.324-1.309-1.958-1.991c-0.899-0.94-1.78-1.899-2.643-2.879
	c-0.629-0.05-1.258-0.118-1.884-0.206C1461.916,1861.054,1453.359,1855.436,1448.406,1847.361z"/>
<path style="fill:#1D2342;" d="M737.601,1773.975c-7.116,5.759-14.475,11.715-23.108,13.05c-13.718,2.08-27.706-7.225-41.589-27.764
	l-0.536-0.794c-5.364-7.941-10.911-16.153-17.669-22.874c-0.977-0.972-2.555-0.962-3.527,0.01c-0.972,0.977-0.967,2.555,0.009,3.527
	c6.412,6.378,11.822,14.385,17.052,22.13l0.538,0.794c15.057,22.277,30.687,32.35,46.48,29.902
	c9.966-1.54,17.856-7.927,25.486-14.102c1.386-1.123,2.765-2.239,4.151-3.321c4.719-3.678,10.791-7.496,17.052-8.974
	c-0.02-0.857-0.042-1.715-0.06-2.571c-0.016-0.838-0.03-1.673-0.045-2.51c-6.251,1.252-12.997,4.647-20.016,10.123
	C740.412,1771.7,739.009,1772.835,737.601,1773.975z"/>
<path style="fill:#BAE0F7;" d="M1710.167,1855.194c-7.606-5.305-14.265-11.632-20.161-18.78
	c-5.084-6.162-10.203-13.855-17.822-17.115c-15.589-6.67-30.714,13.748-27.908,28.025c1.308,6.653-7.918,9.657-10.221,3.065
	c-5.437-15.567-12.463-40.012-31.96-42.338c-22.614-2.698-32.597,21.936-32.051,40.62c0.149,5.086-7.309,7.837-9.876,2.981
	c-8.209-15.526-16.837-33.161-33.175-41.592c-10.929-5.64-23.795-7.109-35.917-5.931c-11.436,1.112-23.77,5.01-32.088,13.294
	c-2.75,2.739-4.679,5.769-6.043,8.958l-0.017,0.038c1.468,4.478,3.188,8.861,5.201,13.137l0.36,0.756l0.286,0.596
	c2.258,4.623,4.873,9.115,7.914,13.452c0.365,0.52,0.734,1.034,1.108,1.544l0.123,0.167c0.666,0.905,1.347,1.793,2.04,2.668
	c1.043,1.317,2.116,2.601,3.219,3.852c0.863,0.979,1.744,1.939,2.643,2.879c0.644,0.673,1.297,1.337,1.958,1.991l0.152,0.151
	c3.161,3.111,6.519,5.999,10.045,8.682l0.086,0.065c3.861,2.932,7.922,5.618,12.15,8.074c0.506,0.294,1.014,0.585,1.525,0.873
	l1.321,0.731l0,0c20.091,11.012,43.608,17.158,66.806,20.449l0.2,0.028c2.996,0.423,5.986,0.8,8.963,1.133
	c16.393,1.813,33.327,2.455,50.077,1.458l0.568-0.034c1.23-0.076,2.459-0.161,3.687-0.255c4.68-0.358,9.342-0.848,13.968-1.48
	c0.772-0.105,1.543-0.214,2.313-0.327c2.146-0.316,4.284-0.663,6.411-1.042c2.002-0.357,3.994-0.743,5.976-1.157
	c1.055-0.22,2.108-0.448,3.158-0.685c0.539-0.122,1.078-0.247,1.616-0.374c7.367-1.731,14.579-3.884,21.566-6.503
	c2.237-0.839,4.452-1.724,6.64-2.66c0.751-0.321,1.499-0.649,2.244-0.981l0.258-0.116l0.702-0.318
	c1.346-0.613,2.682-1.244,4.007-1.896l0.254-0.126l0.857-0.427l0.818-0.414l0.312-0.16l0.963-0.499l0.121-0.063l1.037-0.549
	l0.375-0.203l0.961-0.523c1.651-0.906,3.284-1.847,4.896-2.821c8.601-5.195,16.629-11.35,23.906-18.584
	C1727.577,1864.885,1718.614,1861.085,1710.167,1855.194z"/>
<path style="fill:#74A8D8;" d="M579.808,1126.928c-11.221-2.714-22.335-5.977-33.326-9.917
	c-60.031-21.608-125.811-51.072-166.726-100.132c-43.838-52.605-63.577-114.648-79.195-180.716
	c-6.611-27.931-13.702-53.803-15.619-78.476c-3.545-46.472,41.49-51.263,59.936-75.746c-2.108,0.815-62.139,24.051-65.685-14.995
	c-1.533-17.026,28.563-25.478,45.636-33.64c-9.649-2.745-18.437-8.506-24.568-16.543c-1.118-1.465-0.985-3.488,0.219-4.797
	c-9.593-8.198-15.237-22.928-6.723-49.32c2.06-6.372,8.432,5.366,12.697,8.049c9.246,5.893,36.316,13.176,38.04,8.049
	c0.052-0.17-4.228-1.316-10.069-3.839c-11.472-2.035-22.175-8.304-29.295-17.635c-1.255-1.644-0.938-3.99,0.704-5.244l0.484-0.308
	c-4.496-8.701-5.546-19.914,0.757-34.203c12.217-27.836,25.057-80.249,25.057-80.249c11.115-2.06,48.868-9.486,39.382-12.409
	c0,0-36.7-4.935-48.294-38.232c-2.874-8.288-3.257-17.87-1.485-26.638c1.485-7.33,5.988-13.367,13.27-15.714
	c5.366-1.773,12.505-1.868,18.973-0.623c-0.943-1.2-1.928-2.381-2.954-3.532c-1.853-2.079-3.844-4.059-5.989-5.866
	c-0.542-0.457-1.094-0.902-1.655-1.336l-0.056-0.042c-0.495-0.381-0.998-0.75-1.508-1.111l-0.367-0.258
	c-0.505-0.349-1.017-0.689-1.538-1.017l-0.407-0.253l-0.651-0.396l-0.004-0.002l-0.818-0.469l-0.991-0.538
	c-0.943-0.493-1.909-0.949-2.9-1.367c-0.954-0.403-1.932-0.766-2.932-1.091c-0.78-0.253-1.573-0.482-2.381-0.685
	c-0.829-0.207-1.672-0.39-2.532-0.54l-1.159-0.184c-0.928-0.128-1.859-0.166-2.79-0.125c-1.016,0.044-2.03,0.184-3.035,0.409
	l-1.146,0.296c-3.98,1.155-7.779,3.615-10.971,6.758l-0.018,0.017l-0.335,0.335c-1.26,1.278-2.42,2.661-3.452,4.11l-0.647,0.947
	l-0.369,0.57c-0.278,0.442-0.545,0.888-0.799,1.337c-0.584,1.033-1.101,2.084-1.54,3.142c-0.692,1.665-1.193,3.345-1.472,4.989
	c-0.216,1.276-0.297,2.53-0.228,3.74l0.094,1.005l0.05,0.361l0.008,0.057c0.204,1.246,0.584,2.432,1.162,3.529
	c15.621,29.445,21.799,50.349,22.226,69.464l0.017,0.909c0.398,30.909-14.177,57.392-27.992,108.236
	c-42.592,156.713-13.75,398.035,111.439,521.69l0.013,0.013c0.704,0.695,1.412,1.387,2.121,2.079
	c26.414,25.756,56.668,49.604,89.841,70.399C524.822,1133.677,553.216,1133.455,579.808,1126.928z"/>
<path style="fill:#74A8D8;" d="M336.014,622.054c0,0-11.726,0.883-23.393-3.27c6.117,4.922,13.693,7.991,21.517,8.697
	C335.852,625.763,336.601,623.977,336.014,622.054z"/>
<path style="fill:#74A8D8;" d="M1303.789,858.177c-1.21,2.84-2.561,5.634-4.051,8.428c-3.679,7.218-7.964,14.156-12.76,20.815
	c-19,26.218-44.565,44.1-71.342,60.492c-15.181,9.36-30.781,18.208-45.823,27.848c-20.35,13.132-38.185,29.197-51.83,49.361
	c-12.526,18.394-21.328,39.024-28.033,60.212c-6.845,21.467-10.99,43.681-17.742,65.148c-6.007,19.139-14.017,37.72-24.728,54.67
	c-21.188,33.622-53.693,60.445-94.766,62.54c-37.534,1.909-73.996-14.157-100.958-39.629c-7.265-6.846-13.831-14.39-19.792-22.307
	c-1.257-1.583-2.468-3.213-3.632-4.843c0.605,1.723,1.21,3.446,1.862,5.123l0.01,0.028c1.115,3.017,2.322,6.035,3.529,9.006
	c17.044,41.539,44.426,81.354,85.824,103.753c3.074,1.677,6.287,3.214,9.546,4.657c17.09,7.498,36.183,11.595,54.997,11.642
	c25.519,0.093,50.479-7.171,69.293-23.051c38.279-32.411,40.141-86.523,55.741-132.392
	c28.127-82.564,104.871-143.661,158.47-214.165c3.586-4.749,7.078-9.546,10.477-14.389c6.613-9.453,12.714-19.092,18.162-29.012
	c6.705-12.107,12.386-24.587,16.811-37.673c2.142-6.147,3.958-12.434,5.448-18.813c0.466-2.049,0.932-4.145,1.304-6.194
	c0.745-3.772,1.397-7.59,1.862-11.409c0.368-2.783,0.641-5.566,0.858-8.35c0.076-0.979,0.146-1.959,0.211-2.939l0.002-0.028
	c0.093-1.164,0.14-2.328,0.233-3.493l0.046-1.117c0.093-2.188,0.14-4.377,0.14-6.612v-3.446c0.047-1.071,0-2.142-0.046-3.213
	c-0.046-1.164-0.14-2.329-0.186-3.493c-0.093-2.328-0.233-4.61-0.419-6.892c-0.187-2.282-0.42-4.564-0.699-6.892l-0.046-0.559
	l-0.156-1.138c-0.135-0.987-0.269-1.985-0.403-2.96c-0.279-1.956-0.606-3.865-0.932-5.774c-0.372-2.095-0.791-4.238-1.21-6.333
	c-0.326-1.49-0.652-3.027-1.025-4.518C1319.53,807.185,1314.687,833.915,1303.789,858.177z"/>
<path style="fill:#303A75;" d="M785.058,793.91c11.066,0,20.036-10.227,20.036-22.842c0-12.615-8.97-22.842-20.036-22.842
	c-11.066,0-20.037,10.227-20.037,22.842C765.021,783.684,773.992,793.91,785.058,793.91z"/>
<path style="fill:#1D2342;" d="M998.448,714.169c41.074-37.331,105.176-46.317,152.406-21.387
	c49.196,25.968,75.62,86.694,60.153,138.246c-11.693,38.972-43.135,68.361-73.542,96.784l-7.661,7.179
	c-32.928,30.996-66.906,68.989-69.255,115.751c-0.105,2.063,1.486,3.822,3.55,3.924l0.19,0.005c1.981,0,3.635-1.555,3.735-3.555
	c2.214-44.109,35.067-80.701,66.911-110.679l7.642-7.16c31.133-29.101,63.325-59.193,75.598-100.102
	c16.458-54.857-11.578-119.432-63.827-147.011c-49.922-26.356-117.603-16.906-160.933,22.463c-1.53,1.391-1.642,3.756-0.253,5.286
	C994.553,715.452,996.926,715.557,998.448,714.169z"/>
<path style="fill:#1D2342;" d="M887.995,1172.207c-15.491-19.917-24.487-47.052-26.743-80.65
	c-4.568-67.992,19.956-138.799,65.598-189.403c1.383-1.535,1.262-3.901-0.273-5.286c-1.537-1.387-3.898-1.267-5.286,0.273
	c-46.969,52.078-72.204,124.945-67.508,194.918c2.358,35.113,11.883,63.625,28.307,84.743c17.233,22.159,43.43,35.411,68.28,35.411
	c4.307,0,8.577-0.397,12.75-1.218c16.159-3.174,31.388-13.771,40.736-28.351c8.287-12.926,11.069-27.442,7.829-40.877
	c-0.482-2.01-2.495-3.237-4.514-2.76c-2.01,0.484-3.245,2.504-2.76,4.514c2.755,11.432,0.321,23.891-6.855,35.084
	c-8.268,12.894-21.681,22.258-35.878,25.047C936.124,1208.662,906.529,1196.029,887.995,1172.207z"/>
<path style="fill:#1D2342;" d="M780.826,742.346c10.18-1.32,20.309,3.096,27.128,11.873c6.93,8.923,8.755,20.034,4.877,29.72
	c-0.385,0.957,0.083,2.047,1.043,2.431l0.694,0.134c0.741,0,1.445-0.443,1.737-1.177c4.377-10.931,2.36-23.42-5.396-33.406
	c-7.639-9.836-19.069-14.816-30.57-13.284c-1.026,0.134-1.747,1.075-1.611,2.098C778.86,741.759,779.776,742.485,780.826,742.346z"
	/>
<path style="fill:#1D2342;" d="M790.388,805.413c0.996-0.273,1.581-1.303,1.306-2.299c-0.275-0.996-1.306-1.591-2.3-1.306
	c-8.419,2.311-18.053-0.863-23.432-7.745c-0.636-0.814-1.815-0.967-2.626-0.321c-0.814,0.636-0.957,1.813-0.322,2.626
	c4.909,6.28,12.853,9.925,20.785,9.925C786.017,806.293,788.236,806.008,790.388,805.413z"/>
<path style="fill:#1D2342;" d="M802.365,807.879c-8.945,6.066-21.096,7.137-30.959,2.73c-0.931-0.428-2.049-0.003-2.47,0.945
	c-0.422,0.942,0,2.048,0.945,2.47c4.514,2.02,9.457,3.008,14.407,3.008c7.135,0,14.283-2.056,20.178-6.061
	c0.855-0.58,1.079-1.742,0.497-2.597C804.382,807.521,803.218,807.289,802.365,807.879z"/>
<path style="fill:#FFFFFF;" d="M777.923,777.08c3.277,0,5.933-4.216,5.933-9.417c0-5.201-2.657-9.417-5.933-9.417
	c-3.277,0-5.933,4.216-5.933,9.417C771.989,772.863,774.645,777.08,777.923,777.08z"/>
<path style="fill:#1D2342;" d="M1415.021,1665.045c0.455,0.704,0.9,1.411,1.334,2.121c10.017,16.414,16.967,33.459,20.655,50.66
	c3.688,17.206,4.468,35.079,4.743,50.295c0.028,1.542,0.985,2.847,2.326,3.396c0.437,0.179,0.914,0.278,1.413,0.278h0.071
	c2.066-0.039,3.71-1.744,3.673-3.81c-0.282-15.571-1.086-33.895-4.909-51.727c-2.423-11.3-6.181-22.521-11.224-33.542
	c-1.385-3.028-2.869-6.041-4.448-9.037c-1.842-3.495-3.813-6.967-5.914-10.41c-3.686-6.039-7.995-11.666-12.163-17.108
	c-4.285-5.593-8.714-11.377-12.312-17.445c-6.361-10.738-10.999-23.618-13.786-38.28c-4.102-21.571-4.321-43.69-3.995-62.484
	c0.036-2.065-1.61-3.771-3.676-3.808h-0.068c-2.034,0-3.703,1.632-3.739,3.676c-0.334,19.176-0.103,41.776,4.126,64.014
	c2.948,15.518,7.895,29.211,14.702,40.697c3.822,6.451,8.39,12.414,12.806,18.18c1.935,2.528,3.901,5.096,5.806,7.71
	c-85.43,19.457-180.577,15.238-268.549-11.976c-1.971-0.609-4.068,0.497-4.68,2.468l-0.002,0.008
	c-0.606,1.971,0.499,4.063,2.47,4.672c48.438,14.986,99.023,23.091,149.028,24.212c4.01,0.09,8.016,0.136,12.016,0.136
	C1339.755,1677.941,1378.295,1673.655,1415.021,1665.045z"/>
<path style="fill:#1D2342;" d="M986.144,1822.143c-7.257,4.39-10.634,12.119-13.9,19.593c-1.14,2.612-2.319,5.313-3.63,7.756
	c-4.811,8.97-12.49,15.761-21.065,18.639c-9.274,3.103-19.722,1.413-26.613-4.309c-4.478-3.715-7.472-8.831-10.641-14.246
	c-0.872-1.488-1.742-2.977-2.643-4.431c-5.82-9.398-12.115-14.689-19.243-16.177c-9.218-1.922-19.15,2.606-29.542,13.447
	l-2.424,2.558c-6.241,6.628-12.697,13.479-21.052,15.233c-6.122,1.284-13.079-0.361-19.116-4.504
	c-5.084-3.491-9.583-8.653-13.751-15.781c-0.853-1.459-1.666-2.95-2.477-4.439c-1.973-3.615-4.015-7.354-6.663-10.724
	c-4.577-5.815-10.294-9.31-16.102-9.844c-1.335-0.107-2.585,0.886-2.711,2.258c-0.124,1.371,0.884,2.585,2.258,2.712
	c5.973,0.545,10.48,5.22,12.633,7.958c2.392,3.04,4.244,6.436,6.205,10.029c0.835,1.533,1.671,3.065,2.55,4.568
	c4.548,7.776,9.532,13.459,15.237,17.374c7.157,4.914,15.522,6.833,22.96,5.274c9.891-2.073,16.892-9.506,23.661-16.692l2.392-2.526
	c9.123-9.518,17.508-13.562,24.923-12.017c5.717,1.193,10.957,5.746,16.017,13.919c0.879,1.42,1.729,2.872,2.58,4.324
	c3.249,5.549,6.609,11.289,11.761,15.566c5.495,4.563,12.848,6.984,20.375,6.982c3.693,0,7.432-0.582,11.011-1.781
	c9.768-3.276,18.47-10.933,23.873-21.011c1.405-2.619,2.628-5.416,3.807-8.117c3.089-7.071,6.007-13.751,11.91-17.322
	c9.274-5.613,21.932-0.212,28.336,8.009c0.846,1.087,2.409,1.277,3.501,0.436c1.087-0.848,1.281-2.414,0.436-3.5
	C1013.281,1821.448,997.761,1815.107,986.144,1822.143z"/>
<path style="fill:#1D2342;" d="M771.172,1465.33c-8.607,84.319-12.729,170.051-12.246,254.818c0.009,1.604,1.03,2.964,2.453,3.487
	c0.403,0.148,0.836,0.233,1.289,0.233h0.022c2.066-0.012,3.732-1.696,3.72-3.764c-0.48-84.5,3.628-169.961,12.207-254.015
	c0.187-1.836-0.987-3.493-2.704-3.977l-0.638-0.125C773.238,1461.805,771.384,1463.274,771.172,1465.33z"/>
<path style="fill:#1D2342;" d="M1056.078,1587.127c8.317-16.406,15.618-34.075,12.755-52.109c-0.324-2.039-2.224-3.432-4.283-3.108
	c-2.042,0.324-3.432,2.241-3.109,4.283c2.529,15.929-4.292,32.268-12.038,47.552l-2.076,4.068
	c-7.427,14.509-15.106,29.51-15.9,46.19c-0.1,2.063,1.496,3.817,3.559,3.914l0.18,0.005c0.476,0,0.932-0.092,1.354-0.256
	c1.335-0.52,2.309-1.784,2.381-3.308c0.418-8.761,3.065-17.254,6.595-25.541c2.539-5.962,5.535-11.819,8.491-17.593
	L1056.078,1587.127z"/>
<path style="fill:#1D2342;" d="M305.131,557.27c7.12,9.331,17.822,15.6,29.295,17.635c2.671,0.474,5.383,0.718,8.101,0.718
	c1.907,0,3.822-0.122,5.725-0.368c2.048-0.263,3.496-2.141,3.23-4.19c-0.265-2.049-2.156-3.523-4.19-3.23
	c-13.615,1.779-27.859-4.163-36.212-15.106c-1.134-1.487-3.167-1.878-4.761-1.012l-0.484,0.308
	C304.193,553.279,303.876,555.625,305.131,557.27z"/>
<path style="fill:#1D2342;" d="M300.261,616.763c6.13,8.036,14.918,13.797,24.568,16.543c4.163,1.184,8.486,1.81,12.826,1.81
	c1.908,0,3.823-0.122,5.725-0.368c2.049-0.263,3.496-2.141,3.23-4.19c-0.266-2.049-2.168-3.523-4.19-3.23
	c-2.756,0.358-5.534,0.401-8.282,0.153c-7.823-0.706-15.4-3.776-21.517-8.697c-2.382-1.916-4.543-4.113-6.411-6.561
	c-1.252-1.639-3.598-1.956-5.245-0.704l-0.485,0.447C299.276,613.275,299.143,615.298,300.261,616.763z"/>
<path style="fill:#1D2342;" d="M349.784,671.818c-0.767-1.92-2.943-2.843-4.862-2.09c-12.789,5.094-28.027,2.872-38.824-5.656
	c-1.624-1.284-3.975-1.004-5.254,0.616c-1.281,1.622-1.006,3.973,0.617,5.254c8.27,6.534,18.726,9.959,29.184,9.959
	c5.805,0,11.615-1.055,17.05-3.22C349.613,675.915,350.549,673.738,349.784,671.818z"/>
<path style="fill:#1D2342;" d="M356.505,738.697c1.698-1.177,2.122-3.508,0.942-5.206c-1.176-1.703-3.513-2.114-5.206-0.943
	c-11.311,7.847-26.658,9.111-39.101,3.24c-1.866-0.875-4.1-0.083-4.982,1.786c-0.882,1.868-0.083,4.1,1.786,4.982
	c6.197,2.925,12.996,4.363,19.795,4.363C339.204,746.919,348.671,744.132,356.505,738.697z"/>
<path style="fill:#1D2342;" d="M368.7,781.199c-1.861-0.884-4.095-0.088-4.984,1.779c-5.898,12.431-18.575,21.176-32.295,22.275
	c-2.058,0.166-3.596,1.968-3.43,4.029c0.156,1.959,1.795,3.443,3.725,3.443l0.305-0.013c16.336-1.308,31.432-11.722,38.458-26.529
	C371.362,784.317,370.568,782.085,368.7,781.199z"/>
<path style="fill:#1D2342;" d="M391.972,838.738h-0.005c-2.063,0-3.739,1.671-3.742,3.737c-0.022,13.761-7.747,27.084-19.679,33.939
	c-1.793,1.03-2.409,3.318-1.381,5.108c0.692,1.206,1.951,1.878,3.247,1.878c0.633,0,1.274-0.161,1.861-0.497
	c14.21-8.164,23.408-24.03,23.435-40.419C395.711,840.419,394.04,838.741,391.972,838.738z"/>
<path style="fill:#74A8D8;" d="M701.409,1056.125l0.093-0.017l0.964-0.161l0.327-0.049l0.452-0.06l0.605-0.072l0.43-0.044
	l0.738-0.062l0.255-0.018l0.923-0.047l0.197-0.006l0.992-0.016l1.321,0.03l1.31,0.085c1.522,0.131,3.02,0.37,4.495,0.706
	l1.258,0.312l0.625,0.174l1.24,0.381c0.822,0.268,1.636,0.566,2.442,0.891c1.006,0.406,2,0.854,2.979,1.34
	c2.35,1.167,4.62,2.554,6.802,4.104l1.084,0.788c0.538,0.401,1.071,0.811,1.597,1.23c0.527,0.419,1.048,0.847,1.563,1.282
	l0.75,0.645l0.54,0.474l0.739,0.663c0.491,0.447,0.977,0.901,1.456,1.361l0.04,0.038c0.482,0.462,0.957,0.93,1.427,1.403
	c0.792,0.797,1.566,1.607,2.322,2.427l0.664,0.728l1.116,1.255c1.311,1.5,2.59,3.04,3.828,4.619l0.792,1.022l0.241,0.316
	l0.593,0.789c0.926,1.244,1.826,2.51,2.694,3.797l0.741,1.117l0.633,0.979l0.445,0.706l0.609,0.992l0.685,1.149l0.418,0.721
	c0.276,0.482,0.547,0.966,0.813,1.453c0.931,1.703,1.8,3.435,2.599,5.192c0.228,0.502,0.451,1.006,0.667,1.513
	c0.433,1.012,0.842,2.033,1.225,3.061c0.192,0.514,0.377,1.03,0.556,1.548c2.056,5.955,3.241,12.154,3.245,18.499
	c0.002,1.589-0.072,3.167-0.215,4.734c-0.057,0.627-0.125,1.251-0.204,1.874c-0.238,1.868-0.572,3.718-0.998,5.547
	c-0.425,1.829-0.941,3.637-1.539,5.422c-0.498,1.487-1.054,2.958-1.662,4.412c-0.244,0.581-0.495,1.16-0.755,1.736l-0.396,0.861
	c-0.268,0.573-0.544,1.142-0.829,1.709c-0.568,1.134-1.167,2.254-1.794,3.362c-0.47,0.831-0.958,1.654-1.46,2.47
	c-1.506,2.448-3.149,4.826-4.903,7.126c-0.585,0.767-1.182,1.525-1.791,2.275c-1.014,1.249-2.06,2.472-3.133,3.67
	c-0.429,0.479-0.863,0.953-1.301,1.424c-1.969,2.116-4.021,4.146-6.129,6.079c-0.972,0.891-1.955,1.765-2.949,2.623
	c-3.478,3.003-7.088,5.804-10.812,8.409c-1.064,0.744-2.138,1.472-3.22,2.185c-1.082,0.712-2.174,1.408-3.274,2.089
	c-0.55,0.341-1.102,0.677-1.656,1.009c-2.218,1.33-4.469,2.597-6.751,3.802c-0.571,0.301-1.143,0.599-1.717,0.892l-1.203,0.605
	c30.986,6.034,63.558,6.568,94.555,1.192c-8.139-1.329-16.074-3.656-23.135-7.837c-3.103-1.838-6.101-4.128-7.761-7.33
	c-1.858-3.584-1.808-7.842-1.357-11.854c2.003-17.816,10.31-34.068,9.691-52.408c-0.493-14.599-5.389-29.033-13.871-40.924
	c-12.819-17.972-38.566-35.196-61.602-29.12c-1.73,0.456-4.163,2.089-7.232,4.636c-1.482,2.017-2.993,4.013-4.532,5.99
	C693.669,1058.227,697.472,1056.844,701.409,1056.125z"/>
<path style="fill:#1D2342;" d="M812.008,1204.097c2.019-0.443,3.293-2.441,2.85-4.458c-0.443-2.02-2.429-3.301-4.458-2.85
	c-3.508,0.772-7.041,1.465-10.594,2.082c-30.997,5.375-63.569,4.841-94.555-1.192l-0.007,0.003l-0.936,0.464l-1.323,0.643
	c-0.581,0.278-1.165,0.553-1.75,0.824c-0.574,0.266-1.151,0.527-1.728,0.785l-0.475,0.21c-0.451,0.2-0.904,0.399-1.357,0.594
	l-0.383,0.165c-0.517,0.221-1.035,0.44-1.554,0.656l-0.195,0.081c-0.604,0.25-1.211,0.497-1.819,0.74
	c13.116,3.082,26.571,5.192,40.134,6.298c1.902,0.155,3.805,0.29,5.71,0.406c5.53,0.336,11.072,0.506,16.61,0.506
	C775.035,1210.053,793.859,1208.095,812.008,1204.097z"/>
<path style="fill:#1D2342;" d="M690.007,1060.023c1.539-1.977,3.05-3.973,4.532-5.99c9.5-12.927,17.819-26.656,24.674-40.919
	c0.896-1.861,0.112-4.098-1.751-4.992c-1.859-0.902-4.097-0.11-4.992,1.752c-11.906,24.768-28.339,47.88-47.764,67.83
	c3.503-2.837,7.035-5.636,10.636-8.339C679.939,1065.914,684.833,1062.561,690.007,1060.023z"/>
<path style="fill:#FCD9AF;" d="M695.542,1202.104l0.195-0.081c0.519-0.215,1.037-0.434,1.554-0.656l0.383-0.165
	c0.453-0.195,0.906-0.394,1.357-0.594l0.475-0.21c0.577-0.258,1.154-0.52,1.728-0.785c0.585-0.271,1.169-0.545,1.75-0.824
	l1.323-0.643l0.936-0.464l1.21-0.608c0.574-0.294,1.146-0.591,1.717-0.892c2.282-1.205,4.533-2.473,6.751-3.802
	c0.554-0.332,1.106-0.668,1.656-1.009c1.1-0.681,2.192-1.377,3.274-2.089c1.083-0.713,2.156-1.44,3.22-2.185
	c3.724-2.604,7.334-5.406,10.812-8.409c0.994-0.858,1.977-1.732,2.949-2.623c2.108-1.933,4.16-3.962,6.129-6.079
	c0.438-0.47,0.872-0.945,1.301-1.424c1.073-1.198,2.119-2.421,3.133-3.67c0.609-0.749,1.206-1.507,1.791-2.275
	c1.754-2.301,3.397-4.679,4.903-7.126c0.502-0.816,0.989-1.639,1.46-2.47c0.628-1.108,1.226-2.229,1.794-3.362
	c0.284-0.566,0.56-1.136,0.829-1.709l0.396-0.861c0.26-0.576,0.511-1.154,0.755-1.736c0.609-1.454,1.164-2.925,1.662-4.412
	c0.598-1.785,1.114-3.593,1.539-5.422c0.425-1.829,0.76-3.679,0.998-5.547c0.079-0.623,0.148-1.247,0.204-1.874
	c0.143-1.567,0.216-3.145,0.215-4.734c-0.004-6.346-1.189-12.544-3.245-18.499c-0.179-0.518-0.364-1.034-0.556-1.548
	c-0.384-1.028-0.792-2.049-1.225-3.061c-0.216-0.506-0.439-1.01-0.667-1.513c-0.799-1.757-1.668-3.489-2.599-5.192
	c-0.266-0.486-0.537-0.971-0.813-1.453l-0.418-0.721l-0.685-1.149l-0.609-0.992l-0.445-0.706l-0.633-0.979l-0.741-1.117
	c-0.868-1.287-1.768-2.553-2.694-3.797l-0.593-0.789l-0.241-0.316l-0.792-1.022c-1.238-1.579-2.517-3.12-3.828-4.62l-1.116-1.255
	l-0.664-0.728c-0.756-0.82-1.53-1.63-2.322-2.427c-0.469-0.473-0.945-0.941-1.427-1.403l-0.04-0.038
	c-0.48-0.459-0.965-0.914-1.456-1.361l-0.739-0.663l-0.54-0.474l-0.75-0.645c-0.515-0.436-1.036-0.863-1.563-1.282
	c-0.526-0.419-1.059-0.829-1.597-1.23l-1.084-0.788c-2.182-1.55-4.452-2.937-6.802-4.104c-0.979-0.486-1.973-0.934-2.979-1.34
	c-0.806-0.325-1.619-0.622-2.442-0.891l-1.24-0.381l-0.625-0.174l-1.258-0.312c-1.475-0.336-2.973-0.576-4.495-0.706l-1.31-0.085
	l-1.321-0.03l-0.992,0.016l-0.197,0.006l-0.923,0.047l-0.255,0.018l-0.738,0.062l-0.43,0.044l-0.605,0.072l-0.452,0.06l-0.327,0.049
	l-0.964,0.161l-0.093,0.017c-4.945,0.91-9.678,2.876-14.189,5.377c4.902,0.06,9.81,0.592,14.546,1.616
	c13.179,2.849,29.772,10.169,33.854,24.386c4.786,16.671-11.501,27.335-22.053,36.789c-6.198,5.554-9.236,11.075-10.378,19.368
	c-1.556,11.296-2.859,22.874-9.089,32.755c-10.34,16.399-30.944,24.159-48.948,28.442c-18.754,4.462-38.515,6.161-57.755,4.854
	c-5.517-0.375-11.042-1.026-16.556-1.881c14.101,3.462,28.503,5.788,42.87,6.717l0.179,0.011c0.485,0.031,0.971,0.061,1.457,0.088
	c0.538,0.031,1.077,0.06,1.615,0.087l0.773,0.036c0.462,0.022,0.925,0.041,1.387,0.06l0.655,0.026
	c0.668,0.025,1.336,0.047,2.004,0.066c1.945,0.054,3.893,0.079,5.841,0.077c1.299-0.001,2.598-0.016,3.897-0.042
	c1.299-0.026,2.598-0.066,3.897-0.118c1.299-0.052,2.597-0.117,3.895-0.196c0.649-0.039,1.298-0.081,1.946-0.127
	c10.374-0.727,20.687-2.287,30.747-4.748c5.03-1.231,9.997-2.687,14.877-4.376c0.61-0.212,1.219-0.426,1.826-0.645l1.248-0.457
	l1.159-0.434c0.873-0.331,1.743-0.667,2.61-1.013C694.331,1202.601,694.938,1202.353,695.542,1202.104z"/>
<path style="fill:#BAE0F7;" d="M642.388,829.41c21.608-7.73,37.301-26.544,49.269-46.102c11.968-19.512,21.561-40.793,36.462-58.21
	c14.902-17.416,37.022-30.921,59.747-27.94c-12.615-13.267-17.738-32.444-15.37-50.506l0.003-0.02
	c-4.301,1.239-8.5,2.605-12.56,4.06c-1.435,0.514-2.853,1.039-4.251,1.574c-30.505,11.686-53.32,29.038-71.117,49.663
	c-32.274,37.401-48.043,85.565-63.232,130.228l-0.046,0.14l0.011,0.001C628.379,832.995,635.686,831.831,642.388,829.41z"/>
<path style="fill:#1D2342;" d="M1346.518,986.797c-0.146,2.061,1.405,3.851,3.466,3.997c62.131,4.417,131.281,29.891,189.719,69.888
	c0.648,0.441,1.384,0.653,2.112,0.653c1.191,0,2.365-0.57,3.091-1.627c0.349-0.511,0.552-1.078,0.623-1.652
	c0.166-1.345-0.403-2.732-1.598-3.551c-59.506-40.724-130.002-66.667-193.418-71.174c-0.996-0.072-1.95,0.273-2.677,0.889
	C1347.098,984.848,1346.592,985.757,1346.518,986.797z"/>
<path style="fill:#27B6E8;" d="M520.59,353.42c-7.315-2.699-14.848-4.204-22.311-4.855c-6.561-0.572-13.431-0.787-19.785,0.018
	c-1.542,0.195-6.055,0.617-3.906,3.385c0.764,0.983,7.323,1.567,8.805,2.043c12.202,3.92,23.652,12.63,30.605,24.035
	c3.391,5.563,5.739,11.588,8.528,17.421c2.788,5.833,6.143,11.64,11.005,16.014c4.861,4.373,11.499,7.096,17.141,5.686
	c4.836-1.209,8.307-5.324,9.638-10.183c1.33-4.859,0.714-10.369-0.888-15.583C554.008,373.794,537.751,359.751,520.59,353.42z"/>
<path style="fill:#BEE4F8;" d="M533.245,366.438c-3.859-1.819-7.883-3.001-11.902-3.715c-3.533-0.627-7.247-1.076-10.722-0.944
	c-0.843,0.032-3.305,0.044-2.248,1.652c0.376,0.572,3.907,1.205,4.692,1.536c6.46,2.719,12.327,8.006,15.654,14.543
	c1.622,3.188,2.662,6.577,3.947,9.883c1.285,3.306,2.879,6.625,5.343,9.237c2.465,2.612,5.957,4.413,9.069,3.918
	c2.668-0.424,4.708-2.494,5.617-5.072c0.909-2.578,0.788-5.604,0.122-8.516C550.565,379.126,542.299,370.708,533.245,366.438z"/>
<path style="fill:#74A8D8;" d="M358.848,375.498c-0.923,4.074-2.933,6.573,1.25,10.322c2.716,2.39,6.302,3.64,8.855,6.193
	c3.097,3.043,4.292,7.444,5.215,11.681c0.977,4.183,1.956,8.638,4.781,11.898c2.825,3.314,8.149,4.889,11.517,2.227
	c3.423-2.662,3.26-7.877,2.119-12.06c-1.141-4.184-2.88-8.584-1.467-12.714c1.087-3.151,3.966-5.921,4.89-8.855
	c-3.477-1.032-6.846-2.282-9.996-3.857c-3.531-1.847-6.628-4.075-9.399-6.519c-3.423-3.151-6.356-6.682-9.018-10.431
	c-0.38-0.435-0.706-0.923-1.032-1.412c-1.359,0.217-2.608,0.706-3.695,1.521C359.012,366.425,359.772,371.369,358.848,375.498z"/>
<path style="fill:#27B6E8;" d="M429.063,295.767c1.814-0.181,7.644-7.854,9.389-9.32c14.36-12.068,34.069-19.474,53.618-19.209
	c9.534,0.129,18.829,1.912,28.228,2.999c9.399,1.087,19.209,1.452,28.414-1.166c9.205-2.618,17.749-8.723,20.395-16.813
	c2.268-6.934-0.128-14.44-5.113-19.872c-4.986-5.433-12.293-8.961-20.002-11.035c-26.035-7.006-56.096,2.204-77.306,18.54
	c-9.041,6.964-16.773,15.126-23.392,23.868c-5.817,7.684-11.434,16.031-15.385,24.531
	C426.952,290.353,423.959,296.275,429.063,295.767z"/>
<path style="fill:#BEE4F8;" d="M469.579,262.827c1.001-0.02,4.536-3.903,5.556-4.619c8.401-5.888,19.522-9.041,30.213-8.073
	c5.214,0.473,10.223,1.824,15.32,2.805c5.097,0.982,10.452,1.592,15.608,0.572c5.157-1.02,10.107-3.945,11.917-8.186
	c1.552-3.636,0.576-7.776-1.911-10.91c-2.486-3.134-6.33-5.34-10.457-6.782c-13.941-4.869-30.81-1.182-43.152,6.713
	c-5.26,3.366-9.858,7.432-13.872,11.857c-3.528,3.889-6.977,8.144-9.52,12.551C468.665,259.825,466.762,262.885,469.579,262.827z"/>
</svg>
