<?xml version="1.0" encoding="utf-8"?>
<!-- Generator: Adobe Illustrator 27.5.0, SVG Export Plug-In . SVG Version: 6.00 Build 0)  -->
<svg version="1.1" id="Capa_1" xmlns="http://www.w3.org/2000/svg" xmlns:xlink="http://www.w3.org/1999/xlink" x="0px" y="0px"
	 viewBox="0 0 2122 2122" style="enable-background:new 0 0 2122 2122;" xml:space="preserve">
<path style="fill:#B95841;" d="M748.937,662.053c39.628-18.093,80.229-21.723,106.162,15.572
	c15.242,21.919,31.577,38.507,59.992,40.149c38.57,2.228,60.15-25.63,90.404-44.075c21.227-12.943,42.994-21.169,64.715-18.023
	c9.314,1.349,18.619,4.752,27.869,10.83c18.599,12.221,35.245,30.03,59.791,22.678c30.34-9.088,49.502-41.775,85.511-38.6
	c12.895,1.138,21.715,9.874,33.17,14.712c23.896,10.092,28.154,3.335,45.384-9.641c41.969-31.608,82.084-10.282,121.031,12.325
	c30.162,17.508,50.279,58.962,88.348,60.121c1.485,0.045,2.864-0.088,4.29-0.145c40.553-1.62,56.886-43.824,40.138-89.593
	c-18.483-50.51-91.451-42.301-113.448-75.735c-42.734-64.955-26.445-108.473-61.142-173.643
	c-23.218-43.612-42.587-92.096-80.612-124.585c-26.025-22.236-59.729-25.235-85.786-47.329
	c-13.049-11.064-27.271-24.135-42.303-32.407c-21.762-11.975-39.961-9.143-64.145-10.258c-18.993-0.876-19.434-31.812-61.949-3.047
	c-13.217,2.309-28.282-0.923-41.882,1.611c-9.972,1.858-16.882,8.592-26.055,12.008c-14.325,5.334-32.125,6.901-47.164,9.688
	c-21.974,4.071-35.37,12.208-52.405,25.432c-14.579,11.317-27.623,14.113-44.249,18.824c-26.077,7.388-30.806,32.487-43.617,52.944
	c-7.971,12.729-19.121,15.635-30.168,25.32c-13.418,11.765-16.563,25.768-24.372,40.555c-9.058,17.152-26.149,27.495-33.688,45.475
	c-5.682,13.554-8.888,31.404-10.164,46.016c-2.818,32.267-1.146,68.05-10.342,98.951c-10.842,36.434-78.874,69.244-55.332,112.293
	c2.972,5.435,6.345,9.735,10.025,13.082C682.442,696.75,722.837,673.97,748.937,662.053z"/>
<path style="fill:#DA7351;" d="M916.042,531.247c18.739,17.64,19.229,47.09,42.687,60.77
	c45.809,26.712,94.035-20.711,137.367-22.542c33.764-1.427,55.771,32.837,89.111,27.306c29.982-4.974,50.527-30.889,81.214-33.484
	c30.672-2.594,33.822,18.719,57.931,28.98c23.257,9.898,48.47-7.702,72.375-0.314c45.661,14.111,62.432,92.774,112.654,92.754
	c43.858-0.017,26.324-51.896,5.829-68.886c-28.264-23.43-64.597-24.573-81.776-60.313c-12.819-26.671-7.876-59.915-20.871-85.229
	c-10.133-44.182-44.327-69.35-64.484-97.119c-12.171-16.767-12.661-34.059-28.282-48.371c-19.132-17.529-38.55-23.746-53.783-46.123
	c-12.82-18.833-16.875-22.329-40.51-30.631c-25.227-8.861-27-17.53-45.212-33.917c-36.25-32.618-75.33-5.786-116.173-15.756
	c-48.727-11.894-75.393,15.786-113.216,43.3c-33.067,24.055-40.857,47.678-46.077,86.995
	c-5.569,41.947-27.317,73.449-35.648,113.654C860.309,485.113,889.22,506,916.042,531.247z"/>
<path style="fill:#E47A6A;" d="M1005.495,673.699c-30.253,18.445-51.833,46.303-90.404,44.075
	c-28.415-1.641-44.75-18.229-59.992-40.149c-25.933-37.294-66.534-33.665-106.162-15.572
	c-26.101,11.916-66.495,34.697-91.995,11.505c-7.958,9.625-16.058,18.948-24.976,26.848c-26.682,23.638-45.337,17.569-76.522,68.234
	c-20.489,33.288-17.192,58.708-26.129,88.561c-9.785,32.69-38.666,59.521-38.666,104.134h421.778
	c-0.027-1.797-0.136-3.573-0.136-5.375c0-46.305,15.33-59.036,22.269-86.914c7.807-31.366,0.62-60.988,16.921-87.987
	c27.073-44.839,57.29-45.757,86.294-71.911c15.94-14.374,20.834-34.427,32.435-53.473
	C1048.489,652.53,1026.723,660.756,1005.495,673.699z"/>
<path style="fill:#E6897B;" d="M851.371,761.023c-31.299-6.886-20.208-23.284-36.727-38.595
	c-14.74-13.661-44.137-9.702-62.015-5.178c-12.26,3.102-23.437,14.856-34.772,14.938c-15.625,0.114-22.481-17.028-38.53-18.399
	c-14.337-1.224-37.184,10.6-47.655,19.272c-11.105,9.197-15.905,23.81-26.442,33.325c-12.091,10.919-25.883,12.673-31.966,29.276
	c-6.437,17.568,3.459,14.562,3.531,29.678c0.058,12.241-5.913,13.406-8.734,24.018c-4.123,15.513,6.269,24.996,3.071,39.513
	c-2.871,13.037-24.022,17.549-15.873,32.629c13.156,14.609,38.596,8.985,51.89,4.729c29.832-9.549,46.225-25.521,79.131-11.164
	c36.549,15.946,42.462,8.068,80.591-4.926c28.477-9.704,52.261,10.971,79.049,0.023c30.132-12.315,23.364-47.564,37.259-71.831
	c15.224-26.59,29.259-17.882,17.186-45.876C887.93,763.62,879.388,767.188,851.371,761.023z"/>
<path style="fill:#FDD444;" d="M1617.913,915.574c-0.189-17.112,8.392-40.84,2.772-56.679c-9.307-26.227-25.97-28.723-32.995-41.455
	c-13.537-24.535,0-28.765-14.383-53.299c-14.575-24.863-25.719-26.282-37.705-36.183c-1.425,0.057-2.805,0.19-4.29,0.145
	c-38.068-1.159-58.186-42.613-88.348-60.121c-38.947-22.607-79.062-43.933-121.031-12.325c-17.23,12.976-21.487,19.733-45.384,9.641
	c-11.455-4.838-20.275-13.575-33.17-14.712c-36.009-3.175-55.172,29.512-85.511,38.6c-24.546,7.352-41.191-10.458-59.791-22.678
	c-9.25-6.078-18.556-9.482-27.869-10.83c-11.6,19.046-16.495,39.099-32.435,53.473c-29.003,26.154-59.221,27.073-86.294,71.911
	c-16.301,26.999-9.114,56.621-16.921,87.987c-6.939,27.879-22.269,40.609-22.269,86.914c0,1.803,0.109,3.579,0.136,5.375h718.241
	C1630.67,947.403,1618.146,936.728,1617.913,915.574z"/>
<path style="fill:#FFE862;" d="M1473.637,733.701c-14.545-12.737-34.695-12.169-50.304-24.781
	c-16.044-12.962-24.614-21.959-46.759-19.903c-29.968,2.781-43.082,15.672-74.719,4.737c-26.569-9.182-31.53-7.659-58.895,2.14
	c-13.262,4.749-27.745,5.758-40.773,11.119c-18.092,7.445-33.337,24.814-53.68,25.846c-16.536,0.838-21.76-11.696-35.499-14.18
	c-17.75-3.209-24.994,7.21-38.309,16.82c-14.769,10.66-84.983,35.439-59.321,59.867c11.151,10.614,57.332,7.529,73.138,8.626
	c14.132,0.981,70.897-7.969,63.112,20.323c-4.315,15.68-27.874,13.04-39.865,13.269c-32.801,0.626-51.452,3.814-82.799,15.087
	c-33.818,12.161-60.452,36.918-18.935,66.801c39.648,28.536,92.299,7.411,134.707,8.783c51.801,1.675,97.695-0.411,145.845-15.328
	c28.035-8.686,71.688-23.884,100.761-18.587c18.449,3.361,25.645,18.52,43.072,20.157c22.179,2.083,39.745-12.768,63.992-0.909
	c9.555,4.673,16.095,13.27,24.826,19.303c13.95,9.64,33.767,7.146,76.582,4.404c11.652-30.445-33.758-74.351-42.303-104.229
	c-10.426-36.455-12.19-34.998-43.929-47.393C1487.099,775.328,1492.069,749.842,1473.637,733.701z"/>
<path style="fill:#BBDBED;" d="M1090.397,1813.059c-27.154-5.317-64.466-3.703-76.714-34.274
	c-7.785-19.558-0.76-43.958,1.899-63.706c3.702-28.293,6.456-48.611,33.989-62.187c17.564-8.64,72.062-17.374,67.789-49.844
	c-2.469-18.609-45.857-25.919-61.617-31.711c-75.954-27.818-139.566-54.972-193.493-119.247
	c-38.832-46.237-57.44-114.501-68.074-172.89c-17.302-95.065-16.383-180.834,16.248-266.683H490.65
	c-1.592,0-3.138-0.191-4.652-0.473c2.149,285.894,193.037,524.413,448.218,584.832c30.682,7.284,53.544,32.744,58.806,63.623
	c0.225,1.321,0.468,2.637,0.628,3.977c0.733,6.129,1.146,12.22,1.411,18.321c0.113,2.594,0.269,5.183,0.298,7.788
	c0.055,6.166-0.288,12.245-0.929,18.241c-6.784,63.464-51.475,116.318-111.378,136.301c-11.729,3.913-24.031,6.585-36.753,7.81
	c-19.555,1.853-37.579,4.307-53.982,7.112c-27.094,4.632-49.707,10.229-67.149,15.724c-25.01,7.879-39.434,15.537-41.316,19.792
	c-0.015,0.034-0.027,0.086-0.042,0.121c-2.861,6.673-3.477,27.762,2.997,41.102c2.447,5.041,5.874,9.008,10.622,10.616
	c6.323,2.185,13.875,4.054,22.506,5.655c0.197,0.036,0.388,0.074,0.585,0.111c1.82,0.333,3.708,0.65,5.623,0.959
	c0.564,0.091,1.125,0.183,1.697,0.273c1.661,0.259,3.369,0.506,5.096,0.749c0.934,0.131,1.876,0.261,2.83,0.388
	c1.464,0.195,2.956,0.382,4.466,0.566c1.351,0.164,2.725,0.323,4.112,0.479c1.209,0.136,2.427,0.27,3.663,0.4
	c1.873,0.197,3.788,0.385,5.721,0.568c0.827,0.078,1.648,0.158,2.486,0.233c2.651,0.24,5.359,0.466,8.116,0.682
	c0.157,0.012,0.31,0.025,0.468,0.037c65.435,5.073,159.862,3.536,260.847,3.14c-0.045-0.009-0.09-0.018-0.135-0.027
	c-25.969-5.12-51.844-10.52-77.813-15.259c-32.944-5.981-65.416-11.203-98.645-14.051c-9.59-0.76-42.439,0.855-48.516-8.45
	c-21.267-32.375,84.214-51.743,99.404-54.212c63.327-10.729,120.387-14.052,184.379-16.425c13.956-0.474,48.895,3.418,55.921-13.007
	C1150.02,1817.332,1105.302,1816.002,1090.397,1813.059z"/>
<path style="fill:#DDE8F0;" d="M1630.67,961.336H490.65c-14.074,0-25.59,11.515-25.59,25.59c0,11.394,7.559,21.076,17.904,24.357
	c0.984,0.312,1.993,0.566,3.023,0.758l0.011,0.001c1.514,0.281,3.06,0.473,4.652,0.473h319.774
	c-32.631,85.849-33.55,171.618-16.248,266.683c10.634,58.389,29.242,126.652,68.074,172.89
	c53.927,64.276,117.539,91.43,193.493,119.247c15.76,5.792,59.149,13.102,61.617,31.711c4.273,32.47-50.224,41.205-67.789,49.844
	c-27.533,13.577-30.287,33.894-33.989,62.187c-2.659,19.748-9.684,44.148-1.899,63.706c12.248,30.571,49.56,28.957,76.714,34.274
	c14.905,2.943,59.623,4.273,49.844,27.153c-7.026,16.425-41.965,12.533-55.921,13.007c-63.991,2.373-121.051,5.697-184.379,16.425
	c-15.191,2.469-120.671,21.836-99.404,54.212c6.077,9.305,38.926,7.69,48.516,8.45c33.229,2.848,65.701,8.07,98.645,14.051
	c25.969,4.739,51.844,10.14,77.813,15.259c11.816-0.044,23.71-0.075,35.671-0.075c151.343,0,293.851,0.595,346.869-16.92
	c22.431-7.411,30.457-49.069,22.56-61.478c-7.896-12.409-52.608-19.943-145.856-29.389c-86.682-8.781-153.514-83.281-148.49-170.262
	c0.034-0.598,0.071-1.195,0.11-1.793l0.088-1.344c2.77-42.371,32.497-77.574,73.382-89.036
	c244.306-68.489,424.567-301.652,426.539-579.506c11.337-2.622,19.874-12.784,19.874-24.888
	C1656.259,972.852,1644.744,961.336,1630.67,961.336z"/>
<path style="fill:#F7FAF9;" d="M1409.688,1059.686c-24.017,21.819-34.264,52.411-44.001,82.856
	c-17.176,53.706-37.024,105.64-63.559,155.829c-16.796,31.768-38.311,62.355-60.977,90.142
	c-22.797,27.948-54.424,57.454-45.941,96.882c6.481,30.121,41.034,52.346,77.477,47.498
	c91.931-50.264,180.329-121.267,234.622-211.5c35.496-58.992,94.893-157.671,68.308-230.732
	C1554.675,1033.105,1450.193,1022.888,1409.688,1059.686z"/>
<path style="fill:#F7FAF9;" d="M1112.507,1654.155c-15.283-13.398-56.974,19.739-51.325,75.014
	c2.775,27.166,23.111,85.042,58.704,59.321c18.848-13.621,2.666-39.827-1.104-56.563
	C1107.995,1684.047,1127.79,1667.553,1112.507,1654.155z"/>
<path style="fill:#F7FAF9;" d="M1362.272,1887.241c-26.09-7.587-53.329-8.852-80.016-14.796
	c-30.358-6.762-56.366-22.704-84.583-30.474c-21.207-5.839-24.535,31.303-11.918,45.619c20.075,22.78,57.726,37.58,86.445,42.445
	c23.567,3.992,50.674,2.55,74.542,1.702c9.742-0.346,27.22-1.188,35.451-6.774
	C1407.667,1907.678,1379.335,1892.203,1362.272,1887.241z"/>
<path style="fill:#F7FAF9;" d="M1621.711,971.133H587.974c-4.342,0-7.896,3.554-7.896,7.897c0,4.342,3.554,7.896,7.896,7.896
	h1033.737c4.343,0,7.896-3.554,7.896-7.896C1629.607,974.687,1626.054,971.133,1621.711,971.133z"/>
<path style="fill:#E47A6A;" d="M603.766,839.906c-7.016,0-7.028,10.904,0,10.904C610.783,850.81,610.794,839.906,603.766,839.906z"
	/>
<path style="fill:#E47A6A;" d="M827.116,797.555c8.162,0,8.175-12.684,0-12.684C818.954,784.871,818.941,797.555,827.116,797.555z"
	/>
<path style="fill:#E47A6A;" d="M785.563,750.879c1.301,0.358,2.726-0.019,3.68-0.973c0.374-0.377,0.586-0.847,0.776-1.331
	c0.575-0.195,1.078-0.556,1.25-1.174l0.073-0.559l-0.003-0.066l-0.093-0.667l-0.042-0.14l-0.282-0.657l-0.536-0.723l-0.232-0.226
	l-0.793-0.584l-0.471-0.207l-0.514-0.208l-0.149-0.039l-0.977-0.133l-0.154-0.007l-1.025,0.131l-0.171,0.038l-0.492,0.203
	l-0.487,0.208l-0.155,0.097l-0.793,0.615l-0.081,0.078c-0.469,0.472-0.793,1.029-0.973,1.669c-0.18,0.671-0.18,1.341,0,2.012
	C783.27,749.509,784.291,750.529,785.563,750.879z"/>
<path style="fill:#E47A6A;" d="M775.164,783.756c0.336,0.623,0.795,1.122,1.376,1.499c0.515,0.471,1.121,0.79,1.817,0.956
	c0.512,0.143,1.024,0.285,1.536,0.428c1.026,0.275,2.051,0.275,3.076,0c0.98-0.275,1.831-0.771,2.553-1.488l0.905-1.171
	c0.523-0.902,0.787-1.876,0.79-2.92c0.03-0.796-0.136-1.54-0.498-2.229c-0.233-0.717-0.632-1.338-1.196-1.862
	c-1.455-1.455-3.641-2.042-5.629-1.487c-0.512,0.142-1.024,0.285-1.536,0.428l-1.276,0.538c-0.622,0.336-1.122,0.794-1.498,1.376
	c-0.332,0.333-0.56,0.726-0.688,1.178c-0.334,0.636-0.487,1.322-0.46,2.057l0.191,1.42L775.164,783.756z"/>
<path style="fill:#E47A6A;" d="M646.068,799.492c6.3,0,6.31-9.791,0-9.791C639.767,789.701,639.757,799.492,646.068,799.492z"/>
<path style="fill:#E47A6A;" d="M635.915,874.749c-5.727,0-5.737,8.901,0,8.901C641.642,883.65,641.652,874.749,635.915,874.749z"/>
<path style="fill:#E47A6A;" d="M713.749,881.517c-5.727,0-5.736,8.901,0,8.901C719.477,890.417,719.486,881.517,713.749,881.517z"/>
<path style="fill:#E47A6A;" d="M712.194,854.189c-3.19,0.359-5.82,1.219-8.741,2.507c-1.621,0.713-4.183,2.228-6.077,2.134
	L697,858.334c-0.769-1.392-2.114-2.719-3.32-3.749c-2.415-2.061-5.487-3.341-8.708-3.242c-5.598,0.173-9.34,3.97-12.977,7.737
	c-1.17,1.212-1.833,1.793-2.51,2.205c-0.274-0.205-0.58-0.425-1.133-1.017c-3.322-3.552-5.743-7.692-9.877-10.455
	c-10.316-6.891-25.315,0.48-22.319,13.561c0.762,3.327,5.469,3.722,7.118,0.93c1.014-1.719,5.062-3.595,6.851-2.85
	c2.344,0.975,4.874,5.878,6.516,7.969c6.083,7.748,15.262,9.781,23.302,3.484c1.587-1.243,2.993-2.614,4.45-4.002l0.373-0.355
	c0.391,0.523,0.771,1.034,0.86,1.135c1.877,2.101,4.26,3.765,6.977,4.599c5.745,1.764,11.484-0.337,16.732-2.605
	c1.105-0.478,3.275-1.338,3.839-1.416c0.584-0.081,1.161-0.052,1.56-0.015l0.518,0.579c2.623,2.933,7.537,2.966,10.479,0.624
	c3.369-2.684,3.655-6.513,2.055-10.294C725.319,855.324,717.883,853.548,712.194,854.189z"/>
<path style="fill:#E47A6A;" d="M688.369,815.393c-3.723,0-3.729,5.785,0,5.785C692.091,821.178,692.097,815.393,688.369,815.393z"/>
<path style="fill:#E47A6A;" d="M738.959,774.953c-1.382-0.708-2.606-1.192-4.198-1.269c-0.246-0.448-0.501-0.895-0.658-1.215
	c-0.618-1.259-1.36-2.485-2.383-3.477c-3.724-3.613-9.412-3.927-14.037-2.123c-2.267,0.885-4.125,2.253-5.946,3.856
	c-1.338,1.176-2.969,3.649-4.778,4.087c-1.879,0.456-4.756-1.135-4.918-3.213c-0.291-3.76-2.837-6.485-6.693-6.693
	c-6.346-0.342-11.229,2.866-16.574,5.762c-1.531,0.83-4.154,2.458-5.994,1.868c-1.679-0.538-2.916-3.633-3.991-4.954
	c-6.834-8.397-21.355-4.219-23.047,6.32c-0.33,2.062,1.157,3.709,3.285,3.285c2.171-0.432,3.859-0.861,5.809-1.963
	c1.481-0.837,3.256-2.433,4.868-1.264c1.306,0.948,1.983,3.809,2.961,5.182c1.484,2.083,3.4,3.704,5.761,4.702
	c4.379,1.849,9.398,1.247,13.71-0.489c2.952-1.188,5.752-3.206,8.764-4.302c4.617,8.41,15.65,12.658,24.598,6.973
	c0.873-0.554,5.075-3.429,6.321-5.059c0.398,1.332,1.4,2.77,2.264,3.704c5.123,5.536,15.177,5.426,17.881-2.333
	C742.865,779.754,741.394,776.202,738.959,774.953z"/>
<path style="fill:#E47A6A;" d="M763.148,855.436c-0.595-0.343-1.19-0.688-1.785-1.031l-0.825-0.348
	c-0.459-0.145-0.919-0.165-1.378-0.062l-0.871,0.235l-1.112,0.715l-0.54,0.699l-0.348,0.825c-0.144,0.46-0.165,0.919-0.062,1.378
	c0.021,0.461,0.158,0.889,0.41,1.285c0.344,0.595,0.687,1.19,1.032,1.785c0.356,0.602,0.835,1.081,1.437,1.437
	c0.625,0.362,1.299,0.544,2.021,0.546l1.065-0.143c0.678-0.191,1.267-0.534,1.767-1.03c0.391-0.363,0.666-0.793,0.828-1.289
	c0.25-0.477,0.366-0.992,0.345-1.543C765.132,857.489,764.368,856.141,763.148,855.436z"/>
<path style="fill:#E47A6A;" d="M789.891,867.29c-4.439,0-4.447,6.898,0,6.898C794.329,874.188,794.337,867.29,789.891,867.29z"/>
<path style="fill:#E47A6A;" d="M833.862,854.542l-0.141-0.256l-0.152-0.268c-0.316-0.534-0.741-0.959-1.275-1.275
	c-0.554-0.322-1.152-0.483-1.794-0.485c-0.641,0.002-1.239,0.163-1.794,0.485c-0.534,0.316-0.959,0.74-1.275,1.275l-0.145,0.253
	l-0.148,0.27l-0.289,0.527c-0.383,0.66-0.575,1.371-0.577,2.134c0.002,0.763,0.195,1.474,0.577,2.134
	c0.753,1.286,2.16,2.094,3.651,2.094c1.491,0,2.898-0.808,3.651-2.094c0.382-0.66,0.575-1.37,0.577-2.134
	c-0.002-0.763-0.195-1.475-0.577-2.134L833.862,854.542z"/>
<path style="fill:#E47A6A;" d="M801.326,819.555c-0.48,0.334-0.996,0.708-1.499,1.093c-1.002-1.063-2.129-2.005-2.917-2.529
	c-4.385-2.915-9.502-2.531-13.956,0.039c-1.594,0.92-3.004,2.122-4.51,3.172c-0.739,0.515-1.623,0.937-2.32,1.494
	c-1.509-2.237-3.966-5.414-6.135-7.357c-7.554-6.77-20.783-7.392-25.685,2.627c-1.448,2.961,0.934,6.344,4.272,5.557
	c2.724-0.643,7.383-0.706,10.012,0.548c3.022,1.442,4.342,5.418,6.34,7.953c6.568,8.329,15.47,6.219,23.352,1.316l0.314-0.189
	l0.102,0.155c3.437,5.143,9.764,7.035,15.361,4.192c3.092-1.571,5.351-5.585,9.065-5.225c4.571,0.444,9.034,3.868,13.19,5.558
	c7.268,2.956,12.391-7.699,7.361-12.645C825.729,817.505,811.246,812.649,801.326,819.555z"/>
<path style="fill:#E47A6A;" d="M859.744,791.276c-0.17-0.525-0.462-0.978-0.874-1.361c-0.528-0.524-1.15-0.886-1.866-1.088
	c-0.749-0.201-1.499-0.201-2.248,0l-1.04,0.321l-0.93,0.393c-0.453,0.244-0.818,0.579-1.093,1.003l-0.502,0.859
	c-0.244,0.465-0.355,0.965-0.335,1.502l0.139,1.036l0.393,0.93c0.245,0.454,0.579,0.818,1.003,1.093
	c0.376,0.344,0.818,0.577,1.325,0.697l1.04,0.32c0.749,0.201,1.499,0.201,2.248,0c0.716-0.201,1.338-0.563,1.866-1.087l0.661-0.856
	c0.383-0.66,0.575-1.371,0.577-2.134C860.131,792.322,860.009,791.78,859.744,791.276z"/>
<path style="fill:#FDD444;" d="M1563.155,893.936c3.723,0,3.729-5.785,0-5.785C1559.432,888.151,1559.426,893.936,1563.155,893.936z
	"/>
<path style="fill:#FDD444;" d="M1566.266,902.03c-0.153-0.546-0.43-1.021-0.83-1.424l-0.653-0.504
	c-0.504-0.292-1.046-0.439-1.628-0.441l-1.243,0.278l-1.039,0.667l-0.667,1.038l-0.278,1.243l0.116,0.858
	c0.153,0.546,0.429,1.021,0.829,1.424l0.653,0.504c0.503,0.292,1.047,0.438,1.629,0.44l1.243-0.277l1.038-0.667l0.667-1.038
	l0.278-1.244L1566.266,902.03z"/>
<path style="fill:#FDD444;" d="M1456.557,766.565c5.297,0,5.306-8.233,0-8.233C1451.258,758.332,1451.25,766.565,1456.557,766.565z"
	/>
<path style="fill:#FDD444;" d="M1415.947,760.997c9.02,0,9.036-14.019,0-14.019C1406.927,746.978,1406.912,760.997,1415.947,760.997
	z"/>
<path style="fill:#FDD444;" d="M1386.065,749.917c0.335,0.623,0.794,1.122,1.376,1.499c0.516,0.472,1.122,0.792,1.818,0.957
	c0.477,0.177,0.954,0.355,1.431,0.532c1.046,0.281,2.091,0.281,3.136,0c0.999-0.28,1.866-0.786,2.602-1.516l0.922-1.193
	c0.534-0.919,0.802-1.912,0.805-2.977c0.03-0.812-0.139-1.569-0.508-2.272c-0.238-0.73-0.645-1.363-1.219-1.898
	c-0.736-0.731-1.603-1.236-2.602-1.516c-1.045-0.281-2.09-0.281-3.136,0c-0.477,0.178-0.954,0.355-1.431,0.532l-1.277,0.539
	c-0.623,0.336-1.123,0.795-1.499,1.376c-0.332,0.333-0.561,0.726-0.688,1.179c-0.335,0.637-0.488,1.324-0.46,2.06
	c0.063,0.474,0.127,0.947,0.191,1.421L1386.065,749.917z"/>
<path style="fill:#FDD444;" d="M1365.186,735.44c4.439,0,4.446-6.898,0-6.898C1360.747,728.542,1360.74,735.44,1365.186,735.44z"/>
<path style="fill:#FDD444;" d="M1344.418,777.589l-0.085,0.103l-0.162,0.195l-0.35,0.421c-0.453,0.586-0.905,1.171-1.357,1.757
	c-0.291,0.691-0.583,1.382-0.874,2.073c-0.363,1.153-0.414,2.307-0.156,3.46c0.003,0.783,0.2,1.513,0.592,2.19
	c0.207,0.734,0.578,1.373,1.116,1.914c0.386,0.652,0.904,1.171,1.557,1.557c0.542,0.538,1.18,0.91,1.915,1.116
	c1.034,0.544,2.149,0.793,3.344,0.747c0.769-0.103,1.538-0.207,2.307-0.31c0.691-0.291,1.382-0.583,2.072-0.875
	c0.586-0.452,1.172-0.904,1.757-1.357c0.452-0.586,0.904-1.171,1.357-1.756c0.291-0.691,0.583-1.382,0.875-2.073
	c0.362-1.154,0.414-2.307,0.155-3.461c-0.002-0.783-0.2-1.513-0.592-2.19c-0.35-1.076-0.948-2.007-1.794-2.793l-0.341-0.411
	l-0.171-0.205l-0.085-0.103c-0.837-1.004-1.491-1.197-2.53-1.635c-1.125-0.475-1.534-0.739-3.008-0.674l-2.077,0.28
	c-1.016,0.242-1.902,0.707-2.656,1.397L1344.418,777.589z"/>
<path style="fill:#FDD444;" d="M1216.286,766.453c5.154,0,5.163-8.011,0-8.011C1211.132,758.442,1211.123,766.453,1216.286,766.453z
	"/>
<path style="fill:#FDD444;" d="M1168.279,872.649c-2.604,1.055-5.893,2.671-8.753,2.572c-3.13-0.108-3.422-2.204-5.454-4.356
	c-5.315-5.625-13.087-6.196-19.904-3.124c-3.209,1.446-5.91,3.532-8.445,5.956c-2.156,2.062-4.235,5.096-7.068,6.256
	c-5.03,2.059-11.011-3.109-15.29-5.272c-5.597-2.829-11.64-4.668-17.948-3.497c-7.511,1.394-12.089,6.989-17.213,12.205
	c-3.138,3.195,0.905,8.715,4.854,6.291c4.762-2.925,11.48-6.269,17.24-4.811c4.843,1.226,9.081,4.804,13.464,7.074
	c11.402,5.906,21.229,4.131,30.543-4.539c1.891-1.76,3.631-3.898,6.08-4.881c2.792-1.12,2.336,0.906,4.5,3.323
	c3.968,4.432,9.608,6.398,15.496,6.031c6.24-0.388,11.459-3.126,17.237-5.115c5.159-1.776,7.214-1.115,11.881,0.958
	c4.554,2.023,10.752-0.25,10.547-6.052C1199.451,864.875,1178.575,868.478,1168.279,872.649z"/>
<path style="fill:#FDD444;" d="M1185.829,812.584c5.727,0,5.737-8.901,0-8.901C1180.102,803.683,1180.092,812.584,1185.829,812.584z
	"/>
<path style="fill:#FDD444;" d="M1094.886,772.355c4.768-0.593,8.885-2.646,13.315-4.455c2.393-0.977,5.621-1.925,7.709-1.123
	c2.353,0.906,3.177,4.748,4.861,7.093c2.908,4.052,7.275,6.539,12.312,6.591c3.946,0.041,7.753-1.782,11.037-3.789
	c1.304-0.796,2.572-1.652,3.87-2.458c0.777-0.483,1.562-0.965,2.355-1.421c1.593-0.916-0.55,0.502,1.065-0.53l0.492-0.132l0.1,0.002
	l0.109,0l0.843,0.228c1.879,0.595,1.968,0.767,3.931,1.64c5.208,2.317,9.885,3.865,15.367,1.339
	c2.698-1.243,4.089-4.524,4.188-7.301c0.102-2.896-1.731-5.864-4.188-7.301c-1.6-0.936-2.969-1.04-4.599-1.357
	c0.484,0.047-2.176-0.753-1.544-0.511c-3.805-1.457-8.353-4.234-13.156-4.538c-4.698-0.296-9.341,1.317-13.266,3.852
	c-1.547,0.999-2.976,2.182-4.482,3.241c-0.543,0.382-1.103,0.744-1.665,1.098c-1.023-1.679-3.089-4.391-3.323-4.677
	c-3.305-4.057-7.992-6.188-13.131-6.751c-10.444-1.142-21.012,5.065-26.524,13.728
	C1088.689,767.766,1091.079,772.83,1094.886,772.355z"/>
<path style="fill:#FDD444;" d="M1214.594,841.154c-7.589,0-7.601,11.793,0,11.793
	C1222.182,852.947,1222.195,841.154,1214.594,841.154z"/>
<path style="fill:#FDD444;" d="M1226.438,883.01c-8.161,0-8.175,12.684,0,12.684C1234.599,895.693,1234.614,883.01,1226.438,883.01z
	"/>
<path style="fill:#FDD444;" d="M1263.663,848.478c-6.872,0-6.884,10.681,0,10.681
	C1270.536,859.159,1270.547,848.478,1263.663,848.478z"/>
<path style="fill:#FDD444;" d="M1287.352,830.31c-6.3,0-6.311,9.792,0,9.792C1293.652,840.102,1293.662,830.31,1287.352,830.31z"/>
<path style="fill:#FDD444;" d="M1291.751,798.055l-0.4-0.315l-0.385-0.26l-0.993-0.889c-0.588-0.525-1.159-1.068-1.757-1.581
	c-3.137-2.697-6.448-4.838-10.672-5.149c-6.329-0.466-11.539,3.249-16.656,6.403c-0.939,0.579-1.901,1.132-2.891,1.622l-1.074,0.422
	l-0.467,0.119l-0.236-0.003l-0.108-0.03l-0.486-0.461c-1.474-1.476-3.04-2.989-4.856-4.041c-7.459-4.324-16.815-1.503-23.337,3.168
	c-4.451,3.188-1.932,10.624,3.857,9.151c3.236-0.824,6.995-2.334,10.373-2.096c3.157,0.222,4.751,3.874,7.191,5.649
	c5.913,4.301,12.74,2.455,18.579-0.907c2.35-1.354,4.59-2.906,7.033-4.096l0.355-0.197l0.383-0.085l0.891-0.247l0.523,0.064
	l-0.361-0.117l0.006-0.003l0.444,0.086l0.264,0.276c0.55,0.51,1.54,1.336,2.668,2.385c1.302,1.208,2.753,2.631,4.3,3.494
	c3.606,2.01,8.264,2.115,11.724-0.248C1301.24,806.362,1298.408,797.235,1291.751,798.055z"/>
<path style="fill:#FDD444;" d="M1299.196,768.818c-4.868,0-4.876,7.566,0,7.566C1304.064,776.383,1304.073,768.818,1299.196,768.818
	z"/>
<path style="fill:#FDD444;" d="M1311.793,742.157c1.8,4.881,5.297,9.216,10.792,9.782c3.193,0.329,6.175-0.663,8.965-2.167
	c0.87-0.468,2.779-1.371,3.494-2.163c0.349-0.386,0.856-0.202,1.021-0.121c-0.093-0.051-0.379-0.231-1.043-0.753
	c4.292,3.376,13.241,0.461,10.599-6.171c-2.829-7.104-9.609-8.707-16.323-5.584c-1.517,0.706-3.138,1.551-4.487,2.575l-0.353-0.69
	c-1.396-2.906-2.681-5.616-5.482-7.492c-6.493-4.346-13.802-0.66-19.539,3.097c-2.509,1.643-5.645,4.547-8.812,4.621
	c-3.416,0.08-5.515-4.228-8.411-5.851c-5.055-2.831-10.775-1.682-15.355,1.452c-3.176,2.173-7.7,8.181-11.878,8.015
	c-3.172-0.124-6.541-4.579-9.096-6.141c-2.203-1.348-4.748-2.307-7.34-2.479c-5.282-0.353-9.85,3.56-10.404,8.731
	c-0.353,3.294,4.056,3.619,5.598,1.516c0.987-1.346,5.81,1.314,6.661,1.944c2.118,1.571,3.844,3.631,6.012,5.167
	c4.354,3.083,9.457,4.081,14.542,2.327c4.391-1.515,7.742-4.633,11.547-7.143c0.688-0.454,3.557-1.659,2.951-1.819
	c1.959,0.518,4.514,4.604,6.404,5.706c5.599,3.263,12.411,2.297,18.021-0.389c2.784-1.332,5.235-3.164,7.849-4.784
	c1.118-0.692,2.396-1.587,3.703-1.97L1311.793,742.157z"/>
<path style="fill:#FDD444;" d="M1410.326,841.806c-2.365,0.522-4.703,0.919-7.091,1.296c-1.409,0.222-3.305,0.959-4.712,0.331
	c-0.365-0.163-2.805-4.051-3.938-5.092c-2.359-2.17-5.242-3.389-8.418-3.673c-5.738-0.513-11.019,2.016-15.345,5.623
	c-3.789,3.159-5.962,8.405-10.075,11.128c-2.959,1.959-5.976-1.328-8.305-3.113c-4.395-3.368-8.792-6.308-14.479-6.801
	c-11.878-1.032-21.62,7.346-26.76,17.253c-1.744,3.362,1.927,7.772,5.48,5.479c4.5-2.903,9.521-6.594,14.534-8.469
	c4.755-1.778,7.938,0.111,11.456,3.239c8.032,7.143,17.617,11.699,27.417,4.519c4.109-3.009,6.605-7.344,10.375-10.634
	c1.22-1.065,2.441-1.415,3.707-1.926l0.154,0.309c0.52,1.133,1.58,2.383,2.426,3.304c8.542,9.301,21.639,5.244,29.961-1.804
	C1422.053,848.256,1416.225,840.505,1410.326,841.806z"/>
<path style="fill:#FDD444;" d="M1485.165,805.675c-0.475-8.337-11.294-5.939-16.72-6.287c-5.99-0.385-10.216-3.352-15.156-6.348
	c-6.071-3.68-12.322-2.8-18.166,0.781c-1.042,0.638-2.037,1.378-3.123,1.941l-0.458,0.243c-0.795-0.611-2.076-1.784-2.448-2.023
	c-1.594-1.02-3.4-1.787-5.244-2.205c-7.317-1.663-17.497,1.47-21.481,8.139c-2.117,3.543,0.601,8.172,4.687,8.168
	c4.667-0.005,10.738-4.768,14.876-1.61c2.82,2.153,5.327,4.106,9.063,4.233c3.011,0.103,5.777-0.91,8.425-2.251
	c1.449-0.734,3.78-2.7,5.196-2.839c0.066,0.075,0.276,0.189,0.509,0.31c1.461,0.758,2.708,2.015,4.07,2.935
	c5.651,3.819,12.489,5.709,19.25,6.102C1474.23,815.3,1485.626,813.752,1485.165,805.675z"/>
<path style="fill:#FDD444;" d="M1471.785,840.106c-4.582,0-4.589,7.12,0,7.12C1476.367,847.226,1476.374,840.106,1471.785,840.106z"
	/>
<path style="fill:#FDD444;" d="M1531.006,900.796c-4.869,0-4.877,7.566,0,7.566C1535.874,908.362,1535.883,900.796,1531.006,900.796
	z"/>
<path style="fill:#FDD444;" d="M1544.542,838.302c-4.725,0-4.733,7.343,0,7.343C1549.267,845.646,1549.275,838.302,1544.542,838.302
	z"/>
<path style="fill:#FDD444;" d="M1522.546,835.136c6.443,0,6.454-10.013,0-10.013
	C1516.103,825.123,1516.092,835.136,1522.546,835.136z"/>
<path style="fill:#FDD444;" d="M1540.371,864.156c-6.094-3.395-12.837-1.466-18.738,1.393c-2.545,1.233-3.64,2.113-5.788,2.752
	c-0.577,0.172-1.182,0.339-1.78,0.43l-0.127-0.011l-0.028-0.043c-0.971-1.798-2.792-4.977-5.25-6.539
	c-3.294-2.094-7.064-2.302-10.8-1.529c-6.819,1.412-12.738,5.52-18.317,9.427c-4.621,3.237-1.652,9.511,3.686,8.745
	c3.49-0.5,7.196-0.689,10.528-1.859c1.482-0.521,2.94-1.11,4.423-1.629c0.554-0.194,1.646-0.394,2.438-0.574l0.008,0.015
	c0.819,1.568,1.621,3.075,2.821,4.404c2.49,2.754,5.894,4.18,9.539,4.519c5.925,0.55,11.353-2.112,16.497-4.675
	c1.561-0.778,1.048-0.57,2.675-1.032l1.29-0.301l1.22-0.056c4.562-0.216,9.208-1.55,9.262-7.228
	C1543.955,867.878,1542.554,865.372,1540.371,864.156z"/>
<path style="fill:#B95841;" d="M1027.164,248.406c1.528,0.548,3.161,0.848,4.796,0.782c1.348-0.054,4.051-1.391,5.26-0.951
	c-1.088-0.396,0.695,1.842,1.022,2.503c0.874,1.767,1.595,3.453,2.952,4.939c5.656,6.202,13.155,3.942,19.74,0.871
	c0.803-0.374,2.634-1.575,3.71-1.554c0.099,0.15,0.296,0.484,0.595,1.307c1.432,3.952,5.212,7.537,9.118,8.902
	c4.491,1.569,9.196,0.805,13.458-1.065c2.327-1.02,4.396-2.587,6.533-3.984c4.098,3.777,10.081,5.526,15.867,5.488
	c4.701-0.032,9.129-1.401,13.652-2.491c2.185-0.526,4.618-1.222,6.882-0.876c2.717,0.415,4.723,1.021,7.558,0.549
	c4.76-0.791,5.545-6.346,4.025-9.893c-3.613-8.43-16.428-6.4-23.487-4.8c-3.11,0.706-6.071,1.827-9.302,1.65
	c-1.091-0.06-2.437-0.101-3.453-0.567c-1.928-0.885-0.702,0.19-1.042-1.395c-0.912-4.266-5.832-6.6-9.817-5.574
	c-4.935,1.271-8.379,4.157-12.613,6.75c-3.633,2.225-2.997,1.626-5.118-1.521c-4.861-7.215-12.202-8.669-19.907-5.186
	c-2.184,0.987-4.433,2.675-6.787,3.366c-0.317-0.569-0.638-1.135-0.916-1.725c-0.829-1.494-1.605-2.869-2.849-4.069
	c-6.916-6.677-12.781,0.232-19.876,1.462C1023.277,241.999,1024.099,247.306,1027.164,248.406z"/>
<path style="fill:#B95841;" d="M945.547,334.328c3.33-3.041,7.995-5.621,12.606-4.223c4.786,1.452,5.909,6.923,8.517,10.614
	c7.89,11.166,19.158,6.336,28.716,0.719c3.499-2.056,4.481-3.489,6.715,0.121c2.791,4.508,5.534,9.026,11.075,10.33
	c7.297,1.717,11.509-3.301,16.568-7.401c5.408-4.382,10.916-1.397,16.83-3.32c4.622-1.503,5.455-6.471,2.647-10.025
	c-4.493-5.684-14.261-4.621-20.339-2.426c-3.481,1.257-6.544,3.158-9.314,5.594c-1.051,0.925-2.281,1.951-3.292,2.997
	c-1.611-4.819-6.732-10.13-11.421-11.689c-5.633-1.871-11.335,0.219-16.155,3.223c-2.702,1.685-7.79,7.048-11.026,4.996
	c-2.247-1.425-3.542-5.428-5.1-7.52c-1.802-2.42-3.937-4.514-6.692-5.839c-9.149-4.399-24.91,0.288-24.704,12.037
	C941.219,334.795,943.919,335.816,945.547,334.328z"/>
<path style="fill:#B95841;" d="M1130.257,304.618c9.223,0.696,20.577-4.563,28.81,1.609c3.876,2.907,5.781,7.724,9.702,10.659
	c4.402,3.294,9.818,4.009,14.941,1.997c4.447-1.747,7.844-5.691,12.654-6.485c4.59-0.758,8.443,1.002,11.928,3.758
	c5.13,4.059,10.382,4.613,16.026,1.126c1.879-1.161,3.443-2.342,5.739-2.512c2.696-0.198,5.341,0.787,8.081,0.682
	c4.255-0.163,8.378-5.352,5.38-9.375c-3.929-5.271-9.608-6.705-16.011-5.928c-2.898,0.351-5.617,1.137-8.223,2.475
	c-0.309,0.16-1.318,0.579-1.942,0.951c-0.625-0.58-1.859-1.361-2.147-1.572c-9.703-7.057-23.076-6.581-32.727,0.242
	c-1.252,0.885-3.641,3.169-4.804,2.948c-1.928-0.369-3.981-3.723-5.269-5.062c-3.728-3.879-8.24-6.818-13.554-7.961
	c-10.281-2.213-22.789,0.051-30.944,6.75C1125.459,300.922,1127.664,304.422,1130.257,304.618z"/>
<path style="fill:#B95841;" d="M1165.895,390.388c8.82,6.227,22.757,5.362,24.19-7.315c0.699-6.183-7.871-8.771-11.776-4.878
	l0.083-0.077l-0.978,0.55l-1.173,0.019c-1.343-0.201-3.153-1.897-4.227-2.66c-4.053-2.877-8.33-5.218-13.443-5.292
	c-4.542-0.066-8.764,1.629-12.821,3.475c-2.756,1.254-6.748,4.109-9.962,3.652c-3.492-0.496-6.552-4.999-9.427-6.893
	c-3.87-2.549-8.451-4.047-13.013-4.684c-8.221-1.151-20.197,0.018-24.647,8.027c-1.314,2.365,0.303,5.885,3.266,5.693
	c4.563-0.297,8.698-2.275,13.305-2.264c4.506,0.009,8.909,1.328,12.602,3.934c3.921,2.767,6.722,6.732,11.177,8.792
	c4.58,2.118,9.676,1.975,14.419,0.452c4.243-1.362,8.134-3.967,12.497-4.943C1160.135,385.041,1162.683,388.12,1165.895,390.388z"/>
<path style="fill:#B95841;" d="M937.484,426.099c10.738-3.678,23.872-3.113,33.213,3.741c9.477,6.955,18.188,15.634,30.774,9.995
	c4.264-1.91,7.556-6.271,11.861-7.804c4.241-1.509,8.581,3.886,11.82,6.149c8.532,5.961,25.342,7.181,27.995-5.829
	c1.471-7.211-7.352-13.582-13.017-7.577l-1.48,1.09l-1.102-0.072c-1.708-0.766-3.077-1.37-4.656-2.487
	c-4.706-3.329-8.85-6.85-14.717-7.868c-5.581-0.968-10.89,0.819-15.428,4.037c-3.006,2.132-6.883,7.157-10.925,6.91
	c-4.478-0.273-9.236-5.293-12.782-7.667c-4.342-2.906-9.274-5.081-14.397-6.156c-11.585-2.431-21.634-0.185-30.948,7.03
	C930.596,421.991,933.964,427.305,937.484,426.099z"/>
<path style="fill:#B95841;" d="M1082.571,483.821c-4.628-2.962-10.252-4.583-15.747-4.05c-6.084,0.591-10.39,3.588-14.34,8.04
	c-2.495,2.813-4.708,2.65-8.247,1.311c-4.887-1.85-9.148-5.087-14.109-6.864c-4.643-1.663-9.667-1.912-14.488-0.944
	c-4.357,0.875-8.279,3.196-11.565,6.143c-3.332,2.988-5.012,7.472-6.034,11.779c-1.102,4.645,4.684,6.621,7.321,3.087
	c1.741-2.334,4.98-3.921,7.615-5.073c2.647-1.157,6.268-1.926,9.161-1.457c3.36,0.543,6.39,2.755,9.227,4.482
	c3.782,2.303,7.739,4.565,12.087,5.599c4.444,1.057,9.129,1.124,13.412-0.571c2.227-0.88,4.11-2.04,5.936-3.613
	c1.376-1.186,2.511-3.034,4.021-4.006c2.018-1.299,4.382-0.335,6.314,0.877c4.1,2.573,6.503,6.526,11.447,7.832
	c5.875,1.553,10.682-3.773,9.443-9.444C1092.762,491.175,1087.339,486.872,1082.571,483.821z"/>
<path style="fill:#B95841;" d="M1218.647,443.954c-4.976,1.544-9.221,4.553-12.191,8.835c-0.239,0.343-1.191,1.723-1.843,2.813
	c-0.8-0.517-1.934-1.029-2.355-1.326c-7.53-5.295-15.372-8.868-24.58-10.029c-4.333-0.547-9.212-0.911-13.464,0.317
	c-4.349,1.256-7.996,3.889-11.641,6.454c-1.979,1.392-1.619,5.562,1.404,5.184c4.041-0.506,7.867,0.235,11.898,0.636
	c4.014,0.399,7.77,0.372,11.705,1.455c3.813,1.049,7.347,2.663,10.639,4.861c3.595,2.401,6.441,5.799,10.368,7.723
	c4.402,2.156,9.592,2.526,13.944,0.003c3.802-2.205,4.956-5.794,7.676-8.887c5.075-5.768,15.196,0.631,20.41,2.821
	c3.927,1.651,8.807-1.458,10.242-5.026c1.581-3.93,0.281-8.665-3.552-10.842C1238.898,444.169,1228.199,440.99,1218.647,443.954z"/>
<path style="fill:#B95841;" d="M1260,379.58c2.346,0.612,4.747,0.284,7.426-0.284l0.115-0.051l0.375,0.035l0.852,0.029l0.881,0.182
	l0.682,0.262l0.719,0.434l0.637,0.572c0.932,0.874,1.796,1.803,2.674,2.73c1.822,1.925,3.848,3.643,6.062,5.106
	c4.31,2.847,9.274,4.282,14.353,4.875c4.938,0.577,12.827,0.318,16.311-3.684c3.273-3.761,2.619-11.235-3.237-12.261
	c-2.153-0.377-3.857-0.272-5.943,0.309c-0.549,0.153-1.105,0.282-1.663,0.394l-0.916,0.095c-0.948,0.048-1.887,0.117-2.843,0.077
	c-0.456-0.019-0.911-0.075-1.368-0.094c1.627,0.067-0.406-0.081-0.693-0.141c-1.007-0.21-2.001-0.483-2.975-0.815l-0.764-0.286
	l-1.192-0.595c-0.501-0.272-0.994-0.559-1.474-0.867l-0.905-0.634l-0.815-0.711c-0.467-0.435-0.911-0.893-1.355-1.35
	c-4.201-4.319-8.828-7.365-15.041-7.496c-5.621-0.118-13.398,2.945-13.368,9.617C1256.544,377.078,1257.992,379.057,1260,379.58z"/>
<path style="fill:#B95841;" d="M1231.256,508.528c-1.974,2.495-0.262,7.638,3.573,6.137c4.62-1.809,9.942-2.293,14.879-2.455
	c4.981-0.164,9.905,1.085,13.978,4.03c4.307,3.114,7.74,7.12,12.734,9.24c5.339,2.265,11.196,1.872,16.195-1.123
	c3.266-1.956,5.79-6.434,9.38-7.662c2.532-0.866,5.833,0.992,8.299,2.292c8.486,4.475,17.352,10.996,27.464,9.042
	c7.75-1.498,7.751-14.162,0-15.664c-4.32-0.837-7.809-1.585-11.753-3.719c-4.356-2.358-8.54-4.938-13.152-6.789
	c-4.519-1.813-9.411-2.582-14.222-1.523c-5.429,1.195-9.091,4.847-13.086,8.39c-0.678,0.603-2.536,2.023-2.583,2.025
	c-2.245,0.038-5.148-2.883-6.814-4.134c-4.543-3.411-9.248-6.23-14.868-7.503C1249.665,496.481,1238.787,499.015,1231.256,508.528z"
	/>
<path style="fill:#B95841;" d="M1331.64,456.79c1.21-0.267,2.667-0.303,4.528-0.184c0.334,0.045,0.845,0.112,1.673,0.216
	l1.225-0.069c0.929-0.037,1.844,0.055,2.768,0.056l0.043-0.009l0.11,0.033c0.498,0.12,1.001,0.211,1.497,0.344l1.179,0.352
	l0.494,0.181c0.726,0.352,1.441,0.719,2.122,1.155l0.514,0.35l0.931,0.834c3.494,3.368,6.093,7.295,10.201,10.039
	c5.16,3.446,11.473,4.092,16.964,1.088c3.406-1.863,4.643-6.273,3.186-9.725c-1.457-3.452-5.453-5.663-9.188-4.51l-0.23,0.104
	l-1.006-0.035l-0.022-0.007l-0.913-0.321l-0.726-0.391l-0.579-0.39l-0.737-0.658l-1.274-1.256c-3.296-3.38-6.427-6.946-10.765-9.037
	c-4.237-2.042-8.921-3.209-13.648-2.994c-2.878,0.13-5.428,0.81-7.877,2.329c-1.917,1.19-3.715,2.652-5.234,4.32
	C1323.539,452.274,1326.819,457.851,1331.64,456.79z"/>
<path style="fill:#B95841;" d="M1379.321,553.484c-2.851,1.972-4.631,4.729-4.829,8.229c-0.188,3.324,4.959,4.828,6.428,1.741
	l0.391-0.735c0.028-0.054,0.016-0.053,0.015-0.066c0.03-0.024,0.032-0.02,0.085-0.068l0.33-0.284l0.346-0.214l0.016-0.012
	l0.749-0.216l0.112-0.059l0.258-0.026l1.314-0.246l0.036-0.014l0.811-0.054c0.622-0.021,1.233,0.029,1.853,0.05l0.047-0.002
	l0.811,0.153c0.595,0.129,1.184,0.29,1.761,0.483c0.709,0.237,1.398,0.531,2.09,0.815l0.224,0.093
	c0.765,0.324,1.53,0.65,2.296,0.969c1.558,0.651,3.112,1.264,4.763,1.636c4.383,0.988,12.613,1.374,13.703-4.545
	c0.456-2.481-0.358-4.47-2.403-5.906c-1.603-1.125-3.553-1.05-5.37-0.627l-0.753,0.174l-0.9,0.031l-0.915-0.063l-0.839-0.162
	c-0.943-0.211-1.882-0.462-2.814-0.718c-3.471-0.952-6.764-2.175-10.396-2.372C1385.5,551.303,1381.879,551.716,1379.321,553.484z"
	/>
<path style="fill:#B95841;" d="M1459.201,626.537h0.061l-0.036,0.038l-0.055,0.057l0.065-0.029l0.139-0.062l0.244,0.008l0.986,0.133
	l0.117,0.013l-0.184-0.058l0.256,0.067c0.521,0.057,0.315,0.049,0.038,0.009l0.696,0.174l0.204,0.07l0.69,0.362l0.865,0.567
	l0.088,0.06l1.826,1.642c1.507,1.451,2.994,2.848,4.669,4.11c3.352,2.526,7.804,3.84,11.939,2.549
	c2.013-0.628,3.885-1.723,5.387-3.204c2.202-2.172,2.481-5.244,2.026-8.119c-0.341-2.149-2.7-3.754-4.664-4.018
	c-1.886-0.253-3.48,0.443-4.73,1.698l-0.348,0.197l-0.743,0.581l-0.321,0.182l0.168-0.062l-0.03,0.023l-0.167,0.055l-0.309,0.175
	h-0.007l-0.002,0.002h0.007l-0.096,0.054l0,0l0.089-0.054l-0.346,0.007l-0.016,0.004l-0.155,0l-0.01-0.007l0.064,0l-0.15-0.051
	l-0.962-0.519l-1.044-0.685l-0.262-0.174l-0.683-0.543c-0.952-0.762-1.906-1.519-2.88-2.254c-2.842-2.145-6.238-3.458-9.855-3.249
	c-3.944,0.229-7.64,2.621-8.601,6.633C1452.295,626.569,1456.456,628.774,1459.201,626.537z"/>
<path style="fill:#B95841;" d="M1206.429,351.49c0.954,0.553,1.984,0.832,3.088,0.835c1.104-0.003,2.134-0.281,3.089-0.835
	c0.919-0.544,1.651-1.276,2.195-2.196l0.665-1.115c1.257-2.112,1.237-4.841,0-6.954c-1.226-2.095-3.52-3.412-5.948-3.412
	c-2.428,0-4.722,1.317-5.948,3.412c-1.236,2.113-1.257,4.841,0,6.954l0.665,1.115C1204.778,350.214,1205.51,350.945,1206.429,351.49
	z"/>
<path style="fill:#B95841;" d="M1228.13,381.385c-9.163,0-9.178,14.241,0,14.241C1237.294,395.627,1237.309,381.385,1228.13,381.385
	z"/>
<path style="fill:#B95841;" d="M1187.907,413.716c-0.642-0.373-1.335-0.56-2.078-0.562c-0.564,0.008-1.128,0.016-1.692,0.023
	c-0.512,0.069-1.025,0.138-1.538,0.207c-0.461,0.194-0.921,0.389-1.382,0.583c-0.673,0.364-1.215,0.861-1.623,1.491
	c-0.359,0.361-0.607,0.786-0.744,1.276c-0.261,0.452-0.393,0.939-0.395,1.461c-0.138,0.512-0.138,1.025,0,1.538
	c0.001,0.522,0.134,1.009,0.395,1.46c0.234,0.717,0.633,1.338,1.197,1.862l1.17,0.905c0.461,0.194,0.922,0.389,1.382,0.583
	c0.513,0.069,1.025,0.138,1.538,0.207l1.539-0.207c0.461-0.194,0.921-0.389,1.381-0.583c0.675-0.363,1.216-0.861,1.624-1.49
	c0.358-0.361,0.606-0.787,0.744-1.277c0.362-0.69,0.528-1.432,0.498-2.229c0.008-0.564,0.016-1.128,0.023-1.692
	c0.021-0.567-0.097-1.095-0.355-1.586c-0.166-0.51-0.449-0.952-0.851-1.324L1187.907,413.716z"/>
<path style="fill:#B95841;" d="M1257.408,423.526l1.306,1.01c1.007,0.584,2.093,0.878,3.257,0.88
	c0.889,0.033,1.717-0.152,2.486-0.556c0.8-0.26,1.492-0.705,2.077-1.335c0.629-0.584,1.074-1.276,1.335-2.076
	c0.404-0.77,0.589-1.598,0.556-2.487c-0.077-0.572-0.154-1.144-0.231-1.715c-0.306-1.094-0.859-2.043-1.659-2.848l-1.306-1.009
	c-1.007-0.584-2.092-0.878-3.257-0.881c-0.888-0.033-1.718,0.152-2.487,0.556c-0.8,0.26-1.492,0.705-2.077,1.335
	c-0.629,0.584-1.074,1.277-1.334,2.077c-0.404,0.769-0.59,1.598-0.556,2.486c0.076,0.572,0.153,1.144,0.23,1.715
	C1256.055,421.772,1256.608,422.721,1257.408,423.526z"/>
<path style="fill:#B95841;" d="M1285.252,449.405c-0.919-0.534-1.912-0.802-2.976-0.806c-1.065,0.003-2.057,0.272-2.977,0.806
	c-1.793,1.049-2.921,3.012-2.921,5.091c0,2.079,1.127,4.042,2.921,5.091c0.92,0.534,1.912,0.802,2.977,0.805
	c1.064-0.003,2.056-0.271,2.976-0.805l1.187-0.864c0.735-0.435,1.321-1.021,1.756-1.757c0.443-0.763,0.666-1.587,0.668-2.471
	c-0.002-0.884-0.226-1.708-0.668-2.471c-0.435-0.736-1.02-1.321-1.756-1.757L1285.252,449.405z"/>
<path style="fill:#B95841;" d="M1199.167,491.919c-0.465-0.359-0.93-0.719-1.396-1.079c-1.076-0.624-2.236-0.938-3.481-0.942
	c-0.95-0.035-1.836,0.162-2.658,0.594c-0.855,0.278-1.595,0.753-2.22,1.426c-0.673,0.625-1.148,1.365-1.426,2.22
	c-0.432,0.822-0.63,1.708-0.594,2.658c0.082,0.611,0.164,1.222,0.246,1.834c0.328,1.168,0.919,2.183,1.774,3.044
	c0.465,0.359,0.931,0.719,1.396,1.079c1.075,0.624,2.236,0.938,3.481,0.941c0.949,0.036,1.836-0.162,2.657-0.594
	c0.856-0.278,1.596-0.753,2.22-1.426c0.673-0.625,1.149-1.365,1.427-2.22c0.432-0.823,0.63-1.709,0.594-2.658
	c-0.082-0.611-0.165-1.222-0.246-1.834C1200.613,493.795,1200.022,492.78,1199.167,491.919z"/>
<path style="fill:#B95841;" d="M1207.826,524.964c-7.302,0-7.314,11.349,0,11.349
	C1215.128,536.313,1215.141,524.964,1207.826,524.964z"/>
<path style="fill:#B95841;" d="M1377.649,499.198c0.39-0.742,0.568-1.543,0.536-2.401c-0.074-0.552-0.148-1.104-0.223-1.656
	c-0.296-1.055-0.83-1.972-1.603-2.749l-1.261-0.975c-0.972-0.563-2.02-0.847-3.144-0.851c-0.858-0.032-1.658,0.147-2.401,0.536
	c-0.773,0.251-1.441,0.681-2.006,1.289c-0.608,0.564-1.037,1.232-1.288,2.005c-0.391,0.742-0.569,1.543-0.537,2.401l0.222,1.656
	c0.296,1.056,0.83,1.972,1.602,2.749l1.261,0.974c0.972,0.564,2.02,0.847,3.145,0.851c0.857,0.032,1.658-0.146,2.4-0.536
	c0.773-0.251,1.441-0.681,2.005-1.289C1376.968,500.638,1377.396,499.97,1377.649,499.198z"/>
<path style="fill:#B95841;" d="M1383.798,525.048c0.946,0,1.684-0.294,2.325-0.692l0.088,0.114l0.652,0.504l0.769,0.324l0.856,0.115
	l0.856-0.115l0.769-0.324l0.651-0.504l0.666-1.036l0.219-0.812v-0.856l-0.219-0.813l-0.413-0.71l-0.578-0.577l-0.711-0.414
	l-0.812-0.219l-0.943,0.042c-0.487-1.72-1.854-3.15-4.175-3.15C1377.928,515.924,1377.918,525.048,1383.798,525.048z"/>
<path style="fill:#B95841;" d="M1172.813,264.811c0.885,0.513,1.839,0.771,2.864,0.775c1.024-0.004,1.979-0.262,2.864-0.775
	l1.243-0.769c0.718-0.426,1.291-0.997,1.716-1.717c0.432-0.745,0.651-1.55,0.653-2.414c-0.003-0.864-0.221-1.669-0.653-2.415
	c-0.425-0.719-0.998-1.291-1.716-1.716l-1.243-0.769c-0.885-0.513-1.84-0.771-2.864-0.774c-1.025,0.003-1.979,0.261-2.864,0.774
	c-1.726,1.01-2.81,2.9-2.81,4.9C1170.003,261.911,1171.087,263.801,1172.813,264.811z"/>
<path style="fill:#B95841;" d="M1187.916,286.589l0.856,0.661l1.009,0.427c0.562,0.176,1.125,0.201,1.686,0.075l1.067-0.288
	c0.524-0.17,0.977-0.461,1.36-0.875l0.661-0.855l0.426-1.01c0.202-0.749,0.202-1.498,0-2.248l-0.17-0.988l-0.662-1.134l-1.135-0.661
	l-0.987-0.17c-0.562-0.176-1.124-0.201-1.686-0.075l-1.067,0.289c-0.523,0.17-0.977,0.462-1.361,0.874l-0.661,0.856l-0.426,1.01
	c-0.176,0.562-0.202,1.124-0.076,1.686l0.289,1.067C1187.213,285.753,1187.504,286.207,1187.916,286.589z"/>
<path style="fill:#B95841;" d="M1213.765,273.996l0.196,0.432c0.28,0.617,0.56,1.235,0.84,1.852c0.342,0.635,0.811,1.145,1.404,1.53
	c0.526,0.481,1.144,0.807,1.854,0.976c0.724,0.227,1.449,0.259,2.174,0.097c0.725-0.033,1.401-0.248,2.027-0.647l1.104-0.853
	c0.675-0.68,1.143-1.482,1.402-2.405c0.065-0.483,0.13-0.966,0.195-1.449c-0.003-0.984-0.251-1.901-0.744-2.752
	c-0.321-0.58-0.642-1.161-0.963-1.741l-0.245-0.443c-0.499-0.903-1.191-1.662-2.093-2.186c-0.709-0.412-1.194-0.521-1.892-0.659
	l-1.213-0.163c-0.628-0.023-1.214,0.107-1.758,0.393l-1.007,0.586c-0.496,0.322-0.888,0.749-1.174,1.28
	c-0.265,0.557-0.603,1.176-0.757,1.736c-0.123,0.486-0.187,0.977-0.191,1.472c0.003,0.964,0.246,1.863,0.729,2.696L1213.765,273.996
	z"/>
<path style="fill:#B95841;" d="M1165.524,223.641c5.585,0,5.594-8.678,0-8.678C1159.941,214.962,1159.932,223.641,1165.524,223.641z
	"/>
<path style="fill:#B95841;" d="M1123.223,220.592c6.014,0,6.024-9.346,0-9.346C1117.21,211.245,1117.2,220.592,1123.223,220.592z"/>
<path style="fill:#B95841;" d="M1006.473,285c6.156,0,6.167-9.569,0-9.569C1000.316,275.432,1000.305,285,1006.473,285z"/>
<path style="fill:#B95841;" d="M1055.079,294.172c-0.228-0.811-0.637-1.514-1.23-2.111l-0.968-0.748
	c-0.746-0.433-1.551-0.651-2.415-0.653c-0.659-0.025-1.273,0.112-1.843,0.412c-0.594,0.193-1.107,0.522-1.54,0.989
	c-0.466,0.433-0.796,0.946-0.989,1.54c-0.3,0.571-0.437,1.185-0.412,1.844l0.171,1.272c0.227,0.81,0.638,1.514,1.23,2.111
	l0.969,0.748c0.746,0.432,1.551,0.65,2.415,0.653c0.659,0.025,1.273-0.112,1.843-0.412c0.593-0.193,1.106-0.522,1.54-0.989
	c0.467-0.434,0.796-0.947,0.989-1.54c0.299-0.57,0.437-1.184,0.412-1.843L1055.079,294.172z"/>
<path style="fill:#B95841;" d="M1079.23,301.59c-5.154,0-5.163,8.011,0,8.011C1084.385,309.602,1084.393,301.59,1079.23,301.59z"/>
<path style="fill:#B95841;" d="M1025.085,375.48c5.011,0,5.02-7.788,0-7.788C1020.074,367.692,1020.065,375.48,1025.085,375.48z"/>
<path style="fill:#B95841;" d="M1009.857,315.123c5.727,0,5.736-8.901,0-8.901C1004.129,306.222,1004.12,315.123,1009.857,315.123z"
	/>
<path style="fill:#B95841;" d="M1089.791,334.377c0.92,0.533,1.912,0.802,2.976,0.805c0.812,0.031,1.57-0.139,2.272-0.507
	c0.731-0.238,1.363-0.645,1.897-1.219c0.575-0.534,0.982-1.167,1.219-1.898c0.369-0.703,0.539-1.46,0.508-2.272
	c-0.071-0.522-0.141-1.045-0.211-1.568c-0.28-0.999-0.786-1.867-1.517-2.602l-1.193-0.922c-0.919-0.534-1.912-0.802-2.976-0.806
	c-0.812-0.03-1.569,0.139-2.272,0.508c-0.731,0.238-1.364,0.644-1.898,1.219c-0.575,0.534-0.981,1.166-1.219,1.898
	c-0.369,0.703-0.538,1.46-0.507,2.272c0.07,0.522,0.14,1.045,0.211,1.567c0.28,0.999,0.785,1.867,1.516,2.603L1089.791,334.377z"/>
<path style="fill:#B95841;" d="M1090.218,452.051l0.823-0.384c2.983-1.393,2.983-6.485,0-7.878l-0.823-0.384
	C1080.783,438.999,1080.783,456.456,1090.218,452.051z"/>
<path style="fill:#B95841;" d="M1121.532,489.543c-7.159,0-7.171,11.126,0,11.126
	C1128.691,500.669,1128.702,489.543,1121.532,489.543z"/>
<path style="fill:#B95841;" d="M1083.427,528.133l-1.299-1.004c-1.002-0.581-2.082-0.873-3.241-0.877l-0.026,0.002
	c-1.163,0.003-2.248,0.297-3.253,0.881c-0.968,0.573-1.739,1.344-2.312,2.312c-0.251,0.551-0.501,1.104-0.752,1.655
	c-0.195,0.461-0.389,0.922-0.583,1.382c-0.241,0.769-0.276,1.538-0.103,2.307c0.001,0.522,0.133,1.009,0.395,1.46
	c0.234,0.717,0.633,1.338,1.197,1.862l1.171,0.905c0.46,0.194,0.921,0.389,1.382,0.583c0.769,0.241,1.538,0.276,2.307,0.103
	c0.77-0.035,1.487-0.264,2.151-0.687c0.552-0.25,1.104-0.501,1.655-0.752c0.968-0.573,1.739-1.344,2.313-2.312
	c0.583-1.006,0.877-2.091,0.88-3.254l0.001-0.026c0.033-0.884-0.151-1.709-0.553-2.474
	C1084.495,529.404,1084.053,528.715,1083.427,528.133z"/>
<path style="fill:#B95841;" d="M1009.463,551.337l-0.856-0.661c-0.659-0.383-1.37-0.575-2.134-0.577
	c-0.582-0.022-1.125,0.099-1.629,0.364c-0.524,0.17-0.978,0.461-1.36,0.874c-0.413,0.383-0.705,0.836-0.875,1.361
	c-0.265,0.503-0.386,1.046-0.364,1.628l0.151,1.124c0.201,0.716,0.563,1.338,1.088,1.866l0.855,0.661
	c0.659,0.382,1.371,0.575,2.134,0.577c0.582,0.023,1.125-0.099,1.629-0.364c0.524-0.17,0.977-0.461,1.361-0.874
	c0.412-0.383,0.703-0.837,0.874-1.361c0.265-0.504,0.387-1.047,0.365-1.629l-0.151-1.124
	C1010.349,552.486,1009.986,551.865,1009.463,551.337z"/>
<path style="fill:#B95841;" d="M943.867,507.441c-3.723,0-3.729,5.786,0,5.786C947.59,513.227,947.595,507.441,943.867,507.441z"/>
<path style="fill:#B95841;" d="M977.708,466.855c-5.87,0-5.88,9.123,0,9.123C983.579,475.978,983.588,466.855,977.708,466.855z"/>
<path style="fill:#B95841;" d="M910.026,481.142c8.162,0,8.175-12.684,0-12.684C901.865,468.458,901.852,481.142,910.026,481.142z"
	/>
<path style="fill:#B95841;" d="M910.026,401.973c6.443,0,6.454-10.014,0-10.014C903.583,391.96,903.572,401.973,910.026,401.973z"/>
<path style="fill:#B95841;" d="M962.48,380.779c5.297,0,5.306-8.233,0-8.233C957.182,372.545,957.173,380.779,962.48,380.779z"/>
<path style="fill:#B95841;" d="M977.708,403.332c6.014,0,6.024-9.346,0-9.346C971.694,393.986,971.684,403.332,977.708,403.332z"/>
</svg>
