<?xml version="1.0" encoding="UTF-8"?>
<svg xmlns="http://www.w3.org/2000/svg" xmlns:xlink="http://www.w3.org/1999/xlink" width="2500" height="2500" viewBox="0 0 2500 2500">
<path fill-rule="evenodd" fill="rgb(26.390076%, 55.46875%, 4.598999%)" fill-opacity="1" d="M 1351.800781 474.230469 C 1357.179688 515.058594 1334.949219 547.390625 1264.96875 602.378906 C 1154.171875 689.441406 1022.03125 684.871094 913.667969 636.988281 C 881.285156 622.691406 690.375 615.140625 690.375 615.140625 C 690.375 615.140625 862.566406 421.339844 884 403.320312 C 1003.320312 302.96875 1151.320312 325.179688 1232.738281 357.390625 C 1310.859375 388.300781 1346.429688 433.398438 1351.800781 474.230469 "/>
<path fill-rule="evenodd" fill="rgb(47.192383%, 69.921875%, 30.101013%)" fill-opacity="1" d="M 1187.929688 465.429688 L 1190.890625 473.21875 C 1193.328125 479.011719 1197.179688 481.109375 1200.109375 481.660156 C 1204.25 482.429688 1207.96875 481.191406 1210.289062 478.539062 C 1212.230469 476.328125 1213.679688 473.300781 1213.019531 469.628906 C 1212.648438 467.578125 1211.828125 464.988281 1209.308594 462.660156 C 1208.011719 461.449219 1206.679688 460.148438 1205.300781 458.789062 L 1204.96875 457.921875 L 1204.570312 458.078125 C 1199.878906 453.429688 1194.660156 448.089844 1188.480469 442.871094 C 1183.621094 438.761719 1178.230469 434.699219 1172.089844 431.101562 C 1163.238281 425.980469 1152.199219 420.410156 1141.460938 414.101562 C 1134.871094 410.21875 1128.421875 406.121094 1122.738281 401.480469 C 1112.519531 393.140625 1104.789062 383.421875 1103.75 370.738281 L 1103.75 369.78125 L 1101.839844 369.78125 L 1101.839844 370.738281 C 1100.691406 384.710938 1107.21875 396.808594 1117.03125 407.519531 C 1122.339844 413.328125 1128.660156 418.578125 1135.238281 423.46875 C 1145.28125 430.929688 1155.949219 437.300781 1164.339844 443.210938 C 1169.449219 446.761719 1173.839844 450.671875 1177.808594 454.570312 C 1181.539062 458.25 1184.871094 461.941406 1187.929688 465.429688 "/>
<path fill-rule="evenodd" fill="rgb(47.192383%, 69.921875%, 30.101013%)" fill-opacity="1" d="M 1050.488281 473.410156 C 1039.148438 476.238281 1027.339844 474.359375 1016.101562 470.269531 C 996.527344 463.160156 978.589844 449.839844 967.410156 439.710938 C 963.664062 436.5 955.6875 427.699219 948.960938 419.730469 C 943.253906 412.960938 938.359375 407.03125 938.214844 405.429688 L 938.214844 404.46875 L 936.300781 404.46875 L 936.300781 405.429688 C 936.144531 407.148438 939.828125 414.558594 944.671875 422.769531 C 950.25 432.210938 957.261719 442.550781 960.628906 446.488281 C 966.414062 452.960938 974.113281 460.660156 983.199219 467.859375 C 991.292969 474.28125 1000.488281 480.140625 1010.171875 484.609375 C 1024.21875 491.101562 1039.390625 494.140625 1054.300781 491.609375 L 1063.398438 489.699219 L 1059.589844 471.5 L 1050.488281 473.410156 "/>
<path fill-rule="evenodd" fill="rgb(47.192383%, 69.921875%, 30.101013%)" fill-opacity="1" d="M 1277.070312 466.269531 C 1271.800781 470.21875 1262.789062 478.21875 1253.570312 487.269531 C 1245.96875 494.730469 1238.210938 502.839844 1232.269531 509.789062 C 1220.519531 523.878906 1212.171875 536.890625 1206.769531 548.71875 C 1197.589844 568.800781 1196.25 584.628906 1196.988281 593.769531 L 1196.988281 594.730469 L 1198.910156 594.730469 L 1198.910156 593.769531 C 1199.53125 586.378906 1202.609375 574.878906 1210.449219 560.660156 C 1213.488281 555.128906 1217.28125 549.289062 1221.890625 543.039062 C 1227.421875 535.519531 1234.128906 527.511719 1242.511719 519.261719 C 1248.710938 513.070312 1256.75 505.929688 1264.558594 499.359375 C 1273.699219 491.671875 1282.53125 484.839844 1287.660156 481.558594 L 1295.300781 476.269531 L 1284.71875 460.980469 L 1277.070312 466.269531 "/>
<path fill-rule="evenodd" fill="rgb(47.192383%, 69.921875%, 30.101013%)" fill-opacity="1" d="M 1092.21875 476.039062 C 1088.679688 478.75 1084.378906 484.148438 1080.300781 491.921875 C 1072.660156 506.480469 1064.101562 529.800781 1057.511719 553.578125 C 1053.730469 567.21875 1050.53125 580.921875 1048.398438 593.101562 C 1044.660156 614.46875 1044.199219 630.960938 1047.570312 634.070312 L 1048.21875 634.769531 L 1049.628906 633.46875 L 1048.980469 632.769531 C 1046.308594 629.390625 1050.261719 614.449219 1056.398438 595.058594 C 1060.070312 583.5 1064.609375 570.488281 1069.53125 557.519531 C 1076.609375 538.878906 1084.390625 520.449219 1091.679688 507.121094 C 1095.960938 499.289062 1099.691406 493.378906 1103 491.199219 L 1110.570312 485.808594 L 1099.789062 470.660156 L 1092.21875 476.039062 "/>
<path fill-rule="evenodd" fill="rgb(47.192383%, 69.921875%, 30.101013%)" fill-opacity="1" d="M 928.390625 525.101562 C 929.976562 529.339844 929.195312 534.578125 927.429688 540.398438 C 923.890625 552.050781 916.601562 565.199219 910.144531 577.96875 C 907.417969 583.359375 904.898438 588.628906 902.773438 593.699219 C 898.496094 603.898438 895.859375 612.878906 896.648438 619.539062 L 896.648438 620.5 L 898.566406 620.5 L 898.566406 619.539062 C 899.300781 613.351562 903.921875 605.988281 909.789062 597.550781 C 912.859375 593.140625 916.269531 588.570312 919.710938 583.761719 C 928.609375 571.320312 937.613281 557.980469 942.777344 546.03125 C 946.984375 536.289062 948.101562 527.148438 946.125 519.511719 L 943.328125 510.640625 L 925.59375 516.238281 L 928.390625 525.101562 "/>
<path fill-rule="evenodd" fill="rgb(47.192383%, 69.921875%, 30.101013%)" fill-opacity="1" d="M 1431.429688 464.148438 C 1428.148438 464.21875 1358.019531 459.75 1267.058594 459.5 C 1215.648438 459.359375 1157.671875 460.589844 1101.25 464.601562 C 1067.71875 467.101562 1035.960938 473.441406 1007.039062 481.800781 C 948.949219 498.578125 902.507812 522.578125 875.394531 533.230469 C 831.9375 550.648438 813.78125 568.351562 795.898438 576.480469 C 789.335938 579.460938 782.828125 581.078125 775.007812 580.789062 L 773.203125 580.671875 L 772.953125 584.269531 L 774.753906 584.398438 C 783.261719 585.269531 790.457031 583.921875 797.835938 581.171875 C 816.035156 574.390625 835.242188 558.300781 879.363281 544.308594 C 906.722656 535.429688 954.035156 515.019531 1012.160156 501.410156 C 1040.089844 494.871094 1070.519531 489.808594 1102.550781 488.761719 C 1158.398438 486.730469 1215.710938 487.578125 1266.488281 489.390625 C 1357.941406 492.648438 1428.339844 499.179688 1431.640625 499.210938 L 1449.171875 499.109375 L 1448.960938 464.050781 L 1431.429688 464.148438 "/>
<path fill-rule="evenodd" fill="rgb(59.568787%, 37.205505%, 23.094177%)" fill-opacity="1" d="M 1243.261719 1005.269531 L 1237.949219 1007.261719 L 1245.019531 1026.089844 L 1254.429688 1022.558594 C 1256.75 1021.910156 1259.328125 1019.671875 1261.621094 1015.800781 C 1264.710938 1010.570312 1267.601562 996.269531 1268.570312 993.078125 C 1277.519531 963.609375 1252.46875 932.199219 1285.960938 849.949219 C 1303.75 806.28125 1338.648438 749.53125 1403.898438 669.78125 C 1457.53125 604.230469 1501.109375 554.03125 1535.460938 515.601562 C 1595.570312 448.339844 1625.21875 421.539062 1625.21875 421.539062 L 1675.558594 365.941406 L 1564.359375 265.269531 L 1514.019531 320.871094 C 1514.019531 320.871094 1486.808594 355.558594 1434.480469 440.140625 C 1406.71875 485.011719 1371.761719 543.378906 1329.398438 619.03125 C 1274.53125 717.019531 1248.378906 784.789062 1237.601562 835.039062 C 1217.800781 927.308594 1248.730469 955.601562 1244.828125 988.089844 C 1244.578125 990.210938 1243.628906 1001.078125 1243.261719 1005.269531 "/>
<path fill-rule="evenodd" fill="rgb(100%, 14.208984%, 0%)" fill-opacity="1" d="M 1253.25 842.441406 C 1320.570312 842.441406 1608.621094 651.980469 1853.769531 829.03125 C 2045.171875 967.269531 2054.578125 1267.269531 1993.808594 1510.695312 C 1918.261719 1813.335938 1794.050781 2031.894531 1566.5 2115.554688 C 1458.519531 2155.257812 1364.351562 2093.140625 1253.25 2092.058594 C 1144.339844 2091 1062.300781 2141.285156 938.96875 2089.347656 C 715.890625 1995.402344 570.128906 1777.84375 504.773438 1510.695312 C 442.640625 1256.71875 459.355469 948.300781 664.484375 823.308594 C 948.628906 650.171875 1192.480469 842.441406 1253.25 842.441406 "/>
<path fill-rule="evenodd" fill="rgb(100%, 40.696716%, 31.005859%)" fill-opacity="1" d="M 850.269531 1894.066406 C 858.472656 1903.15625 862.191406 1899.382812 858.597656 1889.214844 C 859.226562 1887.5625 859.277344 1885.433594 858.066406 1882.765625 C 857.128906 1880.695312 854.566406 1876.34375 849.851562 1869.601562 C 848.808594 1867.9375 847.15625 1866.890625 845.359375 1866.59375 C 824.359375 1834.742188 779.78125 1757.15625 742.839844 1663.570312 C 722.335938 1611.632812 704.535156 1554.90625 694.558594 1498.359375 C 682.066406 1427.570312 680.9375 1364.101562 684.671875 1310.210938 C 691.898438 1205.988281 719.320312 1141.109375 721.046875 1138.050781 C 733.320312 1113.429688 723.292969 1083.46875 698.671875 1071.199219 C 674.046875 1058.929688 644.09375 1068.960938 631.820312 1093.578125 C 630.089844 1097.550781 600.957031 1180.128906 605.308594 1308.808594 C 607.296875 1367.621094 615.535156 1436.289062 637.003906 1511.605469 C 662.570312 1601.304688 707.671875 1689.691406 749.992188 1758.855469 C 794.539062 1831.65625 835.171875 1882.714844 844.277344 1890.953125 C 846.480469 1892.945312 848.574219 1893.789062 850.269531 1894.066406 "/>
</svg>
