<?xml version="1.0" encoding="utf-8"?>
<!-- Generator: Adobe Illustrator 27.5.0, SVG Export Plug-In . SVG Version: 6.00 Build 0)  -->
<svg version="1.1" xmlns="http://www.w3.org/2000/svg" xmlns:xlink="http://www.w3.org/1999/xlink" x="0px" y="0px"
	 viewBox="0 0 500 500" style="enable-background:new 0 0 500 500;" xml:space="preserve">
<g id="Background">
	<rect style="fill:#FFF8E9;" width="500" height="500"/>
</g>
<g id="Objects">
	<g>
		<g>
			<g>
				<g>
					<rect x="397.528" y="301.305" style="fill:#F4E4CB;" width="57.167" height="25.408"/>
					<rect x="426.11" y="334.978" style="fill:#F4E4CB;" width="57.17" height="25.408"/>
				</g>
				<g>
					<rect x="80.528" y="35.352" style="fill:#F4E4CB;" width="57.167" height="25.408"/>
					<rect x="109.11" y="69.025" style="fill:#F4E4CB;" width="57.17" height="25.408"/>
				</g>
				<g>
					<rect x="239.8" y="239.712" style="fill:#F4E4CB;" width="57.17" height="25.411"/>
					<rect x="266.996" y="269.355" style="fill:#F4E4CB;" width="57.167" height="25.408"/>
				</g>
				<rect x="419.171" y="165.181" style="fill:#F4E4CB;" width="57.167" height="25.411"/>
				<rect x="419.169" y="29.382" style="fill:#F4E4CB;" width="57.17" height="25.41"/>
				<rect x="190.048" y="113.082" style="fill:#F4E4CB;" width="57.168" height="25.405"/>
				<rect x="331.24" y="378.082" style="fill:#F4E4CB;" width="57.168" height="25.406"/>
				<g>
					<rect x="190.049" y="170.146" style="fill:#F4E4CB;" width="57.167" height="25.41"/>
					<rect x="252.784" y="170.146" style="fill:#F4E4CB;" width="57.167" height="25.41"/>
				</g>
				<g>
					<rect x="235.234" y="19.346" style="fill:#F4E4CB;" width="57.167" height="25.408"/>
					<rect x="262.428" y="48.99" style="fill:#F4E4CB;" width="57.17" height="25.405"/>
					<rect x="298.756" y="19.346" style="fill:#F4E4CB;" width="57.17" height="25.408"/>
				</g>
				<g>
					<rect x="179.454" y="305.438" style="fill:#F4E4CB;" width="57.167" height="25.408"/>
					<rect x="206.647" y="335.082" style="fill:#F4E4CB;" width="57.17" height="25.405"/>
					<rect x="242.976" y="305.438" style="fill:#F4E4CB;" width="57.17" height="25.408"/>
				</g>
			</g>
			<g>
				<g>
					<rect x="313.851" y="72.387" style="fill:#F4E4CB;" width="142.605" height="229.207"/>
				</g>
				<g>
					<polygon style="fill:#FFF8E9;" points="313.851,191.557 384.485,72.387 360.085,72.387 313.851,150.389 					"/>
					<polygon style="fill:#FFF8E9;" points="456.456,92.198 456.456,72.387 409.551,72.387 313.851,233.852 313.851,301.59 
						328.878,301.59 					"/>
				</g>
				<g>
					<path style="fill:#EAD1B0;" d="M444.679,80.359v213.259h-119.05V80.359H444.679 M464.144,60.893H306.167v252.192h157.977
						V60.893L464.144,60.893z"/>
					<rect x="306.167" y="150.328" style="fill:#EAD1B0;" width="157.975" height="6.507"/>
					<rect x="306.167" y="217.117" style="fill:#EAD1B0;" width="157.975" height="6.502"/>
					<rect x="381.902" y="66.539" style="fill:#EAD1B0;" width="6.507" height="240.105"/>
				</g>
			</g>
		</g>
		<g>
			<defs>
				<rect id="SVGID_1_" width="500" height="500"/>
			</defs>
			<clipPath id="SVGID_00000101816153533907812230000003348188894355753905_">
				<use xlink:href="#SVGID_1_"  style="overflow:visible;"/>
			</clipPath>
			<g style="clip-path:url(#SVGID_00000101816153533907812230000003348188894355753905_);">
				<g>
					<g>
						<g>
							<path style="fill:#F9AE2E;" d="M94.727,239.418c0,0,39.448-6.492,58.423-36.952c16.371-26.278-10.854-57.682-10.854-57.682
								s4.132,33.784-17.37,29.797c-21.501-3.987,14.453-26.551,9.292-39.237c-5.161-12.687-19.143-25.336-15.812-33.658
								c3.328-8.322,9.508-25.415-3.9-38.008c0,0,2.662,15.909-0.803,21.112c-3.465,5.202-8.613,11.236-5.95,22.555
								c2.663,11.317-8.987,13.648-10.985,5.326s12.313-18.959,4.66-27.963c-7.652-9.005-14.031-17.113-8.474-25.875
								s24.749-20.001,3.296-36.844c0,0,6.842,14.782-7.805,24.437c-14.646,9.653-15.865,20.958-12.426,31.95
								c3.438,10.992,0.583,22.44-7.658,21.95c-8.242-0.489-4.105-10.958,0-22.275c4.105-11.319-12.326-18.916-12.326-18.916
								s9.13,19.997-3.531,26.78c-12.661,6.782-15.16,19.636-9.084,33.183c6.077,13.547-17.717,25.096-17.638,15.66
								c0.079-9.438,15.675-26.419,5.88-55.046c0,0-0.205,26.535-10.326,33.908c-10.121,7.373-11.641,20.337-6.554,34.494
								c5.087,14.157-0.326,31.467-6.44,27.806c-6.115-3.661-8.458-17.624-3.494-29.878c0,0-30.127,45.772-9.487,67.41
								C12.259,231.17,43.296,249.404,94.727,239.418z"/>
							<path style="fill:#F9AE2E;" d="M152.195,85.155c0,0,9.358-13.211,2.202-34.129c-7.156-20.919-2.202-27.524-2.202-27.524
								s-12.11,16.515-8.257,30.827C147.792,68.642,152.746,73.045,152.195,85.155z"/>
							<path style="fill:#F9AE2E;" d="M41.708,79.634c0,0,9.658-8.676,2.273-22.413c-7.387-13.738-2.273-18.076-2.273-18.076
								s-12.5,10.846-8.523,20.245C37.162,68.788,42.276,71.681,41.708,79.634z"/>
						</g>
						<g>
							<path style="fill:#FFDC48;" d="M90.628,227.214c0,0,19.247-5.241,22.828-32.709c0,0-8.729,11.952-11.414,3.774
								c-2.686-8.178,22.155-13.839,0-45.29c0,0,5.37,26.104-7.385,21.387c-12.756-4.718,8.056-34.597-21.148-51.266
								c0,0,1.763,18.366-9.314,28.431c-11.077,10.064-9.32,16.804-11.162,23.621c-3.357,12.424-10.07,6.447-11.078-10.851
								c0,0-23.387,40.677,5.707,60.387C65.747,236.951,90.628,227.214,90.628,227.214z"/>
							<path style="fill:#FFDC48;" d="M48.677,154.441c0,0,9.975-3.028,9.383-15.578c-0.592-12.55,4.602-13.967,4.602-13.967
								s-12.777,3.64-13.149,11.857C49.14,144.973,51.835,148.832,48.677,154.441z"/>
							<path style="fill:#FFDC48;" d="M88.645,130.105c0,0,8.467-6.079,3.863-17.77c-4.602-11.69-0.141-14.704-0.141-14.704
								s-10.924,7.561-8.63,15.461C86.032,120.993,89.826,123.777,88.645,130.105z"/>
						</g>
						<path style="fill:#F9AE2E;" d="M122.524,23.195c0,0,4.266,0,3.619-9.824c-0.477-7.242-8.744-16.029-1.787-28.438
							c0,0-7.852,5.29-10.123,12.15C110.209,9.234,109.469,26.557,122.524,23.195z"/>
					</g>
					<g>
						<g>
							<path style="fill:#F9AE2E;" d="M9.642,112.202c0,0-28.667-8.333-34-52c0,0,13,19,17,6s-33-22,0-72c0,0-8,41.5,11,34
								s-12-55,31.5-81.5c0,0-2.627,29.197,13.873,45.197s13.883,26.715,16.627,37.553c5,19.75,15,10.25,16.5-17.25
								c0,0,34.833,64.667-8.5,96C46.703,127.682,9.642,112.202,9.642,112.202z"/>
							<path style="fill:#F9AE2E;" d="M76.297-0.383c0,0-12.692-5.057-10.392-21.309c2.3-16.251-4.327-18.676-4.327-18.676
								s16.286,6.166,15.776,16.894C76.843-12.745,72.845-8.03,76.297-0.383z"/>
							<path style="fill:#F9AE2E;" d="M-1.754-30.755c0,0-4.389-0.943-1.551-10.908c2.092-7.345,12.543-14.557,8.129-28.863
								c0,0,6.908,7.181,7.728,14.74C14.003-42.395,10.935-24.409-1.754-30.755z"/>
						</g>
						<g>
							<path style="fill:#FFDC48;" d="M24.287,43.926c0,0-8.91-6.397-4.067-18.699c4.843-12.303,0.15-15.474,0.15-15.474
								s11.494,7.956,9.08,16.271C27.037,34.337,23.042,37.268,24.287,43.926z"/>
							<path style="fill:#FFDC48;" d="M29.152,104.346c0,0-21.183-10.308-12.113-34.241c9.07-23.933,20.651-17.192,16.579-39.924
								c0,0,17.201,9.09,14.523,31.108c-1.182,9.723,8.175,5.067,4.019-9.173c0,0,28.768,44.953-5.412,53.587
								C42.525,106.77,36.39,107.095,29.152,104.346z"/>
						</g>
					</g>
				</g>
				<g>
					<g>
						<g>
							<path style="fill:#A2D0E5;" d="M210.85,215.376c0,0-2.96-64.456-10.575-63.607c-9.638,1.074-2.065,31.385-9.292,22.808
								c-7.227-8.577-34.417-86.243-56.788-93.243s3.786,35.573,1.377,42.62C133.162,131,53.143,20.5,36.106,0H-0.031v193.341
								c0,0,81.223,5.326,82.601,9.659c1.376,4.333-34.49,4.368-28.566,15.977c5.162,10.116,59.54,3.741,86.041-0.285
								s-22.004,8.973-17.896,15.542C129.032,245.243,210.85,215.376,210.85,215.376z"/>
							<path style="opacity:0.5;fill:#7DB9D3;" d="M-0.031,28c0,0,149.148,146.59,146.959,126.355
								c-2.064-19.097-4.474-49.122,9.981-18.988c14.455,30.134,35.622,71.134,39.494,59.884c3.872-11.25,6.453-8.691,8.518,1.904
								s2.968,16.69,2.968,16.69s-39.623,11.409-44.01,7.032c-4.388-4.376,25.296-8.626,20.392-12.626c-4.905-4-89.183,7.25-83.44-2
								c5.744-9.25,48.076-7.246,42.14-13.998C137.034,185.5-0.031,148.89-0.031,148.89V28z"/>
							<path style="fill:#A2D0E5;" d="M112.442,44.146c7.627,11.665,10.731,23.009,6.936,25.337
								c-3.795,2.328-13.056-5.241-20.683-16.906c-7.626-11.665-10.731-23.009-6.937-25.336
								C95.555,24.912,104.815,32.48,112.442,44.146z"/>
							<path style="fill:#A2D0E5;" d="M24.206,214.272c11.671-1.288,21.473,0.557,21.892,4.119
								c0.419,3.563-8.703,7.495-20.374,8.784c-11.671,1.289-21.473-0.556-21.892-4.118
								C3.413,219.494,12.534,215.561,24.206,214.272z"/>
							<path style="fill:#A2D0E5;" d="M196.582,122.295c2.465,7.844,2.394,14.814-0.158,15.567
								c-2.553,0.752-6.621-4.997-9.087-12.841c-2.466-7.845-2.395-14.815,0.158-15.567
								C190.048,108.701,194.116,114.45,196.582,122.295z"/>
							<path style="fill:#A2D0E5;" d="M93.579,238.816c8.198-2.049,15.384-1.681,16.052,0.822c0.666,2.502-5.44,6.192-13.638,8.241
								c-8.198,2.049-15.385,1.681-16.051-0.821C79.275,244.555,85.38,240.865,93.579,238.816z"/>
							<path style="fill:#A2D0E5;" d="M158.286,61.167c0,3.038-2.542,5.5-5.679,5.5c-3.136,0-5.679-2.462-5.679-5.5
								c0-3.038,2.543-5.5,5.679-5.5C155.744,55.667,158.286,58.129,158.286,61.167z"/>
							<path style="fill:#A2D0E5;" d="M76.459,15.733c0,3.038-2.543,5.5-5.679,5.5c-3.136,0-5.679-2.462-5.679-5.5
								s2.542-5.5,5.679-5.5C73.916,10.233,76.459,12.696,76.459,15.733z"/>
							<ellipse style="fill:#A2D0E5;" cx="51.79" cy="247.739" rx="5.679" ry="5.5"/>
							<path style="fill:#A2D0E5;" d="M146.089,256.275c0,1.392-1.165,2.521-2.602,2.521c-1.438,0-2.602-1.129-2.602-2.521
								c0-1.392,1.165-2.52,2.602-2.52C144.924,253.755,146.089,254.884,146.089,256.275z"/>
							<path style="fill:#A2D0E5;" d="M180.141,84.914c0,1.392-1.165,2.521-2.603,2.521c-1.437,0-2.603-1.129-2.603-2.521
								c0-1.392,1.166-2.521,2.603-2.521C178.976,82.393,180.141,83.522,180.141,84.914z"/>
							<path style="fill:#A2D0E5;" d="M20.123,247.739c0,1.392-1.165,2.52-2.602,2.52c-1.438,0-2.602-1.129-2.602-2.52
								s1.165-2.521,2.602-2.521C18.958,245.219,20.123,246.348,20.123,247.739z"/>
							<path style="fill:#A2D0E5;" d="M124.751,21.233c0,1.392-1.165,2.521-2.603,2.521c-1.437,0-2.603-1.129-2.603-2.521
								s1.166-2.521,2.603-2.521C123.586,18.713,124.751,19.842,124.751,21.233z"/>
							<path style="fill:#A2D0E5;" d="M217.804,170.896c0,1.392-1.166,2.521-2.603,2.521c-1.438,0-2.603-1.129-2.603-2.521
								s1.165-2.52,2.603-2.52C216.638,168.376,217.804,169.504,217.804,170.896z"/>
						</g>
						<path style="fill:#F9AE2E;" d="M281.148,191.341c0,0,38.579-7.064,91.66-2.832l-11.054-39.589h-73.271L281.148,191.341z"/>
						<g>
							<g>
								<polygon style="fill:#FF957D;" points="277.776,242.819 277.532,225.121 242.746,225.662 242.993,243.348 								"/>
							</g>
							<g>
								<polygon style="fill:#2E333B;" points="286.551,244.333 309.209,203.032 290.384,193.341 273.769,223.636 250.096,223.974 
									250.01,244.615 								"/>
								
									<rect x="239.476" y="230.574" transform="matrix(0.0136 -0.9999 0.9999 0.0136 13.5271 482.4714)" style="fill:#F9AE2E;" width="23.661" height="7.611"/>
							</g>
						</g>
						<g>
							<polygon style="fill:#2E333B;" points="370.222,401.043 340.005,404.965 323.246,283.89 353.467,279.967 							"/>
							<polygon style="fill:#262A30;" points="359.479,323.412 328.127,319.144 323.246,283.89 353.467,279.967 							"/>
							<g>
								<path style="fill:#2E333B;" d="M356.6,408.449c16.713,0,33.361,8.423,33.361,18.995c0,0.979-0.131,1.937-0.316,2.879
									c-5.855,1.704-24.768,6.066-49.979,0.333c-0.234-1.048-0.383-2.119-0.383-3.212
									C339.282,422.201,340.179,408.449,356.6,408.449z"/>
								<polygon style="fill:#F9AE2E;" points="339.259,413.173 373.173,408.771 371.287,395.136 337.371,399.539 								"/>
							</g>
						</g>
						<g>
							<polygon style="fill:#2E333B;" points="278.425,401.043 308.645,404.965 325.401,283.89 295.184,279.967 							"/>
							<polygon style="fill:#262A30;" points="289.282,322.597 320.521,319.144 325.401,283.89 295.184,279.967 							"/>
							<g>
								<path style="fill:#2E333B;" d="M292.05,408.449c-16.714,0-33.364,8.423-33.364,18.995c0,0.979,0.131,1.937,0.318,2.879
									c5.857,1.704,24.767,6.066,49.978,0.333c0.235-1.048,0.387-2.119,0.387-3.212
									C309.368,422.201,308.469,408.449,292.05,408.449z"/>
								<polygon style="fill:#F9AE2E;" points="309.39,413.173 275.476,408.771 277.362,395.136 311.274,399.539 								"/>
							</g>
						</g>
						<g>
							<path style="fill:#F28270;" d="M301.61,157.394c0.078,4.311-3.47,7.865-7.919,7.94c-4.452,0.075-8.122-3.36-8.198-7.671
								c-0.079-4.31,3.468-7.866,7.918-7.939C297.863,149.648,301.531,153.083,301.61,157.394z"/>
							<path style="fill:#2E333B;" d="M287.055,133.601c0,0-7.069,23.272,7.136,25.688
								C299.55,160.199,293.111,124.3,287.055,133.601z"/>
							<path style="fill:#FF957D;" d="M357.203,148.35c0.39,21.862-14.462,39.841-33.179,40.156
								c-18.713,0.315-34.202-17.153-34.594-39.015c-0.395-21.862,14.462-39.839,33.176-40.154
								C341.321,109.021,356.81,126.488,357.203,148.35z"/>
							<g>
								<path style="fill:#2E333B;" d="M322.477,151.855c0.261-0.004,0.523-0.094,0.735-0.274c4.292-3.64,8.541-0.298,8.719-0.153
									c0.485,0.393,1.209,0.329,1.616-0.145c0.401-0.471,0.338-1.17-0.151-1.563c-2.033-1.639-7.098-3.71-11.695,0.189
									c-0.477,0.404-0.526,1.106-0.105,1.568C321.825,151.733,322.151,151.861,322.477,151.855z"/>
								<path style="fill:#2E333B;" d="M306.132,152.183c0.326-0.005,0.647-0.144,0.869-0.409c0.4-0.475,0.328-1.174-0.163-1.562
									c-4.737-3.743-9.723-1.504-11.697,0.205c-0.473,0.408-0.514,1.11-0.095,1.567c0.423,0.458,1.146,0.497,1.617,0.092
									c0.189-0.16,4.342-3.604,8.726-0.143C305.606,152.105,305.868,152.188,306.132,152.183z"/>
								<path style="fill:#2E333B;" d="M299.984,157.21c0.042,2.234,1.163,4.026,2.51,4.003c1.346-0.022,2.404-1.851,2.362-4.084
									c-0.039-2.233-1.163-4.026-2.507-4.004C301.003,153.148,299.945,154.976,299.984,157.21z"/>
								<path style="fill:#2E333B;" d="M323.432,156.764c0.041,2.233,1.162,4.026,2.509,4.003c1.347-0.023,2.405-1.853,2.364-4.086
									c-0.039-2.232-1.163-4.025-2.508-4.003C324.449,152.701,323.393,154.53,323.432,156.764z"/>
								<g>
									<path style="fill:#FFFFFF;" d="M306.872,168.896l17.995,0.012c0,0,1.435,3.27-0.348,7.02h-17.559
										C306.961,175.928,308.27,171.868,306.872,168.896z"/>
									<path style="fill:#DEEEFC;" d="M307.432,173.601l6.963-1.189l-6.899-0.859
										C307.538,172.275,307.504,172.977,307.432,173.601z"/>
									<path style="fill:#DEEEFC;" d="M325.266,173.6c0.133-0.75,0.167-1.45,0.138-2.065l-9.603,0.878L325.266,173.6z"/>
								</g>
								<path style="fill:#F28270;" d="M310.233,163.785c-0.001,0.028-0.013,0.055-0.013,0.082c0.017,1.292,1.744,2.297,3.852,2.252
									c2.065-0.045,3.719-1.082,3.776-2.334H310.233z"/>
							</g>
							<path style="fill:#2E333B;" d="M350.766,112.669c-2.906-8.123-8.689-6.727-11.63-6.942c0,0-7.665-5.421-24.563-2.283
								c-16.898,3.139-30.177,22.393-29.009,36.964c1.17,14.571,33.168-5.505,33.168-5.505s-7.938,11.107,1.404,8.73
								c9.346-2.378,13.768-8.985,13.768-8.985s-4.795,19.619,14.605,4.067c0,0,1.836,23.44,9.63,16.332
								C365.932,147.937,360.043,106.486,350.766,112.669z"/>
							<path style="fill:#FF957D;" d="M365.732,156.271c0.077,4.31-3.47,7.866-7.923,7.941c-4.448,0.074-8.117-3.359-8.195-7.671
								c-0.077-4.31,3.469-7.864,7.918-7.939C361.984,148.527,365.652,151.96,365.732,156.271z"/>
						</g>
						<g>
							<g>
								<g>
									<polygon style="fill:#2E333B;" points="331.143,278.49 317.361,313.607 278.106,317.034 290.359,278.524 									"/>
									<polygon style="fill:#F9AE2E;" points="327.929,278.492 315.21,310.905 279.051,314.063 278.106,317.034 317.361,313.607 
										331.143,278.49 									"/>
								</g>
								<g>
									<polygon style="fill:#2E333B;" points="316.305,278.49 330.085,313.607 369.34,317.034 357.089,278.524 									"/>
									<polygon style="fill:#F9AE2E;" points="319.518,278.492 332.238,310.905 368.393,314.063 369.34,317.034 330.085,313.607 
										316.305,278.49 									"/>
								</g>
							</g>
							<g>
								<rect x="310.148" y="186.099" style="fill:#2E333B;" width="26.07" height="6.153"/>
								<polygon style="fill:#2E333B;" points="357.089,278.524 290.359,278.524 290.359,193.345 323.09,190.738 357.089,193.345 
																	"/>
								<rect x="316.305" y="186.099" style="fill:#F9AE2E;" width="3.47" height="87.635"/>
								<rect x="327.673" y="186.099" style="fill:#F9AE2E;" width="3.47" height="87.635"/>
							</g>
							<g>
								<rect x="290.303" y="220.876" style="fill:#F9AE2E;" width="66.786" height="16.434"/>
								<rect x="290.303" y="223.078" style="fill:#FFDC48;" width="66.786" height="12.03"/>
							</g>
							<g>
								<rect x="290.359" y="268.942" style="fill:#F9AE2E;" width="66.729" height="9.582"/>
								<g>
									<rect x="313.497" y="266.518" style="fill:#FFFFFF;" width="20.452" height="14.434"/>
									<rect x="316.305" y="268.942" style="fill:#2E333B;" width="14.838" height="9.582"/>
								</g>
							</g>
						</g>
						<path style="fill:none;stroke:#E51C34;stroke-width:10.1612;stroke-miterlimit:10;" d="M246.148,252.166
							c0,0,17.884,20.459,31.628,19.606c18.268-1.133,43.048-21.698,79.313-0.985c36.265,20.713,88.577,94.483,164.639,42.182"/>
						<g>
							<g>
								<path style="fill:#F28270;" d="M352.448,270.58c3.304,0.806,7.604-0.808,9.603-3.604c1.996-2.797,0.936-5.72-2.368-6.525
									c-3.305-0.805-7.603,0.809-9.603,3.605C348.083,266.854,349.141,269.774,352.448,270.58z"/>
								<polygon style="fill:#FF957D;" points="387.342,233.979 369.791,229.093 360.272,261.503 377.826,266.386 								"/>
								<path style="fill:#FF957D;" d="M370.911,288.943c8.247-3.11,12.327-12.106,9.12-20.091
									c-3.213-7.985-12.51-11.94-20.752-8.828c-8.24,3.112-12.323,12.107-9.112,20.095
									C353.38,288.104,362.667,292.057,370.911,288.943z"/>
								<path style="fill:#F28270;" d="M353.176,277.339l-1.09,0.57c0.049,0.087,0.425,0.726,1.201,1.591
									c-0.325,0.444-1.08,1.246-2.541,1.866c0.184,0.363,0.39,0.711,0.6,1.055c1.458-0.641,2.332-1.462,2.804-2.04
									c1.065,0.999,2.603,2.131,4.69,3.09c-0.261,0.811-0.978,2.553-2.54,3.97c0.357,0.228,0.718,0.447,1.093,0.646
									c1.534-1.49,2.277-3.194,2.59-4.129c1.609,0.623,3.514,1.119,5.734,1.396c0.046,0.813,0.007,2.697-1.046,4.647
									c0.459,0.013,0.923,0,1.386-0.027c0.838-1.834,0.937-3.537,0.906-4.476c0.757,0.061,1.545,0.099,2.373,0.103l0.008-1.199
									C357.25,284.324,353.216,277.409,353.176,277.339z"/>
							</g>
							<g>
								<polygon style="fill:#2E333B;" points="391.378,226.281 357.099,193.341 342.088,207.998 367.23,232.155 360.725,254.201 
									381.102,260.244 								"/>
								<polygon style="fill:#F9AE2E;" points="383.709,257.21 360.416,250.077 358.117,257.103 381.41,264.238 								"/>
							</g>
						</g>
						<g>
							<path style="fill:#FFDC48;" d="M332.802,148.92l8.286,45.623c0,0,23.362,2.473,31.721-6.034l-8.494-39.589H332.802z"/>
							<path style="fill:#FFDC48;" d="M292.076,148.92l-1.94,45.674c0,0-5.801,0.011-8.988-3.254l4.671-42.42H292.076z"/>
						</g>
						<g>
							<g>
								<path style="fill:#E51C34;" d="M361.779,144.858V126.69c0-15.261-17.179-27.641-38.373-27.641
									c-21.19,0-38.368,12.38-38.368,27.641v18.168H361.779z"/>
								<path style="fill:#BC1330;" d="M340.806,102.076c4.65,5.314,7.429,11.841,7.429,18.928v23.854h13.545V126.69
									C361.779,115.94,353.245,106.648,340.806,102.076z"/>
							</g>
							<polygon style="fill:#FFFFFF;" points="319.811,98.459 306.788,100.344 306.788,144.858 319.811,144.858 							"/>
							<polygon style="fill:#F9AE2E;" points="304.463,144.858 301.009,132.401 311.991,121.658 325.591,131.785 323.233,144.858 
															"/>
							<rect x="280.501" y="144.858" style="fill:#A50E2E;" width="85.63" height="4.063"/>
							<rect x="340.806" y="144.858" style="fill:#910C2F;" width="25.325" height="4.063"/>
						</g>
						<g>
							<path style="fill:#FF957D;" d="M241.462,247.428c6.696-5.121,7.84-14.531,2.551-21.015c-5.286-6.485-15-7.589-21.694-2.471
								c-6.699,5.122-7.839,14.529-2.554,21.014C225.053,251.441,234.765,252.547,241.462,247.428z"/>
							<path style="fill:#F28270;" d="M223.453,245.727c-4.956-4.336-7.369-9.966-6.437-14.079c0.118-0.403,0.248-0.802,0.398-1.195
								c0.077-0.17,0.142-0.344,0.228-0.507c-0.003-0.008-0.006-0.016-0.011-0.023c0.979-2.273,2.55-4.346,4.687-5.981
								c2.332-1.782,5.029-2.81,7.779-3.119c0.59,0.63,1.111,1.43,1.478,2.36c0.756,1.906,0.684,3.822-0.053,5.004
								c1.744,0.85,3.482,1.991,5.105,3.411c5.14,4.491,7.543,10.379,6.321,14.525c-0.461,0.459-0.953,0.895-1.488,1.304
								c-2.582,1.974-5.614,3.018-8.666,3.188C229.719,249.965,226.395,248.304,223.453,245.727z"/>
							<g>
								<g>
									<polygon style="fill:#FFFFFF;" points="207.889,217.816 241.789,260.777 254.71,248.76 212.368,213.844 									"/>
									<polygon style="fill:#D1D0CF;" points="207.889,217.816 241.789,260.777 247.018,255.914 208.906,216.915 									"/>
								</g>
								<polygon style="fill:#F9AE2E;" points="241.176,261.123 255.092,248.183 258.319,249.831 242.764,264.369 								"/>
								<polygon style="fill:#F9AE2E;" points="206.111,215.835 210.427,212.06 213.012,213.475 207.079,218.693 								"/>
							</g>
							<path style="fill:#FF957D;" d="M239.889,249.925c3.639-3.902,1.456-11.554-4.875-17.093
								c-6.331-5.538-14.412-6.864-18.054-2.961c-3.637,3.902-1.454,11.554,4.878,17.092
								C228.171,252.501,236.249,253.828,239.889,249.925z"/>
							<path style="fill:#F28270;" d="M225.929,228.327c-2.524,7.136-9,10.921-9.613,11.266c0.16,0.372,0.336,0.744,0.528,1.115
								c0.007-0.003,0.016-0.003,0.023-0.007c0.305-0.162,7.467-4.078,10.261-11.979c0.048-0.136,0.027-0.271-0.018-0.397
								c-0.325-0.099-0.647-0.196-0.967-0.274C226.051,228.122,225.971,228.21,225.929,228.327z"/>
							<path style="fill:#F28270;" d="M234.995,232.814c-0.052,0.054-0.095,0.112-0.126,0.181
								c-3.265,7.773-13.672,13.127-13.778,13.183c-0.021,0.01-0.034,0.028-0.052,0.041c0.261,0.25,0.52,0.501,0.798,0.744
								c0.054,0.046,0.109,0.087,0.163,0.133c1.819-0.978,10.694-6.035,13.934-13.405c-0.299-0.29-0.6-0.579-0.921-0.858
								C235.008,232.825,235.001,232.821,234.995,232.814z"/>
							<path style="fill:#F28270;" d="M240.581,240.304c-0.191-0.448-0.402-0.897-0.641-1.346c-0.141,0.07-0.256,0.189-0.313,0.345
								c-2.469,7.004-10.718,11.393-10.803,11.438c-0.136,0.071-0.226,0.186-0.28,0.314c0.47,0.18,0.938,0.337,1.402,0.474
								C231.808,250.453,238.1,246.448,240.581,240.304z"/>
							<path style="fill:#FF957D;" d="M227.92,229.952c2.037-0.757,2.892-3.39,1.902-5.878c-0.985-2.489-3.437-3.894-5.471-3.137
								c-2.036,0.757-2.889,3.387-1.901,5.878C223.435,229.303,225.883,230.708,227.92,229.952z"/>
						</g>
					</g>
				</g>
				<rect y="427.444" style="fill:#8A5448;" width="500" height="72.556"/>
				<g>
					<g>
						<g>
							<path style="fill:#F9AE2E;" d="M-41.683,371.811c0,0-58.345-39.021,0-91.504c0,0-6.946,64.776,31.951,31.206
								c49.512-42.733-90.295-38.298-6.945-141.847c0,0-27.784,80.853,25.004,45.391c52.788-35.461-63.901-59.575,25.004-167.379
								c0,0-45.842,79.435,0,100.711c45.842,21.277,36.118-52.483,36.118-52.483s23.952,42.553,0.863,80.852
								c-23.089,38.299,3.164,113.479,36.574,22.696c0,0,12.571,29.766-11.043,63.82c-23.616,34.054,11.113,70.934,23.614,22.705
								c0,0,15.14,43.974-12.571,79.435C79.173,400.878-0.009,406.576-41.683,371.811z"/>
							<path style="fill:#F9AE2E;" d="M129.043,271.309c0,0-9.672-10.436-0.485-24.928c9.188-14.491,4.044-19.736,4.044-19.736
								s12.551,13.086,7.427,23.097C134.907,259.754,129.127,262.485,129.043,271.309z"/>
							<path style="fill:#F9AE2E;" d="M37.58,113.318c0,0-4.52-0.992-1.597-11.473c2.156-7.726,12.92-15.309,8.374-30.356
								c0,0,7.113,7.551,7.958,15.502C53.81,101.076,50.649,119.992,37.58,113.318z"/>
						</g>
						<g>
							<path style="fill:#FFDC48;" d="M71.824,314.031c0,0-9.178-6.73-4.19-19.668c4.989-12.938,0.155-16.273,0.155-16.273
								s11.839,8.367,9.353,17.112C74.654,303.945,70.542,307.029,71.824,314.031z"/>
							<path style="fill:#FFDC48;" d="M54.5,203.079c0,0-10.574-4.062-9.052-17.88c1.525-13.817-3.991-15.755-3.991-15.755
								s13.561,4.938,13.386,14.042C54.668,192.588,51.481,196.657,54.5,203.079z"/>
							<path style="fill:#FFDC48;" d="M10.094,361.975c0,0-11.197-1.543-12.74-15.357c-1.543-13.816-7.345-14.444-7.345-14.444
								s14.3,1.713,16.124,10.626C7.957,351.711,5.742,356.404,10.094,361.975z"/>
							<path style="fill:#FFDC48;" d="M56.885,355.044c9.383-9.861,12.547-25.622,5.225-35.396
								c-8.929-11.921-5.491-18.931-0.892-30.708c4.6-11.779-10.092-28.89-10.092-28.89c6.18,13.321-4.12,24.54-14.988,9.115
								c-10.868-15.426,4.688-30.15,8.808-42.77c4.12-12.621-8.808-42.86-8.808-42.86s5.375,18.32-6.538,35.148
								c-11.914,16.828-28.6,32.251-8.8,53.288c13.688,14.541,8.45,27.696,3.914,34.435c-1.216,1.368-2.536,2.886-3.902,4.731
								c-0.001,0.001-0.011,0.01-0.011,0.01l0.001,0.004c-2.431,3.284-5.009,7.62-7.417,14.107
								c-9.342,25.171,12.476,36.013,12.476,36.013c7.455,2.891,13.792,2.618,18.123,1.428
								C49.625,361.147,55.165,357.208,56.885,355.044z"/>
						</g>
					</g>
					<g>
						<g>
							<path style="fill:#F9AE2E;" d="M-21.972,465.45c0,0-29.526-8.765-35.019-54.69c0,0,13.39,19.982,17.51,6.311
								c4.12-13.673-33.989-23.138,0-75.724c0,0-8.24,43.646,11.33,35.759c19.569-7.889-12.36-57.846,32.444-85.716
								c0,0-2.706,30.708,14.289,47.535c16.995,16.827,14.299,28.096,17.125,39.495c5.15,20.771,15.45,10.78,16.995-18.143
								c0,0,35.878,68.012-8.755,100.966C16.2,481.729-21.972,465.45-21.972,465.45z"/>
							<path style="fill:#F9AE2E;" d="M46.682,347.041c0,0-13.073-5.317-10.703-22.41c2.369-17.092-4.457-19.643-4.457-19.643
								s16.774,6.486,16.249,17.768C47.244,334.039,43.126,338.998,46.682,347.041z"/>
							<path style="fill:#F9AE2E;" d="M-33.71,315.098c0,0-4.52-0.991-1.597-11.471c2.154-7.726,12.919-15.311,8.372-30.358
								c0,0,7.115,7.553,7.959,15.503C-17.48,302.856-20.64,321.772-33.71,315.098z"/>
						</g>
						<g>
							<path style="fill:#FFDC48;" d="M-6.888,393.642c0,0-9.177-6.729-4.189-19.666c4.988-12.939,0.155-16.274,0.155-16.274
								s11.839,8.367,9.352,17.112C-4.056,383.557-8.169,386.64-6.888,393.642z"/>
							<path style="fill:#FFDC48;" d="M-1.877,457.186c0,0-21.818-10.841-12.477-36.012c9.342-25.171,21.271-18.082,17.076-41.989
								c0,0,17.717,9.56,14.959,32.717c-1.217,10.227,8.42,5.33,4.139-9.646c0,0,29.631,47.278-5.575,56.358
								C11.897,459.736,5.578,460.078-1.877,457.186z"/>
						</g>
					</g>
					<g>
						<g>
							<path style="fill:#F9AE2E;" d="M145.489,480.57c0,0,40.631-6.828,60.175-38.864c16.862-27.637-11.179-60.665-11.179-60.665
								s4.256,35.532-17.891,31.338c-22.146-4.192,14.886-27.924,9.57-41.266c-5.316-13.343-19.716-26.647-16.287-35.399
								c3.428-8.753,9.793-26.729-4.017-39.974c0,0,2.742,16.732-0.827,22.205c-3.569,5.47-8.872,11.817-6.129,23.721
								c2.743,11.903-9.257,14.355-11.314,5.602c-2.058-8.753,12.683-19.941,4.8-29.409c-7.882-9.471-14.452-17.998-8.728-27.213
								c5.724-9.215,25.491-21.035,3.395-38.75c0,0,7.047,15.547-8.039,25.701c-15.086,10.151-16.341,22.041-12.798,33.602
								c3.541,11.561,0.601,23.601-7.888,23.085c-8.49-0.514-4.229-11.524,0-23.427c4.228-11.905-12.696-19.895-12.696-19.895
								s9.403,21.031-3.637,28.165c-13.041,7.133-15.615,20.651-9.356,34.898c6.259,14.248-18.248,26.393-18.166,16.471
								c0.081-9.926,16.145-27.785,6.056-57.893c0,0-0.211,27.906-10.636,35.661c-10.425,7.755-11.99,21.389-6.75,36.278
								c5.239,14.889-0.336,33.095-6.634,29.243c-6.298-3.85-8.711-18.535-3.599-31.423c0,0-31.03,48.14-9.771,70.897
								C60.549,471.896,92.517,491.073,145.489,480.57z"/>
							<path style="fill:#F9AE2E;" d="M204.681,318.329c0,0,9.639-13.895,2.268-35.895c-7.371-22.001-2.268-28.948-2.268-28.948
								s-12.473,17.369-8.504,32.422C200.146,300.961,205.248,305.592,204.681,318.329z"/>
							<path style="fill:#F9AE2E;" d="M90.881,312.522c0,0,9.948-9.124,2.341-23.572c-7.608-14.449-2.341-19.012-2.341-19.012
								s-12.875,11.407-8.778,21.293C86.199,301.114,91.467,304.157,90.881,312.522z"/>
						</g>
						<g>
							<path style="fill:#FFDC48;" d="M141.268,467.734c0,0,19.824-5.512,23.512-34.4c0,0-8.99,12.57-11.756,3.97
								c-2.766-8.601,22.819-14.555,0-47.633c0,0,5.531,27.455-7.606,22.493c-13.138-4.962,8.297-36.386-21.782-53.917
								c0,0,1.815,19.316-9.594,29.901c-11.41,10.584-9.6,17.673-11.497,24.842c-3.458,13.067-10.372,6.781-11.41-11.411
								c0,0-24.088,42.78,5.878,63.51C115.641,477.976,141.268,467.734,141.268,467.734z"/>
							<path style="fill:#FFDC48;" d="M98.059,391.198c0,0,10.273-3.185,9.664-16.384c-0.609-13.199,4.74-14.69,4.74-14.69
								s-13.161,3.828-13.544,12.471C98.536,381.239,101.312,385.299,98.059,391.198z"/>
							<path style="fill:#FFDC48;" d="M139.226,365.603c0,0,8.721-6.393,3.979-18.688c-4.739-12.295-0.145-15.465-0.145-15.465
								s-11.251,7.952-8.889,16.261C136.534,356.021,140.442,358.949,139.226,365.603z"/>
						</g>
						<path style="fill:#F9AE2E;" d="M174.121,253.163c0,0,4.394,0,3.728-10.332c-0.491-7.617-9.006-16.858-1.841-29.909
							c0,0-8.087,5.563-10.427,12.779C161.436,238.481,160.674,256.699,174.121,253.163z"/>
					</g>
				</g>
				<g>
					<g>
						<rect x="28" y="452.911" style="fill:#7C473E;" width="75.258" height="47.089"/>
						<rect x="176.947" y="452.911" style="fill:#7C473E;" width="103.258" height="47.089"/>
						<rect x="421.66" y="452.911" style="fill:#7C473E;" width="51.629" height="47.089"/>
						<rect x="80.5" y="445.001" style="fill:#7C473E;" width="69.5" height="54.999"/>
						<rect x="262.946" y="440.5" style="fill:#7C473E;" width="69.5" height="59.5"/>
						<rect x="139" y="463.723" style="fill:#7C473E;" width="42.734" height="36.277"/>
						<rect x="379.087" y="470.5" style="fill:#7C473E;" width="53.246" height="29.5"/>
						<rect x="326.825" y="460" style="fill:#7C473E;" width="62.675" height="40"/>
						<rect y="438.334" style="fill:#7C473E;" width="36.5" height="61.666"/>
						<rect x="463.5" y="440.5" style="fill:#7C473E;" width="36.5" height="59.5"/>
					</g>
					<g>
						<g>
							<g>
								<rect x="396.742" y="478.492" style="fill:#72413B;" width="75.258" height="21.508"/>
							</g>
							<g>
								<rect x="219.795" y="478.492" style="fill:#72413B;" width="103.258" height="21.508"/>
							</g>
							<g>
								<rect x="26.711" y="478.492" style="fill:#72413B;" width="51.629" height="21.508"/>
							</g>
							<g>
								<rect x="350" y="474.88" style="fill:#72413B;" width="69.5" height="25.12"/>
							</g>
							<g>
								<rect x="167.554" y="472.824" style="fill:#72413B;" width="69.5" height="27.176"/>
							</g>
							<g>
								<rect x="318.266" y="483.431" style="fill:#72413B;" width="42.734" height="16.569"/>
							</g>
							<g>
								<rect x="67.667" y="486.526" style="fill:#72413B;" width="53.246" height="13.474"/>
							</g>
							<g>
								<rect x="110.5" y="481.73" style="fill:#72413B;" width="62.675" height="18.27"/>
							</g>
							<g>
								<rect x="463.5" y="471.834" style="fill:#72413B;" width="36.5" height="28.166"/>
							</g>
							<g>
								<rect y="472.824" style="fill:#72413B;" width="36.5" height="27.176"/>
							</g>
						</g>
					</g>
				</g>
			</g>
		</g>
	</g>
</g>
</svg>
